<svg xmlns="http://www.w3.org/2000/svg" width="20.724" height="18.5" viewBox="0 0 20.724 18.5">
  <g id="map_1_" data-name="map (1)" transform="translate(0 -27.465)">
    <g id="Group_10831" data-name="Group 10831" transform="translate(5.308 34.109)">
      <path id="Path_12694" data-name="Path 12694" d="M368.489,203.107l-1.628-8.97a.3.3,0,0,0-.151-.211l-4.1-2.279a.3.3,0,0,0-.171-.037l.746,9.617-.025.011,4.9,2.2a.3.3,0,0,0,.424-.331Z" transform="translate(-353.078 -191.609)" fill="#44c868"/>
      <path id="Path_12695" data-name="Path 12695" d="M136.2,193.823,132,191.64a.3.3,0,0,0-.161-.033.315.315,0,0,1,.044,0l-.746,9.617,4.929,2.211a.305.305,0,0,0,.125.027h0Z" transform="translate(-131.142 -191.607)" fill="#44c868"/>
    </g>
    <g id="Group_10832" data-name="Group 10832" transform="translate(0 34.109)">
      <path id="Path_12696" data-name="Path 12696" d="M6.054,191.611a.3.3,0,0,0-.171.037l-4.1,2.279a.3.3,0,0,0-.151.211l-1.628,8.97a.3.3,0,0,0,.424.331l4.877-2.188Z" transform="translate(0 -191.61)" fill="#4ce166"/>
      <path id="Path_12697" data-name="Path 12697" d="M260.308,191.628a.3.3,0,0,0-.117.033L256,193.844v9.64h0a.3.3,0,0,0,.125-.027l4.929-2.211Z" transform="translate(-245.638 -191.627)" fill="#4ce166"/>
    </g>
    <path id="Path_12698" data-name="Path 12698" d="M20.314,262.571l-.331,1.822,4.9-2.587.114-1.467.019-.243Z" transform="translate(-19.174 -223.216)" fill="#ffdb56"/>
    <path id="Path_12699" data-name="Path 12699" d="M5.75,288.294l-.044.569-4.9,2.587-.8,4.429a.3.3,0,0,0,.424.331l4.877-2.188.444-5.728Z" transform="translate(0 -250.272)" fill="#a8eefc"/>
    <g id="Group_10833" data-name="Group 10833" transform="translate(5.706 35.152)">
      <path id="Path_12700" data-name="Path 12700" d="M145.634,260.744l-4.524-.647-.133,1.71,4.656,7.07v-2.571l-2.778-4.375,2.779.332Z" transform="translate(-140.977 -258.368)" fill="#ffbb24"/>
      <path id="Path_12701" data-name="Path 12701" d="M369.1,218.465l-1.969-1.095-1.864.435.023.3.092,1.187Z" transform="translate(-356.191 -217.37)" fill="#ffbb24"/>
    </g>
    <path id="Path_12702" data-name="Path 12702" d="M260.732,231.748l-.176-2.277h0l-.1-1.344-4.422,1.941v1.52l2.888-1.256Z" transform="translate(-245.667 -192.541)" fill="#ffdb56"/>
    <path id="Path_12703" data-name="Path 12703" d="M373.938,273.43l-.409-2.253-5.41-6.279.165,2.132,5.548,6.687A.3.3,0,0,0,373.938,273.43Z" transform="translate(-353.219 -227.823)" fill="#ffbb24"/>
    <path id="Path_12704" data-name="Path 12704" d="M155.616,27.465a4.258,4.258,0,0,0-4.255,4.251,7.42,7.42,0,0,0,2.046,4.627,14.541,14.541,0,0,0,2.022,1.988.3.3,0,0,0,.372,0,14.543,14.543,0,0,0,2.022-1.988,7.42,7.42,0,0,0,2.046-4.627A4.258,4.258,0,0,0,155.616,27.465Zm1.576,4.251a1.576,1.576,0,1,1-1.576-1.574A1.575,1.575,0,0,1,157.191,31.716Z" transform="translate(-145.234 0)" fill="#ff4a4a"/>
    <path id="Path_12705" data-name="Path 12705" d="M243.471,27.465a4.279,4.279,0,0,0-.549.035,4.259,4.259,0,0,1,3.706,4.216,7.42,7.42,0,0,1-2.046,4.627,15.214,15.214,0,0,1-1.66,1.687c.213.184.348.29.363.3a.3.3,0,0,0,.372,0,14.543,14.543,0,0,0,2.022-1.988,7.42,7.42,0,0,0,2.046-4.627A4.258,4.258,0,0,0,243.471,27.465Z" transform="translate(-233.089 0)" fill="#e7343f"/>
    <path id="Path_12706" data-name="Path 12706" d="M256.125,416.355l1.833-.822L256,413.507v2.875h0A.3.3,0,0,0,256.125,416.355Z" transform="translate(-245.638 -370.417)" fill="#ffdb56"/>
    <g id="Group_10834" data-name="Group 10834" transform="translate(5.308 36.246)">
      <path id="Path_12707" data-name="Path 12707" d="M372.309,244.811a.3.3,0,0,0-.151-.211l-.323-.179-3.717.829h0l5.41,6.279Z" transform="translate(-358.526 -244.42)" fill="#1ea4e9"/>
      <path id="Path_12708" data-name="Path 12708" d="M136.194,309.72h0v-.3l-4.656-7.07-.4,5.136,4.929,2.211A.3.3,0,0,0,136.194,309.72Z" transform="translate(-131.14 -300.001)" fill="#1ea4e9"/>
    </g>
  </g>
</svg>
