<svg xmlns="http://www.w3.org/2000/svg" width="21.6" height="20.694" viewBox="0 0 21.6 20.694">
  <path id="Action_Taken" data-name="Action Taken" d="M8.8,14.294A6.381,6.381,0,0,1,11.2,9.3V7.094a1.6,1.6,0,0,1,1.6-1.6h4.8a1.6,1.6,0,0,1,1.6,1.6v2a1.2,1.2,0,0,1-1.13,1.193l-.007.007H15.04l-.014.018a4.009,4.009,0,1,0,2.549.782H18a2,2,0,0,0,1.834-1.206A6.4,6.4,0,1,1,8.8,14.294Zm6,5.2a.4.4,0,1,0,.4-.4A.4.4,0,0,0,14.8,19.494Zm-.4-11.6a.8.8,0,1,0,.8-.8A.8.8,0,0,0,14.4,7.894ZM0,12.694A6.381,6.381,0,0,1,2.4,7.7V5.494A1.6,1.6,0,0,1,4,3.893H8.8a1.6,1.6,0,0,1,1.6,1.6v2A1.2,1.2,0,0,1,9.27,8.686l-.007.007H6.24l-.014.018A3.993,3.993,0,0,0,6.4,16.693a3.954,3.954,0,0,0,1.893-.5,7.117,7.117,0,0,0,1.024,2.19A6.392,6.392,0,0,1,0,12.694Zm6,5.2a.4.4,0,1,0,.4-.4A.4.4,0,0,0,6,17.894Zm-.4-11.6a.8.8,0,1,0,.8-.8A.8.8,0,0,0,5.6,6.294Zm9.546-2.408V1.64a.546.546,0,0,0-.545-.546H8.067a.546.546,0,0,0-.544.546v.826l-1.089.355V1.64A1.638,1.638,0,0,1,8.067,0H14.6a1.639,1.639,0,0,1,1.634,1.64v2.6Z" fill="#a0c7ef"/>
</svg>
