<svg id="Assessment_blue" xmlns="http://www.w3.org/2000/svg" width="12.132" height="14.129" viewBox="0 0 12.132 14.129">
  <path id="Path_11727" data-name="Path 11727" d="M345,395.753v2.87l2.576-2.87Z" transform="translate(-335.488 -384.502)" fill="#11c6ff"/>
  <g id="Group_10497" data-name="Group 10497" transform="translate(0)">
    <path id="Path_11728" data-name="Path 11728" d="M157.741,160.963a2.07,2.07,0,1,0,2.442,2.442h-2.442Z" transform="translate(-153.601 -156.521)" fill="#11c6ff"/>
    <path id="Path_11729" data-name="Path 11729" d="M66.064,0V14.129l8.519,0V10.093h3.586L78.2,0ZM68.38,12.473h-.828v-.828h.828Zm3.725,0h-2.9v-.828h2.9Zm1.41-6a2.9,2.9,0,1,1-2.9-2.9h.414V6.057h2.484Zm1.36-1.24H71.86V2.124h.414a2.62,2.62,0,0,1,2.617,2.617C74.891,4.767,74.875,5.23,74.875,5.23Z" transform="translate(-66.064)" fill="#11c6ff"/>
    <path id="Path_11730" data-name="Path 11730" d="M306.085,108.725v1.4h1.343A1.8,1.8,0,0,0,306.085,108.725Z" transform="translate(-299.462 -105.725)" fill="#11c6ff"/>
  </g>
</svg>
