<svg xmlns="http://www.w3.org/2000/svg" width="17.373" height="14.871" viewBox="0 0 17.373 14.871">
  <g id="cctv_blue" transform="translate(0 -36.868)">
    <g id="Group_10509" data-name="Group 10509" transform="translate(1.533 36.868)">
      <g id="Group_10508" data-name="Group 10508" transform="translate(0 0)">
        <path id="Path_11753" data-name="Path 11753" d="M47.685,36.892a.533.533,0,0,0-.667.351L45.2,43.08a.533.533,0,0,0,.351.667l9.41,2.924,6.026-5.645Z" transform="translate(-45.18 -36.868)" fill="#11c6ff"/>
      </g>
    </g>
    <g id="Group_10511" data-name="Group 10511" transform="translate(13.296 42.993)">
      <g id="Group_10510" data-name="Group 10510" transform="translate(0 0)">
        <path id="Path_11754" data-name="Path 11754" d="M395.528,217.432l-.195-.06-3.508,3.286,2.463.765a.533.533,0,0,0,.667-.351l.924-2.973A.533.533,0,0,0,395.528,217.432Z" transform="translate(-391.825 -217.372)" fill="#11c6ff"/>
      </g>
    </g>
    <g id="Group_10513" data-name="Group 10513" transform="translate(5.785 46.113)">
      <g id="Group_10512" data-name="Group 10512" transform="translate(0 0)">
        <path id="Path_11755" data-name="Path 11755" d="M170.619,309.335l-.122.391a.533.533,0,0,0,.351.667l3.048.947a.533.533,0,0,0,.667-.351l.122-.391Z" transform="translate(-170.473 -309.335)" fill="#11c6ff"/>
      </g>
    </g>
    <g id="Group_10515" data-name="Group 10515" transform="translate(0 46.713)">
      <g id="Group_10514" data-name="Group 10514" transform="translate(0 0)">
        <path id="Path_11756" data-name="Path 11756" d="M6.933,328.83l-.038.136h-3.8a2.17,2.17,0,0,0-2.157-1.951h-.4a.533.533,0,0,0-.533.533v3.96a.533.533,0,0,0,.533.533h.4A2.17,2.17,0,0,0,3.1,330.032H7.3a.533.533,0,0,0,.514-.39l.138-.5Z" transform="translate(0 -327.015)" fill="#11c6ff"/>
      </g>
    </g>
  </g>
</svg>
