<svg id="Charts_blue" xmlns="http://www.w3.org/2000/svg" width="19.576" height="19.576" viewBox="0 0 19.576 19.576">
  <g id="Group_2931" data-name="Group 2931">
    <g id="Group_2930" data-name="Group 2930">
      <path id="Path_4187" data-name="Path 4187" d="M10.655,0A10.649,10.649,0,0,0,0,10.655a.574.574,0,0,0,.574.574H10.655a.574.574,0,0,0,.574-.574V.574A.574.574,0,0,0,10.655,0Z" fill="#11c6ff"/>
    </g>
  </g>
  <g id="Group_2933" data-name="Group 2933" transform="translate(2.098 12.59)">
    <g id="Group_2932" data-name="Group 2932">
      <path id="Path_4188" data-name="Path 4188" d="M59.344,329.584a.574.574,0,0,0-.5-.3h-3.4a.574.574,0,0,0-.548.746,8.945,8.945,0,0,0,7.956,6.24v-4.3A4.656,4.656,0,0,1,59.344,329.584Z" transform="translate(-54.872 -329.286)" fill="#11c6ff"/>
    </g>
  </g>
  <g id="Group_2935" data-name="Group 2935" transform="translate(12.59 2.098)">
    <g id="Group_2934" data-name="Group 2934">
      <path id="Path_4189" data-name="Path 4189" d="M330.032,54.9a.574.574,0,0,0-.746.548v3.4a.574.574,0,0,0,.3.5,4.657,4.657,0,0,1,2.385,3.51h4.3A8.945,8.945,0,0,0,330.032,54.9Z" transform="translate(-329.286 -54.874)" fill="#11c6ff"/>
    </g>
  </g>
  <g id="Group_2937" data-name="Group 2937" transform="translate(11.229 11.229)">
    <g id="Group_2936" data-name="Group 2936">
      <path id="Path_4190" data-name="Path 4190" d="M297.724,293.678a4.664,4.664,0,0,1-4.045,4.045v4.3a8.933,8.933,0,0,0,8.347-8.347Z" transform="translate(-293.679 -293.678)" fill="#11c6ff"/>
    </g>
  </g>
</svg>
