<svg xmlns="http://www.w3.org/2000/svg" width="14.075" height="12.248" viewBox="0 0 14.075 12.248">
  <g id="consumer" transform="translate(0 0.001)">
    <circle id="Ellipse_408" data-name="Ellipse 408" cx="2.5" cy="2.5" r="2.5" transform="translate(4.471 -0.001)" fill="#a0c7ef"/>
    <circle id="Ellipse_409" data-name="Ellipse 409" cx="1.5" cy="1.5" r="1.5" transform="translate(10.47 1.999)" fill="#a0c7ef"/>
    <circle id="Ellipse_410" data-name="Ellipse 410" cx="1.5" cy="1.5" r="1.5" transform="translate(0.471 1.999)" fill="#a0c7ef"/>
    <path id="Path_11715" data-name="Path 11715" d="M3.689,240.954a2.445,2.445,0,0,0-1.822-.423A1.863,1.863,0,0,0,0,242.386v3a.808.808,0,0,0,.808.805c1.925,0,1.693.035,1.693-.083C2.5,243.983,2.25,242.423,3.689,240.954Z" transform="translate(0 -234.846)" fill="#a0c7ef"/>
    <path id="Path_11716" data-name="Path 11716" d="M124.573,239.882a4.081,4.081,0,0,0-3.148.745c-1.508,1.208-1.218,2.834-1.218,4.824a.964.964,0,0,0,.963.963c5.8,0,6.033.187,6.378-.575.113-.258.082-.176.082-2.641A3.333,3.333,0,0,0,124.573,239.882Z" transform="translate(-116.881 -234.187)" fill="#a0c7ef"/>
    <path id="Path_11717" data-name="Path 11717" d="M379.632,240.532a2.443,2.443,0,0,0-1.822.423c1.428,1.458,1.187,2.912,1.187,5.157,0,.119-.193.083,1.664.083a.837.837,0,0,0,.837-.834v-2.974A1.863,1.863,0,0,0,379.632,240.532Z" transform="translate(-367.424 -234.848)" fill="#a0c7ef"/>
  </g>
</svg>
