<svg xmlns="http://www.w3.org/2000/svg" width="15.583" height="17" viewBox="0 0 15.583 17">
  <g id="e-TP" transform="translate(-1)">
    <path id="Path_4142" data-name="Path 4142" d="M3.125,4.781A3.369,3.369,0,0,1,6.49,1.417h6.469A1.944,1.944,0,0,0,11.094,0H2.948A1.95,1.95,0,0,0,1,1.948V12.927a1.95,1.95,0,0,0,1.948,1.948h.177Z" fill="#a0c7ef"/>
    <path id="Path_4143" data-name="Path 4143" d="M16.094,4H7.948A1.95,1.95,0,0,0,6,5.948V16.219a1.95,1.95,0,0,0,1.948,1.948h8.146a1.95,1.95,0,0,0,1.948-1.948V5.948A1.95,1.95,0,0,0,16.094,4ZM14.677,16.042H9.365a.531.531,0,1,1,0-1.062h5.312a.531.531,0,1,1,0,1.062Zm0-2.833H9.365a.531.531,0,1,1,0-1.062h5.312a.531.531,0,0,1,0,1.063Zm0-2.479H9.365a.531.531,0,1,1,0-1.062h5.312a.531.531,0,1,1,0,1.062Zm0-2.833H9.365a.531.531,0,1,1,0-1.063h5.312a.531.531,0,0,1,0,1.063Z" transform="translate(-1.458 -1.167)" fill="#a0c7ef"/>
  </g>
</svg>
