<svg xmlns="http://www.w3.org/2000/svg" width="18.583" height="17.695" viewBox="0 0 18.583 17.695">
  <g id="Geofence_blue" transform="translate(0 -12.155)">
    <path id="Path_4150" data-name="Path 4150" d="M106.706,13.884a5.9,5.9,0,0,0-8.34,8.34l3.756,3.756a.585.585,0,0,0,.827,0l3.756-3.756A5.894,5.894,0,0,0,106.706,13.884Zm-2.784,4.17a1.386,1.386,0,1,1-1.386-1.386,1.387,1.387,0,0,1,1.386,1.386Z" transform="translate(-93.111)" fill="#11c6ff"/>
    <path id="Path_4151" data-name="Path 4151" d="M13.935,322.519l-3.268,3.268a1.753,1.753,0,0,1-2.481,0l-3.311-3.311C2.1,322.98,0,323.988,0,325.47c0,4.472,18.583,4.488,18.583,0C18.583,324.029,16.6,323.036,13.935,322.519Z" transform="translate(0 -298.98)" fill="#11c6ff"/>
  </g>
</svg>
