<svg xmlns="http://www.w3.org/2000/svg" width="16.391" height="16.688" viewBox="0 0 16.391 16.688">
  <g id="gis" transform="translate(-4.565)">
    <g id="Group_10501" data-name="Group 10501" transform="translate(6.398 12.171)">
      <g id="Group_10500" data-name="Group 10500">
        <path id="Path_11733" data-name="Path 11733" d="M73.162,376.948,66.6,373.473a.527.527,0,0,0-.541.031l-5.019,3.475a.522.522,0,0,0,.3.95H72.917a.521.521,0,0,0,.245-.981Z" transform="translate(-60.814 -373.412)" fill="#a0c7ef"/>
      </g>
    </g>
    <g id="Group_10503" data-name="Group 10503" transform="translate(13.349 7.358)">
      <g id="Group_10502" data-name="Group 10502">
        <path id="Path_11734" data-name="Path 11734" d="M281.663,233.1l-1.544-6.95a.522.522,0,0,0-.806-.316l-5.02,3.475a.521.521,0,0,0,.053.889l6.563,3.475a.523.523,0,0,0,.244.062.514.514,0,0,0,.316-.107A.522.522,0,0,0,281.663,233.1Z" transform="translate(-274.069 -225.744)" fill="#a0c7ef"/>
      </g>
    </g>
    <g id="Group_10505" data-name="Group 10505" transform="translate(4.898 6.258)">
      <g id="Group_10504" data-name="Group 10504">
        <path id="Path_11735" data-name="Path 11735" d="M27.2,192.366a.523.523,0,0,0-.5-.366h-4.76a21.766,21.766,0,0,1-2.673,3.653,1.564,1.564,0,0,1-2.328,0c-.2-.226-.518-.588-.879-1.037L14.8,200.3a.521.521,0,0,0,.509.634.516.516,0,0,0,.3-.093L27,192.949A.52.52,0,0,0,27.2,192.366Z" transform="translate(-14.784 -192)" fill="#a0c7ef"/>
      </g>
    </g>
    <g id="Group_10507" data-name="Group 10507" transform="translate(4.565)">
      <g id="Group_10506" data-name="Group 10506">
        <path id="Path_11736" data-name="Path 11736" d="M8.216,0A3.655,3.655,0,0,0,4.565,3.651c0,1.873,2.929,5.191,3.263,5.563a.521.521,0,0,0,.776,0c.334-.372,3.263-3.69,3.263-5.563A3.655,3.655,0,0,0,8.216,0Zm0,5.215A1.565,1.565,0,1,1,9.78,3.651,1.565,1.565,0,0,1,8.216,5.215Z" transform="translate(-4.565)" fill="#a0c7ef"/>
      </g>
    </g>
  </g>
</svg>
