<svg xmlns="http://www.w3.org/2000/svg" width="18" height="22" viewBox="0 0 18 22">
  <path id="Invoice_blue" d="M17.235,22c-.317,0-.781-.306-1.38-.909l-.669-.674a.607.607,0,0,0-.854,0l-.669.674A3,3,0,0,1,11.92,22a2.991,2.991,0,0,1-1.743-.909l-.669-.674a.607.607,0,0,0-.854,0l-.67.674A2.992,2.992,0,0,1,6.24,22a3,3,0,0,1-1.745-.909l-.67-.674a.6.6,0,0,0-.43-.175.6.6,0,0,0-.43.175l-.681.676c-.009.009-.9.907-1.438.907C.261,22,0,21.192,0,20.392V1.607C0,.807.261,0,.845,0,1.361,0,2.209.815,2.3.908l.67.675a.607.607,0,0,0,.854,0L4.5.909A2.991,2.991,0,0,1,6.241,0,3,3,0,0,1,7.985.909l.669.674a.606.606,0,0,0,.853,0l.669-.674A2.95,2.95,0,0,1,11.919,0a2.95,2.95,0,0,1,1.743.909l.667.675a.6.6,0,0,0,.848,0l.657-.672C16.171.571,16.8,0,17.235,0c.5,0,.765.556.765,1.607V20.392C18,21.444,17.735,22,17.235,22ZM4.082,13.712a.954.954,0,0,0,0,1.908H8.528a.954.954,0,0,0,0-1.908Zm.1-4.119a.954.954,0,0,0,0,1.909h9.835a.954.954,0,0,0,0-1.909Zm0-4.118a.954.954,0,0,0,0,1.909h9.835a.954.954,0,0,0,0-1.909Z" fill="#11c6ff"/>
</svg>
