<svg id="logout_blue" xmlns="http://www.w3.org/2000/svg" width="15.195" height="15.195" viewBox="0 0 15.195 15.195">
  <g id="Group_10499" data-name="Group 10499" transform="translate(0 0)">
    <g id="Group_10498" data-name="Group 10498" transform="translate(0 0)">
      <path id="Path_11731" data-name="Path 11731" d="M5.7,7.6A1.9,1.9,0,0,1,7.6,5.7H10.13V.636A.633.633,0,0,0,9.5,0H.633A.633.633,0,0,0,0,.636V14.565a.633.633,0,0,0,.633.633H9.5a.633.633,0,0,0,.633-.633V9.5H7.6A1.9,1.9,0,0,1,5.7,7.6Z" transform="translate(0 -0.003)" fill="#11c6ff"/>
      <path id="Path_11732" data-name="Path 11732" d="M242.755,152.9l.005-.007c.011-.014.021-.028.031-.042l.013-.021c.006-.01.013-.021.019-.032s.009-.018.013-.027l.013-.028c0-.01.008-.021.012-.032s.007-.017.009-.026.007-.025.01-.038,0-.015.005-.022.006-.035.008-.052v-.009a.636.636,0,0,0,0-.128v-.009c0-.017,0-.035-.008-.052s0-.015-.005-.022-.006-.025-.01-.038-.006-.018-.009-.026-.007-.021-.012-.032l-.013-.028c0-.009-.008-.018-.013-.027s-.012-.021-.019-.032l-.013-.021c-.01-.015-.02-.029-.031-.042l-.005-.007a.626.626,0,0,0-.045-.05l-2.53-2.53a.633.633,0,1,0-.9.9l1.452,1.452H235.3a.633.633,0,1,0,0,1.266h5.436l-1.452,1.452a.633.633,0,1,0,.9.9l2.53-2.53A.62.62,0,0,0,242.755,152.9Z" transform="translate(-227.703 -144.898)" fill="#11c6ff"/>
    </g>
  </g>
</svg>
