<svg xmlns="http://www.w3.org/2000/svg" width="17.222" height="20.667" viewBox="0 0 17.222 20.667">
  <path id="Reports" d="M16.854,0H4.368A2.37,2.37,0,0,0,2,2.368V18.3a2.37,2.37,0,0,0,2.368,2.368H16.854A2.37,2.37,0,0,0,19.222,18.3V2.368A2.37,2.37,0,0,0,16.854,0ZM9.535,11.194V6.954a4.3,4.3,0,1,1-3.189,7.7l3-3A.643.643,0,0,0,9.535,11.194ZM8.243,6.954v3.973l-2.81,2.81a4.27,4.27,0,0,1,2.81-6.783ZM15.993,18.3H5.229a.646.646,0,0,1,0-1.292H15.993a.646.646,0,1,1,0,1.292Zm0-2.8H14.7a.646.646,0,1,1,0-1.292h1.292a.646.646,0,1,1,0,1.292Zm0-2.368H14.7a.646.646,0,1,1,0-1.292h1.292a.646.646,0,1,1,0,1.292Zm0-2.583H14.7a.646.646,0,1,1,0-1.292h1.292a.646.646,0,1,1,0,1.292Zm0-2.368H14.7a.646.646,0,1,1,0-1.292h1.292a.646.646,0,0,1,0,1.292Z" transform="translate(-2)" fill="#a0c7ef"/>
</svg>
