<svg id="send_notification" data-name="send notification" xmlns="http://www.w3.org/2000/svg" width="17.109" height="17.109" viewBox="0 0 17.109 17.109">
  <g id="_058---new-message" data-name="058---new-message" transform="translate(0)">
    <path id="Shape" d="M13.966,12.661,3.843,16.035a.295.295,0,0,0-.035.544l5.342,2.6a.565.565,0,0,1,.275.28l2.6,5.333a.295.295,0,0,0,.545-.036l3.373-10.123a3.255,3.255,0,0,1-1.976-1.976Zm-1.575,3.968-1.877,1.878a.3.3,0,0,1-.417-.417l1.878-1.877a.295.295,0,1,1,.417.417Zm1.89-1.89-1.055,1.055a.295.295,0,1,1-.417-.417l1.055-1.055a.295.295,0,0,1,.417.417Z" transform="translate(-2.568 -8.926)" fill="#a0c7ef"/>
    <path id="Shape-2" data-name="Shape" d="M42.655,0A2.655,2.655,0,1,0,45.31,2.655,2.655,2.655,0,0,0,42.655,0Zm.59,4.425a.295.295,0,1,1-.59,0V1.6a1.344,1.344,0,0,1-.59.165.295.295,0,0,1,0-.59.755.755,0,0,0,.624-.427.295.295,0,0,1,.559.132Z" transform="translate(-28.201)" fill="#a0c7ef"/>
    <path id="Shape-3" data-name="Shape" d="M.313,43.2a.295.295,0,0,1-.153-.547,5.95,5.95,0,0,0,1.126-.893,8.1,8.1,0,0,0,.958-1.134,3.768,3.768,0,0,1-1.637-.979A1.736,1.736,0,0,1,0,38.417a1.423,1.423,0,0,1,.779-1.182,1.915,1.915,0,0,1,1.332-.188,1.8,1.8,0,0,1,1.1.748,1.988,1.988,0,0,1,.264,1.41,3.713,3.713,0,0,1-.287.941,2.128,2.128,0,0,0,.315-.036,2.381,2.381,0,0,0,1.8-2.455.3.3,0,0,1,.59-.035,2.985,2.985,0,0,1-2.28,3.068,2.9,2.9,0,0,1-.737.042,8.2,8.2,0,0,1-1.172,1.441,6.542,6.542,0,0,1-1.239.982.3.3,0,0,1-.154.043Zm1.386-5.6a1.329,1.329,0,0,0-.636.16.849.849,0,0,0-.474.676,1.19,1.19,0,0,0,.434.8,3.172,3.172,0,0,0,1.389.831q.074.02.147.037a3.279,3.279,0,0,0,.333-.981,1.4,1.4,0,0,0-.174-.992,1.222,1.222,0,0,0-.739-.5,1.274,1.274,0,0,0-.28-.031Z" transform="translate(0 -26.087)" fill="#a0c7ef"/>
  </g>
</svg>
