<svg xmlns="http://www.w3.org/2000/svg" width="20.752" height="20.752" viewBox="0 0 20.752 20.752">
  <path id="Settings_blue" d="M20.264,8.013l-1.595-.347a8.68,8.68,0,0,0-.513-1.238l.883-1.373a.62.62,0,0,0-.083-.774L16.471,1.8a.62.62,0,0,0-.774-.083L14.323,2.6a8.68,8.68,0,0,0-1.238-.513L12.739.488A.62.62,0,0,0,12.133,0H8.619a.62.62,0,0,0-.606.488L7.666,2.083A8.68,8.68,0,0,0,6.429,2.6L5.055,1.713a.62.62,0,0,0-.774.083L1.8,4.281a.62.62,0,0,0-.083.774L2.6,6.429a8.681,8.681,0,0,0-.513,1.238L.488,8.013A.62.62,0,0,0,0,8.619v3.514a.62.62,0,0,0,.488.606l1.595.347A8.68,8.68,0,0,0,2.6,14.323L1.713,15.7a.62.62,0,0,0,.083.774l2.485,2.485a.62.62,0,0,0,.774.083l1.373-.883a8.68,8.68,0,0,0,1.238.513l.347,1.595a.62.62,0,0,0,.606.488h3.514a.62.62,0,0,0,.606-.488l.347-1.595a8.68,8.68,0,0,0,1.238-.513l1.373.883a.62.62,0,0,0,.774-.083l2.485-2.485a.62.62,0,0,0,.083-.774l-.883-1.373a8.68,8.68,0,0,0,.513-1.238l1.595-.347a.62.62,0,0,0,.488-.606V8.619A.62.62,0,0,0,20.264,8.013ZM14.1,10.376a3.721,3.721,0,1,1-3.721-3.721A3.725,3.725,0,0,1,14.1,10.376Zm0,0" transform="translate(0 0)" fill="#11c6ff"/>
</svg>
