<svg xmlns="http://www.w3.org/2000/svg" width="17.302" height="12.453" viewBox="0 0 17.302 12.453">
  <path id="vehicle_register_office_blue" data-name="vehicle register office_blue" d="M3.172,12.453h0c-.05,0-.1,0-.146,0a2.674,2.674,0,0,1,0-5.329c.049,0,.1,0,.146,0A2.619,2.619,0,0,1,5.749,9.488H9.867l1.964-8.076a.287.287,0,0,1,.278-.225h2.308a.292.292,0,0,1,.283.237l.53,2.728h.957a1.107,1.107,0,0,1,.788.336,1.168,1.168,0,0,1,.326.851V9.194a.881.881,0,0,1-.577.833.754.754,0,0,1-.28.053H16.13a2.516,2.516,0,0,1-.046.3,2.763,2.763,0,0,1-.208.593,2.639,2.639,0,0,1-.964,1.084,2.543,2.543,0,0,1-3.251-.446,2.684,2.684,0,0,1-.688-1.528H5.749A2.62,2.62,0,0,1,3.172,12.453ZM13.552,8.3a1.483,1.483,0,1,0,1.442,1.482A1.464,1.464,0,0,0,13.552,8.3ZM3.172,8.3a1.483,1.483,0,0,0,0,2.965,1.483,1.483,0,0,0,0-2.965ZM11.326,5.93l-.141.587,0,.006h3.705l1.837,1.619v-.78L15.182,6a.291.291,0,0,0-.187-.071Zm1.212-4.151a.165.165,0,0,0-.162.141l-.229,1.413a.2.2,0,0,0,.042.156.185.185,0,0,0,.143.068h2.08l-.231-1.779Zm1.014,8.895a.89.89,0,1,1,.865-.89A.878.878,0,0,1,13.552,10.674Zm-10.381,0a.89.89,0,1,1,.865-.89A.879.879,0,0,1,3.172,10.674ZM6.631,8.895a.282.282,0,0,1-.16-.05L.127,4.4A.3.3,0,0,1,.008,4.08L.585,1.708a.29.29,0,0,1,.28-.225h9.8L10.966.225A.289.289,0,0,1,11.246,0h2.883a.293.293,0,0,1,.288.3.293.293,0,0,1-.288.3H11.47L9.507,8.669a.287.287,0,0,1-.278.225h-2.6ZM4.3,4.308a.474.474,0,0,0,0,.947H5.867a.094.094,0,0,1,.092.095V6.96a.461.461,0,1,0,.921,0V5.35a.094.094,0,0,1,.092-.095H8.538a.474.474,0,0,0,0-.947H6.972a.093.093,0,0,1-.092-.095V2.6a.461.461,0,1,0-.921,0v1.61a.093.093,0,0,1-.092.095Z" fill="#11c6ff"/>
</svg>
