<svg xmlns="http://www.w3.org/2000/svg" width="22.138" height="15.497" viewBox="0 0 22.138 15.497">
  <path id="Vehicle_Tracking" data-name="Vehicle Tracking" d="M4.059,15.5c-.062,0-.124,0-.187-.005a3.321,3.321,0,0,1,0-6.631c.062,0,.125-.005.187-.005a3.315,3.315,0,0,1,3.3,2.952h5.269l2.513-10.05a.366.366,0,0,1,.356-.281h2.954a.372.372,0,0,1,.362.3l.679,3.394h1.222a1.427,1.427,0,0,1,1.426,1.477v4.8a1.1,1.1,0,0,1-.738,1.037.987.987,0,0,1-.358.067h-.4a3.2,3.2,0,0,1-.059.369,3.367,3.367,0,0,1-.266.738,3.319,3.319,0,0,1-3.55,1.79,3.338,3.338,0,0,1-2.722-2.9H7.357A3.316,3.316,0,0,1,4.059,15.5Zm13.282-5.166a1.845,1.845,0,1,0,1.845,1.845A1.847,1.847,0,0,0,17.341,10.331Zm-13.283,0A1.845,1.845,0,1,0,5.9,12.176,1.847,1.847,0,0,0,4.058,10.331ZM16.043,2.214a.208.208,0,0,0-.207.175l-.293,1.758a.24.24,0,0,0,.054.2.237.237,0,0,0,.183.085h2.661l-.3-2.213Zm1.3,11.069a1.107,1.107,0,1,1,1.107-1.107A1.108,1.108,0,0,1,17.341,13.283Zm-13.283,0a1.107,1.107,0,1,1,1.107-1.107A1.108,1.108,0,0,1,4.058,13.283Zm7.75-2.214H8.486a.368.368,0,0,1-.207-.063L.162,5.472a.373.373,0,0,1-.151-.4L.749,2.125a.367.367,0,0,1,.357-.28H13.64L14.031.281A.37.37,0,0,1,14.389,0h3.69a.369.369,0,0,1,0,.738h-3.4l-2.513,10.05A.365.365,0,0,1,11.808,11.069ZM8.6,6.858a.9.9,0,1,0,.9.9A.9.9,0,0,0,8.6,6.858Zm.069-2.135a2.926,2.926,0,0,0-2.082.864l-.13.131-.181.18a.567.567,0,0,0,.4.966.56.56,0,0,0,.4-.165l.311-.311a1.819,1.819,0,0,1,2.568,0l.225.218a.562.562,0,0,0,.957-.4.547.547,0,0,0-.163-.4l-.218-.224c-.009-.01-.019-.018-.028-.026l-.014-.012-.041-.039-.02-.017A2.951,2.951,0,0,0,8.671,4.723ZM8.639,2.851a4.88,4.88,0,0,0-3.4,1.367l-.013.011a.1.1,0,0,0-.015.012l-.338.338a.507.507,0,0,0-.15.361.519.519,0,0,0,.518.519A.508.508,0,0,0,5.6,5.311l.338-.338,0,0A3.877,3.877,0,0,1,11.3,4.936l.266.266a.516.516,0,0,0,.729,0,.517.517,0,0,0,0-.729l-.187-.187-.15-.151a.537.537,0,0,0-.085-.067A4.9,4.9,0,0,0,8.639,2.851Z" transform="translate(0)" fill="#a0c7ef"/>
</svg>
