<svg xmlns="http://www.w3.org/2000/svg" width="55.838" height="62.292" viewBox="0 0 55.838 62.292">
  <g id="bricks-box" transform="translate(-372 -138)">
    <g id="Group_10979" data-name="Group 10979" transform="translate(0.181)">
      <path id="Path_15034" data-name="Path 15034" d="M12100.164,5076.666v-.779h-11.406l-.172-3.969h6.13c3.852,0,5.254.584,5.426-.8l-22.278-.02-.095-2.569,4.607-.058c.937-.331.567-.389,1.324-1.322l-.039-.021,16.48.04.062-.72h-11.559l-.059-4.028h6.421c4.009,0,4.944.583,5.119-.759h-15.842l-.056-3.97h15.956c-.312-1.227-.661-.838-2.3-.8-1.052.021-2.124,0-3.173,0h-6.094V5053h9.267c2.8.059,2,.02,2.3-.545l-.409-.214c-.076-.021-.154-.06-.231-.077l-15.3-.058-.017-3.892,15.315-.06c.756-.173.189.06.641-.292-.661-.642.271-.077-.641-.369l-10.86-.077-.062-3.951h6.385c4.338,0,4.9.584,5.178-.837l-22.321-.059V5038.7h22.01c.253-.37.521.584.175-.7l.332.1c.192,2.628-.019,6.6,0,9.479l-.041,28.389a1.014,1.014,0,0,1-.039.234,1.579,1.579,0,0,0-.059.235A1.425,1.425,0,0,1,12100.164,5076.666Z" transform="translate(-11672.823 -4876.436)" fill="#d9d9d9" fill-rule="evenodd"/>
      <path id="Path_15035" data-name="Path 15035" d="M12122.591,4832.786l-24.581.039.061,3.891,24.521-.038Zm23.2-.7c.351,1.283.078.332-.178.7H12123.6v3.873l22.317.058c-.272,1.422-.836.837-5.177.837h-6.379l.055,3.952,10.86.078c.916.292-.017-.273.641.369-.444.348.12.117-.641.293l-15.314.055.12-.795h3.306v-3.932h-24.655l.041,1.75-.761.234.079,2.394h-17.575v-.447h17.279l.021-3.932H12090.5l-.062-.857,6.58-.058v-3.854l-6.56-.019.058-.759h17.341v-3.7h.932v3.685h24.616v-3.681h.956v3.661Z" transform="translate(-11718.563 -4670.521)" fill="#a9a9a9" fill-rule="evenodd"/>
      <path id="Path_15036" data-name="Path 15036" d="M12136,6459.575c-1.324-.428-23.486-.389-24.615.039l.037,3.737,24.578-.1Zm-24.717-4.96-10.637.078v3.89l24.572-.057.078-2.548.814.018.1,2.569,22.279.018c-.176,1.384-1.574.8-5.43.8h-6.127l.172,3.969h11.406v.778h-52.227c-3.74.037-2.922.331-3.293-.778l17.439-.116v-3.621c-1.6-.623-14.539-.231-17.32-.231l-.041-.8,6.6-.077-.076-3.832-6.576-.02-.023-.779,16.23.059c1.361-.118,1.072.252,1.227-.934a.823.823,0,0,1,.115.156l.371.544A4.269,4.269,0,0,1,12111.287,6454.615Z" transform="translate(-11721.179 -6263.9)" fill="#a6a6a6" fill-rule="evenodd"/>
      <path id="Path_15038" data-name="Path 15038" d="M12760.617,6779.444l-24.576.1-.039-3.737c1.127-.429,23.291-.467,24.615-.038Z" transform="translate(-12345.789 -6580.09)" fill="#d9d9d9" fill-rule="evenodd"/>
      <path id="Path_15039" data-name="Path 15039" d="M13315.576,5077.89l-24.52.04-.059-3.892,24.578-.039Z" transform="translate(-12911.547 -4911.733)" fill="#d9d9d9" fill-rule="evenodd"/>
      <path id="Path_15041" data-name="Path 15041" d="M12773.677,6292.9c.994-.119.527,0,1.072-.545-.311-.778.043-.486-.719-.563h-23.369c-.312,1.205-.059.7.076,1.01l.719.059c-.154,1.188.139.817-1.227.935l-16.23-.06.1-3.95h13.525c3.057,0,3.8-.506,3.852.722l-.621.466c.525.428-.311.04.568.253a3.452,3.452,0,0,0,.754.1c.41.02,1.055-.021,1.463-.021.947-.017,1.92,0,2.879,0h17.865c-.391-1.263-.391-.349-.707-1.556l3.367.078-.018,3.854-3.482.1Z" transform="translate(-12362.176 -6103.762)" fill="#d9d9d9" fill-rule="evenodd"/>
      <path id="Path_15042" data-name="Path 15042" d="M13310.65,6537.361l-.078,2.551-24.574.06v-3.9l10.643-.077h.02c.738.937.408.994,1.324,1.324Z" transform="translate(-12906.523 -6345.285)" fill="#d9d9d9" fill-rule="evenodd"/>
      <path id="Path_15044" data-name="Path 15044" d="M14050,6778.916l.113-3.969c2.789,0,15.723-.39,17.322.233v3.618Z" transform="translate(-13678.18 -6579.465)" fill="#d9d9d9" fill-rule="evenodd"/>
      <path id="Path_15045" data-name="Path 15045" d="M14050.035,5806.028l-.035-3.911,17.338-.117v4.028Z" transform="translate(-13678.082 -5625.568)" fill="#dadada" fill-rule="evenodd"/>
      <path id="Path_15046" data-name="Path 15046" d="M14050.021,5323.93,14050,5320h17.32l-.021,3.931Z" transform="translate(-13678.066 -5152.947)" fill="#dadada" fill-rule="evenodd"/>
      <path id="Path_15047" data-name="Path 15047" d="M12757.348,5323.93l-.059-2.043-21.25-.135L12736,5320h24.654v3.931Z" transform="translate(-12345.828 -5152.947)" fill="#dadada" fill-rule="evenodd"/>
      <path id="Path_15049" data-name="Path 15049" d="M12111.544,6259.467c-.054-.893.392-.407-.429-.72h-15.784c-3.771,0-4.1.5-4.333-.741l21.206-.095-.132.875,3.482-.1.017-3.853-3.367-.078-.04-.76h15.845c-.18,1.343-1.11.76-5.115.76h-6.428l.061,4.028h11.559l-.059.72Z" transform="translate(-11700.706 -6068.771)" fill="#a2a2a2" fill-rule="evenodd"/>
      <path id="Path_15050" data-name="Path 15050" d="M14043.117,5565.931h-10.1l-.021-3.894,10.139-.037Z" transform="translate(-13653.551 -5390.239)" fill="#d9d9d9" fill-rule="evenodd"/>
      <path id="Path_15051" data-name="Path 15051" d="M14043.076,6053.931H14033v-3.892l10.117-.039Z" transform="translate(-13653.527 -5868.742)" fill="#d9d9d9" fill-rule="evenodd"/>
      <path id="Path_15052" data-name="Path 15052" d="M14050.725,5800.944l-10.117.037v3.894h10.078l-.25,1.556c-.062-1.225-.8-.72-3.857-.72h-13.523l-.016-.835,6.553-.06-.035-3.853-6.557-.018.1-.8h17.3v-4.029l.254-.116Z" transform="translate(-13661.137 -5619.686)" fill="#a9a9a9" fill-rule="evenodd"/>
      <path id="Path_15053" data-name="Path 15053" d="M12874.938,6423.469l-21.207.1c.234,1.242.564.736,4.338.736h15.777c.822.313.377-.172.432.721l.043.021-5.822.039-.113,1.342-.822-.02-.094-1.322-13.893-.039h-.023a4.319,4.319,0,0,0-.35-.914l-.365-.546a.84.84,0,0,0-.121-.155l-.717-.059c.252-.254.037-.409,1.457-.5.293-.021,1.09.018,1.443.018,6.887.117,14.336-.174,21.109.039C12875.47,6423.469,12875.933,6423.352,12874.938,6423.469Z" transform="translate(-12463.443 -6234.329)" fill="#7c7c7c" fill-rule="evenodd"/>
      <path id="Path_15054" data-name="Path 15054" d="M12092,5768.583l.112-.795h3.309v-3.894h-3.345l-.061-.895,15.3.059c.078.019.156.059.234.078l.407.214c-.292.563.509.6-2.295.544h-9.264v3.894h6.09c1.05,0,2.12.018,3.174,0,1.635-.041,1.981-.43,2.295.795Z" transform="translate(-11680.598 -5587.328)" fill="#a9a9a9" fill-rule="evenodd"/>
      <path id="Path_15055" data-name="Path 15055" d="M14604,5565.931V5562l6.578.018.02,3.854Z" transform="translate(-14232.123 -5390.239)" fill="#d9d9d9" fill-rule="evenodd"/>
      <path id="Path_15056" data-name="Path 15056" d="M14605,5077.93l.023-3.931,6.557.02v3.853Z" transform="translate(-14233.121 -4911.733)" fill="#d9d9d9" fill-rule="evenodd"/>
      <path id="Path_15057" data-name="Path 15057" d="M14603.055,6541.93,14603,6538l6.576.018.076,3.834Z" transform="translate(-14231.152 -6347.246)" fill="#d9d9d9" fill-rule="evenodd"/>
      <path id="Path_15058" data-name="Path 15058" d="M14605.036,6053.931,14605,6050l6.559.02.037,3.853Z" transform="translate(-14233.137 -5868.742)" fill="#d9d9d9" fill-rule="evenodd"/>
      <path id="Path_15059" data-name="Path 15059" d="M14050.707,5545.33l-10.139.039.021,3.894h10.1l-.055.619-.254.119-17.34.117-.039-.854,6.6-.059-.021-3.854-6.576-.02.08-.331h17.568Z" transform="translate(-13661.119 -5373.568)" fill="#a6a6a6" fill-rule="evenodd"/>
      <path id="Path_15060" data-name="Path 15060" d="M13299.988,6537.361l-12.666-.038c-.916-.33-.586-.388-1.324-1.324l13.893.039Z" transform="translate(-12895.863 -6345.285)" fill="#a6a6a6" fill-rule="evenodd"/>
      <path id="Path_15063" data-name="Path 15063" d="M12736.041,5812.893,12736,5809h3.348v3.894Z" transform="translate(-12324.521 -5632.432)" fill="#d9d9d9" fill-rule="evenodd"/>
      <path id="Path_15064" data-name="Path 15064" d="M12876.235,6398.563c-6.773-.216-14.223.079-21.109-.038-.354,0-1.148-.039-1.443-.021-1.42.1-1.205.254-1.457.506-.133-.309-.389.2-.078-1.01h23.369C12876.278,6398.077,12875.925,6397.784,12876.235,6398.563Z" transform="translate(-12463.668 -6209.973)" fill="#c1c1c1" fill-rule="evenodd"/>
      <path id="Path_15065" data-name="Path 15065" d="M12939,6537.381l.115-1.343,5.816-.039c-.76.937-.387.994-1.322,1.324Z" transform="translate(-12534.051 -6345.285)" fill="#a6a6a6" fill-rule="evenodd"/>
      <path id="Path_15084" data-name="Path 15084" d="M-3861.744,17547.564l-17.312-.02v-3.746h17.312Z" transform="translate(4251 -17386)" fill="#d9d9d9"/>
      <path id="Path_15085" data-name="Path 15085" d="M-3855.172,17547.5l-24.609-.023v-3.662l24.609-.02Z" transform="translate(4270 -17386)" fill="#d9d9d9"/>
      <path id="Path_15086" data-name="Path 15086" d="M-3868.343,17547.482h-11.821v-3.654h11.821Z" transform="translate(4296 -17386)" fill="#d9d9d9"/>
    </g>
    <g id="Group_10983" data-name="Group 10983" transform="translate(-1)">
      <g id="Group_10982" data-name="Group 10982" transform="translate(0.299)">
        <path id="Path_15087" data-name="Path 15087" d="M-3860,17529.713l-18.295,14.225h1.528l18.431-14.225Z" transform="translate(4253 -17386)" fill="#606060" stroke="#707070" stroke-width="0.2"/>
        <path id="Path_15088" data-name="Path 15088" d="M-3876.635,17529.713l18.295,14.225h-1.528l-18.431-14.225Z" transform="translate(4284 -17386)" fill="#606060" stroke="#707070" stroke-width="0.2"/>
      </g>
      <g id="Group_10981" data-name="Group 10981" transform="translate(1)">
        <g id="Group_10980" data-name="Group 10980" transform="translate(0 6)">
          <rect id="Rectangle_2033" data-name="Rectangle 2033" width="21" height="6" rx="3" transform="translate(389 132)" fill="#fdd22e"/>
          <circle id="Ellipse_450" data-name="Ellipse 450" cx="2" cy="2" r="2" transform="translate(390 133)" fill="#b1740d"/>
          <circle id="Ellipse_452" data-name="Ellipse 452" cx="1" cy="1" r="1" transform="translate(391 134)" fill="#eab02b"/>
          <circle id="Ellipse_451" data-name="Ellipse 451" cx="2" cy="2" r="2" transform="translate(405 133)" fill="#b1740d"/>
          <circle id="Ellipse_453" data-name="Ellipse 453" cx="1" cy="1" r="1" transform="translate(406 134)" fill="#eab02b"/>
        </g>
      </g>
    </g>
  </g>
</svg>
