<svg xmlns="http://www.w3.org/2000/svg" width="21.377" height="57.403" viewBox="0 0 21.377 57.403">
  <g id="driver_user" transform="translate(-478.469 -320.642)">
    <path id="Path_7890" data-name="Path 7890" d="M62.409,426.76c.186.966.235,2.371-.208,2.45-1.6.283-1.2-.393-2.4.191a6.064,6.064,0,0,1-3.553.179c-.293-.249-.512-1.4.786-1.56a3.621,3.621,0,0,0,2.464-1.965,2.371,2.371,0,0,1,1.279-.907l1.359.262Z" transform="translate(426.39 -52.982)"/>
    <path id="Path_7891" data-name="Path 7891" d="M54.9,380.462c-.861,2.2-1.019,14.864-.917,18.314.033,1.089.121,9.937-.628,11.529a17.358,17.358,0,0,0,4.526.5,78.237,78.237,0,0,0,1.9-17.162c.051-3.8-.5-13.447-.5-13.447Z" transform="translate(430.808 -35.959)" fill="#276e9e"/>
    <g id="Group_3108" data-name="Group 3108" transform="translate(486.519 353.104)">
      <g id="Group_3107" data-name="Group 3107" transform="translate(0)">
        <g id="Group_3106" data-name="Group 3106">
          <path id="Path_7892" data-name="Path 7892" d="M53.661,416.108c1.821-5,1.188-14.923,1.982-21.639l1.9,7.014a98.47,98.47,0,0,1-1.3,14.935A4.4,4.4,0,0,1,53.661,416.108Z" transform="translate(-53.661 -394.469)" fill="#095588"/>
        </g>
      </g>
    </g>
    <path id="Path_7904" data-name="Path 7904" d="M50.148,427.381l-3.1-.3a3.351,3.351,0,0,1-2.255,2.84c-.69.2-.829,1.159.034,1.572a4.081,4.081,0,0,0,3.668-.4c.838-.765.863-.081,1.5-.417s.314-1.742.295-2.6Z" transform="translate(445.877 -53.709)"/>
    <path id="Path_7905" data-name="Path 7905" d="M49.353,380.357a8.052,8.052,0,0,1,1.15,5.314,93.427,93.427,0,0,0,.616,13.581c1.2,8.065-.165,12.692-.165,12.692a22.789,22.789,0,0,1-4.8-.5s-.811-8.871-.968-10.652c-.052-.613-1.048-9.1-2.35-12.29-.63-1.535-.178-5.569.012-6.772C42.984,380.913,49.353,380.357,49.353,380.357Z" transform="translate(445.718 -36.023)" fill="#095588"/>
    <g id="Group_3111" data-name="Group 3111" transform="translate(487.955 344.525)">
      <g id="Group_3110" data-name="Group 3110" transform="translate(0)">
        <path id="Path_7906" data-name="Path 7906" d="M49.759,400.912a106.881,106.881,0,0,0-2.641-12.553c-.63-1.535-.131-5.952.06-7.152.041-.249,1.556-.491,2.4-.541l.917,8.4c1.335,8.341,3.446,17.472,2.95,22.84a15.023,15.023,0,0,1-2.8-.215S49.919,402.7,49.759,400.912Z" transform="translate(-46.81 -380.666)" fill="#276e9e"/>
      </g>
    </g>
    <path id="Path_7893" data-name="Path 7893" d="M53.224,342.461a3.2,3.2,0,0,0-2.924.293,2.882,2.882,0,0,0-1.225,1.7c-.11.81.039,1.589.836,1.866.84.292,2.593-2.686,2.593-2.686Z" transform="translate(440.049 -21.594)" fill="#491d16"/>
    <path id="Path_7894" data-name="Path 7894" d="M52.036,355.08c-.2-.275-.275-.295-1.138-.236s-2.962.039-3.275.411-.588.524-.393.824,3.9.8,4.315.077a4.54,4.54,0,0,0,.491-1.077Z" transform="translate(442.404 -26.355)" fill="#177fdd"/>
    <path id="Path_7895" data-name="Path 7895" d="M62.547,366.223c-.524.3-.842.817-.368,1.163a1.207,1.207,0,0,0,1.145-.013l.086-1.249Z" transform="translate(421.843 -30.639)"/>
    <path id="Path_7897" data-name="Path 7897" d="M59.843,363.455c.706-.094,1.2.269,1.241.033.419-2.3.194-3.93,1.1-5.218-1.192.6-1.319.7-1.834,1.714-.689,1.364-1.727,4-1.727,4a1.738,1.738,0,0,1,1.221-.529Z" transform="translate(425.137 -27.664)" fill="#334b9a"/>
    <path id="Path_7898" data-name="Path 7898" d="M46.3,345.16a4.137,4.137,0,0,1-.445,3.871c-.7,1.411-1.15,1.647-1.386,1.725a26.243,26.243,0,0,1-.079-4.316Z" transform="translate(449.595 -22.699)" fill="#300901"/>
    <path id="Path_7899" data-name="Path 7899" d="M46.7,354.723c.545-.115.435-2.825.435-2.825l3.9-.384s-.51,2.943.824,3.453c.631.242-3.291,4.106-4.352,3.915C46.744,358.744,45.644,354.945,46.7,354.723Z" transform="translate(443.077 -25.105)" fill="#e2b7ac"/>
    <path id="Path_7901" data-name="Path 7901" d="M46.121,346.018c.165-1.776.707-2.819,3.459-2.576,2.2.2,2.235,1.342,2.113,2.882.393.085.262.241.173.844a2.527,2.527,0,0,1-.334,1.15.381.381,0,0,1-.376.16c-.093.224-.376.613-.482.808a2.506,2.506,0,0,1-2.158,1.473,6.451,6.451,0,0,1-1.572-.08C45.786,350.387,45.967,347.678,46.121,346.018Z" transform="translate(443.198 -22.037)" fill="#e2b7ac"/>
    <path id="Path_7902" data-name="Path 7902" d="M60.81,357.859c-.706-.079-.942-1.294-.942-1.294s-.366.468-2.315,1.06c-.553.168-.823,2.751-.994,4.433-.086.85-3.243,14.948-1.441,15.366,1.273-.131.724.418,3.184,0,.068-3.094,2.742-15.994,2.611-17.673C60.907,359.624,61.248,357.909,60.81,357.859Z" transform="translate(429.765 -27.018)" fill="#6b82cf"/>
    <path id="Path_7903" data-name="Path 7903" d="M42,357.766a8.516,8.516,0,0,0,4.229-1.655,26.7,26.7,0,0,0,3.618,2.061c.724.365.8.925.861,1.68s-2.38,3.329-2.684,4.625c-.46,1.953.975,12.667-.414,13.73-.666.508-6.827-.871-8.4-.891a95.679,95.679,0,0,1,1.532-17.052C41.145,359.11,41.717,357.766,42,357.766Z" transform="translate(448.669 -26.846)" fill="#334b9a"/>
    <path id="Path_7916" data-name="Path 7916" d="M44.471,343.623c.314,1.4,1.463,1.124,2.192,1.146s1.107,1.111,1.289,1.425c.131.231.24.773.786.576.131-.048.333-.8.769-.576.189.093.368.969.368.969s1.1-.407.772-2.538a2.728,2.728,0,0,0-1.714-2.132,5.385,5.385,0,0,0-2.276-.117,5.853,5.853,0,0,0-2.187,1.245Z" transform="translate(445.403 -21.617)" fill="#300901"/>
    <path id="Path_7917" data-name="Path 7917" d="M55.276,357.534a4.789,4.789,0,0,1-.59-1.3,1,1,0,0,1,.186-.793l-1.148,1.148a8.585,8.585,0,0,0-.216,1.627,5.075,5.075,0,0,1,1.767-.686Z" transform="translate(435.22 -26.594)" fill="#334b9a"/>
    <path id="Path_7918" data-name="Path 7918" d="M49.463,354.924l1.078,1.138a34.276,34.276,0,0,0-3.336,2.759c-.628-.679-1.529-1.484-1.529-1.484s2.607-1.262,2.942-1.5a2.665,2.665,0,0,0,.844-.917Z" transform="translate(444.826 -26.396)" fill="#6b82cf"/>
    <path id="XMLID_82_" d="M646.271,235.857l-3.979,5.957-5.047-.328-.875,1.735a30.786,30.786,0,0,0,7.922,1.731c.815-.01,2.628-3.316,2.728-3.465.905-1.351,2.272-3.588.925-4.467Z" transform="translate(-148.874 95.787)" fill="#ffb98a"/>
    <path id="Path_7915" data-name="Path 7915" d="M43.262,359.582a2.257,2.257,0,0,1,1.514,2.475c-.208,2.227-2.337,4.557-2.982,5.806a7.892,7.892,0,0,0-3.321-2.882C40.068,362.815,41.83,359.06,43.262,359.582Z" transform="translate(455.044 -28.141)" fill="#6b82cf"/>
    <path id="Path_9083" data-name="Path 9083" d="M7660.506-3133.458l1.09,4.937.479,1.75-5.252,1.193-2.069-8.516,5.176-1.906Z" transform="translate(-7173.992 3468.008)" fill="#fff" stroke="#707070" stroke-width="1"/>
    <path id="XMLID_83_" d="M2.62,3.378A13.5,13.5,0,0,0,1.652.427,1.9,1.9,0,0,0,.31.005c-.2.062.465.5.886.57,0,0-1.2.155-1.2.51s.244.283.244.283-.443.354-.113.575a.565.565,0,0,0,.157.8c.465.393.487.111.487.111S.966,4.5,1.652,4.62,2.62,3.378,2.62,3.378Z" transform="translate(485.937 334.705) rotate(-3)" fill="#ffb98a"/>
    <path id="Path_9084" data-name="Path 9084" d="M7672.636-3122.333l.54.393.107.646.131.358-.237.375c-.308.647-.54.36-.54.36l-.54-1.942.172-.305Z" transform="translate(-7190.972 3458.504)" fill="#ffb98a"/>
    <path id="XMLID_99_" d="M602.05,235.494l-.477.866,1.094.507.517-.816Z" transform="translate(-123.104 93.031)" fill="#fff"/>
    <path id="Path_9086" data-name="Path 9086" d="M7658.567-3134.573l-2.573.5-.583-1.512,2.42-.415Z" transform="translate(-7173.105 3471.494)" fill="#a8a8a8"/>
    <line id="Line_16" data-name="Line 16" x1="4.137" y2="0.955" transform="translate(482.437 338.215)" fill="none" stroke="#a8a8a8" stroke-width="1"/>
    <line id="Line_17" data-name="Line 17" x1="4.137" y2="0.955" transform="translate(482.755 339.17)" fill="none" stroke="#a8a8a8" stroke-width="1"/>
    <line id="Line_18" data-name="Line 18" x1="4.137" y2="0.955" transform="translate(483.074 340.125)" fill="none" stroke="#a8a8a8" stroke-width="1"/>
  </g>
</svg>
