<svg xmlns="http://www.w3.org/2000/svg" width="19.618" height="19.665" viewBox="0 0 19.618 19.665">
  <g id="Mines" transform="translate(-119.571 -483.8)">
    <path id="Path_3973" data-name="Path 3973" d="M178.608,2518.2h-1.032l-2.69.231-1.22.209-.167.521-.3.688-.751.667-.458.584-1.626.678-.261,1.8-.334,1.23-1.658.407-.448,1.939-1.752,1.418.073,2.5v2.117l2.92,3.4,6.3.543,2.6.25,3.253-1.5,4.035-2.054v-2.2l-.563-7.018-2.847-2.367-.845-2.283-1.535-1.032Z" transform="translate(-46.198 -2034.2)" fill="#e5b292"/>
    <path id="Path_3974" data-name="Path 3974" d="M170.617,2528.28l1.043.709,1.147-.709,1.772.125,2.732.376,2.085.521,2.482,1.21,1.606,1.335.209.542-1.251.459-.709-.458-2.544-1.669-2.649-.584-4.129-.834-.438.543-.647.438-2.356.229-.188-.375.188-1.147.23-.584Z" transform="translate(-47.154 -2037.553)" fill="#ffdbc5"/>
    <path id="Path_3975" data-name="Path 3975" d="M168.781,2531.384l2.19-.208.793-.146.876.626,1.043.083,2.795.1.751.188,1.544.834,2.169,1.168,1.251.688-.918.626-2.94-1.46-2.92-1.021-4.88-.208Z" transform="translate(-47.153 -2038.468)" fill="#ffdbc5"/>
    <path id="Path_3976" data-name="Path 3976" d="M167.439,2532.25v1.251l2.232.438,2.607.167,2.378.229,1.46.25,2.106,1.231,1.731,1-1.981.271-3.921-1.96-4.379-.542h-3.608v-1.293Z" transform="translate(-46.25 -2038.874)" fill="#ffdbc5"/>
    <g id="Group_2237" data-name="Group 2237" transform="translate(119.771 484)">
      <path id="Path_3930" data-name="Path 3930" d="M577.25,2693.674l1.4.679,5.851.189-1.057-.642s-1.019-.49-1.019-.906-4.946.267-4.946.267Z" transform="translate(-569.722 -2692.86)" fill="none" stroke="#8e3a15" stroke-width="0.4"/>
      <path id="Path_3931" data-name="Path 3931" d="M535.1,2698.43l-1.449,1.9-1.812.846-.574,3.11-1.722.334-.362,1.962-1.782,1.449v4.53l2.93,3.383,6.222.543,2.779.362,7.279-3.624-.695-9.181-2.9-2.416-.816-2.386" transform="translate(-527.4 -2697.59)" fill="none" stroke="#8e3a15" stroke-width="0.4"/>
      <path id="Path_3932" data-name="Path 3932" d="M597.981,2703.2l-.581,5.769" transform="translate(-586.829 -2701.639)" fill="none" stroke="#8e3a15" stroke-width="0.4"/>
      <path id="Path_3933" data-name="Path 3933" d="M585.867,2703.2l-.667,5.436" transform="translate(-576.472 -2701.639)" fill="none" stroke="#8e3a15" stroke-width="0.4"/>
      <path id="Path_3934" data-name="Path 3934" d="M571.6,2707.4v4.591" transform="translate(-564.925 -2705.205)" fill="none" stroke="#8e3a15" stroke-width="0.4"/>
      <path id="Path_3935" data-name="Path 3935" d="M551.8,2737.779l1.208.694,1.057-.694s7.608-.272,10.933,4.016" transform="translate(-548.116 -2730.994)" fill="none" stroke="#8e3a15" stroke-width="0.4"/>
      <path id="Path_3936" data-name="Path 3936" d="M614.7,2719.6l-2.718.241-.181,3.655" transform="translate(-599.055 -2715.562)" fill="none" stroke="#8e3a15" stroke-width="0.4"/>
      <path id="Path_3937" data-name="Path 3937" d="M613.2,2721.2l4.108,2.718,1.389-.574" transform="translate(-600.243 -2716.92)" fill="none" stroke="#8e3a15" stroke-width="0.4"/>
      <path id="Path_3938" data-name="Path 3938" d="M629.513,2734l-.513,3.02" transform="translate(-613.658 -2727.788)" fill="none" stroke="#8e3a15" stroke-width="0.4"/>
      <path id="Path_3939" data-name="Path 3939" d="M639.381,2739.2l-.181,3.836" transform="translate(-622.318 -2732.202)" fill="none" stroke="#8e3a15" stroke-width="0.4"/>
      <path id="Path_3940" data-name="Path 3940" d="M553.821,2748.21l-1.449.574-1.9-1.449-1.51-.755-3.141-.695-3.564-.483-.574.667-3.081.317,1.839,1.241,4.831.267,2.936.9,2.87,1.6,1.3-.389" transform="translate(-536.909 -2737.467)" fill="none" stroke="#8e3a15" stroke-width="0.4"/>
      <path id="Path_3941" data-name="Path 3941" d="M558.4,2749.2l1.268.725,2.536.211h1.843l5.165,3.051v-1.268" transform="translate(-553.719 -2740.692)" fill="none" stroke="#8e3a15" stroke-width="0.4"/>
      <path id="Path_3942" data-name="Path 3942" d="M576.5,2747.33v1.108" transform="translate(-569.086 -2739.106)" fill="none" stroke="#8e3a15" stroke-width="0.4"/>
      <path id="Path_3943" data-name="Path 3943" d="M585.2,2748.5v1.083" transform="translate(-576.472 -2740.098)" fill="none" stroke="#8e3a15" stroke-width="0.4"/>
      <path id="Path_3944" data-name="Path 3944" d="M595.5,2750.33v.934" transform="translate(-585.216 -2741.653)" fill="none" stroke="#8e3a15" stroke-width="0.4"/>
      <path id="Path_3945" data-name="Path 3945" d="M606.167,2753.42v1.2" transform="translate(-594.272 -2744.273)" fill="none" stroke="#8e3a15" stroke-width="0.4"/>
      <path id="Path_3946" data-name="Path 3946" d="M615.167,2757.38" transform="translate(-601.914 -2747.635)" fill="none" stroke="#8e3a15" stroke-width="0.4"/>
      <path id="Path_3947" data-name="Path 3947" d="M616,2757.38v1.554" transform="translate(-602.621 -2747.635)" fill="none" stroke="#8e3a15" stroke-width="0.4"/>
      <path id="Path_3948" data-name="Path 3948" d="M537.07,2754v1.437l2.123.354,4.671.354,1.841.333,4.052,2.371.071-1.186" transform="translate(-535.61 -2744.767)" fill="none" stroke="#8e3a15" stroke-width="0.4"/>
      <path id="Path_3949" data-name="Path 3949" d="M527.4,2770.07l3.973.144,4.035.425,3.84,2.035,2.336-.159" transform="translate(-527.4 -2758.409)" fill="none" stroke="#8e3a15" stroke-width="0.4"/>
      <path id="Path_3950" data-name="Path 3950" d="M527.4,2776.88l3.425.071,2.3.195,2.389.584,1.451.779v-1.363" transform="translate(-527.4 -2764.19)" fill="none" stroke="#8e3a15" stroke-width="0.4"/>
      <path id="Path_3951" data-name="Path 3951" d="M527.4,2777.7l1.354,1.1,8.208.495" transform="translate(-527.4 -2764.886)" fill="none" stroke="#8e3a15" stroke-width="0.4"/>
      <path id="Path_3952" data-name="Path 3952" d="M535.313,2783.79v1.062l1.274.832.318-1.61" transform="translate(-534.118 -2770.059)" fill="none" stroke="#8e3a15" stroke-width="0.4"/>
      <path id="Path_3953" data-name="Path 3953" d="M538.381,2795.04l-.725,1.308" transform="translate(-536.107 -2779.61)" fill="none" stroke="#8e3a15" stroke-width="0.4"/>
      <path id="Path_3954" data-name="Path 3954" d="M537.656,2790.266l4.565.071,1.929-1.026h1.628l-.106-1.54" transform="translate(-536.107 -2773.44)" fill="none" stroke="#8e3a15" stroke-width="0.4"/>
      <path id="Path_3955" data-name="Path 3955" d="M543.047,2795.74l5.751.354" transform="translate(-540.684 -2780.206)" fill="none" stroke="#8e3a15" stroke-width="0.4"/>
      <path id="Path_3956" data-name="Path 3956" d="M573.281,2787.3v1.487" transform="translate(-566.353 -2773.042)" fill="none" stroke="#8e3a15" stroke-width="0.4"/>
      <path id="Path_3957" data-name="Path 3957" d="M582.188,2788.24v1.433" transform="translate(-573.914 -2773.838)" fill="none" stroke="#8e3a15" stroke-width="0.4"/>
      <path id="Path_3958" data-name="Path 3958" d="M591,2797.73l2.279,1.8,2.955.124" transform="translate(-581.396 -2781.896)" fill="none" stroke="#8e3a15" stroke-width="0.4"/>
      <path id="Path_3959" data-name="Path 3959" d="M606.167,2787.3v3.433" transform="translate(-594.272 -2773.042)" fill="none" stroke="#8e3a15" stroke-width="0.4"/>
      <path id="Path_3960" data-name="Path 3960" d="M544.219,2802.878l1.257.946,4.8.213.5.333,1.5-1.716" transform="translate(-541.679 -2786.076)" fill="none" stroke="#8e3a15" stroke-width="0.4"/>
      <path id="Path_3961" data-name="Path 3961" d="M587.227,2813.55v.69" transform="translate(-578.192 -2795.328)" fill="none" stroke="#8e3a15" stroke-width="0.4"/>
      <path id="Path_3962" data-name="Path 3962" d="M546.714,2757.38v1.108" transform="translate(-543.798 -2747.635)" fill="none" stroke="#8e3a15" stroke-width="0.4"/>
      <path id="Path_3963" data-name="Path 3963" d="M551.8,2760.14v.841" transform="translate(-548.116 -2749.982)" fill="none" stroke="#8e3a15" stroke-width="0.4"/>
      <path id="Path_3964" data-name="Path 3964" d="M563.714,2761.04v.878" transform="translate(-558.23 -2750.747)" fill="none" stroke="#8e3a15" stroke-width="0.4"/>
      <path id="Path_3965" data-name="Path 3965" d="M575.857,2761.33v.985" transform="translate(-568.539 -2750.992)" fill="none" stroke="#8e3a15" stroke-width="0.4"/>
      <path id="Path_3966" data-name="Path 3966" d="M583.857,2761.9v.964" transform="translate(-575.332 -2751.474)" fill="none" stroke="#8e3a15" stroke-width="0.4"/>
      <path id="Path_3967" data-name="Path 3967" d="M593,2765.09v.784" transform="translate(-583.094 -2754.184)" fill="none" stroke="#8e3a15" stroke-width="0.4"/>
      <path id="Path_3968" data-name="Path 3968" d="M603.286,2768.29v1.079" transform="translate(-591.826 -2756.897)" fill="none" stroke="#8e3a15" stroke-width="0.4"/>
      <path id="Path_3969" data-name="Path 3969" d="M611,2771.86v1.23" transform="translate(-598.376 -2759.93)" fill="none" stroke="#8e3a15" stroke-width="0.4"/>
      <path id="Path_3970" data-name="Path 3970" d="M549.857,2770.29v1.014" transform="translate(-546.466 -2758.596)" fill="none" stroke="#8e3a15" stroke-width="0.4"/>
      <path id="Path_3971" data-name="Path 3971" d="M563.714,2771.86v1.013" transform="translate(-558.23 -2759.93)" fill="none" stroke="#8e3a15" stroke-width="0.4"/>
      <path id="Path_3972" data-name="Path 3972" d="M578.714,2773.64v1.262" transform="translate(-570.965 -2761.444)" fill="none" stroke="#8e3a15" stroke-width="0.4"/>
    </g>
  </g>
</svg>
