<svg xmlns="http://www.w3.org/2000/svg" xmlns:xlink="http://www.w3.org/1999/xlink" width="35.508" height="71.19" viewBox="0 0 35.508 71.19">
  <defs>
    <linearGradient id="linear-gradient" x1="0.5" x2="0.5" y2="1" gradientUnits="objectBoundingBox">
      <stop offset="0" stop-color="#ff1919"/>
      <stop offset="1" stop-color="#fff"/>
    </linearGradient>
  </defs>
  <g id="police" transform="translate(-149.049 -20.861)">
    <g id="police-2" data-name="police" transform="translate(149.049 19.652)">
      <path id="XMLID_95_" d="M615.336,247.732a53.991,53.991,0,0,1-5.3,4.212l-2.123-5.335-3.7-1.8s2.427,9.563,3.921,11.053c1.05,1.047,2.395.218,4.3-1.252C614,252.544,617,248.841,617,248.841Z" transform="translate(-587.385 -229.258)" fill="#dc9d73"/>
      <path id="Path_9035" data-name="Path 9035" d="M7.919,5.792S6.327-.131,5.519,0,.051,3.58,0,4.522A14.441,14.441,0,0,0,1.76,9.108a19.328,19.328,0,0,0,4.835-2.26c.368-.318.519-.923.882-.864Z" transform="translate(14.089 23.314) rotate(-105.009)" fill="#d1d1d1"/>
      <path id="Path_9087" data-name="Path 9087" d="M7710.963-3153.94s3.023,1.04,3.646,3.023a66.386,66.386,0,0,1,1.3,7.49v7.943l-.756,3.658-4.075-.328-3.333-14.8,1.691-3.962.387-1.015,1.138-1.16Z" transform="translate(-7696.557 3166.109)" fill="silver"/>
      <g id="Group_3803" data-name="Group 3803" transform="translate(11.938 30.343)">
        <path id="Path_9022" data-name="Path 9022" d="M398.046,427.733c-.137,1.216,0,2.365.541,2.5a11.326,11.326,0,0,1,3.324.511c1.159.46,4.933-.032,5.175-.525.654-1.375.511-2.29-1.114-2.358s-2.8-2.069-3.407-2.883-2.212.215-2.212.215l-1.656.457Z" transform="translate(-396.685 -390.574)"/>
        <path id="Path_9023" data-name="Path 9023" d="M403.1,377.549c1.286,2.34.641,17.1.85,20.9.065,1.2,1.442,12.324.393,12.557a26.792,26.792,0,0,1-5.2-.037s-.637-7.114-1.851-18.643c-.441-4.174-.657-14.132-.657-14.132Z" transform="translate(-396.321 -373.919)" fill="#585858"/>
        <g id="Group_3802" data-name="Group 3802" transform="translate(0 12.392)">
          <path id="Path_9024" data-name="Path 9024" d="M400.794,420c-1.591-5.789-1.774-20.831-2.368-24.982l-2.14,13.056a50.5,50.5,0,0,0,.955,12.22,21.451,21.451,0,0,0,3.553-.294Z" transform="translate(-396.238 -395.022)" fill="#303030"/>
        </g>
        <path id="Path_9025" data-name="Path 9025" d="M400.87,412.722c-.656,1.114-.721,5.044-.982,6.026s.918.524.786,1.768-.918.589-.525,1.9,1.965,1.376,2.162,1.376-4,.328-2.751.656,4.258.393,4.716-.326-1.77-9.5-1.77-9.5Z" transform="translate(-397.042 -387.372)" fill="#585858"/>
      </g>
      <g id="Group_3804" data-name="Group 3804" transform="translate(3.718 29.978)">
        <path id="Path_9026" data-name="Path 9026" d="M386.39,426.271l4.455-.13s.13,3.232,2.839,3.405c.979.064,2.218,2.167,1.049,2.751s-4.422,1.2-5.592.175-1.612-.611-2.489-1.049-.431-3.036-.431-4.2Z" transform="translate(-385.281 -390.602)"/>
        <path id="Path_9027" data-name="Path 9027" d="M388.218,377.822c-.74,1.626-2.2,3.069-1.868,6.978a73.138,73.138,0,0,1-.174,15.023c-2.969,16.071.524,15.549.524,15.549a26.349,26.349,0,0,0,6.667.264s.718-12.481.866-14.7,1.087-10.531,1.464-12.555c.7-3.755,2.1-8.731,1.833-10.219C397.343,377.146,388.218,377.822,388.218,377.822Z" transform="translate(-384.98 -377.602)" fill="#303030"/>
        <path id="Path_9028" data-name="Path 9028" d="M397.956,392.921c-.7,2.883-1.66,15.459-1.75,17.026s-1.4.786-1.049,2.794a32.373,32.373,0,0,1,.261,6.114c-.087.523-.175.874-.611.955a6.918,6.918,0,0,1-2.183-.438c-.523-.174-.955-1.921-.175-2.271s1.222-1.66.438-2.008-1.921-1.4-1.222-1.921a14.057,14.057,0,0,0,2.008-6.206,12.89,12.89,0,0,1,.438-4.627C394.636,400.431,397.956,392.921,397.956,392.921Z" transform="translate(-386.716 -381.704)" fill="#585858"/>
      </g>
      <path id="Path_9034" data-name="Path 9034" d="M389.759,346.873a4.263,4.263,0,0,0,1.458,2.105c.851.525,1.135-.081,1.135-.364a27.772,27.772,0,0,0-1.975-3.014Z" transform="translate(-382.542 -339.052)" fill="#300901"/>
      <g id="Group_3806" data-name="Group 3806" transform="translate(8.094 8.621)">
        <path id="Path_9036" data-name="Path 9036" d="M396.484,348.473l.189.659s-.127,3.122.5,3.254c1.214.256-1.055,1.643-1.93,1.8-3.625.659-4.893-1.24-4.155-1.506,1.093-.395.606-4.252.606-4.252Z" transform="translate(-390.951 -348.43)" fill="#e2b7ac"/>
      </g>
      <path id="Path_9038" data-name="Path 9038" d="M390.658,343.951c-.137-1.776.205-3.342,2.743-3.574,3.168-.28,3.182.345,3.906,3.023.57,2.1,1.128,4.933-.974,5.509a3.878,3.878,0,0,1-5.082-2.528c-.374.159-.84-.616-.923-1.152C390.222,344.519,390.2,344.04,390.658,343.951Z" transform="translate(-382.678 -337.634)" fill="#e2b7ac"/>
      <g id="Group_3808" data-name="Group 3808" transform="translate(7.636 2.775)">
        <path id="Path_9039" data-name="Path 9039" d="M390.726,344.03c-.455.1-.436.576-.329,1.273.083.536.549,1.318.923,1.152.878,2.17,2.188,3.147,5.033,2.479-2.228.687-4.368-4.8-4.137-6.6l1.346-1.881h-.1C390.931,340.688,390.589,342.262,390.726,344.03Z" transform="translate(-390.333 -340.451)" fill="#d19d90"/>
      </g>
      <path id="Path_9041" data-name="Path 9041" d="M392.286,355.283a8.871,8.871,0,0,1-4.734-2,23.231,23.231,0,0,0-4.169,2.374c-.77.528-1.583.955-1.66,1.819s3.41,3.951,3.762,5.444c.531,2.25-2.886,12.921-1.287,14.145.765.586,9.582-1.19,11.4-1.207a61.648,61.648,0,0,0-2.37-17.869C392.763,356.665,392.623,355.283,392.286,355.283Z" transform="translate(-379.15 -341.109)" fill="#d1d1d1"/>
      <path id="Path_9042" data-name="Path 9042" d="M391.375,352.231l-1.142,1.189,4.2,3.5,1.542-2.08a6.771,6.771,0,0,1-4.6-2.61Z" transform="translate(-382.671 -340.829)" fill="#efefef"/>
      <path id="Path_9043" data-name="Path 9043" d="M396.271,340.6c-.267.385-2.025.484-2.869.518s-1.693,1.23-1.867,1.612a11.8,11.8,0,0,1-.318,1.539c-.094.135-.563-.675-1.064-.422-.216.108-.379,1.591-.379,1.591-1.018-.758-1.889-2.219-1.368-3.377a6.724,6.724,0,0,1,2.714-3.168c.447-.17,3.245-.739,3.689-.082C395.5,339.312,395.5,340.227,396.271,340.6Z" transform="translate(-382.316 -337.289)" fill="#300901"/>
      <path id="Path_9052" data-name="Path 9052" d="M398.646,352.816l1.232.406-.2,2.985L397.8,355S399.04,353.946,398.646,352.816Z" transform="translate(-384.694 -340.986)" fill="#d1d1d1"/>
      <path id="XMLID_82_" d="M624.206,245.743l6.379,8.505,11.169-5.493,1.063,2.107s-10.4,8.071-13.971,8.024c-1.138-.014-2.256-1.408-3.182-2.8-1.1-1.641-.939-2.546-2.057-4.115s-1.028-5.159.608-6.226Z" transform="translate(-620.413 -229.827)" fill="#ffb98a"/>
      <path id="Path_9082" data-name="Path 9082" d="M1.273,10.751c.869.776,2.084,1.133,2.923-.087S5.931,6.314,5.844.64C5.339-.23,1.375-.138.169.465-.138,4.96-.159,9.456,1.273,10.751Z" transform="translate(10.541 24.678) rotate(152.025)" fill="#efefef"/>
      <path id="XMLID_99_" d="M604.547,236.7l-3.509,6.136,3.089,1.82,3.453-6.19Z" transform="translate(-576.739 -225.799)" fill="#111"/>
      <path id="XMLID_84_" d="M605.05,247.153s.858-2.923.907-3.2a1.8,1.8,0,0,0-.754-1.47c-.592-.39-.99-.689-1.066-.39s1.073,1.1,1.073,1.1l-.159.253s-1.683-.85-2.058-.713,1.3.942,1.3.942-1.494-.636-1.644-.318,1.47.85,1.47.85-1.389-.024-1.48.207,1.181.361,1.181.361a3.414,3.414,0,0,0-.477,1.628C603.421,247.056,605.05,247.153,605.05,247.153Z" transform="translate(-575.48 -227.514)" fill="#dc9d73"/>
      <path id="XMLID_83_" d="M3.182,1.5a16.4,16.4,0,0,1-1.176,3.59,2.3,2.3,0,0,1-1.629.512c-.242-.073.565-.617,1.076-.692,0,0-1.453-.188-1.453-.619s.3-.344.3-.344-.538-.436-.135-.7A.686.686,0,0,1,.35,2.283c.565-.477.592-.135.592-.135S1.174.141,2.007.008,3.182,1.5,3.182,1.5Z" transform="translate(24.005 21.407) rotate(-177)" fill="#ffb98a"/>
      <path id="Path_9085" data-name="Path 9085" d="M7666.372-3146.38l5.888,7.814-3.03.583-4.259-9.1Z" transform="translate(-7636.751 3159.195)" fill="url(#linear-gradient)"/>
    </g>
  </g>
</svg>
