<svg xmlns="http://www.w3.org/2000/svg" width="117.482" height="49.813" viewBox="0 0 117.482 49.813">
  <g id="jeep" transform="translate(-278 -584.684)">
    <g id="police_vehicle" transform="translate(-35 195.496)">
      <rect id="Rectangle_2032" data-name="Rectangle 2032" width="6" height="16" rx="1" transform="translate(313 407)" fill="#2a2b2b"/>
      <path id="Path_15010" data-name="Path 15010" d="M-3925.124,17034.188h58.878l16.89,16.244,25.581,2.734,1.582,1.084.592,9.885h1.083v3.914l-3.258,3.416-24.784.9-55.055-.074-20.411-.844h-5.771l-1.83-2.111-1.971-.916v-5.488l1.971-1.619v-9.713Z" transform="translate(4251 -16645)" fill="#fffeeb"/>
      <path id="Path_15012" data-name="Path 15012" d="M-3921.685,17035.961h11.533l-3.62,15.186h-10.892l-1.6-2.242Z" transform="translate(4251 -16645)" fill="#353633" opacity="0.8"/>
      <path id="Path_15014" data-name="Path 15014" d="M-3906.922,17035.961h18.645v15.23h-21.047Z" transform="translate(4251 -16645)" fill="#353633"/>
      <path id="Path_15017" data-name="Path 15017" d="M-3884.248,17035.961h17.783l11.2,13.543v1.543h-28.569Z" transform="translate(4251 -16645)" fill="#383533"/>
      <g id="Group_10968" data-name="Group 10968">
        <path id="Path_15018" data-name="Path 15018" d="M-3882.857,17037.867h15.665l7.817,10.145v1.73h-22.969Z" transform="translate(4251 -16645)" fill="#91bfbf"/>
        <path id="Path_15019" data-name="Path 15019" d="M-3880.712,17049.748l-1.858-4.318-.288-7.592h9.835l3.4,11.91Z" transform="translate(4251 -16645)" fill="#a4c9c9"/>
      </g>
      <g id="Group_10972" data-name="Group 10972" transform="translate(0 -53)">
        <path id="Path_15030" data-name="Path 15030" d="M-3859.864,17100.4l.487.6v1.789h-5.427l2.976-3.785Z" transform="translate(4251 -16645)" fill="#6f8788"/>
        <g id="Group_10971" data-name="Group 10971">
          <path id="Path_15031" data-name="Path 15031" d="M-3877.679,17097.713v1.078l2.958.8v-1.037Z" transform="translate(4251 -16645)" fill="#ea9e77"/>
          <path id="Path_15027" data-name="Path 15027" d="M-3876.039,17092.506h2.6l.4,1.514.724,1.508h-1.12l.4.785h-.4v1.207l-.448.422-.664.6-2.326-.133-.631-.469-1.026-1.207.789-.422-.789-.34-.31-.687v-1.266l.165-.574.412-.191h.33l.429.357.34.633.2.52.456-.246v-2.012Z" transform="translate(4251 -16645)" fill="#f2ac89"/>
          <path id="Path_15028" data-name="Path 15028" d="M-3880.186,17092.395h3.718v2.154l-.486.211-.486-1.078-.549-.443h-.3l-.423.189-.106.551v1.246l.317.824.781.295-.781.359-.929-.951-.486-1.52Z" transform="translate(4251 -16645)" fill="#170000"/>
          <path id="Path_15029" data-name="Path 15029" d="M-3880.186,17090.8h6.631l.25,1.027,1.607.607h-8.488Z" transform="translate(4251 -16645)" fill="#eaeaea"/>
          <path id="Path_15032" data-name="Path 15032" d="M-3878.022,17098.652l3.656,1.041v1.332l-3.835-1.527Z" transform="translate(4251 -16645)" fill="#eaeaea"/>
          <path id="Path_15033" data-name="Path 15033" d="M-3880.678,17102.723l.164-1.178,1.188-1.426,1.15-.65,4.525,1.863.348,1.391Z" transform="translate(4251 -16645)" fill="#f3f3f3"/>
        </g>
      </g>
      <path id="Path_15013" data-name="Path 15013" d="M-3920.764,17037.867h9.034l-3.011,12.014h-8.073l-1.474-1.408Z" transform="translate(4251 -16645)" fill="#91bfbd"/>
      <g id="Group_10970" data-name="Group 10970">
        <path id="Path_15015" data-name="Path 15015" d="M-3906.153,17037.867h16.658l-.224,11.881h-18.324Z" transform="translate(4251 -16645)" fill="#91bfbd"/>
        <path id="Path_15016" data-name="Path 15016" d="M-3898.8,17037.867l3.427,11.8h5.5l.395-11.8Z" transform="translate(4251 -16645)" fill="#b0dad8"/>
      </g>
      <path id="Path_15011" data-name="Path 15011" d="M-3923.884,17071.393h-5.959l-1.692-1.932v-5.287h8.08l1.541-2.791h15.825l3.75,6.359h51.793l3.69-6.182h15.909l1.666,2.668h8.739v3.752l-3.242,3.5h-4.511l-20.138.8h-55.342Z" transform="translate(4251 -16645)" fill="#363636"/>
      <circle id="Ellipse_446" data-name="Ellipse 446" cx="10.5" cy="10.5" r="10.5" transform="translate(402 418)" fill="#fff" opacity="0.74"/>
      <g id="Group_10966" data-name="Group 10966" transform="translate(0 1)">
        <circle id="Ellipse_447" data-name="Ellipse 447" cx="10.5" cy="10.5" r="10.5" transform="translate(402 416)" fill="#222"/>
        <circle id="Ellipse_448" data-name="Ellipse 448" cx="6.5" cy="6.5" r="6.5" transform="translate(406 420)" fill="#fff" opacity="0.74"/>
        <circle id="Ellipse_449" data-name="Ellipse 449" cx="1.5" cy="1.5" r="1.5" transform="translate(411 425)" fill="#222" opacity="0.74"/>
      </g>
      <g id="Group_10967" data-name="Group 10967" transform="translate(-76 1)">
        <circle id="Ellipse_447-2" data-name="Ellipse 447" cx="10.5" cy="10.5" r="10.5" transform="translate(402 416)" fill="#222"/>
        <circle id="Ellipse_448-2" data-name="Ellipse 448" cx="6.5" cy="6.5" r="6.5" transform="translate(406 420)" fill="#fff" opacity="0.74"/>
        <circle id="Ellipse_449-2" data-name="Ellipse 449" cx="1.5" cy="1.5" r="1.5" transform="translate(411 425)" fill="#222" opacity="0.74"/>
      </g>
      <rect id="Rectangle_2018" data-name="Rectangle 2018" width="6" height="2" rx="0.2" transform="translate(342 407)" fill="#292f2f"/>
      <rect id="Rectangle_2019" data-name="Rectangle 2019" width="6" height="2" rx="0.2" transform="translate(367 407)" fill="#292f2f"/>
      <path id="Path_15020" data-name="Path 15020" d="M-3824.847,17054.061l2.748.25.542,9.871h-3.5Z" transform="translate(4251 -16645)" fill="#333" opacity="0.56"/>
      <path id="Path_15021" data-name="Path 15021" d="M-3824.822,17058.094s1.542-.057,2.035.508v5.566h-2.035Z" transform="translate(4251 -16645)" fill="#ca6d25"/>
      <path id="Path_15022" data-name="Path 15022" d="M-3908.762,17034.188h.69l-3.577,20.238v7.055h-.583v-7.055Z" transform="translate(4251 -16645)" fill="#ababab"/>
      <path id="Path_15023" data-name="Path 15023" d="M-3886.52,17034.188v33.676h.667l-.047-33.676Z" transform="translate(4251 -16645)" fill="#ababab"/>
      <path id="Path_15024" data-name="Path 15024" d="M-3855.516,17067.863l-.169-16.725h-.408v16.725Z" transform="translate(4251 -16645)" fill="#ababab"/>
      <rect id="Rectangle_2020" data-name="Rectangle 2020" width="30" height="1" transform="translate(396 410)" fill="#f3f3f3"/>
      <rect id="Rectangle_2023" data-name="Rectangle 2023" width="28" height="1" transform="translate(366 410)" fill="#f3f3f3"/>
      <rect id="Rectangle_2026" data-name="Rectangle 2026" width="24" height="1" transform="translate(340 410)" fill="#f3f3f3"/>
      <rect id="Rectangle_2029" data-name="Rectangle 2029" width="19" height="1" transform="translate(319 410)" fill="#f3f3f3"/>
      <rect id="Rectangle_2021" data-name="Rectangle 2021" width="30" height="1" transform="translate(396 412)" fill="#f3f3f3"/>
      <rect id="Rectangle_2024" data-name="Rectangle 2024" width="28" height="1" transform="translate(366 412)" fill="#f3f3f3"/>
      <rect id="Rectangle_2027" data-name="Rectangle 2027" width="24" height="1" transform="translate(340 412)" fill="#f3f3f3"/>
      <rect id="Rectangle_2030" data-name="Rectangle 2030" width="19" height="1" transform="translate(319 412)" fill="#f3f3f3"/>
      <rect id="Rectangle_2022" data-name="Rectangle 2022" width="30" height="1" transform="translate(396 414)" fill="#f3f3f3"/>
      <rect id="Rectangle_2025" data-name="Rectangle 2025" width="28" height="1" transform="translate(366 414)" fill="#f3f3f3"/>
      <rect id="Rectangle_2028" data-name="Rectangle 2028" width="24" height="1" transform="translate(340 414)" fill="#f3f3f3"/>
      <rect id="Rectangle_2031" data-name="Rectangle 2031" width="19" height="1" transform="translate(319 414)" fill="#f3f3f3"/>
      <path id="Path_15025" data-name="Path 15025" d="M-3931.631,17061.275v3.168h-2v-1.51Z" transform="translate(4251 -16645)" fill="#eb1b20"/>
      <path id="Path_15026" data-name="Path 15026" d="M-3933.63,17066.832h2.08v-2.42h-2.08Z" transform="translate(4251 -16645)" fill="#ef7a15"/>
    </g>
  </g>
</svg>
