<svg xmlns="http://www.w3.org/2000/svg" width="129.207" height="95.755" viewBox="0 0 129.207 95.755">
  <g id="Truck" transform="translate(-651.435 -536.084)">
    <g id="Truck-2" data-name="Truck">
      <g id="Group_2641" data-name="Group 2641" transform="translate(651.435 562.676)">
        <rect id="Rectangle_1929" data-name="Rectangle 1929" width="1.581" height="15.838" transform="translate(100.15 20.298)" fill="#3b3c42"/>
        <path id="Path_85" data-name="Path 85" d="M287.531,254.246l-7.037-26.5-77.625,2.893s-7.418,11.208-7.418,23.452C202.449,254.086,287.531,254.246,287.531,254.246Z" transform="translate(-186.589 -204.915)" fill="#5e5e5e"/>
        <rect id="Rectangle_1930" data-name="Rectangle 1930" width="18.39" height="4.401" transform="translate(49.108 47.179)" fill="#474747"/>
        <rect id="Rectangle_1931" data-name="Rectangle 1931" width="16.387" height="2.53" transform="translate(50.232 51.579)" fill="#2d2d2d"/>
        <g id="Group_31" data-name="Group 31" transform="translate(69.092 29.176)">
          <path id="Path_86" data-name="Path 86" d="M224.781,251.4a16.284,16.284,0,0,1-32.5,1.485v-.005c-.044-.488-.066-.985-.066-1.48a16.309,16.309,0,0,1,16.176-16.29h.1c.244,0,.479.008.716.013a16.309,16.309,0,0,1,15.441,14.254,1.229,1.229,0,0,0,.016.137A15.18,15.18,0,0,1,224.781,251.4Zm-10.773,8.313c.089-.067.2-.13.288-.2.138-.1.274-.2.405-.3a1.022,1.022,0,0,0,.117-.1,1.6,1.6,0,0,0,.157-.127c.117-.1.235-.2.341-.311a.69.69,0,0,0,.113-.107c.078-.07.166-.16.25-.248a9.92,9.92,0,0,0,2.8-6.919,9.122,9.122,0,0,0-.156-1.735,1.049,1.049,0,0,0-.028-.142c0-.066-.027-.133-.032-.2-.032-.149-.067-.3-.113-.453a.818.818,0,0,0-.032-.143c-.028-.118-.059-.229-.091-.337-.054-.164-.109-.318-.173-.483-.02-.045-.032-.093-.058-.143s-.045-.123-.071-.185a4.227,4.227,0,0,0-.2-.42.457.457,0,0,0-.059-.139c-.048-.1-.1-.211-.148-.31a9.981,9.981,0,0,0-7.423-5.19.553.553,0,0,0-.153-.027c-.056-.009-.131-.015-.2-.027-.138-.009-.283-.023-.421-.032h-.045a.6.6,0,0,1-.145-.012h-.7a.512.512,0,0,0-.161.016.608.608,0,0,0-.15,0c-.071,0-.131.011-.2.015-.153.013-.311.03-.468.045a.693.693,0,0,0-.146.027c-.113.008-.227.03-.338.05a9.97,9.97,0,0,0-7.229,5.45,1.163,1.163,0,0,0-.074.139,1.237,1.237,0,0,0-.086.181c-.066.141-.126.283-.18.424-.018.051-.035.1-.05.143-.047.109-.081.224-.118.33-.056.162-.106.319-.15.49a1.4,1.4,0,0,0-.041.143c-.012.068-.038.131-.047.187-.035.16-.074.3-.094.455a1.5,1.5,0,0,0-.028.15c-.02.122-.043.231-.056.348a9.416,9.416,0,0,0-.1,1.388,9.942,9.942,0,0,0,3.047,7.167.508.508,0,0,0,.11.1,1.55,1.55,0,0,0,.142.134c.122.11.236.213.359.313.043.03.076.059.113.087.086.072.179.144.276.213.142.1.278.2.424.3.04.028.085.054.125.078s.107.071.17.107c.131.085.264.162.4.236a1.229,1.229,0,0,0,.138.075c.1.055.2.106.3.16a9.974,9.974,0,0,0,9.056-.16c.05-.023.087-.047.138-.075a1.663,1.663,0,0,0,.175-.093c.13-.076.266-.161.4-.248a1.279,1.279,0,0,1,.119-.074Z" transform="translate(-188.513 -231.402)" fill="#7a7a7a"/>
          <path id="Path_87" data-name="Path 87" d="M228.115,255.612c.018-.129.043-.256.062-.385h0l1.069.166a20.018,20.018,0,0,0,.225-3.3l-1.081.013c0-.2-.015-.4-.02-.594v-.039c-.005-.11-.015-.217-.019-.325s-.012-.2-.023-.31l1.077-.086a19.827,19.827,0,0,0-.539-3.267l-1.052.267c-.051-.211-.106-.405-.168-.614s-.123-.405-.188-.608l1.032-.34a19.365,19.365,0,0,0-1.285-3.044l-.955.5c-.1-.181-.2-.37-.3-.554v-.005l-.185-.313c-.03-.051-.056-.1-.086-.156a.045.045,0,0,1-.013-.02l-.03-.05.924-.566a20.9,20.9,0,0,0-1.952-2.671l-.82.709-.342-.384-.083-.089a.922.922,0,0,0-.07-.075c-.122-.13-.243-.259-.368-.386l.769-.765a21.8,21.8,0,0,0-2.508-2.152l-.636.884v0c-.022-.015-.054-.03-.076-.047-.067-.054-.135-.1-.2-.146s-.158-.109-.239-.165h0c-.026-.019-.054-.034-.078-.054l-.453-.292.569-.922a20.247,20.247,0,0,0-2.933-1.513l-.416,1h0l-.023-.018-.566-.221-.6-.211.355-1.022c-.539-.191-1.062-.329-1.593-.468-.268-.067-.537-.131-.81-.184s-.539-.1-.81-.146l-.17,1.07c-.1-.017-.2-.03-.3-.04a1.2,1.2,0,0,1-.146-.027c-.062-.009-.116-.011-.175-.022s-.135-.016-.2-.027-.149-.013-.225-.022a1.821,1.821,0,0,0-.2-.024l.1-1.083c-.549-.048-1.114-.072-1.645-.083h-.444l-.389.015c-.271,0-.551.018-.824.035l.074,1.08a.538.538,0,0,0-.082.011l-.18.008c-.122.009-.243.022-.355.039h-.02l-.211.027-.419.054-.146-1.077c-.271.04-.541.083-.81.134s-.558.109-.821.17c-.519.119-1.08.263-1.593.435l.326,1.029-.6.2-.135.048a1.023,1.023,0,0,1-.113.04l-.086.026c-.066.03-.131.055-.192.083l-.08.018-.393-1a19.454,19.454,0,0,0-2.965,1.461l.553.93c-.027.02-.062.044-.1.066l-.437.264h0c-.06.04-.113.082-.177.125a.353.353,0,0,0-.089.055c-.044.031-.087.054-.131.083s-.086.056-.134.089l-.616-.888a19.988,19.988,0,0,0-2.549,2.1l.757.769-.187.191c-.055.049-.1.1-.152.152-.027.026-.052.052-.076.079l-.035.036c-.024.022-.04.04-.066.067-.054.059-.1.109-.162.169-.018.023-.035.044-.056.067-.049.058-.1.107-.15.161l-.8-.722a19.107,19.107,0,0,0-2,2.623l.912.586c-.067.109-.135.216-.2.327l-.134.216-.313.549-.954-.526c-.127.242-.26.492-.388.75-.113.224-.233.5-.345.735s-.215.506-.319.766c-.054.119-.1.26-.154.4l-.139.376,1.022.358-.194.6-.179.608h0l-1.044-.283a19.564,19.564,0,0,0-.608,3.248l1.077.112-.005.008c-.007.093-.011.2-.019.3s-.02.215-.028.321l-.005.04v.132l-.022.381-.005.081-1.079-.038a20.837,20.837,0,0,0,.153,3.3l1.079-.142a.406.406,0,0,0,.007.059c.022.2.054.381.087.568l.109.632-1.062.209a20.392,20.392,0,0,0,.918,3.174l1.013-.389c.067.2.153.4.235.593l.225.506.028.079-.983.448a19.829,19.829,0,0,0,1.629,2.876l.9-.608h0a.506.506,0,0,1,.03.043c.052.075.1.146.149.223a2.669,2.669,0,0,0,.191.256c.114.17.25.338.378.506l-.853.672a20.557,20.557,0,0,0,2.247,2.423l.73-.8.472.415c.028.027.06.047.085.071s.074.062.114.094c.091.085.193.164.3.244l-.676.844a19.189,19.189,0,0,0,2.7,1.831l.56-.923.038.024h0a.787.787,0,0,1,.117.062c.032.02.071.034.1.056.1.054.2.109.3.157.2.094.378.189.565.278h0l-.456.978a19.359,19.359,0,0,0,3.087,1.163l.3-1.037.1.024c.036.011.081.027.121.036l.162.04.231.06.093.019.519.129h0l-.229,1.051a19.5,19.5,0,0,0,3.294.42l.038-1.087.313.011.327.005h.624l.032,1.079a18.469,18.469,0,0,0,3.271-.35l-.2-1.058c.085-.019.172-.035.256-.059a1.925,1.925,0,0,0,.264-.051.281.281,0,0,0,.045-.012.218.218,0,0,0,.052-.009l.618-.152.278,1.048c.537-.137,1.064-.3,1.579-.484.534-.189,1.018-.381,1.545-.624l-.456-.982.574-.271.507-.256.06-.028.512.953.369-.2.348-.2c.252-.146.476-.294.709-.445.461-.3.912-.616,1.347-.949l-.664-.864.362-.274.135-.115v-.005l.223-.189c.028-.022.056-.047.086-.07a.179.179,0,0,0,.051-.048l.022-.019.1-.09.709.819a20.343,20.343,0,0,0,2.293-2.383l-.841-.684q.049-.061.094-.122a.446.446,0,0,0,.05-.055l.056-.075c.062-.08.134-.162.2-.248l.373-.506h0l.888.627a21.35,21.35,0,0,0,1.684-2.843l-.974-.471.013-.039a.9.9,0,0,0,.062-.121c.045-.094.086-.193.127-.292l.063-.13c.016-.028.024-.066.039-.1.028-.062.063-.126.089-.192.035-.1.079-.2.122-.295l1,.405a19.112,19.112,0,0,0,.991-3.154l-1.06-.24.133-.622A2.2,2.2,0,0,0,228.115,255.612Z" transform="translate(-189.498 -232.394)" fill="#3b3c42"/>
          <path id="Path_88" data-name="Path 88" d="M192.6,253.5a16.25,16.25,0,1,1,32.5,0,7.371,7.371,0,0,0,.4-2.673,16.855,16.855,0,1,0-33.709,0C191.794,253.055,192.6,254.743,192.6,253.5Z" transform="translate(-188.666 -231.815)" fill="#fff" opacity="0.2"/>
          <g id="Group_30" data-name="Group 30" transform="translate(8.74 8.743)">
            <path id="Path_89" data-name="Path 89" d="M217.325,253.728a1.139,1.139,0,0,1-.048.106c-.054.165-.125.325-.189.486C217.174,254.127,217.251,253.931,217.325,253.728Zm-2.5,3.93h0c-.054.056-.11.115-.164.168a1.977,1.977,0,0,0,.164-.169ZM196.6,252.466a4.376,4.376,0,0,0,.161.617,2.662,2.662,0,0,1-.091-.333c-.019-.1-.053-.19-.07-.285Zm21.788-2.414v.051a11.255,11.255,0,0,1-3.309,7.9c-.1.1-.191.185-.287.271-.035.031-.067.067-.1.1-.09.07-.177.156-.27.227-.056.056-.122.11-.188.17a.607.607,0,0,0-.118.083c-.144.112-.284.224-.439.325a3.016,3.016,0,0,1-.314.225.571.571,0,0,1-.117.074c-.1.068-.2.134-.3.2-.072.036-.146.085-.225.123a.836.836,0,0,1-.115.067,11.177,11.177,0,0,1-10.584.184,2.646,2.646,0,0,1-.344-.184.992.992,0,0,1-.118-.067l-.3-.179a1.811,1.811,0,0,1-.217-.142.382.382,0,0,1-.114-.074c-.157-.1-.3-.2-.453-.318-.106-.08-.212-.149-.313-.235a1.075,1.075,0,0,0-.1-.08c-.089-.081-.177-.156-.268-.232-.067-.055-.131-.121-.2-.17-.027-.027-.064-.062-.094-.093a11.219,11.219,0,0,1-3.589-8.121v-.1c0-.173.007-.354.012-.528.007-.067.007-.126.011-.191.007-.148.02-.287.039-.433.015-.213.05-.421.075-.635.022-.129.047-.254.072-.384v-.008c.013-.039.023-.086.032-.126.028-.154.063-.313.106-.466a.86.86,0,0,1,.028-.113c.066-.252.141-.492.224-.738.02-.07.04-.131.064-.2s.041-.113.063-.173c.008-.018.02-.04.032-.062a2.731,2.731,0,0,1,.126-.325,2.661,2.661,0,0,1,.113-.247,1.155,1.155,0,0,1,.048-.112.727.727,0,0,1,.074-.141,9.121,9.121,0,0,1,.52-.958c.113-.191.232-.374.366-.558.056-.083.106-.168.164-.243.109-.149.225-.294.34-.427s.22-.271.338-.405a10.483,10.483,0,0,1,1.131-1.114c.154-.135.314-.264.483-.39.143-.106.282-.2.429-.31a.716.716,0,0,1,.079-.054,2.251,2.251,0,0,1,.239-.154,4.291,4.291,0,0,1,.368-.227.179.179,0,0,1,.032-.024c.189-.1.372-.212.561-.3l.056-.028c.2-.1.4-.2.6-.283s.427-.173.645-.251.447-.149.662-.216c.232-.064.456-.123.684-.173s.464-.1.7-.13c.138-.026.283-.047.423-.06.028,0,.063-.007.1-.007a.433.433,0,0,0,.067-.015c.052-.005.112-.011.164-.011h.122a.627.627,0,0,1,.107-.019c.252-.019.5-.022.75-.022.275,0,.551.005.83.024a1.029,1.029,0,0,0,.134.019.582.582,0,0,1,.1.005.4.4,0,0,1,.086.005.643.643,0,0,0,.067.015.4.4,0,0,1,.09.007.492.492,0,0,1,.13.019c.209.024.42.06.62.1.235.04.464.093.69.148.2.055.405.109.6.166.049.019.109.028.162.055.191.067.378.129.564.2.228.086.43.175.644.278s.405.2.614.3c.17.09.336.192.5.288.251.148.5.311.73.48.161.123.325.243.479.369a5.636,5.636,0,0,1,.475.405,7.945,7.945,0,0,1,.643.625c.117.117.223.237.334.366.012.011.022.015.022.028a5.926,5.926,0,0,1,.427.522,10.364,10.364,0,0,1,.759,1.127c.112.2.227.394.327.6a1.744,1.744,0,0,1,.093.176c.122.237.229.49.33.743a.573.573,0,0,1,.041.118.5.5,0,0,0,.03.062.167.167,0,0,1,.016.068,1.444,1.444,0,0,1,.1.263,1.209,1.209,0,0,1,.086.259c.019.044.028.09.05.131a2.387,2.387,0,0,1,.064.24.506.506,0,0,1,.036.131c.027.114.059.229.082.349a1.717,1.717,0,0,1,.062.243.689.689,0,0,0,.028.126A11.8,11.8,0,0,1,218.393,250.052Zm-.419,0a10.375,10.375,0,0,0-.194-2.026c-.011-.044-.018-.1-.023-.135a2.381,2.381,0,0,1-.052-.24c-.031-.125-.062-.256-.089-.378-.013-.045-.03-.087-.043-.131-.028-.121-.066-.24-.106-.361-.056-.181-.113-.341-.183-.512a.465.465,0,0,0-.048-.134,1.191,1.191,0,0,0-.089-.228c-.048-.117-.1-.236-.15-.353a1.3,1.3,0,0,1-.066-.131,3.14,3.14,0,0,0-.165-.333,10.825,10.825,0,0,0-8.255-5.774.562.562,0,0,0-.139-.019c-.078-.015-.162-.02-.239-.027-.114-.005-.235-.018-.348-.027-.016,0-.028-.005-.04,0a1.208,1.208,0,0,0-.138-.005c-.127-.005-.251-.009-.374-.009H206.9c-.076,0-.138,0-.211.005a1.258,1.258,0,0,0-.142.005,1.474,1.474,0,0,0-.232.022c-.135.005-.263.018-.39.031a.753.753,0,0,0-.142.019c-.126.013-.252.028-.369.05a10.873,10.873,0,0,0-8.055,6.063c-.018.044-.038.091-.058.131-.031.075-.063.138-.089.217a2.33,2.33,0,0,0-.149.363,1.072,1.072,0,0,0-.059.134c-.039.113-.083.24-.121.355a3.921,3.921,0,0,0-.158.518,1.293,1.293,0,0,0-.035.138c-.023.082-.048.152-.063.229-.032.126-.056.256-.087.382,0,.036-.019.09-.023.135-.023.127-.048.244-.064.37v.007a10.362,10.362,0,0,0-.126,1.646v.1c0,.284.019.562.04.837a1.269,1.269,0,0,0,.016.2c.018.134.031.28.058.416.012.09.023.175.043.266a5.629,5.629,0,0,0,.117.593,4.372,4.372,0,0,0,.161.617,10.509,10.509,0,0,0,1.17,2.634c.087.15.181.295.283.437.066.1.138.2.2.292s.141.193.213.282c.125.156.25.3.382.456.089.109.179.2.274.3.113.121.233.236.35.349.03.035.067.067.1.1a1.138,1.138,0,0,0,.1.091,1.85,1.85,0,0,0,.173.158h.007c.05.044.094.089.142.129s.1.086.153.133h0a.836.836,0,0,1,.112.082c.089.072.189.157.283.224l.428.3a.12.12,0,0,1,.03.022.3.3,0,0,0,.059.031.221.221,0,0,0,.059.034c.066.048.131.1.188.133a.207.207,0,0,1,.062.039c.09.056.188.109.282.162h.005a.549.549,0,0,0,.123.062.216.216,0,0,0,.079.043,1.53,1.53,0,0,0,.247.135h.008c.156.079.314.153.466.227.133.058.258.116.393.161a2.331,2.331,0,0,0,.318.122,8.082,8.082,0,0,0,1,.313.827.827,0,0,0,.149.04c.123.034.248.063.374.086a8.831,8.831,0,0,0,1.062.16,8.946,8.946,0,0,0,1.1.062c.161,0,.327-.005.487-.016h.09c.139-.009.288-.019.425-.036a.97.97,0,0,0,.145-.016,3.906,3.906,0,0,0,.492-.063,4.307,4.307,0,0,0,.531-.089,8.371,8.371,0,0,0,1.025-.269,3.2,3.2,0,0,0,.4-.133c.153-.055.31-.1.46-.172s.3-.118.44-.192a5.833,5.833,0,0,0,.633-.317.312.312,0,0,0,.086-.043.771.771,0,0,0,.121-.062c.066-.036.138-.078.2-.121.11-.067.217-.139.33-.213a1.147,1.147,0,0,1,.123-.067l.027-.022c.1-.07.187-.13.275-.2a4.6,4.6,0,0,0,.436-.322c.268-.213.539-.451.792-.694.056-.054.106-.107.16-.168h0c.173-.176.346-.361.512-.546s.321-.39.475-.59a10.84,10.84,0,0,0,1.271-2.2c.086-.193.164-.39.237-.594.047-.127.094-.248.131-.37a11.178,11.178,0,0,0,.491-2.624c0-.162.024-.315.024-.474v-.121A.229.229,0,0,0,217.973,250.052Z" transform="translate(-195.908 -238.797)" fill="#a5a5a5"/>
          </g>
          <path id="Path_90" data-name="Path 90" d="M207.038,258.047a10.839,10.839,0,0,0,10.821-10.82v-.11a10.82,10.82,0,1,1-21.64,0v.1A10.839,10.839,0,0,0,207.038,258.047Z" transform="translate(-187.057 -227.019)" opacity="0.3"/>
          <path id="Path_91" data-name="Path 91" d="M207.16,239.01a11.244,11.244,0,0,1,11.235,11.133v-.1a11.244,11.244,0,0,0-22.48,0v.1A11.252,11.252,0,0,1,207.16,239.01Z" transform="translate(-187.179 -230.048)" opacity="0.3"/>
          <path id="Path_92" data-name="Path 92" d="M216.805,249.713a9.909,9.909,0,0,1-2.8,6.919c-.083.087-.172.179-.25.248a.642.642,0,0,1-.113.107c-.106.1-.225.211-.341.311a1.584,1.584,0,0,1-.157.127.92.92,0,0,1-.118.1q-.193.152-.405.3c-.093.071-.2.134-.288.2-.04.028-.09.053-.125.08-.133.086-.268.172-.4.248a1.422,1.422,0,0,1-.175.093,1.505,1.505,0,0,1-.138.075,9.975,9.975,0,0,1-9.056.16c-.1-.054-.2-.1-.3-.16a1.509,1.509,0,0,1-.138-.075c-.134-.074-.267-.152-.4-.236-.063-.036-.118-.072-.17-.107s-.085-.048-.125-.078c-.146-.091-.282-.2-.424-.3-.1-.07-.191-.142-.276-.213-.036-.028-.071-.058-.113-.087-.123-.1-.237-.2-.359-.313a1.784,1.784,0,0,1-.142-.134.542.542,0,0,1-.11-.1,9.942,9.942,0,0,1-3.047-7.167,9.407,9.407,0,0,1,.1-1.388c.012-.118.035-.227.056-.349a1.506,1.506,0,0,1,.028-.15c.022-.15.059-.295.094-.455.008-.056.034-.118.047-.187.011-.051.028-.1.041-.144.044-.17.094-.327.15-.49.037-.106.071-.221.118-.33.013-.045.031-.093.05-.143.055-.142.114-.284.18-.424a1.117,1.117,0,0,1,.086-.181,1.172,1.172,0,0,1,.074-.139,9.967,9.967,0,0,1,7.227-5.45c.112-.019.225-.041.338-.05a.687.687,0,0,1,.146-.027c.157-.015.314-.031.468-.045.066,0,.126-.011.2-.015a.605.605,0,0,1,.15,0,.511.511,0,0,1,.161-.016h.7a.6.6,0,0,0,.145.012h.045c.139.011.284.024.421.032.067.012.142.018.2.027a.547.547,0,0,1,.153.027,9.983,9.983,0,0,1,7.423,5.19c.052.1.1.2.148.31a.429.429,0,0,1,.059.139,3.826,3.826,0,0,1,.2.42c.026.063.048.13.071.185s.037.1.058.143c.064.165.121.319.173.483.032.107.064.22.091.337a.63.63,0,0,1,.032.143c.047.149.08.3.113.453.007.064.028.131.032.2a1.041,1.041,0,0,1,.028.142A8.686,8.686,0,0,1,216.805,249.713Z" transform="translate(-186.844 -229.715)" fill="#d9d9d9"/>
          <path id="Path_93" data-name="Path 93" d="M211.714,248.642a5.928,5.928,0,0,1-1.677,4.139c-.05.054-.1.1-.15.148a.428.428,0,0,1-.062.062,2.519,2.519,0,0,1-.2.187.516.516,0,0,1-.1.075.138.138,0,0,1-.071.062c-.072.063-.156.125-.239.187-.059.034-.113.079-.176.114-.019.018-.05.031-.072.051-.075.048-.16.1-.239.146a.763.763,0,0,1-.1.056c-.034.016-.056.032-.085.045a5.919,5.919,0,0,1-5.418.094c-.064-.031-.123-.062-.18-.093a.474.474,0,0,1-.083-.045c-.082-.048-.161-.09-.243-.142l-.1-.063a.8.8,0,0,1-.075-.05c-.086-.055-.169-.114-.256-.172-.054-.044-.113-.09-.162-.133a.261.261,0,0,1-.067-.054c-.074-.063-.149-.122-.216-.183-.028-.024-.058-.058-.086-.085a.265.265,0,0,1-.063-.062,5.941,5.941,0,0,1-1.823-4.288,5.753,5.753,0,0,1,.052-.834c.009-.064.02-.134.036-.2a.509.509,0,0,1,.016-.086,2.569,2.569,0,0,1,.054-.275.878.878,0,0,0,.028-.118.322.322,0,0,1,.027-.082c.027-.1.059-.2.091-.3.019-.064.043-.133.067-.192a.8.8,0,0,1,.028-.09c.035-.086.071-.173.106-.256a1.012,1.012,0,0,1,.059-.1c.022-.029.019-.052.036-.086a5.969,5.969,0,0,1,4.326-3.263c.067-.008.134-.019.2-.034a.772.772,0,0,0,.087-.009c.093-.008.187-.015.275-.02a.919.919,0,0,1,.118-.015h.091a.3.3,0,0,1,.1-.009h.213q.1,0,.2.007h.131c.085.007.17.018.251.023.04,0,.085.011.117.012l.091.009a5.993,5.993,0,0,1,4.437,3.113c.032.063.066.127.093.184a.239.239,0,0,1,.036.086,2.651,2.651,0,0,1,.119.255,1.04,1.04,0,0,1,.046.106.611.611,0,0,0,.035.09c.036.09.064.187.1.286.019.067.036.13.051.2a.327.327,0,0,1,.028.082c.02.094.045.185.06.275a.664.664,0,0,1,.026.119c.005.028.011.056.018.086a5.145,5.145,0,0,1,.093,1.037Z" transform="translate(-185.76 -228.644)" fill="#646464"/>
          <path id="Path_94" data-name="Path 94" d="M199.818,248.405a2.023,2.023,0,0,1,.036-.2.456.456,0,0,1,.016-.086,2.507,2.507,0,0,1,.054-.275,1.015,1.015,0,0,0,.028-.116.369.369,0,0,1,.027-.086c.027-.1.059-.2.091-.291.019-.067.043-.133.067-.2.005-.028.022-.059.028-.086.035-.089.071-.169.106-.259.018-.032.036-.068.059-.1a.579.579,0,0,0,.036-.085,5.983,5.983,0,0,1,4.326-3.263c.067-.011.134-.022.2-.028q.044,0,.087-.013c.093-.008.187-.016.275-.027a.866.866,0,0,1,.118-.008.511.511,0,0,1,.091,0,.267.267,0,0,1,.1-.011h.213c.07,0,.138,0,.2.005a.453.453,0,0,0,.087.005h.033a2.241,2.241,0,0,1,.251.02c.04.007.085.012.117.015a.609.609,0,0,1,.091.013,5.959,5.959,0,0,1,4.437,3.107c.032.058.066.127.093.184a.243.243,0,0,1,.036.085,2.671,2.671,0,0,1,.119.254,1.144,1.144,0,0,1,.045.112.441.441,0,0,0,.035.086c.036.1.064.189.1.29.019.067.036.135.051.2a.372.372,0,0,1,.028.086c.02.09.045.179.06.273a.593.593,0,0,1,.026.119c.005.028.011.054.018.086.036.239.062.48.078.723.008-.094.013-.187.013-.282a5.8,5.8,0,0,0-.09-1.04c-.007-.028-.012-.056-.018-.086a.668.668,0,0,0-.026-.118c-.015-.089-.04-.18-.06-.275a.323.323,0,0,0-.028-.082,1.967,1.967,0,0,0-.051-.2c-.035-.1-.063-.2-.1-.286a.433.433,0,0,1-.035-.09,1.033,1.033,0,0,0-.045-.106c-.034-.086-.076-.173-.119-.255a.282.282,0,0,0-.036-.086c-.028-.058-.06-.122-.093-.184a5.993,5.993,0,0,0-4.437-3.113l-.091-.009c-.031,0-.076-.008-.116-.012-.081-.005-.166-.016-.251-.023h-.115a1.978,1.978,0,0,0-.2-.007h-.213a.3.3,0,0,0-.1.009h-.091a.909.909,0,0,0-.118.015c-.089.005-.183.012-.276.02a.811.811,0,0,1-.087.009,1.791,1.791,0,0,1-.2.034,5.966,5.966,0,0,0-4.326,3.263.611.611,0,0,0-.035.086c-.022.031-.04.072-.059.1l-.106.256a.5.5,0,0,0-.028.09c-.024.06-.048.129-.067.193-.032.1-.066.193-.091.3a.326.326,0,0,0-.027.082c-.007.044-.02.082-.028.119a2.565,2.565,0,0,0-.054.275.457.457,0,0,0-.016.086,1.885,1.885,0,0,0-.036.2,5.765,5.765,0,0,0-.052.834,3.152,3.152,0,0,0,.012.338A5.729,5.729,0,0,1,199.818,248.405Z" transform="translate(-185.748 -228.643)" fill="#fff" opacity="0.3"/>
          <path id="Path_95" data-name="Path 95" d="M199.819,247.8a1.817,1.817,0,0,0,.036.2.6.6,0,0,0,.016.087,2.409,2.409,0,0,0,.054.27.882.882,0,0,1,.028.122.543.543,0,0,0,.027.085c.027.1.059.2.091.295.019.063.043.13.067.193.005.031.022.059.028.086.035.086.071.17.106.258.018.036.036.07.059.107a.676.676,0,0,0,.035.079,5.956,5.956,0,0,0,4.326,3.26,1.62,1.62,0,0,0,.2.035.389.389,0,0,1,.087.016c.093.009.187.016.275.022.04.005.081.005.118.009a.677.677,0,0,0,.091,0,.349.349,0,0,0,.1.008.888.888,0,0,0,.161.009.14.14,0,0,0,.052-.009h.2a.6.6,0,0,1,.087,0h.033a2.04,2.04,0,0,0,.251-.019c.039,0,.085-.012.116-.012a.62.62,0,0,1,.091-.016,5.976,5.976,0,0,0,4.437-3.106c.032-.062.066-.126.093-.189a.187.187,0,0,0,.036-.079,2.72,2.72,0,0,0,.119-.256,1.087,1.087,0,0,0,.045-.109.524.524,0,0,1,.035-.086c.036-.1.064-.189.1-.291.019-.066.036-.131.051-.2a.565.565,0,0,0,.028-.085c.02-.089.045-.185.06-.27a.63.63,0,0,0,.026-.121.812.812,0,0,1,.018-.087c.036-.242.062-.48.078-.725.008.093.013.187.013.287a5.674,5.674,0,0,1-.09,1.03c-.007.036-.012.066-.018.089a.6.6,0,0,1-.026.119c-.015.09-.04.183-.06.271a.355.355,0,0,1-.028.086c-.013.066-.031.134-.051.2-.035.1-.063.2-.1.291a.326.326,0,0,0-.035.087c-.011.034-.03.071-.045.106a2.751,2.751,0,0,1-.118.256.25.25,0,0,1-.036.085c-.028.058-.06.127-.093.183a5.964,5.964,0,0,1-4.437,3.106.2.2,0,0,1-.091.016.879.879,0,0,1-.117.015l-.251.024h-.028a.593.593,0,0,0-.087,0h-.2a.121.121,0,0,1-.032.005,1.769,1.769,0,0,1-.18-.005q-.094,0-.187,0a.652.652,0,0,0-.117-.012c-.089-.009-.183-.015-.276-.027a.278.278,0,0,1-.087-.016c-.074-.005-.141-.019-.2-.027a6.007,6.007,0,0,1-4.326-3.263.487.487,0,0,1-.035-.085c-.022-.036-.041-.074-.059-.1l-.106-.259a.585.585,0,0,1-.028-.087c-.024-.067-.048-.131-.067-.2-.032-.1-.066-.192-.091-.292a.377.377,0,0,1-.027-.086c-.007-.036-.02-.078-.028-.115a2.483,2.483,0,0,1-.054-.274.382.382,0,0,1-.016-.09,1.629,1.629,0,0,1-.036-.2,5.691,5.691,0,0,1-.052-.828,3.181,3.181,0,0,1,.012-.342A5.592,5.592,0,0,0,199.819,247.8Z" transform="translate(-185.749 -226.977)" opacity="0.3"/>
        </g>
        <g id="Group_33" data-name="Group 33" transform="translate(7.737 29.176)">
          <path id="Path_96" data-name="Path 96" d="M269.714,251.4a16.285,16.285,0,0,1-32.5,1.485v-.005c-.041-.488-.064-.985-.064-1.48a16.309,16.309,0,0,1,16.177-16.29h.1c.243,0,.482.008.715.013a16.309,16.309,0,0,1,15.443,14.254c0,.047.008.091.012.137a15.2,15.2,0,0,1,.117,1.886Zm-10.776,8.313c.093-.067.2-.13.288-.2.142-.1.273-.2.405-.3a1.355,1.355,0,0,0,.118-.1,1.676,1.676,0,0,0,.153-.127c.114-.1.236-.2.344-.311a1.029,1.029,0,0,0,.114-.107c.079-.07.164-.16.247-.248a9.917,9.917,0,0,0,2.8-6.919,9.354,9.354,0,0,0-.158-1.735c-.007-.051-.018-.091-.028-.142s-.024-.133-.032-.2a4.582,4.582,0,0,0-.113-.453.706.706,0,0,0-.034-.143c-.028-.118-.059-.229-.091-.337-.055-.164-.106-.318-.17-.483-.023-.045-.034-.093-.058-.143s-.048-.123-.072-.185a4.306,4.306,0,0,0-.2-.42.45.45,0,0,0-.058-.139c-.048-.1-.1-.211-.152-.31a9.965,9.965,0,0,0-7.421-5.19.552.552,0,0,0-.153-.027c-.055-.009-.129-.015-.2-.027-.138-.009-.286-.023-.427-.032H254a.6.6,0,0,1-.146-.012h-.7a.488.488,0,0,0-.158.016.611.611,0,0,0-.15,0c-.074,0-.134.011-.2.015l-.468.045a.639.639,0,0,0-.143.027c-.117.008-.228.03-.341.05a9.977,9.977,0,0,0-7.228,5.45q-.079.159-.154.321c-.067.141-.126.283-.18.424-.02.051-.039.1-.052.143-.048.109-.082.224-.117.33-.058.162-.1.319-.148.49a.932.932,0,0,0-.045.143c-.011.068-.036.131-.045.187-.036.16-.074.3-.1.455a1.443,1.443,0,0,0-.026.15c-.02.122-.044.231-.056.348a9.8,9.8,0,0,0-.094,1.388,9.946,9.946,0,0,0,3.046,7.167.534.534,0,0,0,.107.1,1.448,1.448,0,0,0,.145.134c.121.11.236.213.357.313.045.03.079.059.114.087q.131.108.275.213c.144.1.28.2.425.3.04.028.086.054.125.078s.1.071.169.107c.133.085.267.162.4.236.052.028.093.052.139.075.1.055.2.106.3.16a9.97,9.97,0,0,0,9.053-.16,1.518,1.518,0,0,0,.138-.075,1.982,1.982,0,0,0,.177-.093c.127-.076.264-.161.4-.248a.982.982,0,0,1,.121-.075Z" transform="translate(-233.429 -231.402)" fill="#7a7a7a"/>
          <path id="Path_97" data-name="Path 97" d="M273.067,255.612c.019-.129.043-.256.062-.385h0l1.069.166a19.715,19.715,0,0,0,.224-3.3l-1.08.013c0-.2-.016-.4-.02-.594v-.039c0-.11-.015-.217-.022-.325s-.011-.2-.022-.31l1.079-.086a19.392,19.392,0,0,0-.541-3.267l-1.049.267c-.051-.211-.107-.405-.168-.614s-.126-.405-.188-.608l1.032-.34a19.637,19.637,0,0,0-1.286-3.044l-.957.5c-.1-.181-.2-.37-.3-.554v-.005l-.183-.313a1.49,1.49,0,0,1-.089-.156.048.048,0,0,1-.015-.02l-.03-.05.927-.566a21.3,21.3,0,0,0-1.952-2.671l-.825.709-.341-.384-.079-.089c-.024-.026-.05-.052-.075-.075-.117-.13-.242-.259-.369-.386l.771-.765a21.589,21.589,0,0,0-2.51-2.152l-.635.884v0l-.078-.047c-.068-.054-.135-.1-.2-.146s-.154-.109-.236-.165h0c-.024-.019-.054-.034-.076-.054l-.455-.292.57-.922a20.4,20.4,0,0,0-2.938-1.513l-.416,1h0l-.026-.018-.564-.221-.6-.211.357-1.022c-.539-.191-1.057-.329-1.591-.468-.268-.067-.537-.131-.81-.184s-.538-.1-.81-.146l-.17,1.07c-.1-.017-.2-.03-.3-.04a1.214,1.214,0,0,1-.144-.027c-.063-.009-.118-.011-.177-.022s-.133-.016-.2-.027-.148-.013-.227-.022a1.74,1.74,0,0,0-.2-.024l.1-1.083c-.547-.048-1.114-.072-1.643-.083h-.44l-.393.015c-.273,0-.549.018-.825.035l.075,1.08a.463.463,0,0,0-.078.011l-.183.008c-.123.009-.242.022-.358.039h-.017l-.212.027-.42.054-.143-1.077c-.272.04-.542.083-.81.134s-.557.109-.819.17c-.519.119-1.079.263-1.594.435l.327,1.029-.6.2-.135.048a1.086,1.086,0,0,1-.11.039l-.086.026c-.068.03-.134.055-.2.083l-.078.018-.4-1a19.382,19.382,0,0,0-2.965,1.461l.555.93c-.028.02-.064.044-.1.066-.149.09-.295.176-.439.264h0c-.059.04-.114.082-.177.125a.317.317,0,0,0-.09.055c-.043.031-.086.054-.127.083s-.086.056-.135.089l-.616-.888a20.1,20.1,0,0,0-2.55,2.1l.757.769-.188.191c-.052.049-.1.1-.153.152-.024.026-.047.052-.075.079l-.035.036-.064.067c-.052.059-.1.109-.162.169a.5.5,0,0,1-.058.067c-.048.058-.1.107-.145.161l-.81-.722a19.339,19.339,0,0,0-2,2.623l.912.585c-.068.109-.135.216-.2.327-.045.07-.09.143-.133.216l-.314.549-.953-.526c-.129.242-.262.492-.386.75-.117.224-.233.5-.349.735s-.213.506-.317.766c-.056.119-.1.26-.157.4l-.141.376,1.026.358-.2.6-.179.608h0l-1.044-.283a19.4,19.4,0,0,0-.6,3.248l1.075.112v.008c-.008.093-.012.2-.024.3s-.02.215-.027.321v.05a.715.715,0,0,1-.007.123l-.019.381-.007.081-1.079-.038a20.525,20.525,0,0,0,.156,3.3l1.077-.142a.276.276,0,0,0,.007.059c.022.2.055.381.086.568l.108.632-1.06.209a20.244,20.244,0,0,0,.919,3.174l1.013-.389c.07.2.156.4.235.593l.228.506.028.079-.985.448a19.439,19.439,0,0,0,1.629,2.876l.9-.608h0a.267.267,0,0,1,.027.043c.054.075.1.146.148.223.063.086.126.172.193.256.113.17.248.338.377.506l-.852.672a20.343,20.343,0,0,0,2.249,2.423l.727-.8.474.415c.028.027.058.047.082.071s.075.062.114.094c.093.085.2.164.295.244l-.675.844a19.361,19.361,0,0,0,2.706,1.831l.556-.923.043.024h0a.7.7,0,0,1,.114.062c.032.02.074.034.1.056.1.054.2.109.3.157.193.094.374.189.563.278h0l-.459.978a19.473,19.473,0,0,0,3.088,1.163l.3-1.037.1.024c.039.011.082.027.12.036l.168.04.227.06.093.019.523.129h0l-.232,1.051a19.5,19.5,0,0,0,3.292.42l.039-1.092.313.011.326.005h.633l.032,1.079a18.514,18.514,0,0,0,3.276-.35l-.2-1.058c.085-.019.173-.035.256-.059a2.07,2.07,0,0,0,.266-.051.183.183,0,0,0,.041-.012.253.253,0,0,0,.058-.009l.616-.152.275,1.048c.539-.137,1.069-.3,1.581-.484.535-.189,1.02-.381,1.545-.624l-.453-.982.574-.272.507-.256.059-.028.514.953.365-.2.348-.2c.256-.146.479-.294.716-.445.457-.3.907-.616,1.346-.949l-.665-.864.362-.274.137-.115v-.005l.221-.189.087-.07a.2.2,0,0,0,.054-.048l.022-.019.1-.09.709.819a20.111,20.111,0,0,0,2.292-2.383l-.841-.684.1-.121c.018-.018.032-.036.048-.055s.036-.05.054-.075c.063-.08.137-.162.2-.248l.372-.506h0l.891.627a21.47,21.47,0,0,0,1.68-2.843l-.974-.471.016-.04a1.084,1.084,0,0,0,.059-.12c.047-.094.089-.193.133-.292l.058-.13c.016-.028.026-.066.041-.1a2.044,2.044,0,0,0,.086-.192c.035-.1.082-.2.125-.295l.995.405a19.114,19.114,0,0,0,.99-3.154l-1.056-.24.131-.622A1.948,1.948,0,0,0,273.067,255.612Z" transform="translate(-234.433 -232.394)" fill="#3b3c42"/>
          <path id="Path_98" data-name="Path 98" d="M237.541,253.5a16.249,16.249,0,0,1,32.5,0,7.373,7.373,0,0,0,.4-2.673,16.855,16.855,0,0,0-33.71,0C236.729,253.055,237.541,254.743,237.541,253.5Z" transform="translate(-233.588 -231.815)" fill="#fff" opacity="0.2"/>
          <g id="Group_32" data-name="Group 32" transform="translate(8.751 8.749)">
            <path id="Path_99" data-name="Path 99" d="M262.261,253.728c-.012.04-.03.07-.043.106-.06.165-.129.325-.191.486C262.114,254.127,262.191,253.931,262.261,253.728Zm-2.5,3.93h.005c-.052.056-.111.115-.166.168.058-.054.108-.108.163-.169Zm-18.222-5.192a4.775,4.775,0,0,0,.16.617,2.88,2.88,0,0,1-.089-.333c-.016-.1-.049-.19-.069-.285Zm21.789-2.414v.051a11.25,11.25,0,0,1-3.31,7.9c-.093.1-.192.185-.288.271-.032.031-.064.067-.1.1-.089.07-.173.156-.266.227-.059.056-.126.11-.188.17a.538.538,0,0,0-.118.083c-.146.112-.287.224-.441.325a3.021,3.021,0,0,1-.315.225.562.562,0,0,1-.117.074c-.1.068-.2.134-.3.2-.071.036-.146.085-.221.123-.043.024-.074.047-.117.067a11.179,11.179,0,0,1-10.586.184,2.807,2.807,0,0,1-.342-.184,1,1,0,0,1-.119-.067l-.3-.179a2,2,0,0,1-.213-.142.325.325,0,0,1-.114-.074,5.351,5.351,0,0,1-.453-.318c-.106-.08-.212-.149-.313-.235a1.287,1.287,0,0,0-.106-.08c-.087-.081-.178-.156-.267-.232-.067-.055-.133-.121-.2-.17-.027-.027-.063-.062-.093-.093a11.2,11.2,0,0,1-3.589-8.121v-.1c0-.173,0-.354.007-.528.007-.067.007-.126.015-.191a3.793,3.793,0,0,1,.036-.432c.015-.213.048-.421.075-.635.02-.129.048-.254.071-.384v-.008a1.146,1.146,0,0,0,.032-.126c.03-.154.066-.313.11-.466a.7.7,0,0,1,.024-.113c.067-.252.142-.492.224-.738.02-.07.04-.131.064-.2a1.828,1.828,0,0,0,.064-.173c.007-.018.02-.039.031-.062a3.026,3.026,0,0,1,.127-.325,2.1,2.1,0,0,1,.115-.247,1.116,1.116,0,0,1,.047-.112.73.73,0,0,1,.064-.135,8.215,8.215,0,0,1,.519-.958,6.651,6.651,0,0,1,.369-.558,2.369,2.369,0,0,1,.162-.243c.109-.149.225-.294.338-.427s.219-.272.34-.405a10.344,10.344,0,0,1,1.13-1.114c.154-.135.313-.264.482-.39.145-.106.282-.2.428-.31a.754.754,0,0,1,.082-.054,2.513,2.513,0,0,1,.237-.154,4.2,4.2,0,0,1,.369-.227.138.138,0,0,1,.032-.024c.188-.1.37-.212.559-.3a.538.538,0,0,1,.058-.028c.2-.1.4-.2.6-.283s.424-.173.644-.251.444-.149.66-.216.453-.123.684-.173.463-.1.7-.13c.138-.026.283-.047.425-.06.027,0,.06-.007.094-.007a.509.509,0,0,0,.067-.015c.054-.005.112-.011.165-.011h.118a.7.7,0,0,1,.11-.019c.25-.019.5-.022.748-.022.275,0,.553.005.829.024a1.028,1.028,0,0,0,.137.019.574.574,0,0,1,.1.005.405.405,0,0,1,.086.005.448.448,0,0,0,.068.015.4.4,0,0,1,.087.007.463.463,0,0,1,.127.019c.213.024.421.06.623.1.237.041.463.093.691.148.2.055.405.109.6.166.05.019.107.028.162.055.188.067.377.129.562.2.227.086.433.175.643.277s.411.2.617.3c.172.09.333.192.5.288.247.148.5.311.727.48.161.123.326.243.478.369a4.729,4.729,0,0,1,.474.405,7.757,7.757,0,0,1,.645.625c.117.118.224.237.336.366.011.011.02.015.02.028a5.922,5.922,0,0,1,.425.522,9.826,9.826,0,0,1,.761,1.127c.113.2.228.394.327.6a1.06,1.06,0,0,1,.09.176,7.973,7.973,0,0,1,.333.743.582.582,0,0,1,.043.118c.011.022.018.044.028.062a.166.166,0,0,1,.018.068,1.451,1.451,0,0,1,.1.263,1.133,1.133,0,0,1,.085.259c.016.044.028.09.048.131.022.079.048.153.068.24a.646.646,0,0,1,.035.131c.028.115.059.229.083.349.024.079.04.157.06.243a.6.6,0,0,0,.028.126,11.568,11.568,0,0,1,.222,2.185Zm-.416,0a10.588,10.588,0,0,0-.2-2.026c-.012-.043-.018-.1-.026-.134-.023-.085-.032-.162-.052-.24-.03-.125-.06-.256-.086-.378a1.317,1.317,0,0,1-.043-.131,3.046,3.046,0,0,0-.11-.361c-.054-.181-.11-.341-.179-.512a.829.829,0,0,0-.05-.134,1.1,1.1,0,0,0-.089-.228c-.047-.116-.1-.236-.15-.353-.022-.038-.044-.086-.064-.131a3.172,3.172,0,0,0-.168-.333,10.819,10.819,0,0,0-8.252-5.774.591.591,0,0,0-.139-.019c-.078-.015-.164-.02-.24-.027-.114-.005-.232-.018-.349-.027-.018,0-.027-.005-.039,0a1.154,1.154,0,0,0-.138-.005c-.123-.005-.25-.009-.376-.009h-.329c-.078,0-.138,0-.2.005a1.244,1.244,0,0,0-.144.005,1.54,1.54,0,0,0-.235.022c-.134.005-.26.018-.389.031a.735.735,0,0,0-.142.019c-.125.013-.251.028-.37.05a10.88,10.88,0,0,0-8.055,6.063c-.016.044-.038.091-.055.131-.03.075-.063.138-.09.217a2.613,2.613,0,0,0-.15.363q-.03.064-.058.134c-.039.114-.083.24-.121.355a4.385,4.385,0,0,0-.16.518,1.341,1.341,0,0,0-.032.138,1.413,1.413,0,0,0-.062.229c-.034.126-.06.256-.087.382-.008.036-.019.09-.027.135-.023.127-.044.244-.064.37v.007a10.693,10.693,0,0,0-.125,1.646v.1c0,.284.019.562.04.837a1.269,1.269,0,0,0,.018.2c.012.134.028.28.055.416.011.09.023.175.043.266.026.2.071.39.118.593a4.754,4.754,0,0,0,.16.617,10.656,10.656,0,0,0,1.17,2.634c.09.15.187.295.283.437.064.1.138.2.2.292s.142.193.217.282c.125.156.246.3.378.456.089.109.177.2.278.3s.233.236.35.349c.031.035.067.067.094.1s.068.059.1.091a1.589,1.589,0,0,0,.174.158h.005c.052.044.094.089.142.129l.15.133h0a.847.847,0,0,1,.113.082c.089.072.189.157.28.224l.43.3a.156.156,0,0,1,.028.022.28.28,0,0,0,.06.031.214.214,0,0,0,.058.034c.067.048.134.1.191.133a.2.2,0,0,1,.062.039c.089.056.188.109.28.162h0a.524.524,0,0,0,.127.062.21.21,0,0,0,.075.043,1.65,1.65,0,0,0,.247.135h.009c.154.079.313.153.466.227.135.058.258.117.4.161a2.039,2.039,0,0,0,.313.122,8.112,8.112,0,0,0,1.006.313.85.85,0,0,0,.148.04c.122.034.248.063.374.086a11.616,11.616,0,0,0,2.16.221c.164,0,.326-.005.484-.016h.093c.138-.009.286-.019.423-.036a.969.969,0,0,0,.149-.016,3.91,3.91,0,0,0,.49-.063,4.276,4.276,0,0,0,.533-.089,8.667,8.667,0,0,0,1.028-.269,3.062,3.062,0,0,0,.39-.133,4.909,4.909,0,0,0,.461-.172,4.183,4.183,0,0,0,.44-.192,6.1,6.1,0,0,0,.635-.317.281.281,0,0,0,.083-.043.616.616,0,0,0,.125-.062c.063-.037.137-.078.2-.121.11-.067.22-.139.333-.213a.89.89,0,0,1,.121-.067c.011-.009.018-.013.028-.022.1-.07.183-.13.273-.2a4.431,4.431,0,0,0,.435-.322c.267-.213.538-.451.79-.694.056-.054.106-.107.161-.168h.005c.172-.176.345-.361.506-.546s.322-.39.475-.59a10.924,10.924,0,0,0,1.273-2.2c.085-.193.162-.39.233-.594.047-.127.094-.248.131-.37a11.108,11.108,0,0,0,.491-2.624c0-.162.027-.315.027-.474v-.12a.359.359,0,0,0,.022-.093Z" transform="translate(-240.842 -238.803)" fill="#a5a5a5"/>
          </g>
          <path id="Path_100" data-name="Path 100" d="M251.973,258.047a10.839,10.839,0,0,0,10.819-10.82v-.11a10.821,10.821,0,1,1-21.642,0v.1A10.839,10.839,0,0,0,251.973,258.047Z" transform="translate(-231.971 -227.019)" opacity="0.3"/>
          <path id="Path_101" data-name="Path 101" d="M252.09,239.017a11.253,11.253,0,0,1,11.235,11.133v-.1a11.244,11.244,0,1,0-22.479,0v.1A11.25,11.25,0,0,1,252.09,239.017Z" transform="translate(-232.088 -230.055)" opacity="0.3"/>
          <path id="Path_102" data-name="Path 102" d="M261.727,249.713a9.907,9.907,0,0,1-2.8,6.919c-.083.087-.168.179-.247.248a.909.909,0,0,1-.114.107c-.107.1-.229.211-.344.311a1.667,1.667,0,0,1-.153.127,1.176,1.176,0,0,1-.118.1c-.133.1-.263.2-.405.3-.09.071-.2.134-.288.2-.039.028-.089.053-.122.08-.133.086-.271.172-.4.248a1.859,1.859,0,0,1-.177.093,1.223,1.223,0,0,1-.138.075,9.97,9.97,0,0,1-9.053.16c-.1-.054-.2-.1-.3-.16l-.139-.075c-.13-.074-.264-.152-.4-.236-.064-.036-.117-.072-.169-.107s-.085-.048-.125-.078c-.145-.091-.282-.2-.425-.3-.1-.07-.187-.142-.275-.213a1.432,1.432,0,0,0-.115-.087c-.12-.1-.236-.2-.357-.313a1.593,1.593,0,0,1-.145-.134.572.572,0,0,1-.107-.1,9.947,9.947,0,0,1-3.045-7.167,9.792,9.792,0,0,1,.094-1.388c.012-.117.035-.227.056-.348a1.452,1.452,0,0,1,.026-.15c.026-.15.062-.295.1-.455.008-.056.034-.119.045-.187a1.122,1.122,0,0,1,.045-.144c.043-.17.09-.327.148-.49.035-.106.07-.221.117-.33.013-.045.031-.093.052-.143.055-.142.113-.284.18-.424a1,1,0,0,1,.086-.181.924.924,0,0,1,.068-.139,9.974,9.974,0,0,1,7.229-5.45c.113-.019.225-.041.341-.05a.634.634,0,0,1,.144-.027c.156-.015.315-.031.468-.045.067,0,.127-.011.2-.015a.6.6,0,0,1,.15,0,.487.487,0,0,1,.158-.016h.7a.6.6,0,0,0,.146.012h.043c.142.011.29.024.428.032.067.012.141.018.2.027a.551.551,0,0,1,.153.027,9.966,9.966,0,0,1,7.421,5.19c.054.1.1.2.152.31a.425.425,0,0,1,.058.139,4.069,4.069,0,0,1,.2.42c.024.063.048.13.072.185s.034.1.058.143c.064.165.116.319.17.483.032.107.064.22.091.337a.628.628,0,0,1,.034.143,4.552,4.552,0,0,1,.113.453c.009.064.028.131.032.2a1.044,1.044,0,0,1,.028.142,8.681,8.681,0,0,1,.156,1.732Z" transform="translate(-231.745 -229.715)" fill="#d9d9d9"/>
          <path id="Path_103" data-name="Path 103" d="M256.648,248.642a5.939,5.939,0,0,1-1.677,4.139l-.149.148c-.028.024-.047.048-.064.062a2.749,2.749,0,0,1-.2.187.487.487,0,0,1-.1.075.14.14,0,0,1-.067.062c-.078.063-.161.125-.242.187-.059.034-.114.079-.176.114-.019.018-.05.031-.072.051-.076.048-.158.1-.237.146a.962.962,0,0,1-.1.056c-.029.013-.06.032-.086.045a5.917,5.917,0,0,1-5.416.094c-.067-.031-.126-.062-.183-.093a.585.585,0,0,1-.082-.045c-.08-.048-.161-.09-.243-.142l-.1-.063c-.026-.018-.052-.031-.074-.05-.086-.055-.169-.114-.256-.172-.054-.044-.111-.09-.161-.133a.322.322,0,0,1-.068-.054c-.072-.063-.143-.122-.215-.183a1.012,1.012,0,0,1-.086-.085.3.3,0,0,1-.064-.062,5.936,5.936,0,0,1-1.823-4.288,5.4,5.4,0,0,1,.054-.834,2,2,0,0,1,.036-.2.325.325,0,0,1,.013-.086c.011-.09.035-.181.054-.275a.724.724,0,0,0,.03-.118.383.383,0,0,1,.028-.082,2.46,2.46,0,0,1,.089-.3,1.525,1.525,0,0,1,.068-.192.386.386,0,0,1,.028-.09c.036-.086.07-.173.1-.256.018-.031.036-.072.058-.1a.308.308,0,0,0,.036-.086,5.976,5.976,0,0,1,4.326-3.263,1.854,1.854,0,0,0,.2-.034.746.746,0,0,0,.087-.009c.093-.008.187-.015.279-.02a.861.861,0,0,1,.117-.015h.089a.33.33,0,0,1,.1-.009h.2a2.013,2.013,0,0,1,.2.007h.116c.085.007.175.018.251.023.041,0,.085.011.118.012l.091.009a6,6,0,0,1,4.438,3.113c.032.063.064.127.09.184a.288.288,0,0,1,.041.086c.043.082.083.169.117.255.013.031.03.074.043.106a.672.672,0,0,0,.04.09c.032.09.064.187.1.286.02.067.035.13.054.2a.318.318,0,0,1,.024.082c.023.094.048.185.062.274a.556.556,0,0,1,.024.118.369.369,0,0,1,.018.086A5.061,5.061,0,0,1,256.648,248.642Z" transform="translate(-230.674 -228.644)" fill="#646464"/>
          <path id="Path_104" data-name="Path 104" d="M244.766,248.405a1.921,1.921,0,0,1,.036-.2.3.3,0,0,1,.013-.086c.011-.09.035-.183.054-.274a.811.811,0,0,0,.03-.117.458.458,0,0,1,.028-.086,2.466,2.466,0,0,1,.089-.291,1.773,1.773,0,0,1,.068-.2.493.493,0,0,1,.028-.086c.035-.089.07-.169.1-.259l.058-.1c.012-.024.022-.054.035-.085a5.994,5.994,0,0,1,4.326-3.263c.07-.011.137-.022.2-.028a.8.8,0,0,0,.087-.013c.093-.008.187-.016.279-.027a.841.841,0,0,1,.117-.008.48.48,0,0,1,.089,0,.29.29,0,0,1,.1-.011h.208c.074,0,.142,0,.2.005a.462.462,0,0,0,.09.005h.026a2.161,2.161,0,0,1,.251.02c.04.007.085.012.117.015a.577.577,0,0,1,.091.013,5.967,5.967,0,0,1,4.438,3.107c.032.058.064.127.09.184a.3.3,0,0,1,.041.085,2.669,2.669,0,0,1,.117.254c.013.034.03.079.043.112a.472.472,0,0,0,.039.086c.032.1.064.189.1.29.02.067.035.135.054.2a.365.365,0,0,1,.024.086,2.549,2.549,0,0,1,.062.274.51.51,0,0,1,.024.118.344.344,0,0,1,.017.086c.041.239.063.48.081.723.005-.094.013-.187.013-.282a5.7,5.7,0,0,0-.093-1.04.408.408,0,0,0-.018-.086.563.563,0,0,0-.024-.118c-.013-.089-.038-.18-.062-.275a.316.316,0,0,0-.024-.082c-.018-.074-.032-.137-.054-.2-.032-.1-.064-.2-.1-.286a.589.589,0,0,1-.039-.09c-.012-.032-.028-.075-.043-.106-.034-.086-.075-.173-.117-.255a.347.347,0,0,0-.04-.086c-.027-.058-.058-.122-.09-.184a6,6,0,0,0-4.438-3.113l-.091-.009c-.032,0-.076-.008-.117-.012-.076-.005-.166-.016-.251-.023h-.117a2.021,2.021,0,0,0-.2-.007h-.209a.327.327,0,0,0-.1.009h-.089a.857.857,0,0,0-.117.015c-.091.005-.185.012-.279.02a.765.765,0,0,1-.087.009,1.608,1.608,0,0,1-.2.034,5.977,5.977,0,0,0-4.326,3.263c-.015.032-.024.058-.035.086a.791.791,0,0,1-.058.1c-.035.085-.07.172-.1.256a.3.3,0,0,0-.028.09,1.528,1.528,0,0,0-.068.192,2.235,2.235,0,0,0-.089.3.281.281,0,0,0-.028.082,1.148,1.148,0,0,1-.03.119c-.018.093-.043.184-.054.274a.306.306,0,0,0-.013.086,1.867,1.867,0,0,0-.036.2,5.4,5.4,0,0,0-.054.834c0,.109,0,.227.011.338a5.341,5.341,0,0,1,.044-.576Z" transform="translate(-230.679 -228.643)" fill="#fff" opacity="0.3"/>
          <path id="Path_105" data-name="Path 105" d="M244.758,247.8a1.834,1.834,0,0,0,.036.2.363.363,0,0,0,.013.087c.011.089.035.179.054.269a.72.72,0,0,1,.03.122.781.781,0,0,0,.028.085,2.777,2.777,0,0,0,.089.295,1.929,1.929,0,0,0,.068.193.423.423,0,0,0,.028.086c.035.086.07.17.1.258.018.036.036.07.058.107s.022.056.035.079a5.966,5.966,0,0,0,4.326,3.26,1.791,1.791,0,0,0,.2.035.377.377,0,0,1,.087.016c.093.009.187.016.279.022.038.005.079.005.118.009a.638.638,0,0,0,.089,0,.383.383,0,0,0,.1.008.867.867,0,0,0,.161.009.115.115,0,0,0,.047-.009h.2a.617.617,0,0,1,.09,0h.026a1.965,1.965,0,0,0,.251-.019c.041,0,.085-.012.118-.012a.66.66,0,0,1,.091-.016,5.976,5.976,0,0,0,4.438-3.106,2.026,2.026,0,0,0,.09-.189.221.221,0,0,0,.04-.079,2.735,2.735,0,0,0,.118-.256c.013-.032.03-.075.043-.109a.583.583,0,0,1,.04-.086c.032-.1.064-.189.1-.291.02-.066.035-.131.054-.2a.516.516,0,0,0,.024-.085c.023-.089.048-.185.062-.27a.537.537,0,0,0,.024-.121.472.472,0,0,0,.021-.084c.041-.242.063-.48.081-.725.005.093.013.187.013.287a5.563,5.563,0,0,1-.093,1.03.291.291,0,0,1-.018.089.511.511,0,0,1-.024.118,2.7,2.7,0,0,1-.062.272.348.348,0,0,1-.024.086c-.018.066-.032.134-.054.2-.032.1-.064.2-.1.291a.4.4,0,0,0-.039.087c-.012.034-.028.071-.043.106a2.719,2.719,0,0,1-.118.256.3.3,0,0,1-.041.085c-.027.058-.058.127-.09.183a5.976,5.976,0,0,1-4.438,3.106.2.2,0,0,1-.091.016.906.906,0,0,1-.118.015l-.251.024h-.026a.6.6,0,0,0-.09,0h-.2a.1.1,0,0,1-.027.005,1.746,1.746,0,0,1-.181-.005.758.758,0,0,1-.1,0,.629.629,0,0,1-.089,0,.687.687,0,0,0-.118-.012c-.091-.009-.185-.015-.279-.027a.282.282,0,0,1-.087-.016c-.071-.005-.138-.019-.2-.027a6.02,6.02,0,0,1-4.326-3.263.865.865,0,0,1-.035-.085c-.02-.036-.04-.074-.058-.1-.035-.086-.07-.172-.1-.259a.329.329,0,0,1-.028-.087,1.87,1.87,0,0,1-.068-.2,2.322,2.322,0,0,1-.089-.292.321.321,0,0,1-.028-.086c-.007-.036-.02-.078-.03-.114-.018-.093-.043-.183-.054-.275a.284.284,0,0,1-.013-.09,1.624,1.624,0,0,1-.036-.2,5.332,5.332,0,0,1-.054-.828c0-.116,0-.229.011-.342A5.238,5.238,0,0,0,244.758,247.8Z" transform="translate(-230.671 -226.977)" opacity="0.3"/>
        </g>
        <path id="Path_106" data-name="Path 106" d="M274.7,223.732H254.88l1.67,12.561H274.7Z" transform="translate(-254.88 -206.379)" fill="#5e5e5e"/>
        <path id="Path_107" data-name="Path 107" d="M174.742,211.021v4.27c7.037,1.252,7.082,1.052,12.191,2.418,2.788.743,18.2,8.845,18.2,8.845l14.384,22.175,2.634-.849.29-.093,69.851-22.55.405-.134h.007l2.926-.946.424-.135L285.1,213.061H189.42V211.02H174.742Z" transform="translate(-166.846 -211.02)" fill="#ffcb0f"/>
        <rect id="Rectangle_1932" data-name="Rectangle 1932" width="3.344" height="18.27" transform="translate(112.372 19.411) rotate(161.945)" fill="#fcbb1b"/>
        <path id="Path_108" data-name="Path 108" d="M200.94,234.093l3.184-1.028L197.6,212.652l-3.183,1.024Z" transform="translate(-101.772 -210.423)" fill="#fcbb1b"/>
        <path id="Path_109" data-name="Path 109" d="M209.157,237.273l3.186-1.013-7.375-23.469L201.78,213.8Z" transform="translate(-120.043 -210.374)" fill="#fcbb1b"/>
        <path id="Path_110" data-name="Path 110" d="M217.368,240.452l3.189-1-8.222-26.526-3.19,1Z" transform="translate(-138.31 -210.324)" fill="#fcbb1b"/>
        <path id="Path_111" data-name="Path 111" d="M225.58,243.629l3.2-.986L219.7,213.065l-3.2.989Z" transform="translate(-156.577 -210.273)" fill="#fcbb1b"/>
        <rect id="Rectangle_1933" data-name="Rectangle 1933" width="3.343" height="34.121" transform="translate(62.153 35.645) rotate(163.087)" fill="#fcbb1b"/>
        <g id="Group_34" data-name="Group 34" transform="translate(49.023 2.039)" opacity="0.5">
          <path id="Path_112" data-name="Path 112" d="M206.931,212.789l.051.16-2.679.853,7.324,23.31-.506.161L203.743,213.8Z" transform="translate(-171.028 -212.412)" fill="#fcbb1b"/>
          <path id="Path_113" data-name="Path 113" d="M199.562,212.652l.051.162-2.678.861,6.475,20.253-.506.164-6.524-20.417Z" transform="translate(-152.759 -212.463)" fill="#fcbb1b"/>
          <path id="Path_114" data-name="Path 114" d="M192.247,212.679l-2.675.873,5.621,17.194-.506.165-5.673-17.359,3.181-1.039Z" transform="translate(-134.489 -212.513)" fill="#fcbb1b"/>
          <path id="Path_115" data-name="Path 115" d="M214.294,212.926l.05.158-2.683.841,8.177,26.366-.507.16-8.223-26.525Z" transform="translate(-189.292 -212.363)" fill="#fcbb1b"/>
          <path id="Path_116" data-name="Path 116" d="M229.04,213.2l.048.154-2.689.819,9.875,32.479-.507.156-9.927-32.635Z" transform="translate(-225.84 -212.262)" fill="#fcbb1b"/>
          <path id="Path_117" data-name="Path 117" d="M221.671,213.063l.047.158-2.685.83,9.024,29.422-.506.157-9.075-29.579Z" transform="translate(-207.569 -212.312)" fill="#fcbb1b"/>
        </g>
        <path id="Path_118" data-name="Path 118" d="M201.78,212.937l.467-.148,7.375,23.469-.673.215Z" transform="translate(-117.322 -210.374)" fill="#fff" opacity="0.3"/>
        <path id="Path_119" data-name="Path 119" d="M200.752,233.251,194.417,212.8l.462-.148,6.524,20.41Z" transform="translate(-99.052 -210.424)" fill="#fff" opacity="0.3"/>
        <path id="Path_120" data-name="Path 120" d="M192.543,229.958l-5.482-17.3.457-.149,5.673,17.361Z" transform="translate(-80.795 -210.474)" fill="#fff" opacity="0.3"/>
        <path id="Path_121" data-name="Path 121" d="M216.506,213.212l.478-.149,9.073,29.579-.73.225Z" transform="translate(-153.858 -210.273)" fill="#fff" opacity="0.3"/>
        <path id="Path_122" data-name="Path 122" d="M223.866,213.349l.479-.148,9.927,32.636-.758.229Z" transform="translate(-172.122 -210.223)" fill="#fff" opacity="0.3"/>
        <path id="Path_123" data-name="Path 123" d="M209.145,213.075l.472-.149,8.222,26.525-.7.219Z" transform="translate(-135.593 -210.324)" fill="#fff" opacity="0.3"/>
        <path id="Path_124" data-name="Path 124" d="M265.585,237.551V226.409h-3.991v-7.151H248.775l-2.045,7.615h-1.394l-3.156,3.343v7.337Z" transform="translate(-228.432 -208.014)" fill="#ffcb0f"/>
        <path id="Path_125" data-name="Path 125" d="M281.491,240.014h1.021l-5.014-8.173H233.471v13.836l3.716,16.069h2.042l.372-14.394,2.6-10.683h2.786l4.457-2.415h27.31Z" transform="translate(-233.471 -203.418)" fill="#ffcb0f"/>
        <rect id="Rectangle_1934" data-name="Rectangle 1934" width="1.576" height="5.556" transform="translate(6.32 11.797)" fill="#3b3c42"/>
        <path id="Path_126" data-name="Path 126" d="M250,224.145v2.229h6.5v-5.765h-5.571l-.353,1.339-.344,1.327Z" transform="translate(-230.029 -207.518)" fill="#63b5e4"/>
        <path id="Path_127" data-name="Path 127" d="M175.06,211.43v3.718c7.037,1.252,7.082,1.052,12.191,2.418,2.788.743,18.2,8.845,18.2,8.845l14.373,22.17,2.634-.849L209.794,227.4l9-4-.923-3.039-9.563,4.162-13-5.925v-2.352H284.1l8.5,8.839.405-.134h.007l2.926-.946L285.4,213.469H189.737V211.43H175.062Z" transform="translate(-167.16 -210.87)" fill="#fcbb1b" opacity="0.5"/>
        <path id="Path_128" data-name="Path 128" d="M174.75,211.021v4.27c7.037,1.252,7.082,1.052,12.191,2.418,2.788.743,18.2,8.845,18.2,8.845l14.384,22.175,2.921-.942L209.495,227l8.862-3.895-.788-2.588-9.563,3.605-13-5.925v-2.351h88.785l8.9,9.262,3.357-1.081L285.1,213.061H189.427V211.02H174.75Z" transform="translate(-166.854 -211.02)" fill="#fcbb1b"/>
        <g id="Group_35" data-name="Group 35" transform="translate(7.9 0.002)" opacity="0.3">
          <path id="Path_129" data-name="Path 129" d="M228.95,223.043,241.627,243.4l-.288.091-12.662-20.327Z" transform="translate(-193.941 -206.632)" fill="#fff"/>
          <path id="Path_130" data-name="Path 130" d="M270.42,213.073H174.751v-.557H270.42l10.956,10.961-.421.137Z" transform="translate(-160.079 -210.475)" fill="#fff"/>
          <path id="Path_131" data-name="Path 131" d="M232.248,216.833v-.558l13,5.925,9.563-3.6-9.563,4.16Z" transform="translate(-212.001 -209.103)" fill="#fff"/>
          <rect id="Rectangle_1935" data-name="Rectangle 1935" width="14.672" height="0.558" transform="translate(0)" fill="#fff"/>
        </g>
        <g id="Group_37" data-name="Group 37" transform="translate(52.268 39.349)">
          <path id="Path_132" data-name="Path 132" d="M233.125,246.093H221.918a2.109,2.109,0,0,1-2.106-2.109v-1.7a2.107,2.107,0,0,1,2.106-2.109h11.207a2.106,2.106,0,0,1,2.1,2.109v1.7A2.11,2.11,0,0,1,233.125,246.093Z" transform="translate(-219.812 -239.725)" fill="#e0e0e0"/>
          <path id="Path_133" data-name="Path 133" d="M233.186,242.2H221.392a2.27,2.27,0,0,0-.946.213v-.3a1.809,1.809,0,0,1,1.806-1.806h10.076a1.81,1.81,0,0,1,1.807,1.806v.3A2.253,2.253,0,0,0,233.186,242.2Z" transform="translate(-219.582 -239.678)" fill="#fff" opacity="0.5"/>
          <g id="Group_36" data-name="Group 36" transform="translate(2.986)">
            <rect id="Rectangle_1936" data-name="Rectangle 1936" width="1.053" height="6.817" transform="translate(8.39)" fill="#989898"/>
            <rect id="Rectangle_1937" data-name="Rectangle 1937" width="1.057" height="6.817" transform="translate(0)" fill="#989898"/>
          </g>
        </g>
        <g id="Group_38" data-name="Group 38" transform="translate(13.747 22.549)">
          <rect id="Rectangle_1938" data-name="Rectangle 1938" width="23.406" height="0.557" fill="#fcbb1b"/>
        </g>
        <g id="Group_39" data-name="Group 39" transform="translate(13.747 25.819)">
          <rect id="Rectangle_1939" data-name="Rectangle 1939" width="23.406" height="0.56" fill="#fcbb1b"/>
        </g>
        <ellipse id="Ellipse_31" data-name="Ellipse 31" cx="3.623" cy="3.623" rx="3.623" ry="3.623" transform="translate(10.308 21.178)" fill="#fcbb1b"/>
        <ellipse id="Ellipse_32" data-name="Ellipse 32" cx="3.623" cy="3.623" rx="3.623" ry="3.623" transform="translate(3.062 21.178)" fill="#fcbb1b"/>
        <rect id="Rectangle_1940" data-name="Rectangle 1940" width="0.427" height="9.567" transform="translate(25.991 18.854)" fill="#fcbb1b"/>
        <g id="Group_40" data-name="Group 40" transform="translate(20.953 13.093)" opacity="0.3">
          <path id="Path_134" data-name="Path 134" d="M250,220.611l4.74,5.765h.783v-2.562l-2.625-3.2Z" transform="translate(-250 -220.611)" fill="#fff"/>
        </g>
        <g id="Group_41" data-name="Group 41" transform="translate(20.202 14.43)" opacity="0.3">
          <path id="Path_135" data-name="Path 135" d="M251.683,222.917l2.54,3.1h1.437l-3.634-4.426Z" transform="translate(-251.683 -221.59)" fill="#fff"/>
        </g>
        <g id="Group_50" data-name="Group 50" transform="translate(1.201 17.829)">
          <g id="Group_42" data-name="Group 42" transform="translate(0.002 0)">
            <path id="Path_136" data-name="Path 136" d="M238.107,233.944h41.241a.412.412,0,0,0,.353-.2.418.418,0,0,0,.026-.405l-3.6-7.516a3.305,3.305,0,0,0-2.769-1.747H239.781a2.092,2.092,0,0,0-2.089,2.09v7.351a.416.416,0,0,0,.414.423Zm40.576-.837H238.531v-6.936a1.254,1.254,0,0,1,1.253-1.253h33.573a2.479,2.479,0,0,1,2.016,1.272Z" transform="translate(-237.692 -224.08)" fill="#2b7ca6"/>
          </g>
          <g id="Group_43" data-name="Group 43" transform="translate(27.864 0.421)">
            <rect id="Rectangle_1941" data-name="Rectangle 1941" width="0.836" height="12.598" transform="translate(0)" fill="#2b7ca6"/>
          </g>
          <g id="Group_44" data-name="Group 44" transform="translate(31.764 0.421)">
            <rect id="Rectangle_1942" data-name="Rectangle 1942" width="0.837" height="12.598" transform="translate(0)" fill="#2b7ca6"/>
          </g>
          <g id="Group_45" data-name="Group 45" transform="translate(18.807 0.421)">
            <rect id="Rectangle_1943" data-name="Rectangle 1943" width="0.837" height="12.598" transform="translate(0)" fill="#2b7ca6"/>
          </g>
          <g id="Group_46" data-name="Group 46" transform="translate(10.169 0.421)">
            <rect id="Rectangle_1944" data-name="Rectangle 1944" width="0.836" height="12.598" transform="translate(0)" fill="#2b7ca6"/>
          </g>
          <g id="Group_47" data-name="Group 47" transform="translate(41.239 9.446)">
            <rect id="Rectangle_1945" data-name="Rectangle 1945" width="0.834" height="3.573" transform="translate(0)" fill="#2b7ca6"/>
          </g>
          <g id="Group_48" data-name="Group 48" transform="translate(0 9.446)">
            <rect id="Rectangle_1946" data-name="Rectangle 1946" width="0.836" height="3.573" fill="#2b7ca6"/>
          </g>
          <g id="Group_49" data-name="Group 49" transform="translate(0.416 9.446)">
            <rect id="Rectangle_1947" data-name="Rectangle 1947" width="41.24" height="1.379" fill="#2b7ca6"/>
          </g>
        </g>
      </g>
      <path id="Path_14959" data-name="Path 14959" d="M-8153.991,13203.8h-73.064s-1.08-2.225,15.139-2.994,15.291-2.664,31.434-1.564,36.455,4.559,36.455,4.559Z" transform="translate(8901.93 -12638.381)" fill="#844529"/>
    </g>
    <g id="location" transform="translate(597.715 536.084)">
      <path id="Path_15007" data-name="Path 15007" d="M83.557,0A7.563,7.563,0,0,0,76,7.557a7.452,7.452,0,0,0,1.134,3.968L83.045,21.2a.6.6,0,0,0,.428.29.627.627,0,0,0,.642-.3l5.928-9.762a7.454,7.454,0,0,0,1.071-3.867A7.563,7.563,0,0,0,83.557,0Zm0,11.336a3.779,3.779,0,1,1,3.779-3.779A3.774,3.774,0,0,1,83.557,11.336Z" transform="translate(0)" fill="#fd003a"/>
      <path id="Path_15008" data-name="Path 15008" d="M256,0V3.779a3.779,3.779,0,1,1,0,7.557V21.5a.624.624,0,0,0,.558-.31l5.928-9.762a7.453,7.453,0,0,0,1.071-3.867A7.563,7.563,0,0,0,256,0Z" transform="translate(-172.443)" fill="#e50027"/>
    </g>
  </g>
</svg>
