<svg id="Vehicles" xmlns="http://www.w3.org/2000/svg" width="28.082" height="17.66" viewBox="0 0 28.082 17.66">
  <path id="Path_1519" data-name="Path 1519" d="M50.982,29.554a2.717,2.717,0,0,1,2.677,2.269l.036,0V26.388l0-5.888H48.265L46,25.029v4.525h4.982Zm.9-4.525H48.265l1.359-2.718h2.26Z" transform="translate(-46 -17.329)" fill="#00a2e9"/>
  <path id="Path_1520" data-name="Path 1520" d="M52,40.49v.91l.453.453h2.174a2.706,2.706,0,0,1,2.355-1.363Z" transform="translate(-52 -28.265)" fill="#224e81"/>
  <ellipse id="Ellipse_36" data-name="Ellipse 36" cx="0.453" cy="0.453" rx="0.453" ry="0.453" transform="translate(0 12.683)" fill="#30649f"/>
  <path id="Path_1521" data-name="Path 1521" d="M46.362,41.853a2.716,2.716,0,0,0,2.355,4.072,2.717,2.717,0,0,0,2.718-2.718,2.43,2.43,0,0,0-.041-.448,2.715,2.715,0,0,0-5.032-.906Zm1.449,1.354a.906.906,0,1,1,.906.906A.905.905,0,0,1,47.812,43.208Z" transform="translate(-43.735 -28.265)" fill="#224e81"/>
  <path id="Path_1525" data-name="Path 1525" d="M10.532,40.5H6.99a2.707,2.707,0,0,1,2.586,2.26h.5l.457-.453Z" transform="translate(14.837 -28.27)" fill="#224e81"/>
  <path id="Path_1526" data-name="Path 1526" d="M31.581,40.49H29v2.265h5.028a2.707,2.707,0,0,1,2.586-2.26.578.578,0,0,1,.091,0H31.581Z" transform="translate(-21.305 -28.265)" fill="#224e81"/>
  <path id="Path_1527" data-name="Path 1527" d="M21.365,40.5H15.21A2.711,2.711,0,0,1,17.8,42.76h.983A2.711,2.711,0,0,1,21.365,40.5Z" transform="translate(0.28 -28.27)" fill="#224e81"/>
  <path id="Path_1528" data-name="Path 1528" d="M23.041,42.76a2.471,2.471,0,0,0-.041.453,2.718,2.718,0,1,0,5.435,0,2.47,2.47,0,0,0-.041-.453,2.711,2.711,0,0,0-2.586-2.26h-.181A2.707,2.707,0,0,0,23.041,42.76Zm1.771.453a.906.906,0,1,1,.906.906A.905.905,0,0,1,24.812,43.213Z" transform="translate(-10.318 -28.27)" fill="#224e81"/>
  <path id="Path_1529" data-name="Path 1529" d="M9.051,42.76a2.431,2.431,0,0,0-.041.453,2.718,2.718,0,1,0,5.435,0,2.431,2.431,0,0,0-.041-.453,2.707,2.707,0,0,0-2.586-2.26h-.181A2.711,2.711,0,0,0,9.051,42.76Zm1.771.453a.906.906,0,1,1,.906.906A.908.908,0,0,1,10.822,43.213Z" transform="translate(10.009 -28.27)" fill="#224e81"/>
  <path id="Path_1530" data-name="Path 1530" d="M40.311,33.5v3.166h2.581L42.439,33.5Z" transform="translate(-32.616 -24.441)" fill="#224e81"/>
  <path id="Path_1531" data-name="Path 1531" d="M42.734,13.5H37.96a.679.679,0,1,0,0,1.359h4.19l1.1,7.7.453,3.166H45.08l-1.363-9.507-.308-2.138c0-.01,0-.014,0-.018,0-.023-.013-.046-.018-.068a.244.244,0,0,0-.023-.063.167.167,0,0,0-.023-.05.4.4,0,0,0-.036-.072.146.146,0,0,1-.023-.031l-.059-.072a.122.122,0,0,1-.028-.023.436.436,0,0,0-.072-.059.246.246,0,0,0-.031-.018.825.825,0,0,0-.082-.046l-.041-.014a.287.287,0,0,0-.086-.027c-.014,0-.032,0-.05-.01s-.054,0-.082-.009Z" transform="translate(-33.431 -13.499)" fill="#30649f"/>
  <path id="Path_1532" data-name="Path 1532" d="M19.083,29.007v0h1.354L19.078,19.5H4l1.363,9.507H19.083Z" transform="translate(6.286 -16.782)" fill="#739ccb"/>
  <path id="Path_1533" data-name="Path 1533" d="M1,19.5l1.359,9.512H3.718L2.359,19.5Z" transform="translate(24.364 -16.782)" fill="#30649f"/>
  <path id="Path_1534" data-name="Path 1534" d="M50.463,33.4h.453a.453.453,0,1,0,0-.906h-.453a.453.453,0,0,0,0,.906Z" transform="translate(-45.485 -23.893)" fill="#d9f1fc"/>
</svg>
