<svg xmlns="http://www.w3.org/2000/svg" width="16.054" height="16.246" viewBox="0 0 16.054 16.246">
  <g id="Page-1" transform="translate(-0.435 -0.15)">
    <g id="_041---Caution-Marker" data-name="041---Caution-Marker" transform="translate(0.435 0.15)">
      <path id="Shape" d="M13.423,33.1l-3.3-1.428.174-.491A.271.271,0,0,1,10.565,31h1.509a9.142,9.142,0,0,0,.5.9,1.784,1.784,0,0,0,.109.168A11.161,11.161,0,0,0,13.423,33.1Z" transform="translate(-7.491 -22.625)" fill="#ffdc00"/>
      <path id="Shape-2" data-name="Shape" d="M12.122,35.937,9.63,37.023,7,35.872l.858-2.4,3.3,1.428A12.541,12.541,0,0,0,12.122,35.937Z" transform="translate(-5.218 -24.426)" fill="#9ea5d2"/>
      <path id="Shape-3" data-name="Shape" d="M15.006,46.848H11.8L6.358,44.5,1.412,46.633a.271.271,0,0,1,0-.149l.524-1.471,2-.863-1.466-.63.453-1.2,2.641,1.14,2.492-1.086a9.323,9.323,0,0,0,1.086.912l-1.178.508Z" transform="translate(-1.139 -30.873)" fill="#ffdc00"/>
      <path id="Shape-4" data-name="Shape" d="M34.222,46.192H32.577L25.52,43.149l1.178-.508.038.022.122-.087,2.685-1.156.722.309,1.086.47,1.2.518.972.415.961,2.7a.271.271,0,0,1-.261.364Z" transform="translate(-18.711 -30.218)" fill="#dba250"/>
      <path id="Shape-5" data-name="Shape" d="M37.121,36.532l-.972-.415-1.2-.518-1.086-.47-.719-.309L30.46,35.976a11.672,11.672,0,0,0,2.375-2.41l2.085-.9.706-.3.426,1.2-.706.3-.605.271.814.356.964.415Z" transform="translate(-22.31 -23.617)" fill="#ffdc00"/>
      <path id="Shape-6" data-name="Shape" d="M42,31.369l-2.79,1.205c.117-.16.236-.331.35-.508a1.785,1.785,0,0,0,.109-.168,9.144,9.144,0,0,0,.5-.9h1.512a.271.271,0,0,1,.255.179Z" transform="translate(-28.685 -22.626)" fill="#60a917"/>
      <path id="Shape-7" data-name="Shape" d="M48.019,38.115l-1.789-.771,1.311-.565Z" transform="translate(-33.799 -26.837)" fill="#f57c00"/>
      <path id="Shape-8" data-name="Shape" d="M49.643,38.115,48.68,37.7l-.22-.616.706-.3Z" transform="translate(-35.424 -26.837)" fill="#f57c00"/>
      <path id="Shape-9" data-name="Shape" d="M46.437,31.369l-.706.3-.109-.3-.068-.19A.271.271,0,0,0,45.3,31h.814a.271.271,0,0,1,.255.179Z" transform="translate(-33.122 -22.626)" fill="#549414"/>
      <path id="Shape-10" data-name="Shape" d="M48.022,33.56l-.706.3-.109-.3-.318-.9.706-.3Z" transform="translate(-34.28 -23.617)" fill="#fec108"/>
      <path id="Shape-11" data-name="Shape" d="M50.817,42.222l-.964-.415-.434-1.221-.149-.415.964.415Z" transform="translate(-36.014 -29.307)" fill="#fec108"/>
      <path id="Shape-12" data-name="Shape" d="M53.114,49.674H52.3a.271.271,0,0,0,.255-.364l-.955-2.7L51.45,46.2l.964.415.961,2.7a.271.271,0,0,1-.261.364Z" transform="translate(-37.603 -33.7)" fill="#f57c00"/>
      <path id="Shape-13" data-name="Shape" d="M11.816,52.691H1.691a.271.271,0,0,1-.271-.214L6.366,50.34Z" transform="translate(-1.153 -36.716)" fill="#84aa5e"/>
      <path id="Shape-14" data-name="Shape" d="M5.418,47.37l-2,.863.532-1.493Z" transform="translate(-2.61 -34.094)" fill="#3f51b5"/>
      <path id="Shape-15" data-name="Shape" d="M22.686,5.493A8.52,8.52,0,0,1,21.8,9.252a9.142,9.142,0,0,1-.5.9,1.784,1.784,0,0,1-.109.168c-.114.176-.233.347-.35.508a11.672,11.672,0,0,1-2.375,2.41l-.125.087-.03-.022a9.321,9.321,0,0,1-1.086-.912,12.541,12.541,0,0,1-.972-1.04,11.159,11.159,0,0,1-.757-1.031,1.783,1.783,0,0,1-.109-.168,9.142,9.142,0,0,1-.5-.9A8.521,8.521,0,0,1,14,5.493a4.343,4.343,0,1,1,8.686,0Z" transform="translate(-10.318 -0.879)" fill="#d54c41"/>
      <path id="Shape-16" data-name="Shape" d="M32.865,3.584A4.343,4.343,0,0,0,28.907,1a4.006,4.006,0,0,0-.407.022,4.381,4.381,0,0,1,3.936,4.362,8.521,8.521,0,0,1-.888,3.759,9.142,9.142,0,0,1-.5.9,1.782,1.782,0,0,1-.109.168c-.114.176-.233.347-.35.508A11.878,11.878,0,0,1,28.5,12.908c.187.149.32.247.377.285l.03.022.122-.087a11.672,11.672,0,0,0,2.375-2.41c.117-.16.236-.331.35-.508a1.782,1.782,0,0,0,.109-.168,9.143,9.143,0,0,0,.5-.9,8.52,8.52,0,0,0,.888-3.759A4.343,4.343,0,0,0,32.865,3.584Z" transform="translate(-20.882 -0.769)" fill="#c81e1e"/>
      <path id="Shape-17" data-name="Shape" d="M27.241,11.886a.863.863,0,0,1-.86-.814l-.166-2.986a1.028,1.028,0,1,1,2.052,0L28.1,11.072A.863.863,0,0,1,27.241,11.886Z" transform="translate(-19.216 -5.141)" fill="#f5f5f5"/>
      <circle id="Oval" cx="0.814" cy="0.814" r="0.814" transform="translate(7.211 7.831)" fill="#f5f5f5"/>
      <g id="Group_10086" data-name="Group 10086" transform="translate(0 0)">
        <path id="Shape-18" data-name="Shape" d="M16.457,15.668l-.961-2.7a.166.166,0,0,0-.014-.033L13.938,8.614a.543.543,0,0,0-.51-.361H12.342a8.7,8.7,0,0,0,.733-3.488,4.614,4.614,0,1,0-9.229,0,8.74,8.74,0,0,0,.738,3.488H3.5a.543.543,0,0,0-.513.361L1,14.164A.166.166,0,0,0,1,14.2L.464,15.666a.543.543,0,0,0-.024.239.073.073,0,0,0,0,.024v.041a.543.543,0,0,0,.543.426H15.947a.543.543,0,0,0,.51-.727ZM7.144,13.331l5.844,2.522H11.153L5.762,13.524a.271.271,0,0,0-.217,0L1.132,15.435l.326-.939,1.9-.814a.271.271,0,0,0,0-.5l-1.23-.543.247-.687,2.372,1.026a.271.271,0,0,0,.217,0l2.324-1c.236.22.445.394.613.527l-.749.323a.271.271,0,0,0,0,.5Zm-5.2-.171.619.271-.852.361Zm7.839,2.693H1.528l4.126-1.783ZM3.224,9.558,6.21,10.847c.223.271.445.51.657.725l-2.011.869-2.307-.993Zm7.91.76,2.459-1.061.244.687-1.086.464a.271.271,0,0,0,0,.5l1.68.725.337.936L11.378,11.1a.271.271,0,0,0-.214,0l-1.107.475a11.518,11.518,0,0,0,1.078-1.259Zm3.056.613-.638-.271.467-.2Zm-.9-2.136-1.6.689a7.528,7.528,0,0,0,.38-.689ZM4.75,3.076a4.072,4.072,0,0,1,7.782,1.688,8.472,8.472,0,0,1-1.357,4.525c-.022.038-.046.076-.071.114l-.03.041A11.4,11.4,0,0,1,8.46,12.262a10.513,10.513,0,0,1-.934-.8A11.425,11.425,0,0,1,5.836,9.441L5.808,9.4c-.024-.038-.049-.076-.076-.125A8.45,8.45,0,0,1,4.389,4.764,4.072,4.072,0,0,1,4.75,3.076ZM4.839,8.8c.13.255.271.51.426.763.03.052.06.1.092.147l.024.035c.049.079.1.152.152.228L3.406,9.045,3.5,8.8Zm9.519,7.057-6.42-2.771.5-.217H8.46a.271.271,0,0,0,.152-.046l.106-.076,2.552-1.086,3.757,1.629.92,2.568Z" transform="translate(-0.435 -0.15)"/>
        <path id="Shape-19" data-name="Shape" d="M26.51,11.4a1.135,1.135,0,0,0,1.132-1.069l.166-2.986a1.3,1.3,0,1,0-2.595,0l.166,2.986A1.135,1.135,0,0,0,26.51,11.4Zm-.543-4.65a.755.755,0,0,1,1.3.559L27.1,10.3a.593.593,0,0,1-1.183.019l-.166-2.986A.749.749,0,0,1,25.967,6.75Z" transform="translate(-18.485 -4.383)"/>
        <path id="Shape-20" data-name="Shape" d="M27.086,28a1.086,1.086,0,1,0,1.086,1.086A1.086,1.086,0,0,0,27.086,28Zm0,1.629a.543.543,0,1,1,.543-.543A.543.543,0,0,1,27.086,29.629Z" transform="translate(-19.061 -20.44)"/>
      </g>
    </g>
  </g>
</svg>
