<svg xmlns="http://www.w3.org/2000/svg" width="14.622" height="14.7" viewBox="0 0 14.622 14.7">
  <g id="Group_10237" data-name="Group 10237" transform="translate(-701.001 -1298.386)">
    <g id="Layer_32" transform="translate(701.001 1298.386)">
      <path id="Path_11603" data-name="Path 11603" d="M98.6,92.183a.816.816,0,0,0-.418.118.827.827,0,0,0-.7-.4h-.418A1.477,1.477,0,0,0,95.6,93.373v.66a.593.593,0,0,1,.459-.124v-.071a.078.078,0,0,1,.077-.077h.018a1.54,1.54,0,0,0,1.543-.507.071.071,0,0,1,.106-.012l.006.006a1.474,1.474,0,0,0,1.025.371.073.073,0,0,1,.071.077v.212a.6.6,0,0,1,.507.159V93A.81.81,0,0,0,98.6,92.183Z" transform="translate(-90.197 -91.753)" fill="#6d6c6b"/>
      <path id="Path_11604" data-name="Path 11604" d="M19.979,104.8a1.583,1.583,0,0,0-1.579,1.579v1.09a1.555,1.555,0,0,0,.141.654.4.4,0,0,0,.371.236h.607v-.118a1.1,1.1,0,0,1-.607-1v-.495a.131.131,0,0,1,.13-.13h.041a1.081,1.081,0,0,0,.848-.406.13.13,0,0,1,.183-.018l.018.018a1.081,1.081,0,0,0,.848.406h0a.126.126,0,0,1,.13.124h0v.518a1.109,1.109,0,0,1-.577.966v.135h.507a.411.411,0,0,0,.371-.236,1.487,1.487,0,0,0,.141-.654v-1.09A1.578,1.578,0,0,0,19.979,104.8Z" transform="translate(-17.545 -103.893)" fill="#898989"/>
      <path id="Path_11605" data-name="Path 11605" d="M185.532,101.5A1.487,1.487,0,0,0,184,102.931v.489a.5.5,0,0,1,.259-.071.336.336,0,0,1,.077.006v-.029s.33-.183.33-.465v-.006a.23.23,0,0,1,.23-.23.163.163,0,0,1,.053.006,2.725,2.725,0,0,0,1.155,0,.235.235,0,0,1,.283.165.162.162,0,0,1,.006.053v.006c0,.277.33.465.33.465v.029a.335.335,0,0,1,.077-.006.5.5,0,0,1,.259.071v-.489A1.481,1.481,0,0,0,185.532,101.5Z" transform="translate(-173.39 -100.787)" fill="#e9e9ea"/>
      <path id="Path_11606" data-name="Path 11606" d="M37.889,163.135h0a1.088,1.088,0,0,1-.489-.118v.406l.171.495a.071.071,0,0,0,.071.047h.53a.077.077,0,0,0,.071-.047l.171-.495V163A1.086,1.086,0,0,1,37.889,163.135Z" transform="translate(-35.426 -158.664)" fill="#f9d0b4"/>
      <path id="Path_11607" data-name="Path 11607" d="M230.282,132.929a.391.391,0,0,0-.082.006c0,.024.006.047.006.077v.772a.336.336,0,0,1-.006.077.363.363,0,0,0,.082.006.469.469,0,1,0,.065-.937.121.121,0,0,0-.065,0Z" transform="translate(-216.868 -130.361)" fill="#f9d0b4"/>
      <path id="Path_11608" data-name="Path 11608" d="M180.459,132.965a.336.336,0,0,1,.006-.077.361.361,0,0,0-.082-.006.469.469,0,1,0-.065.937h.065a.389.389,0,0,0,.082-.006c0-.024-.006-.047-.006-.077Z" transform="translate(-169.513 -130.32)" fill="#f9d0b4"/>
      <path id="Path_11609" data-name="Path 11609" d="M191.856,120.923v-.006a.23.23,0,0,0-.23-.23.163.163,0,0,0-.053.006,2.725,2.725,0,0,1-1.155,0,.235.235,0,0,0-.283.165.162.162,0,0,0-.006.053v.006c0,.277-.33.465-.33.465v.854a1.2,1.2,0,0,0,2.392.024v-.878A.612.612,0,0,1,191.856,120.923Z" transform="translate(-178.848 -118.844)" fill="#f9d0b4"/>
      <path id="Path_11610" data-name="Path 11610" d="M151.894,125.9a.507.507,0,0,0-.094.006c0,.029.006.065.006.094v.984a.507.507,0,0,1-.006.094.594.594,0,0,0,.194-1.172.606.606,0,0,0-.1-.006Z" transform="translate(-143.087 -123.75)" fill="#f9d0b4"/>
      <path id="Path_11611" data-name="Path 11611" d="M92.551,125.967a.507.507,0,0,1,.006-.094.594.594,0,1,0-.194,1.172.571.571,0,0,0,.2,0c0-.029-.006-.065-.006-.094Z" transform="translate(-86.683 -123.717)" fill="#f9d0b4"/>
      <path id="Path_11612" data-name="Path 11612" d="M106.439,114.895a.082.082,0,0,0-.071-.077,1.5,1.5,0,0,1-1.025-.371.075.075,0,0,0-.106,0l-.006.006a1.543,1.543,0,0,1-1.543.507.075.075,0,0,0-.088.059v1.166a1.423,1.423,0,0,0,2.845,0v-1.267A.044.044,0,0,1,106.439,114.895Z" transform="translate(-97.726 -112.951)" fill="#f9d0b4"/>
      <path id="Path_11613" data-name="Path 11613" d="M117.436,165.677h0a1.425,1.425,0,0,1-.636-.153v.524l.224.642a.1.1,0,0,0,.088.065h.689a.088.088,0,0,0,.088-.065l.224-.642V165.5A1.352,1.352,0,0,1,117.436,165.677Z" transform="translate(-110.149 -161.017)" fill="#f9d0b4"/>
      <path id="Path_11614" data-name="Path 11614" d="M29.067,128.452h0a1.1,1.1,0,0,1-.854-.406.13.13,0,0,0-.183-.018l-.018.018a1.081,1.081,0,0,1-.848.406h-.035a.126.126,0,0,0-.13.124v.5a1.118,1.118,0,0,0,.99,1.119,1.1,1.1,0,0,0,1.2-.99.606.606,0,0,0,.006-.1v-.518a.122.122,0,0,0-.13-.135Z" transform="translate(-25.638 -125.725)" fill="#f9d0b4"/>
      <path id="Path_11615" data-name="Path 11615" d="M201.789,164.7a1.262,1.262,0,0,1-.389-.1v.336l.171.495a.071.071,0,0,0,.071.047h.53a.077.077,0,0,0,.071-.047l.171-.495v-.33A1.4,1.4,0,0,1,201.789,164.7Z" transform="translate(-189.765 -160.17)" fill="#f9d0b4"/>
      <path id="Path_11616" data-name="Path 11616" d="M82.552,179.047l-.177-3.128a.552.552,0,0,0-.424-.513l-1.108-.277-.666-.33-.224.642a.1.1,0,0,1-.088.065h-.689a.088.088,0,0,1-.088-.065l-.224-.642-.666.33-1.108.277a.558.558,0,0,0-.424.513l-.177,3.128a.369.369,0,0,0,.348.389h5.337a.367.367,0,0,0,.365-.365C82.552,179.065,82.552,179.059,82.552,179.047Z" transform="translate(-72.212 -169.769)" fill="#e9e9ea"/>
      <path id="Path_11617" data-name="Path 11617" d="M177.983,173.528l-.106-1.862a1.124,1.124,0,0,0-.848-1.025l-.359-.088-.513-.253-.171.495a.071.071,0,0,1-.071.047h-.53a.077.077,0,0,1-.071-.047l-.171-.495-.513.253-.359.088a1.128,1.128,0,0,0-.772.677.56.56,0,0,1,.171.371l.124,2.18h3.87a.323.323,0,0,0,.324-.324A.022.022,0,0,1,177.983,173.528Z" transform="translate(-163.508 -165.534)" fill="#b26e3b"/>
      <path id="Path_11618" data-name="Path 11618" d="M10.1,170.542l-.359-.088-.513-.253-.171.495a.071.071,0,0,1-.071.047h-.53a.077.077,0,0,1-.071-.047l-.171-.495-.513.253-.359.088a1.124,1.124,0,0,0-.848,1.025l-.106,1.862a.323.323,0,0,0,.306.342h3.888l.124-2.18a.548.548,0,0,1,.171-.371A1.149,1.149,0,0,0,10.1,170.542Z" transform="translate(-6.241 -165.44)" fill="#fc7783"/>
      <path id="Path_11629" data-name="Path 11629" d="M65.447,200.3a.146.146,0,0,0-.147.147V202.1a.147.147,0,1,0,.295,0v-1.655A.146.146,0,0,0,65.447,200.3Z" transform="translate(-61.682 -193.767)" fill="#231f20"/>
      <path id="Path_11630" data-name="Path 11630" d="M21.247,200.3a.146.146,0,0,0-.147.147V202.1a.147.147,0,1,0,.295,0v-1.655A.146.146,0,0,0,21.247,200.3Z" transform="translate(-20.086 -193.767)" fill="#231f20"/>
      <path id="Path_11631" data-name="Path 11631" d="M35.943,160.547a.134.134,0,0,0-.147,0,1.018,1.018,0,0,1-.454.118.956.956,0,0,1-.424-.1.155.155,0,0,0-.2.065.119.119,0,0,0-.018.065v.406a.115.115,0,0,0,.006.047l.171.495a.216.216,0,0,0,.206.147h.53a.216.216,0,0,0,.206-.147l.171-.495A.13.13,0,0,0,36,161.1v-.43A.093.093,0,0,0,35.943,160.547Zm-.218.524-.147.424h-.424l-.147-.424v-.165a1.245,1.245,0,0,0,.719-.012Z" transform="translate(-32.885 -156.335)" fill="#231f20"/>
      <path id="Path_11632" data-name="Path 11632" d="M228.017,130.5a.539.539,0,0,0-.1.006.143.143,0,0,0-.124.153v.9a.149.149,0,0,0,.124.159.569.569,0,0,0,.1.006.614.614,0,1,0,0-1.225Zm.071.925V130.8a.309.309,0,0,1,.277.348.313.313,0,0,1-.277.277Z" transform="translate(-214.602 -128.079)" fill="#231f20"/>
      <path id="Path_11633" data-name="Path 11633" d="M178.272,130.63v-.065a.149.149,0,0,0-.124-.159.571.571,0,0,0-.1-.006.614.614,0,1,0,0,1.225.539.539,0,0,0,.1-.006.145.145,0,0,0,.124-.159v-.831Zm-.295.7a.314.314,0,0,1,0-.624Z" transform="translate(-167.179 -127.985)" fill="#231f20"/>
      <path id="Path_11634" data-name="Path 11634" d="M189.9,118.833c-.071-.041-.253-.177-.253-.336v-.006a.378.378,0,0,0-.135-.295.391.391,0,0,0-.33-.077,2.613,2.613,0,0,1-1.09,0,.372.372,0,0,0-.33.077.364.364,0,0,0-.135.3c0,.159-.183.295-.253.336a.146.146,0,0,0-.077.13v.848a1.319,1.319,0,0,0,1.214,1.284.954.954,0,0,0,.13.006,1.38,1.38,0,0,0,.937-.359,1.21,1.21,0,0,0,.406-.907v-.878A.164.164,0,0,0,189.9,118.833Zm-.218,1a.934.934,0,0,1-.312.689,1.1,1.1,0,0,1-.837.277,1.02,1.02,0,0,1-.943-.99v-.772a.715.715,0,0,0,.33-.542v-.012a.082.082,0,0,1,.029-.059.094.094,0,0,1,.077-.018,2.865,2.865,0,0,0,1.225,0,.085.085,0,0,1,.077.018.072.072,0,0,1,.029.059v.012a.715.715,0,0,0,.33.542Z" transform="translate(-176.495 -116.418)" fill="#231f20"/>
      <path id="Path_11635" data-name="Path 11635" d="M229.447,200.3a.146.146,0,0,0-.147.147V202.1a.147.147,0,0,0,.295,0v-1.655A.146.146,0,0,0,229.447,200.3Z" transform="translate(-216.021 -193.767)" fill="#231f20"/>
      <path id="Path_11636" data-name="Path 11636" d="M185.347,200.3a.146.146,0,0,0-.147.147V202.1a.147.147,0,1,0,.295,0v-1.655A.15.15,0,0,0,185.347,200.3Z" transform="translate(-174.519 -193.767)" fill="#231f20"/>
      <path id="Path_11637" data-name="Path 11637" d="M80.34,176.724h0l-.177-3.128a.71.71,0,0,0-.536-.648l-1.09-.277-.654-.318a.146.146,0,0,0-.194.065c0,.006-.006.012-.006.018l-.212.607h-.613l-.212-.607a.146.146,0,0,0-.188-.088c-.006,0-.012.006-.018.006l-.654.318-1.09.277a.71.71,0,0,0-.536.648l-.177,3.128a.514.514,0,0,0,.483.542h5.349a.513.513,0,0,0,.513-.513.032.032,0,0,0,.012-.029Zm-.353.177a.234.234,0,0,1-.159.071H74.5a.217.217,0,0,1-.218-.218v-.012l.177-3.128a.408.408,0,0,1,.312-.377l1.107-.277c.012,0,.018-.006.029-.012l.518-.253.171.489a.243.243,0,0,0,.23.159h.689a.249.249,0,0,0,.23-.159l.171-.489.518.253c.012.006.018.006.029.012l1.108.277a.414.414,0,0,1,.312.377l.177,3.128a.365.365,0,0,1-.077.159Z" transform="translate(-69.854 -167.452)" fill="#231f20"/>
      <path id="Path_11638" data-name="Path 11638" d="M149.534,123.4a.8.8,0,0,0-.118.012.143.143,0,0,0-.124.153c0,.029.006.059.006.088v.984a.446.446,0,0,1-.006.088.143.143,0,0,0,.124.153.74.74,0,0,0,.236-1.461.287.287,0,0,0-.118-.018Zm.053,1.184v-.89a.448.448,0,0,1,0,.89Z" transform="translate(-140.727 -121.397)" fill="#231f20"/>
      <path id="Path_11639" data-name="Path 11639" d="M90.416,123.591a.446.446,0,0,1,.006-.088.143.143,0,0,0-.124-.153.74.74,0,0,0-.236,1.461.6.6,0,0,0,.236,0,.143.143,0,0,0,.124-.153c0-.029-.006-.059-.006-.088Zm-.295.937a.448.448,0,0,1,0-.89Z" transform="translate(-84.401 -121.341)" fill="#231f20"/>
      <path id="Path_11640" data-name="Path 11640" d="M103.952,112.524a.221.221,0,0,0-.218-.218,1.347,1.347,0,0,1-.925-.33.229.229,0,0,0-.318,0l-.018.018a1.384,1.384,0,0,1-1.4.454.227.227,0,0,0-.265.171.129.129,0,0,0-.006.047v1.143a1.573,1.573,0,1,0,3.146,0v-1.267Zm-.295,1.3a1.278,1.278,0,0,1-2.557,0h0v-1.06a1.685,1.685,0,0,0,1.555-.518,1.631,1.631,0,0,0,1,.359v1.219Z" transform="translate(-95.091 -110.586)" fill="#231f20"/>
      <path id="Path_11641" data-name="Path 11641" d="M96.252,89.683a.911.911,0,0,0-.371.077.981.981,0,0,0-.742-.359H94.72a1.623,1.623,0,0,0-1.62,1.62v.66a.146.146,0,0,0,.147.147.178.178,0,0,0,.094-.029.434.434,0,0,1,.348-.094.151.151,0,0,0,.171-.124v-.006a1.7,1.7,0,0,0,1.561-.518,1.631,1.631,0,0,0,1,.359v.141a.146.146,0,0,0,.147.147h.024a.287.287,0,0,1,.071-.006.462.462,0,0,1,.312.124.142.142,0,0,0,.206-.006.167.167,0,0,0,.041-.1V90.643A.969.969,0,0,0,96.252,89.683Zm.666,1.767a.8.8,0,0,0-.212-.047v-.065a.221.221,0,0,0-.218-.218,1.347,1.347,0,0,1-.925-.33.23.23,0,0,0-.318,0l-.018.018a1.384,1.384,0,0,1-1.4.454.221.221,0,0,0-.189.047.192.192,0,0,0-.065.088.911.911,0,0,0-.183.035v-.418a1.331,1.331,0,0,1,1.325-1.325h.418a.663.663,0,0,1,.571.324.145.145,0,0,0,.2.053h0a.668.668,0,0,1,.913.224.656.656,0,0,1,.094.348Z" transform="translate(-87.845 -89.4)" fill="#231f20"/>
      <path id="Path_11642" data-name="Path 11642" d="M125.777,197.718a.158.158,0,0,0-.136-.041c-.012,0-.018.006-.029.006s-.018.006-.024.012-.018.012-.024.018a.082.082,0,0,0-.018.024.045.045,0,0,0-.012.024.053.053,0,0,0-.006.029.1.1,0,0,0,0,.059c0,.012.006.018.006.029s.006.018.012.024.012.018.018.024a.082.082,0,0,0,.024.018.045.045,0,0,0,.024.012.053.053,0,0,0,.029.006c.012,0,.018.006.029.006a.146.146,0,0,0,.147-.147.154.154,0,0,0-.041-.1Z" transform="translate(-118.36 -191.297)" fill="#231f20"/>
      <path id="Path_11643" data-name="Path 11643" d="M125.777,210.618a.158.158,0,0,0-.136-.041c-.012,0-.018.006-.029.006s-.018.006-.024.012-.018.012-.024.018a.082.082,0,0,0-.018.024.045.045,0,0,0-.012.024.053.053,0,0,0-.006.029.1.1,0,0,0,0,.059c0,.012.006.018.006.029s.006.018.012.024.012.018.018.024a.082.082,0,0,0,.024.018.045.045,0,0,0,.024.012.053.053,0,0,0,.029.006.053.053,0,0,1,.029.006.169.169,0,0,0,.106-.041A.154.154,0,0,0,125.777,210.618Z" transform="translate(-118.36 -203.437)" fill="#231f20"/>
      <path id="Path_11644" data-name="Path 11644" d="M125.777,223.518a.158.158,0,0,0-.136-.041c-.012,0-.018.006-.029.006s-.018.006-.024.012-.018.012-.024.018a.083.083,0,0,0-.018.024.045.045,0,0,0-.012.024.053.053,0,0,0-.006.029.1.1,0,0,0,0,.059c0,.012.006.018.006.029s.006.018.012.024.012.018.018.024a.082.082,0,0,0,.024.018.045.045,0,0,0,.024.012.053.053,0,0,0,.029.006.053.053,0,0,1,.029.006.17.17,0,0,0,.106-.041A.153.153,0,0,0,125.777,223.518Z" transform="translate(-118.36 -215.577)" fill="#231f20"/>
      <path id="Path_11645" data-name="Path 11645" d="M125.777,236.418a.158.158,0,0,0-.136-.041c-.012,0-.018.006-.029.006s-.018.006-.024.012-.018.012-.024.018a.081.081,0,0,0-.018.024.045.045,0,0,0-.012.024.053.053,0,0,0-.006.029.1.1,0,0,0,0,.059c0,.012.006.018.006.029s.006.018.012.024.012.018.018.024a.082.082,0,0,0,.024.018.045.045,0,0,0,.024.012.053.053,0,0,0,.029.006h.029a.146.146,0,0,0,.147-.147.167.167,0,0,0-.041-.094Z" transform="translate(-118.36 -227.717)" fill="#231f20"/>
      <path id="Path_11646" data-name="Path 11646" d="M153.947,214.6a.146.146,0,0,0-.147.147v2.144a.147.147,0,0,0,.295,0v-2.144A.146.146,0,0,0,153.947,214.6Z" transform="translate(-144.969 -207.224)" fill="#231f20"/>
      <path id="Path_11647" data-name="Path 11647" d="M96.647,214.6a.146.146,0,0,0-.147.147v2.144a.147.147,0,0,0,.295,0v-2.144A.146.146,0,0,0,96.647,214.6Z" transform="translate(-91.044 -207.224)" fill="#231f20"/>
      <path id="Path_11648" data-name="Path 11648" d="M115.743,163.047a.134.134,0,0,0-.147,0,1.288,1.288,0,0,1-.607.153,1.275,1.275,0,0,1-.571-.136.155.155,0,0,0-.2.065.119.119,0,0,0-.018.065v.524a.115.115,0,0,0,.006.047l.224.642a.243.243,0,0,0,.23.159h.689a.249.249,0,0,0,.23-.159l.224-.642a.129.129,0,0,0,.006-.047v-.548A.119.119,0,0,0,115.743,163.047Zm-.224.648-.206.583H114.7l-.206-.583v-.283a1.63,1.63,0,0,0,1.019-.012Z" transform="translate(-107.702 -158.688)" fill="#231f20"/>
      <path id="Path_11649" data-name="Path 11649" d="M26.915,126.012a.28.28,0,0,0-.2-.082h0v0a.944.944,0,0,1-.736-.353.279.279,0,0,0-.389-.041.137.137,0,0,0-.041.041.95.95,0,0,1-.766.353.253.253,0,0,0-.2.077.28.28,0,0,0-.082.2v.495a1.275,1.275,0,0,0,1.125,1.267.83.83,0,0,0,.118.006,1.25,1.25,0,0,0,1.249-1.249v-.518A.234.234,0,0,0,26.915,126.012Zm-.212.707a.95.95,0,0,1-1.043.943.98.98,0,0,1-.86-.972v-.471a1.24,1.24,0,0,0,.966-.442,1.218,1.218,0,0,0,.937.442Z" transform="translate(-23.286 -123.349)" fill="#231f20"/>
      <path id="Path_11650" data-name="Path 11650" d="M17.626,102.3a1.725,1.725,0,0,0-1.726,1.726v1.09a1.683,1.683,0,0,0,.159.719.566.566,0,0,0,.507.324h.607a.146.146,0,0,0,.147-.147v-.118a.141.141,0,0,0-.082-.13.992.992,0,0,1-.53-.878v-.471a1.24,1.24,0,0,0,.966-.442,1.218,1.218,0,0,0,.937.442v.495a.955.955,0,0,1-.5.837.146.146,0,0,0-.077.13v.135a.146.146,0,0,0,.147.147h.507a.556.556,0,0,0,.507-.324,1.683,1.683,0,0,0,.159-.719v-1.09A1.732,1.732,0,0,0,17.626,102.3Zm1.426,2.816a1.481,1.481,0,0,1-.13.6.26.26,0,0,1-.242.153h-.224a1.232,1.232,0,0,0,.442-.948V104.4a.277.277,0,0,0-.082-.194.28.28,0,0,0-.2-.082.944.944,0,0,1-.736-.353.279.279,0,0,0-.389-.041.138.138,0,0,0-.041.041.95.95,0,0,1-.766.353.253.253,0,0,0-.2.077.281.281,0,0,0-.082.2v.495a1.3,1.3,0,0,0,.448.978h-.295a.273.273,0,0,1-.242-.153,1.389,1.389,0,0,1-.13-.595v-1.09a1.432,1.432,0,1,1,2.863,0v1.084Z" transform="translate(-15.193 -101.54)" fill="#231f20"/>
      <path id="Path_11651" data-name="Path 11651" d="M43.647,177a.146.146,0,0,0-.147.147v.66a.147.147,0,1,0,.295,0v-.66A.146.146,0,0,0,43.647,177Z" transform="translate(-41.167 -171.839)" fill="#231f20"/>
      <path id="Path_11652" data-name="Path 11652" d="M213.689,198h-.442a.147.147,0,0,0,0,.295h.442a.146.146,0,0,0,.147-.147A.15.15,0,0,0,213.689,198Z" transform="translate(-200.775 -191.602)" fill="#231f20"/>
      <path id="Path_11653" data-name="Path 11653" d="M183.179,99a1.633,1.633,0,0,0-1.679,1.579v.489a.146.146,0,0,0,.147.147.14.14,0,0,0,.071-.018.425.425,0,0,1,.189-.047.163.163,0,0,1,.053.006.147.147,0,0,0,.159-.088.742.742,0,0,0,.342-.554V100.5a.082.082,0,0,1,.029-.059.094.094,0,0,1,.077-.018,2.865,2.865,0,0,0,1.225,0,.085.085,0,0,1,.077.018.073.073,0,0,1,.029.059v.012a.742.742,0,0,0,.342.554.146.146,0,0,0,.159.088c.018,0,.035-.006.053-.006a.425.425,0,0,1,.189.047.145.145,0,0,0,.2-.053.157.157,0,0,0,.018-.071v-.489A1.634,1.634,0,0,0,183.179,99Zm1.384,1.862a.649.649,0,0,0-.106-.012l-.006-.006c-.071-.041-.253-.177-.253-.342a.377.377,0,0,0-.465-.371,2.613,2.613,0,0,1-1.09,0,.372.372,0,0,0-.33.077.364.364,0,0,0-.135.3c0,.159-.183.295-.253.336l-.006.006a.649.649,0,0,0-.106.012v-.283a1.388,1.388,0,0,1,2.769,0Z" transform="translate(-171.037 -98.434)" fill="#231f20"/>
      <path id="Path_11654" data-name="Path 11654" d="M200.143,162.092a.15.15,0,0,0-.141-.012,1.112,1.112,0,0,1-.554.088,1.125,1.125,0,0,1-.342-.088.144.144,0,0,0-.194.077.209.209,0,0,0-.012.059v.336a.115.115,0,0,0,.006.047l.171.495a.216.216,0,0,0,.206.147h.53a.216.216,0,0,0,.206-.147l.171-.495a.129.129,0,0,0,.006-.047v-.33A.116.116,0,0,0,200.143,162.092Zm-.23.43-.147.424h-.424l-.147-.424v-.1a1.57,1.57,0,0,0,.23.041,1.366,1.366,0,0,0,.489-.041Z" transform="translate(-187.412 -157.786)" fill="#231f20"/>
      <path id="Path_11655" data-name="Path 11655" d="M199.878,146.511l-.23-.094a.309.309,0,0,0-.33.059.028.028,0,0,1-.041,0,.337.337,0,0,0-.33-.059l-.23.094a.145.145,0,1,0,.106.271h0l.23-.094a.026.026,0,0,1,.029.006.322.322,0,0,0,.424,0,.026.026,0,0,1,.029-.006l.23.094a.143.143,0,0,0,.189-.082.136.136,0,0,0-.077-.188Z" transform="translate(-187.153 -143.035)" fill="#231f20"/>
      <path id="Path_11656" data-name="Path 11656" d="M175.7,171.111h0l-.106-1.862a1.267,1.267,0,0,0-.96-1.161l-.348-.088-.5-.247a.146.146,0,0,0-.194.065c0,.006-.006.012-.006.018l-.153.448h-.424l-.153-.448a.146.146,0,0,0-.189-.088c-.006,0-.012.006-.018.006l-.5.247-.348.088a1.277,1.277,0,0,0-.872.766.147.147,0,0,0,.035.159.4.4,0,0,1,.124.277l.124,2.18a.153.153,0,0,0,.147.141h3.87a.473.473,0,0,0,.471-.471v-.029Zm-.342.147a.173.173,0,0,1-.13.053H171.5l-.112-2.044a.675.675,0,0,0-.147-.389.984.984,0,0,1,.636-.507l.359-.088c.012,0,.018-.006.029-.012l.365-.177.118.342a.216.216,0,0,0,.206.147h.53a.216.216,0,0,0,.206-.147l.118-.342.365.177c.012.006.018.006.029.012l.359.088a.979.979,0,0,1,.736.89l.106,1.862a.162.162,0,0,1-.047.135Z" transform="translate(-161.081 -163.123)" fill="#231f20"/>
      <path id="Path_11657" data-name="Path 11657" d="M8.658,168.755a1.277,1.277,0,0,0-.872-.766l-.348-.088-.5-.247a.146.146,0,0,0-.194.065c0,.006-.006.012-.006.018l-.153.448H6.16l-.153-.448a.146.146,0,0,0-.189-.088c-.006,0-.012.006-.018.006l-.5.247-.348.088a1.267,1.267,0,0,0-.96,1.161l-.1,1.867a.469.469,0,0,0,.442.495H8.228a.148.148,0,0,0,.147-.141l.124-2.18h0a.444.444,0,0,1,.124-.277A.135.135,0,0,0,8.658,168.755Zm-.454.418-.112,2.044H4.363a.177.177,0,0,1-.177-.177v-.012l.106-1.862a.967.967,0,0,1,.736-.89l.359-.088c.012,0,.018-.006.029-.012L5.783,168l.118.342a.216.216,0,0,0,.206.147h.53a.216.216,0,0,0,.206-.147L6.961,168l.365.177c.012.006.018.006.029.012l.359.088a.984.984,0,0,1,.636.507.674.674,0,0,0-.147.389Z" transform="translate(-3.891 -163.029)" fill="#231f20"/>
    </g>
    <g id="Group_10225" data-name="Group 10225" transform="translate(704.567 1304.531)">
      <ellipse id="Ellipse_447" data-name="Ellipse 447" cx="2.317" cy="3.09" rx="2.317" ry="3.09" transform="translate(1.068 0.983)" fill="#f54d4d"/>
      <g id="search" transform="translate(0 0)">
        <g id="Group_9934" data-name="Group 9934" transform="translate(0 0)">
          <g id="Group_9935" data-name="Group 9935" transform="translate(0 0)">
            <path id="Path_11499" data-name="Path 11499" d="M8.488,7.6,8.366,7.48a.125.125,0,0,0-.177.177l.1.1-.532.532-.9-.9.532-.532.422.422A.125.125,0,1,0,7.988,7.1l-.51-.51h0l-.354-.354h0l-.313-.313a.226.226,0,0,0-.319,0l-.018.018-.448-.448A3.372,3.372,0,0,0,6.69,4.1h.883a.125.125,0,1,0,0-.251H6.734q.017-.12.025-.242H8.17a.125.125,0,0,0,0-.251h-1.4q0-.122-.01-.242h.817a.125.125,0,1,0,0-.251H6.727a3.342,3.342,0,0,0-.69-1.58.125.125,0,1,0-.2.156,3.1,3.1,0,0,1,.675,1.943A3.133,3.133,0,1,1,5.489,1.064.125.125,0,1,0,5.658.879,3.383,3.383,0,1,0,2.744,6.706v.845a.125.125,0,1,0,.251,0V6.744q.12.014.242.019V8.14a.125.125,0,1,0,.251,0V6.765q.122,0,.242-.016v.8a.125.125,0,1,0,.251,0V6.714a3.37,3.37,0,0,0,1.515-.688l.448.448-.018.018a.226.226,0,0,0,0,.319l.313.313h0l.354.354h0L7.6,8.488a.226.226,0,0,0,.319,0l.567-.567a.226.226,0,0,0,0-.319ZM5.861,5.684l.435.435L6.119,6.3l-.435-.435q.092-.085.177-.177Zm.819,1.528L6.5,7.035,7.035,6.5l.177.177Zm-.03-1.093.207.207-.532.532-.207-.207Z" transform="translate(0 0)"/>
            <path id="Path_11500" data-name="Path 11500" d="M31.128,35.176a2.939,2.939,0,0,0,1.745.588,2.882,2.882,0,0,0,0-5.764,2.848,2.848,0,0,0-2.031.845,2.912,2.912,0,0,0-.851,2.035,2.817,2.817,0,0,0,.725,1.918.125.125,0,0,0,.186-.168,2.567,2.567,0,0,1-.661-1.748,2.662,2.662,0,0,1,.778-1.861,2.6,2.6,0,0,1,1.854-.771,2.631,2.631,0,0,1,0,5.263,2.69,2.69,0,0,1-1.6-.538.125.125,0,1,0-.151.2Z" transform="translate(-29.489 -29.499)"/>
          </g>
        </g>
      </g>
    </g>
  </g>
</svg>
