<svg xmlns="http://www.w3.org/2000/svg" width="21.089" height="27.687" viewBox="0 0 21.089 27.687">
  <g id="auction_1_" data-name="auction (1)" transform="translate(0 0.001)">
    <path id="Subtraction_36" data-name="Subtraction 36" d="M17575.428-6080.131h-3.244v-1.677h-4.865a.811.811,0,0,1-.812-.808v-8.167a.814.814,0,0,1,.813-.812h12.977a.812.812,0,0,1,.811.812v8.167a.81.81,0,0,1-.811.808h-4.867v1.676Zm-3.521-6.358h0v.556l1.633,1.633.393-.393-1.236-1.24h.2a1.4,1.4,0,0,0,1.367-1.116h.451v-.556h-.451a1.484,1.484,0,0,0-.25-.556h.7v-.556h-2.807v.556h.988a.836.836,0,0,1,.789.556h-1.777v.556h1.777a.835.835,0,0,1-.789.561h-.988Z" transform="translate(-17566.506 6091.593)" fill="#fff"/>
    <path id="Path_11545" data-name="Path 11545" d="M1.217,244.433H3.244V242H1.217a1.217,1.217,0,1,0,0,2.433Zm0,0" transform="translate(0 -228.914)" fill="#fff"/>
    <path id="Path_11546" data-name="Path 11546" d="M61.217,469.433H63.65a1.217,1.217,0,0,0,0-2.433H61.217a1.217,1.217,0,0,0,0,2.433Zm0,0" transform="translate(-56.756 -441.747)" fill="#fff"/>
    <path id="Path_11547" data-name="Path 11547" d="M31.217,394.433H33.65a1.217,1.217,0,0,0,0-2.433H31.217a1.217,1.217,0,0,0,0,2.433Zm0,0" transform="translate(-28.378 -370.803)" fill="#fff"/>
    <path id="Path_11548" data-name="Path 11548" d="M1.217,319.433H3.244V317H1.217a1.217,1.217,0,1,0,0,2.433Zm0,0" transform="translate(0 -299.858)" fill="#fff"/>
    <path id="Path_11549" data-name="Path 11549" d="M95.564,256.6a9.167,9.167,0,0,0,3.877-.973,6.97,6.97,0,0,1,2.92-.649h3.05a.8.8,0,0,0,.811-.811v-8.111a.8.8,0,0,0-.811-.811h-2.579a4.714,4.714,0,0,1-3.342-1.379A6.3,6.3,0,0,0,95.012,242h-4.2a.8.8,0,0,0-.811.811v4.867a.8.8,0,0,0,.811.811,2.43,2.43,0,0,0,2.433-2.433.811.811,0,1,1,1.622,0,4.056,4.056,0,0,0,4.056,4.056.811.811,0,0,1,0,1.622,5.657,5.657,0,0,1-5.036-3.108,4.1,4.1,0,0,1-1.212,1.013,2.761,2.761,0,0,1,.207,3.052,2.8,2.8,0,0,1,1.7,3.91Zm0,0" transform="translate(-85.133 -228.914)" fill="#fff"/>
  </g>
</svg>
