<svg xmlns="http://www.w3.org/2000/svg" width="20.545" height="24.769" viewBox="0 0 20.545 24.769">
  <g id="money_1_" data-name="money (1)" transform="translate(-36.238 0)">
    <g id="Group_9994" data-name="Group 9994" transform="translate(36.238 0)">
      <g id="Group_9987" data-name="Group 9987" transform="translate(10.79 15.918)">
        <path id="Path_11537" data-name="Path 11537" d="M222.528,273.644a1.178,1.178,0,0,0-.33-.24,3.986,3.986,0,0,0-.837-.3v2.216a1.574,1.574,0,0,0,1.241-.654h0a1.012,1.012,0,0,0,.092-.692A.7.7,0,0,0,222.528,273.644Z" transform="translate(-221.36 -273.108)" fill="#fff"/>
      </g>
      <g id="Group_9988" data-name="Group 9988" transform="translate(12.028 17.479)">
        <path id="Path_11538" data-name="Path 11538" d="M242.6,299.9l0,0h0Z" transform="translate(-242.604 -299.9)" fill="#fff"/>
      </g>
      <g id="Group_9989" data-name="Group 9989" transform="translate(8.463 12.362)">
        <path id="Path_11539" data-name="Path 11539" d="M181.591,212.655a.832.832,0,0,0-.144.39.934.934,0,0,0,.048.431.69.69,0,0,0,.268.3,2.094,2.094,0,0,0,.4.206c.116.047.247.092.388.135v-2A1.53,1.53,0,0,0,181.591,212.655Z" transform="translate(-181.441 -212.106)" fill="#fff"/>
      </g>
      <g id="Group_9990" data-name="Group 9990" transform="translate(12.03 17.463)">
        <path id="Path_11540" data-name="Path 11540" d="M242.656,299.619l-.009.016h0Z" transform="translate(-242.647 -299.619)" fill="#fff"/>
      </g>
      <g id="Group_9991" data-name="Group 9991" transform="translate(12.051 17.441)">
        <path id="Path_11541" data-name="Path 11541" d="M243,299.245Z" transform="translate(-243.004 -299.244)" fill="#fff"/>
      </g>
      <g id="Group_9992" data-name="Group 9992" transform="translate(0 0)">
        <path id="Path_11542" data-name="Path 11542" d="M47.808,5.39c1.884-1.583,3.143-5.149,2.368-5.3-1.03-.207-3.265.7-4.346.862-1.533.185-3.2-1.662-4.139-.632-.762.837.546,3.881,2.593,5.207-6.105,3-14.687,18.064.284,19.157C65.283,26.191,54.911,8.314,47.808,5.39Z" transform="translate(-36.238 0)" fill="#fff"/>
      </g>
      <g id="Group_9993" data-name="Group 9993" transform="translate(12.012 17.495)">
        <path id="Path_11543" data-name="Path 11543" d="M242.346,300.169l-.009.016Z" transform="translate(-242.337 -300.169)" fill="#fff"/>
      </g>
    </g>
    <g id="rupee" transform="translate(43.684 12.541)">
      <path id="Path_11531" data-name="Path 11531" d="M98.17,0H93.525V.923h1.638a1.387,1.387,0,0,1,1.305.923H93.525v.923h2.943a1.387,1.387,0,0,1-1.305.923H93.525v.923l2.7,2.7.653-.653L94.83,4.614h.333a2.311,2.311,0,0,0,2.261-1.846h.746V1.846h-.746a2.3,2.3,0,0,0-.416-.923H98.17Z" transform="translate(-93.525)" fill="#d54b91"/>
    </g>
  </g>
</svg>
