<svg xmlns="http://www.w3.org/2000/svg" width="30.688" height="18.47" viewBox="0 0 30.688 18.47">
  <g id="Group_10285" data-name="Group 10285" transform="translate(-382.312 -177.529)">
    <path id="Subtraction_33" data-name="Subtraction 33" d="M6.063,18.161h0c-1.275-.055-2.285-.1-2.923-.14l-.069,0H3.046A3.267,3.267,0,0,1,.423,16.458l0-.007c-.735-1.081-.366-2.735.073-3.933a7.565,7.565,0,0,1,.577-1.284A1.6,1.6,0,0,1,1.2,9.828a1.605,1.605,0,0,1,1.119-.571l.041-.07L2.7,8.61,2.705,8.6C3.523,7.219,6.012,3.022,6.03,2.975A2.878,2.878,0,0,1,6.616.725,2.449,2.449,0,0,1,8.392,0h.031a2.318,2.318,0,0,1,1.72.841A3.005,3.005,0,0,1,10.6,2.914l4.289,5.2V2.8L16.98.684h6.008V8.13h6.195v4.549l-15.463.01L8.168,4.779H7.836c-.007.007-.1.127-.278.354C6.105,6.993,3.636,10.145,3.6,10.155A1.278,1.278,0,0,1,3.1,11.692l.121.259,0,.005.029.063,0,.01.078.17.147.318.3.641.037.081c.833,1.811,2.228,4.842,2.244,4.921ZM2.309,10.346a.406.406,0,1,0,.406.407A.407.407,0,0,0,2.309,10.346ZM17.764,2.137h0L16.407,3.456V6.705h5.017V2.138h-3.66ZM8.4,1.045A1.178,1.178,0,1,0,9.581,2.223,1.179,1.179,0,0,0,8.4,1.045Z" transform="translate(382.313 177.527)" fill="#fff"/>
    <path id="Subtraction_30" data-name="Subtraction 30" d="M16.5,5H2.5a2.5,2.5,0,1,1,0-5h14a2.5,2.5,0,0,1,0,5Zm-1-4A1.5,1.5,0,1,0,17,2.5,1.5,1.5,0,0,0,15.5,1Zm-4,0A1.5,1.5,0,1,0,13,2.5,1.5,1.5,0,0,0,11.5,1Zm-4,0A1.5,1.5,0,1,0,9,2.5,1.5,1.5,0,0,0,7.5,1Zm-4,0A1.5,1.5,0,1,0,5,2.5,1.5,1.5,0,0,0,3.5,1Z" transform="translate(394 191)" fill="#fff"/>
  </g>
</svg>
