<svg xmlns="http://www.w3.org/2000/svg" width="26.479" height="29.964" viewBox="0 0 26.479 29.964">
  <g id="Group_10279" data-name="Group 10279" transform="translate(-1043.848 -170.702)">
    <path id="Path_11732" data-name="Path 11732" d="M-17320.141,6100.406l10.266-3.906,8.17,3.467-8.17,2.158Z" transform="translate(18371 -5920)" fill="#fff" stroke="#fff" stroke-width="0.2"/>
    <path id="Path_11733" data-name="Path 11733" d="M-17309.293,6101.928v8.318h-.66l.4,4.964v.352l-1.568.453-.031-5.625-.125-.144-.156-4.278-.5-.516-.2-2.437-3.141-.672.625-.781-5.75-.812.25-.375,10.2,1.719Z" transform="translate(18371 -5920)" fill="#fff" stroke="#fff" stroke-width="0.2"/>
    <path id="Path_11734" data-name="Path 11734" d="M-17309.937,6096.5v-5.231l8.084,2.965v5.4Z" transform="translate(18371 -5920)" fill="none" stroke="#fff" stroke-linecap="round" stroke-linejoin="round" stroke-width="1"/>
    <path id="Path_11735" data-name="Path 11735" d="M-17320.406,6094.818l10.6-3.616-.121,5.433-10.479,3.774Z" transform="translate(18371 -5920)" fill="none" stroke="#fff" stroke-linejoin="round" stroke-width="1"/>
    <path id="Path_11736" data-name="Path 11736" d="M-17319.838,6100.572l-6.619,4.512" transform="translate(18371 -5920)" fill="none" stroke="#fff" stroke-linecap="round" stroke-width="1"/>
    <path id="Path_11737" data-name="Path 11737" d="M-17315.566,6101.376l-10.844,7.219" transform="translate(18371 -5920)" fill="none" stroke="#fff" stroke-linecap="round" stroke-width="1"/>
    <path id="Path_11738" data-name="Path 11738" d="M-17314.41,6102.251l-1.594,2.625-9.844,6.125" transform="translate(18371 -5920)" fill="none" stroke="#fff" stroke-linecap="round" stroke-width="1"/>
    <path id="Path_11739" data-name="Path 11739" d="M-17312.316,6102.251l-2.469,3.813-11.312,7.219" transform="translate(18371 -5920)" fill="none" stroke="#fff" stroke-linecap="round" stroke-width="1"/>
    <path id="Path_11740" data-name="Path 11740" d="M-17320.129,6109.314l-6.031,10.406" transform="translate(18371 -5920)" fill="none" stroke="#fff" stroke-linecap="round" stroke-width="1"/>
    <path id="Path_11741" data-name="Path 11741" d="M-17301.3,6113.283l-21.246,6.755" transform="translate(18371 -5920)" fill="none" stroke="#fff" stroke-linecap="round" stroke-width="1"/>
    <path id="Path_11742" data-name="Path 11742" d="M-17303.9,6113.781l-3.088-.325-17.021,5.565" transform="translate(18371 -5920)" fill="none" stroke="#fff" stroke-linecap="round" stroke-width="0.5"/>
    <path id="Path_11743" data-name="Path 11743" d="M-17314.85,6103.353l1.354.462" transform="translate(18371 -5920)" fill="none" stroke="#fff" stroke-width="1"/>
    <path id="Path_11744" data-name="Path 11744" d="M-17315.846,6104.444l1.646.61" transform="translate(18371 -5920)" fill="none" stroke="#fff" stroke-width="1"/>
    <path id="Path_11745" data-name="Path 11745" d="M-17316.461,6102.125l.7,2.569-3.654-.673.553,2.355-2.908-.841v2.885l-2.859-1.034v2.572" transform="translate(18371 -5920)" fill="none" stroke="#fff" stroke-width="0.5"/>
    <path id="Path_11746" data-name="Path 11746" d="M-17305.422,6093.1v5.094" transform="translate(18371 -5920)" fill="none" stroke="#fff" stroke-width="0.5"/>
    <path id="Path_11747" data-name="Path 11747" d="M-17319.984,6094.724l2.313.688" transform="translate(18371 -5920)" fill="none" stroke="#fff" stroke-width="0.5"/>
    <path id="Path_11748" data-name="Path 11748" d="M-17320.2,6096.349l10.309-3.375" transform="translate(18371 -5920)" fill="none" stroke="#fff" stroke-width="0.5"/>
    <path id="Path_11749" data-name="Path 11749" d="M-17320.2,6098.193l10.4-3.312" transform="translate(18371 -5920)" fill="none" stroke="#fff" stroke-width="0.5"/>
    <path id="Path_11750" data-name="Path 11750" d="M-17309.609,6093.1l7.719,2.781" transform="translate(18371 -5920)" fill="none" stroke="#fff" stroke-width="0.5"/>
    <path id="Path_11751" data-name="Path 11751" d="M-17309.609,6095.068l7.781,2.688" transform="translate(18371 -5920)" fill="none" stroke="#fff" stroke-width="1"/>
  </g>
</svg>
