<svg xmlns="http://www.w3.org/2000/svg" width="15.745" height="15.75" viewBox="0 0 15.745 15.75">
  <g id="Group_10267" data-name="Group 10267" transform="translate(-263.001 -434.514)">
    <g id="Group_10224" data-name="Group 10224" transform="translate(269.475 434.979)">
      <ellipse id="Ellipse_442" data-name="Ellipse 442" cx="4.391" cy="4.391" rx="4.391" ry="4.391" transform="translate(0 0)" fill="#fff"/>
      <path id="Path_11592" data-name="Path 11592" d="M319.031,72.078a4.391,4.391,0,1,1,0-8.671,4.391,4.391,0,0,0,0,8.671Z" transform="translate(-313.941 -63.351)" fill="#fff"/>
      <g id="Ellipse_443" data-name="Ellipse 443" transform="translate(0.27 -0.465)" fill="none" stroke="#070707" stroke-width="0.5">
        <circle cx="4.5" cy="4.5" r="4.5" stroke="none"/>
        <circle cx="4.5" cy="4.5" r="4.25" fill="none"/>
      </g>
      <text id="_" data-name="?" transform="translate(4.27 4.535)" fill="#fd4755" font-size="5" font-family="OpenSans-Bold, Open Sans" font-weight="700"><tspan x="-1.193" y="0">?</tspan></text>
    </g>
    <g id="Group_10223" data-name="Group 10223" transform="translate(263.001 438.105)">
      <path id="Path_11595" data-name="Path 11595" d="M-16588.57,8793.889l.3-1.218a.343.343,0,0,1,.424-.134,2.8,2.8,0,0,0,.7.134l3.58.861s.023-.171.166.192a13.781,13.781,0,0,1,.313,1.859l.205,1.07.6.3s.4.213.537.282-.537,4.145-.537,4.145l-.123.582-.395.427-4.178.914-.285-.1-.123-.267-.16-.3-1.068.3-2.666.944-.3-.251-.061-.331,1.293-7.721.406-.379Z" transform="translate(16591.914 -8791.924)" fill="#eba764"/>
      <circle id="Ellipse_444" data-name="Ellipse 444" cx="1" cy="1" r="1" transform="translate(2.745 2.409)" fill="#72aa29"/>
      <ellipse id="Ellipse_445" data-name="Ellipse 445" cx="1.5" cy="0.5" rx="1.5" ry="0.5" transform="translate(4.745 7.409)" fill="#72aa29"/>
      <ellipse id="Ellipse_446" data-name="Ellipse 446" cx="1.5" cy="1" rx="1.5" ry="1" transform="translate(4.745 0.409)" fill="#72aa29"/>
      <path id="XMLID_45_" d="M32.133,1.2a.262.262,0,0,1,.262-.262h.062a.262.262,0,1,1,0,.523h-.062A.262.262,0,0,1,32.133,1.2Zm.361,6.082a.262.262,0,0,0,.262.262h.062a.262.262,0,0,0,0-.523h-.062A.262.262,0,0,0,32.494,7.281Zm.293-1.2a1.2,1.2,0,0,1,.262,2.37v.794a.262.262,0,1,1-.523,0V8.452a1.2,1.2,0,0,1,.262-2.37Zm0,.523a.676.676,0,1,0,.676.676A.677.677,0,0,0,32.787,6.605ZM28.573,3.8a1.2,1.2,0,1,1,1.461,1.171v.794a.262.262,0,0,1-.523,0V4.971A1.2,1.2,0,0,1,28.573,3.8Zm.523,0a.676.676,0,1,0,.676-.676A.677.677,0,0,0,29.1,3.8Zm2.13-2.6A1.2,1.2,0,1,1,32.688,2.37v.794a.262.262,0,0,1-.523,0V2.37A1.2,1.2,0,0,1,31.227,1.2Zm.523,0a.676.676,0,1,0,.676-.676A.677.677,0,0,0,31.75,1.2Zm3.9,3.323-.438-.159-.361-2.471a.936.936,0,0,0-.459-.686.262.262,0,0,0-.265.451.407.407,0,0,1,.206.31l.384,2.626a.262.262,0,0,0,.17.208l.585.212c.4.145.441.245.43.316l-.63,4.311a.45.45,0,0,1-.4.382l-3.968.866a.112.112,0,0,1-.1-.02.589.589,0,0,1-.191-.368l-.021-.127a.262.262,0,0,0-.347-.2l-3.506,1.269c-.05.018-.113-.03-.131-.045a.321.321,0,0,1-.122-.266L27.711,3.85a.532.532,0,0,1,.22-.383.262.262,0,0,0-.194-.486,1,1,0,0,0-.542.783l-1.216,7.281a.832.832,0,0,0,.3.755.69.69,0,0,0,.441.17.6.6,0,0,0,.2-.036l3.223-1.167a1.009,1.009,0,0,0,.371.536.632.632,0,0,0,.5.1l3.968-.866a.964.964,0,0,0,.8-.818l.63-4.311C36.506,4.832,35.885,4.607,35.652,4.522Zm-5.91-.46H29.8a.262.262,0,1,0,0-.523h-.062a.262.262,0,0,0,0,.523Zm-.492-1.944a.261.261,0,0,0,.3-.215l.133-.8A.59.59,0,0,1,29.874.74a.112.112,0,0,1,.1-.02l.648.141a.262.262,0,0,0,.112-.511L30.081.209a.633.633,0,0,0-.5.1,1.077,1.077,0,0,0-.414.715l-.133.8A.262.262,0,0,0,29.249,2.118Z" transform="translate(-25.97 0.189)"/>
    </g>
  </g>
</svg>
