<svg xmlns="http://www.w3.org/2000/svg" width="29.922" height="21.504" viewBox="0 0 29.922 21.504">
  <g id="Group_10278" data-name="Group 10278" transform="translate(-621.578 -176.747)">
    <path id="Path_11729" data-name="Path 11729" d="M-17748.922,6114.359h1.313" transform="translate(18371 -5920)" fill="#fff" stroke="#fff" stroke-linecap="round" stroke-width="1"/>
    <path id="Path_11720" data-name="Path 11720" d="M-17722.689,6098.506h-9.906l-1.518,3.347h-14.727" transform="translate(18371 -5920)" fill="none" stroke="#fff" stroke-linecap="round" stroke-width="1"/>
    <path id="Path_11721" data-name="Path 11721" d="M-17747.582,6101.853l-.547,2.535,8.973,4.143" transform="translate(18371 -5920)" fill="none" stroke="#fff" stroke-linecap="round" stroke-width="1"/>
    <path id="Path_11722" data-name="Path 11722" d="M-17723.4,6098.506l-1.738,2.588,1.146,4.049" transform="translate(18371 -5920)" fill="none" stroke="#fff" stroke-linecap="round" stroke-width="1"/>
    <path id="Path_11723" data-name="Path 11723" d="M-17745.389,6105.644l-2.549,6.528s-.953-.266-1.062.234a.5.5,0,0,0,.313.625l2.016.063a4.625,4.625,0,0,1,1.688-4.078,5.057,5.057,0,0,1,4.406-.641,4.854,4.854,0,0,1,2.625,2.594c.531,1.75.2,2.125.2,2.125h6.469a4.515,4.515,0,0,1,.172-1.781h-1.625s-.844-.437,0-1c0,.016,2.047,0,2.047,0a4.864,4.864,0,0,1,3.859-2.25c2.75-.2,4.375,2.844,4.406,3.141h1.656s.266.031.375-.344,0-3.922,0-3.922l-3.156-2.094h-4.375v-3.578l3.375-.094.516-.844h-6.5l-1.187,3.641-1.453,4.328-6.844.078Z" transform="translate(18371 -5920)" fill="#fff"/>
    <path id="Path_11724" data-name="Path 11724" d="M-17734.844,6100.328l.3-.626-.471-.421h-1.887l-1.025-1.583s-.152-.371-.943-.236a11.131,11.131,0,0,1-1.986.067l-1.785-.724s-.318-.219-.689.185a20.841,20.841,0,0,0-1.262,1.835.718.718,0,0,1-.287.3,1.713,1.713,0,0,0-.875.371,8.411,8.411,0,0,0-.689.828h4.814s-1.75-.946-2.609-.508c.016.034.908-.993.908-.993l2.559.993.74.508Z" transform="translate(18371 -5920)" fill="#fff"/>
    <path id="Path_11725" data-name="Path 11725" d="M-17740.492,6104.459h10.012" transform="translate(18371 -5920)" fill="#fff" stroke="#fff" stroke-linecap="round" stroke-width="1"/>
    <path id="Path_11726" data-name="Path 11726" d="M-17737.2,6106.223h7.141" transform="translate(18371 -5920)" fill="#fff" stroke="#fff" stroke-linecap="round" stroke-width="1"/>
    <path id="Path_11727" data-name="Path 11727" d="M-17720,6112.225h-2.258" transform="translate(18371 -5920)" fill="#fff" stroke="#fff" stroke-linecap="round" stroke-width="1"/>
    <path id="Path_11728" data-name="Path 11728" d="M-17720,6113.989h-1.547" transform="translate(18371 -5920)" fill="#fff" stroke="#fff" stroke-linecap="round" stroke-width="1"/>
    <path id="Subtraction_34" data-name="Subtraction 34" d="M18374.5-5913a3.5,3.5,0,0,1-3.5-3.5,3.5,3.5,0,0,1,3.5-3.5,3.5,3.5,0,0,1,3.5,3.5A3.506,3.506,0,0,1,18374.5-5913Zm0-5a1.5,1.5,0,0,0-1.5,1.5,1.5,1.5,0,0,0,1.5,1.5,1.5,1.5,0,0,0,1.5-1.5A1.5,1.5,0,0,0,18374.5-5918Z" transform="translate(-17746 6109)" fill="#fff"/>
    <path id="Subtraction_35" data-name="Subtraction 35" d="M18374.5-5913a3.5,3.5,0,0,1-3.5-3.5,3.5,3.5,0,0,1,3.5-3.5,3.5,3.5,0,0,1,3.5,3.5A3.506,3.506,0,0,1,18374.5-5913Zm0-5a1.5,1.5,0,0,0-1.5,1.5,1.5,1.5,0,0,0,1.5,1.5,1.5,1.5,0,0,0,1.5-1.5A1.5,1.5,0,0,0,18374.5-5918Z" transform="translate(-17730 6109)" fill="#fff"/>
    <circle id="Ellipse_583" data-name="Ellipse 583" cx="0.5" cy="0.5" r="0.5" transform="translate(628 192)" fill="#fff"/>
    <circle id="Ellipse_584" data-name="Ellipse 584" cx="0.5" cy="0.5" r="0.5" transform="translate(644 192)" fill="#fff"/>
    <path id="Path_11730" data-name="Path 11730" d="M-17748.922,6115.934H-17720" transform="translate(18371 -5920)" fill="#fff" stroke="#fff" stroke-linecap="round" stroke-width="1"/>
    <path id="Path_11731" data-name="Path 11731" d="M-17742.5,6117.751h16.039" transform="translate(18371 -5920)" fill="#fff" stroke="#fff" stroke-linecap="round" stroke-width="1"/>
  </g>
</svg>
