<svg xmlns="http://www.w3.org/2000/svg" width="18.69" height="16.3" viewBox="0 0 18.69 16.3">
  <g id="Group_10286" data-name="Group 10286" transform="translate(-141.648 -501.7)">
    <g id="Group_10235" data-name="Group 10235" transform="translate(144.311 507.824)">
      <g id="mover-truck_1_" data-name="mover-truck (1)" transform="translate(0 0)">
        <path id="Path_11478" data-name="Path 11478" d="M331.683,191.076v-2.292a.376.376,0,0,0-.376-.376h-2.655a1.409,1.409,0,0,0-1.409,1.409v3.325h5.216a.333.333,0,0,0,.333-.333v-1.138a.333.333,0,0,0-.232-.317Z" transform="translate(-316.998 -185.435)" fill="#c3d5ef"/>
        <path id="Path_11479" data-name="Path 11479" d="M435.3,191.075v-2.292a.376.376,0,0,0-.376-.376h-.716a.376.376,0,0,1,.376.376V190.6a.643.643,0,0,0,.448.613l.177.056a.693.693,0,0,1,.483.66v1.207h.383a.333.333,0,0,0,.333-.333v-1.138a.332.332,0,0,0-.232-.317Z" transform="translate(-420.618 -185.434)" fill="#b7c8ea"/>
        <path id="Path_11480" data-name="Path 11480" d="M58.738,196.026h.8v3.627h-.8Z" transform="translate(-56.899 -192.815)" fill="#365e7d"/>
        <path id="Path_11481" data-name="Path 11481" d="M21.557,312.764H11.679l.151-.288a1.085,1.085,0,0,1,.961-.58h8.766Z" transform="translate(-11.313 -305.057)" fill="#eab14d"/>
        <path id="Path_11482" data-name="Path 11482" d="M306.9,311.9h.637v.869H306.9Z" transform="translate(-297.294 -305.058)" fill="#e49542"/>
        <path id="Path_11483" data-name="Path 11483" d="M388.673,220.243H386.7a.627.627,0,0,1-.627-.627v-.472a.627.627,0,0,1,.627-.627h1.972Z" transform="translate(-373.988 -214.602)" fill="#80b4fb"/>
        <path id="Path_11484" data-name="Path 11484" d="M446.946,218.516h-.716v1.255a.643.643,0,0,0,.205.471h.51Z" transform="translate(-432.261 -214.601)" fill="#61a2f9"/>
        <path id="Path_11485" data-name="Path 11485" d="M43.972,162.621h4.089l2.629-3.946H42.434l-.894.992Z" transform="translate(-40.24 -156.633)" fill="#eab14d"/>
        <path id="Path_11486" data-name="Path 11486" d="M53.177,158.676l-.547.607h7.109a.262.262,0,0,1,.218.408L58,162.622h.8l2.629-3.946Z" transform="translate(-50.982 -156.634)" fill="#e49542"/>
        <path id="Path_11487" data-name="Path 11487" d="M134.675,284.734h3v.85h-3Z" transform="translate(-130.459 -278.746)" fill="#c3d5ef"/>
        <path id="Path_11488" data-name="Path 11488" d="M20.272,100.94H18.958a.5.5,0,0,0-.344.137l-.742.7H9.226a.5.5,0,0,0-.372.165l-1.237,1.373a.5.5,0,0,0,.743.67l1.088-1.208h8.622a.5.5,0,0,0,.344-.137l.742-.7,1.115-.338Z" transform="translate(-7.254 -100.705)" fill="#df6b57"/>
        <path id="Path_11489" data-name="Path 11489" d="M20.136,100.94v.188l-.977.3a.615.615,0,0,0-.243.141l-.637.6a.5.5,0,0,1-.344.137H9.4a.2.2,0,0,0-.152.068l-1.027,1.14a.5.5,0,0,1-.706.037l-.008-.008a.5.5,0,0,0,.859.444l1.088-1.208h8.622a.5.5,0,0,0,.344-.137l.742-.7,1.115-.339v-.662Z" transform="translate(-7.264 -100.705)" fill="#dd544f"/>
        <g id="Group_9888" data-name="Group 9888" transform="translate(11.222 6.583)">
          <ellipse id="Ellipse_434" data-name="Ellipse 434" cx="1.68" cy="1.68" rx="1.68" ry="1.68" transform="translate(0 0)" fill="#365e7d"/>
          <path id="Path_11490" data-name="Path 11490" d="M403.833,303.734a1.682,1.682,0,0,0-.268.022,1.68,1.68,0,0,1,0,3.316,1.68,1.68,0,1,0,.268-3.338Z" transform="translate(-402.154 -303.734)" fill="#2b4d66"/>
          <ellipse id="Ellipse_435" data-name="Ellipse 435" cx="0.536" cy="0.536" rx="0.536" ry="0.536" transform="translate(1.143 1.143)" fill="#c3d5ef"/>
        </g>
        <g id="Group_9889" data-name="Group 9889" transform="translate(1.964 6.583)">
          <ellipse id="Ellipse_436" data-name="Ellipse 436" cx="1.68" cy="1.68" rx="1.68" ry="1.68" transform="translate(0 0)" fill="#365e7d"/>
          <path id="Path_11491" data-name="Path 11491" d="M108.1,303.734a1.682,1.682,0,0,0-.268.022,1.68,1.68,0,0,1,0,3.316,1.68,1.68,0,1,0,.268-3.338Z" transform="translate(-106.417 -303.734)" fill="#2b4d66"/>
          <ellipse id="Ellipse_437" data-name="Ellipse 437" cx="0.536" cy="0.536" rx="0.536" ry="0.536" transform="translate(1.143 1.143)" fill="#c3d5ef"/>
        </g>
        <path id="Path_11492" data-name="Path 11492" d="M296.563,255.774h-.991v-1.569a.245.245,0,0,1,.245-.245h.747Z" transform="translate(-286.319 -248.936)" fill="#df6b57"/>
        <path id="Path_11493" data-name="Path 11493" d="M209.891,340.509h-2.583a.277.277,0,0,1-.277-.277v-.584h3.137v.584A.277.277,0,0,1,209.891,340.509Z" transform="translate(-200.55 -331.942)" fill="#365e7d"/>
        <path id="Path_11494" data-name="Path 11494" d="M279.334,339.649v.584a.277.277,0,0,1-.277.277h.606a.277.277,0,0,0,.277-.277v-.584Z" transform="translate(-270.322 -331.942)" fill="#2b4d66"/>
        <g id="Group_9890" data-name="Group 9890" transform="translate(0 0)">
          <path id="Path_11495" data-name="Path 11495" d="M15.632,99.138l-.712-.226v-2.12a.612.612,0,0,0-.611-.611H12.745a.235.235,0,0,0,0,.47h1.564a.142.142,0,0,1,.142.141v.331H12.713a.863.863,0,0,0-.862.862v.472a.863.863,0,0,0,.862.862h1.936l.841.267a.1.1,0,0,1,.068.093v.367h-.225a.235.235,0,1,0,0,.47h.225v.3a.1.1,0,0,1-.1.1h-.815a1.913,1.913,0,0,0-3.486,0h-.68v-3.09a1.176,1.176,0,0,1,1.174-1.174h.153a.235.235,0,1,0,0-.47h-.153a1.646,1.646,0,0,0-1.644,1.644v.408H9.5a.48.48,0,0,0-.48.48v1.334H7.447v-.381h.375a.235.235,0,0,0,.2-.1l2.538-3.81h.262a.732.732,0,0,0,.5-.2l.7-.664,1.062-.322a.235.235,0,0,0,.167-.225v-.662a.235.235,0,0,0-.235-.235H11.7a.732.732,0,0,0-.5.2l-.675.637H7.372a.235.235,0,1,0,0,.47h3.246a.235.235,0,0,0,.161-.064l.742-.7a.264.264,0,0,1,.182-.072h1.079v.253l-.949.288a.235.235,0,0,0-.093.054l-.742.7a.264.264,0,0,1-.182.072H2.195a.235.235,0,0,0-.174.078L.932,96.567a.265.265,0,0,1-.394-.355l1.237-1.373a.266.266,0,0,1,.2-.088H6.433a.235.235,0,1,0,0-.47H1.972a.736.736,0,0,0-.546.243L.189,95.9a.735.735,0,0,0,1.092.984l.025-.028.3.362v2.831H1.478a1.317,1.317,0,0,0-1.169.706l-.151.288a.235.235,0,0,0,.208.344H1.757a1.914,1.914,0,1,0,3.774,0h.715v.349a.512.512,0,0,0,.512.512h.455a.235.235,0,1,0,0-.47H6.758a.042.042,0,0,1-.042-.042v-.349H9.383v.349a.042.042,0,0,1-.042.042H8.151a.235.235,0,1,0,0,.47h1.19a.512.512,0,0,0,.512-.512v-.349h1.162a1.914,1.914,0,1,0,3.774,0h.671a.568.568,0,0,0,.567-.567V99.679a.565.565,0,0,0-.4-.541Zm-3.311-.682v-.472a.393.393,0,0,1,.392-.392H14.45v1.256H12.713a.393.393,0,0,1-.392-.392Zm-2.833.255a.01.01,0,0,1,.01-.01h.512v1.344H9.488Zm-2.51,1.334H4.6q-.071-.041-.147-.076v-.3H6.978ZM5.048,101.94h.021a1.437,1.437,0,0,1-.252.607l-.014-.014a.235.235,0,1,0-.332.332l.014.014a1.437,1.437,0,0,1-.607.252v-.021a.235.235,0,0,0-.47,0v.021a1.437,1.437,0,0,1-.607-.252l.014-.014a.235.235,0,0,0-.332-.332l-.014.014a1.437,1.437,0,0,1-.252-.607h.021a.235.235,0,1,0,0-.47H2.218a1.436,1.436,0,0,1,.252-.607l.014.014a.235.235,0,0,0,.332-.332l-.014-.014a1.437,1.437,0,0,1,.607-.252v.021a.235.235,0,0,0,.47,0v-.021a1.437,1.437,0,0,1,.607.252l-.014.014a.235.235,0,0,0,.332.332l.014-.014a1.437,1.437,0,0,1,.252.607H5.048a.235.235,0,1,0,0,.469Zm.527-6.189-1.935,3.2-.882-1.071,1.276-2.126H5.575Zm2.1,0L5.6,99.2H4.039l2.085-3.445ZM3.552,99.58a.235.235,0,0,0,.181.086h.248v.156a1.9,1.9,0,0,0-1.108.132v-1.2ZM7.7,99.2H6.151l2.068-3.445H9.991ZM2.3,95.751H3.486L2.441,97.492,1.624,96.5Zm-.226,2.035.33.4v1.86h-.33Zm-1.317,3.13a.848.848,0,0,1,.721-.4h.667a1.916,1.916,0,0,0-.245.4Zm4.63,0a1.916,1.916,0,0,0-.245-.4h4.867v.4Zm8.919,1.025h.021a1.437,1.437,0,0,1-.252.607l-.014-.014a.235.235,0,1,0-.332.332l.014.014a1.437,1.437,0,0,1-.607.252v-.021a.235.235,0,0,0-.47,0v.021a1.437,1.437,0,0,1-.607-.252l.014-.014a.235.235,0,0,0-.332-.332l-.014.014a1.437,1.437,0,0,1-.252-.607H11.5a.235.235,0,1,0,0-.47h-.021a1.436,1.436,0,0,1,.252-.607l.014.014a.235.235,0,1,0,.332-.332l-.014-.014a1.437,1.437,0,0,1,.607-.252v.021a.235.235,0,0,0,.47,0v-.021a1.437,1.437,0,0,1,.607.252l-.014.014a.235.235,0,0,0,.332.332l.014-.014a1.436,1.436,0,0,1,.252.607h-.021a.235.235,0,0,0,0,.47Z" transform="translate(0 -93.443)"/>
          <path id="Path_11496" data-name="Path 11496" d="M388.269,332.757a.771.771,0,1,0,.771.771A.772.772,0,0,0,388.269,332.757Zm0,1.073a.3.3,0,1,1,.3-.3A.3.3,0,0,1,388.269,333.83Z" transform="translate(-375.368 -325.266)"/>
          <path id="Path_11497" data-name="Path 11497" d="M92.531,332.757a.771.771,0,1,0,.771.771A.772.772,0,0,0,92.531,332.757Zm0,1.073a.3.3,0,1,1,.3-.3A.3.3,0,0,1,92.531,333.83Z" transform="translate(-88.888 -325.266)"/>
        </g>
      </g>
    </g>
    <g id="Group_10234" data-name="Group 10234" transform="translate(141.998 502.019)">
      <path id="Shape" d="M20.729,4.514a6.6,6.6,0,0,1-.688,2.912,7.081,7.081,0,0,1-.385.7,1.381,1.381,0,0,1-.084.13c-.088.137-.181.269-.271.393a9.042,9.042,0,0,1-1.84,1.867l-.1.067-.023-.017a7.221,7.221,0,0,1-.841-.707,9.715,9.715,0,0,1-.753-.805,8.644,8.644,0,0,1-.587-.8,1.382,1.382,0,0,1-.084-.13,7.082,7.082,0,0,1-.389-.7A6.6,6.6,0,0,1,14,4.514a3.365,3.365,0,0,1,6.729,0Z" transform="translate(-14 -1.119)" fill="#2eac3b" stroke="#202020" stroke-width="0.7"/>
      <path id="Shape-2" data-name="Shape" d="M31.881,3a3.365,3.365,0,0,0-3.066-2,3.1,3.1,0,0,0-.315.017A3.394,3.394,0,0,1,31.549,4.4a6.6,6.6,0,0,1-.688,2.912,7.082,7.082,0,0,1-.385.7,1.381,1.381,0,0,1-.084.13c-.088.137-.181.269-.271.393a9.2,9.2,0,0,1-1.621,1.7c.145.116.248.191.292.221l.023.017.095-.067a9.042,9.042,0,0,0,1.84-1.867c.09-.124.183-.257.271-.393A1.382,1.382,0,0,0,31.105,8a7.083,7.083,0,0,0,.387-.7A6.6,6.6,0,0,0,32.18,4.4,3.364,3.364,0,0,0,31.881,3Z" transform="translate(-25.45 -1)" fill="#197223"/>
      <path id="Shape-3" data-name="Shape" d="M27.01,10.785a.669.669,0,0,1-.667-.631l-.128-2.313a.8.8,0,1,1,1.59,0l-.128,2.313A.669.669,0,0,1,27.01,10.785Z" transform="translate(-23.645 -5.738)" fill="#f5f5f5"/>
      <ellipse id="Oval" cx="0.631" cy="0.631" rx="0.631" ry="0.631" transform="translate(2.735 5.888)" fill="#f5f5f5"/>
      <path id="Shape-4" data-name="Shape" d="M26.217,10.174a.879.879,0,0,0,.877-.828l.128-2.313a1.007,1.007,0,1,0-2.01,0l.128,2.313A.879.879,0,0,0,26.217,10.174Zm-.421-3.6a.585.585,0,0,1,1.009.433l-.128,2.313a.46.46,0,0,1-.917.015L25.633,7.02A.58.58,0,0,1,25.8,6.572Z" transform="translate(-22.852 -4.918)"/>
      <path id="Shape-5" data-name="Shape" d="M26.841,28a.841.841,0,1,0,.841.841A.841.841,0,0,0,26.841,28Zm0,1.262a.421.421,0,1,1,.421-.421A.421.421,0,0,1,26.841,29.262Z" transform="translate(-23.477 -22.322)"/>
    </g>
  </g>
</svg>
