<svg xmlns="http://www.w3.org/2000/svg" width="17.563" height="15.321" viewBox="0 0 17.563 15.321">
  <g id="Group_10287" data-name="Group 10287" transform="translate(-261.81 -501.679)">
    <g id="Group_10194" data-name="Group 10194" transform="translate(264.33 507.448)">
      <g id="mover-truck_1_" data-name="mover-truck (1)" transform="translate(0 0)">
        <path id="Path_11478" data-name="Path 11478" d="M331.41,190.912v-2.151a.353.353,0,0,0-.353-.353h-2.492a1.322,1.322,0,0,0-1.323,1.322v3.121h4.9a.312.312,0,0,0,.312-.312v-1.068a.312.312,0,0,0-.218-.3Z" transform="translate(-317.627 -185.618)" fill="#c3d5ef"/>
        <path id="Path_11479" data-name="Path 11479" d="M435.235,190.911V188.76a.353.353,0,0,0-.353-.353h-.672a.353.353,0,0,1,.353.353v1.71a.6.6,0,0,0,.421.575l.166.053a.65.65,0,0,1,.453.62v1.133h.36a.312.312,0,0,0,.312-.312V191.47a.312.312,0,0,0-.218-.3Z" transform="translate(-421.453 -185.617)" fill="#b7c8ea"/>
        <path id="Path_11480" data-name="Path 11480" d="M58.738,196.026h.751v3.4h-.751Z" transform="translate(-57.012 -193.012)" fill="#365e7d"/>
        <path id="Path_11481" data-name="Path 11481" d="M20.95,312.71H11.679l.142-.271a1.018,1.018,0,0,1,.9-.545H20.95Z" transform="translate(-11.336 -305.477)" fill="#eab14d"/>
        <path id="Path_11482" data-name="Path 11482" d="M306.9,311.9h.6v.816h-.6Z" transform="translate(-297.884 -305.478)" fill="#e49542"/>
        <path id="Path_11483" data-name="Path 11483" d="M388.513,220.137h-1.851a.588.588,0,0,1-.588-.588v-.443a.588.588,0,0,1,.588-.588h1.851Z" transform="translate(-374.731 -214.842)" fill="#80b4fb"/>
        <path id="Path_11484" data-name="Path 11484" d="M446.9,218.516h-.672v1.178a.6.6,0,0,0,.193.442h.479Z" transform="translate(-433.119 -214.841)" fill="#61a2f9"/>
        <path id="Path_11485" data-name="Path 11485" d="M43.823,162.379h3.838l2.467-3.7H42.379l-.839.931Z" transform="translate(-40.32 -156.758)" fill="#eab14d"/>
        <path id="Path_11486" data-name="Path 11486" d="M53.144,158.676l-.514.57H59.3a.246.246,0,0,1,.2.383l-1.833,2.751h.75l2.467-3.7Z" transform="translate(-51.084 -156.759)" fill="#e49542"/>
        <path id="Path_11487" data-name="Path 11487" d="M134.675,284.734h2.812v.8h-2.812Z" transform="translate(-130.718 -279.114)" fill="#c3d5ef"/>
        <path id="Path_11488" data-name="Path 11488" d="M19.487,100.94H18.254a.469.469,0,0,0-.322.128l-.7.658H9.12a.47.47,0,0,0-.349.155l-1.161,1.289a.47.47,0,0,0,.7.629l1.021-1.134h8.093a.469.469,0,0,0,.322-.128l.7-.658,1.047-.318Z" transform="translate(-7.269 -100.72)" fill="#df6b57"/>
        <path id="Path_11489" data-name="Path 11489" d="M19.36,100.94v.177l-.917.278a.577.577,0,0,0-.228.133l-.6.565a.47.47,0,0,1-.322.128H9.287a.192.192,0,0,0-.143.064l-.964,1.07a.469.469,0,0,1-.663.035l-.007-.007a.469.469,0,0,0,.807.417l1.021-1.134h8.093a.47.47,0,0,0,.322-.128l.7-.658,1.047-.318v-.621Z" transform="translate(-7.278 -100.72)" fill="#dd544f"/>
        <g id="Group_9888" data-name="Group 9888" transform="translate(10.532 6.178)">
          <ellipse id="Ellipse_434" data-name="Ellipse 434" cx="1.577" cy="1.576" rx="1.577" ry="1.576" transform="translate(0 0)" fill="#365e7d"/>
          <path id="Path_11490" data-name="Path 11490" d="M403.817,303.734a1.581,1.581,0,0,0-.252.02,1.577,1.577,0,0,1,0,3.113,1.576,1.576,0,1,0,.252-3.133Z" transform="translate(-402.24 -303.734)" fill="#2b4d66"/>
          <ellipse id="Ellipse_435" data-name="Ellipse 435" cx="0.503" cy="0.503" rx="0.503" ry="0.503" transform="translate(1.073 1.073)" fill="#c3d5ef"/>
        </g>
        <g id="Group_9889" data-name="Group 9889" transform="translate(1.843 6.178)">
          <ellipse id="Ellipse_436" data-name="Ellipse 436" cx="1.577" cy="1.576" rx="1.577" ry="1.576" transform="translate(0 0)" fill="#365e7d"/>
          <path id="Path_11491" data-name="Path 11491" d="M108.08,303.734a1.581,1.581,0,0,0-.252.02,1.577,1.577,0,0,1,0,3.113,1.577,1.577,0,1,0,.252-3.133Z" transform="translate(-106.503 -303.734)" fill="#2b4d66"/>
          <ellipse id="Ellipse_437" data-name="Ellipse 437" cx="0.503" cy="0.503" rx="0.503" ry="0.503" transform="translate(1.073 1.073)" fill="#c3d5ef"/>
        </g>
        <path id="Path_11492" data-name="Path 11492" d="M296.5,255.663h-.93v-1.472a.23.23,0,0,1,.23-.23h.7Z" transform="translate(-286.888 -249.245)" fill="#df6b57"/>
        <path id="Path_11493" data-name="Path 11493" d="M209.715,340.457h-2.425a.26.26,0,0,1-.26-.26v-.548h2.944v.548A.26.26,0,0,1,209.715,340.457Z" transform="translate(-200.948 -332.415)" fill="#365e7d"/>
        <path id="Path_11494" data-name="Path 11494" d="M279.317,339.649v.548a.26.26,0,0,1-.26.26h.568a.26.26,0,0,0,.26-.26v-.548Z" transform="translate(-270.858 -332.415)" fill="#2b4d66"/>
        <g id="Group_9890" data-name="Group 9890" transform="translate(0 0)">
          <path id="Path_11495" data-name="Path 11495" d="M14.672,98.789,14,98.576v-1.99a.574.574,0,0,0-.574-.574H11.962a.22.22,0,0,0,0,.441h1.468a.133.133,0,0,1,.133.133V96.9h-1.63a.81.81,0,0,0-.809.809v.443a.81.81,0,0,0,.809.809h1.817l.79.251a.091.091,0,0,1,.064.087v.345h-.211a.22.22,0,0,0,0,.441H14.6v.283a.092.092,0,0,1-.092.092h-.765a1.8,1.8,0,0,0-3.272,0H9.835v-2.9a1.1,1.1,0,0,1,1.1-1.1h.144a.22.22,0,1,0,0-.441h-.144a1.545,1.545,0,0,0-1.543,1.543v.383h-.48a.451.451,0,0,0-.45.45v1.252H6.99v-.357h.352a.22.22,0,0,0,.183-.1l2.382-3.576h.246a.687.687,0,0,0,.474-.188l.659-.623,1-.3a.22.22,0,0,0,.156-.211v-.621a.22.22,0,0,0-.22-.22H10.985a.687.687,0,0,0-.474.188l-.633.6H6.919a.22.22,0,0,0,0,.441H9.966a.22.22,0,0,0,.151-.06l.7-.658a.248.248,0,0,1,.171-.068H12v.238l-.89.27a.221.221,0,0,0-.087.051l-.7.658a.248.248,0,0,1-.171.068H2.06a.22.22,0,0,0-.164.073L.875,96.375a.249.249,0,0,1-.37-.334l1.161-1.289a.25.25,0,0,1,.185-.082H6.038a.22.22,0,0,0,0-.441H1.851a.691.691,0,0,0-.512.228L.177,95.746A.69.69,0,1,0,1.2,96.67l.024-.026.28.34v2.657H1.387a1.236,1.236,0,0,0-1.1.663l-.142.271a.22.22,0,0,0,.2.323H1.649a1.8,1.8,0,1,0,3.542,0h.671v.327a.481.481,0,0,0,.48.48h.427a.22.22,0,0,0,0-.441H6.343a.039.039,0,0,1-.039-.039V100.9h2.5v.327a.039.039,0,0,1-.039.039H7.65a.22.22,0,0,0,0,.441H8.768a.481.481,0,0,0,.48-.48V100.9h1.09a1.8,1.8,0,1,0,3.542,0h.63a.533.533,0,0,0,.533-.533V99.3a.53.53,0,0,0-.371-.507Zm-3.108-.64v-.443a.368.368,0,0,1,.368-.368h1.63v1.179h-1.63a.369.369,0,0,1-.368-.368Zm-2.659.24a.009.009,0,0,1,.009-.009h.48v1.261H8.9ZM6.549,99.641H4.315q-.067-.039-.138-.072v-.286H6.549Zm-1.811,1.777h.02a1.349,1.349,0,0,1-.237.569l-.013-.013a.22.22,0,1,0-.312.312l.013.013a1.349,1.349,0,0,1-.569.237v-.02a.22.22,0,0,0-.441,0v.02a1.349,1.349,0,0,1-.569-.237l.013-.013a.22.22,0,1,0-.312-.312l-.013.013a1.349,1.349,0,0,1-.237-.569H2.1a.22.22,0,1,0,0-.441h-.02a1.348,1.348,0,0,1,.237-.569l.013.014a.22.22,0,0,0,.312-.312L2.63,100.1A1.349,1.349,0,0,1,3.2,99.86v.02a.22.22,0,0,0,.441,0v-.02a1.349,1.349,0,0,1,.569.237l-.013.014a.22.22,0,0,0,.312.312l.013-.014a1.349,1.349,0,0,1,.237.569h-.02a.22.22,0,1,0,0,.441Zm.494-5.809-1.817,3L2.588,97.6l1.2-2H5.233Zm1.968,0L5.259,98.843H3.791l1.957-3.234ZM3.333,99.2a.22.22,0,0,0,.17.08h.233v.146a1.786,1.786,0,0,0-1.04.124V98.43Zm3.89-.36H5.773l1.941-3.234H9.377ZM2.158,95.609H3.272l-.981,1.634-.767-.931Zm-.212,1.91.31.376v1.746h-.31ZM.711,100.456a.8.8,0,0,1,.677-.375h.626a1.8,1.8,0,0,0-.23.375Zm4.345,0a1.8,1.8,0,0,0-.23-.375H9.395v.375Zm8.371.962h.02a1.349,1.349,0,0,1-.237.569l-.013-.013a.22.22,0,1,0-.312.312l.013.013a1.349,1.349,0,0,1-.569.237v-.02a.22.22,0,0,0-.441,0v.02a1.349,1.349,0,0,1-.569-.237l.013-.013a.22.22,0,1,0-.312-.312l-.013.013a1.349,1.349,0,0,1-.237-.569h.02a.22.22,0,1,0,0-.441h-.02a1.348,1.348,0,0,1,.237-.569l.013.013a.22.22,0,1,0,.312-.312l-.013-.013a1.348,1.348,0,0,1,.569-.237v.02a.22.22,0,0,0,.441,0v-.02a1.348,1.348,0,0,1,.569.237l-.013.013a.22.22,0,0,0,.312.312l.013-.013a1.348,1.348,0,0,1,.237.569h-.02a.22.22,0,0,0,0,.441Z" transform="translate(0 -93.443)"/>
          <path id="Path_11496" data-name="Path 11496" d="M388.222,332.757a.724.724,0,1,0,.724.724A.725.725,0,0,0,388.222,332.757Zm0,1.007a.283.283,0,1,1,.283-.283A.284.284,0,0,1,388.222,333.764Z" transform="translate(-376.113 -325.726)"/>
          <path id="Path_11497" data-name="Path 11497" d="M92.484,332.757a.724.724,0,1,0,.724.724A.725.725,0,0,0,92.484,332.757Zm0,1.007a.283.283,0,1,1,.283-.283A.283.283,0,0,1,92.484,333.764Z" transform="translate(-89.064 -325.726)"/>
        </g>
      </g>
    </g>
    <g id="Group_10236" data-name="Group 10236" transform="translate(262.16 502)">
      <path id="Shape" d="M20.316,4.308a6.2,6.2,0,0,1-.645,2.734,6.646,6.646,0,0,1-.361.653,1.3,1.3,0,0,1-.079.122c-.083.128-.17.253-.255.369a8.487,8.487,0,0,1-1.727,1.753L17.158,10l-.022-.016a6.778,6.778,0,0,1-.789-.663,9.118,9.118,0,0,1-.707-.756,8.114,8.114,0,0,1-.551-.75,1.3,1.3,0,0,1-.079-.122,6.648,6.648,0,0,1-.365-.653A6.2,6.2,0,0,1,14,4.308a3.158,3.158,0,0,1,6.316,0Z" transform="translate(-14 -1.121)" fill="#e66b61" stroke="#202020" stroke-width="0.7"/>
      <path id="Shape-2" data-name="Shape" d="M31.674,2.879A3.158,3.158,0,0,0,28.8,1a2.913,2.913,0,0,0-.3.016,3.185,3.185,0,0,1,2.862,3.172,6.2,6.2,0,0,1-.645,2.734,6.648,6.648,0,0,1-.361.653,1.3,1.3,0,0,1-.079.122c-.083.128-.17.253-.255.369A8.637,8.637,0,0,1,28.5,9.658c.136.109.233.18.274.207l.022.016.089-.063a8.487,8.487,0,0,0,1.727-1.753c.085-.116.172-.241.255-.369a1.3,1.3,0,0,0,.079-.122,6.648,6.648,0,0,0,.363-.653,6.2,6.2,0,0,0,.645-2.734,3.158,3.158,0,0,0-.28-1.309Z" transform="translate(-25.638 -1)" fill="#c81e1e"/>
      <path id="Shape-3" data-name="Shape" d="M26.961,10.553a.628.628,0,0,1-.626-.592l-.12-2.171a.747.747,0,1,1,1.492,0l-.12,2.171A.628.628,0,0,1,26.961,10.553Z" transform="translate(-23.803 -5.816)" fill="#f5f5f5"/>
      <ellipse id="Oval" cx="0.592" cy="0.592" rx="0.592" ry="0.592" transform="translate(2.566 5.526)" fill="#f5f5f5"/>
      <path id="Shape-4" data-name="Shape" d="M26.155,9.916a.825.825,0,0,0,.823-.778l.12-2.171a.945.945,0,1,0-1.887,0l.12,2.171A.825.825,0,0,0,26.155,9.916Zm-.395-3.381a.549.549,0,0,1,.947.407l-.12,2.171a.431.431,0,0,1-.861.014l-.12-2.171A.545.545,0,0,1,25.761,6.535Z" transform="translate(-22.998 -4.982)"/>
      <path id="Shape-5" data-name="Shape" d="M26.789,28a.789.789,0,1,0,.789.789A.789.789,0,0,0,26.789,28Zm0,1.184a.395.395,0,1,1,.395-.395A.395.395,0,0,1,26.789,29.184Z" transform="translate(-23.632 -22.671)"/>
    </g>
  </g>
</svg>
