<svg xmlns="http://www.w3.org/2000/svg" width="855.456" height="352.505" viewBox="0 0 855.456 352.505">
  <g id="banner_img" transform="translate(-425 -134.536)">
    <path id="Path_1496" data-name="Path 1496" d="M677.494,171.352V87.742h6.081v-3.26h-1.142V81.61h.965v-.554h-5.9V69.547h6.081v-3.26h-1.142V63.415h.961v-.554h-5.9v-4h7.322V57.006l-5.341-2.869H663.457l-5.173,2.869v1.858H665.6v4h-5.9v.554h.965v2.873h-1.142v3.26H665.6v.24c-.04,0-.083,0-.126,0s-.1,0-.152.007h0c-.213.013-.425.035-.639.063a9.585,9.585,0,0,0-.966.167c-.089.02-.184.041-.278.065a10.36,10.36,0,0,0-1.82.687.022.022,0,0,0-.008,0c-.139.068-.285.122-.42.2-.045.022-.093.05-.136.076-.187.1-.372.212-.548.329a9.64,9.64,0,0,0-.794.571c-.078.061-.149.121-.222.182a9.893,9.893,0,0,0-1.342,1.4.112.112,0,0,1-.013.017c-.094.119-.2.23-.29.354a1.043,1.043,0,0,0-.089.127c-.127.172-.243.352-.356.536a8.427,8.427,0,0,0-.465.859c-.045.084-.086.175-.122.258a9.738,9.738,0,0,0-.594,1.835c0,.012-.005.023-.008.036-.012.045-.025.089-.035.137L589.955,177c-12.723,2.715-25.693,6.116-35.01,6.986-.384.038-.764.084-1.14.131a3.552,3.552,0,0,0-1.929-5.6l.288-.644,2.891-.662a.572.572,0,0,0,.457-.664c-.068-.293-.122-.531-.122-.531l-2.259.52v0l1.536-.352c.036-.185.066-.371.1-.556l1.076-.248.112.495,1.261-.29-.493-2.143-1.261.29.113.495-.612.139a23.9,23.9,0,0,0-.058-7.67c-.036-.192-.078-.387-.117-.579l.5-.116-.26-1.124a.59.59,0,0,0-.71-.443l-.922.208.2-.362-.223-.842-.023-.088-.756.012-.574.776-.185-.558-1.67-1.069-.791.515a2.106,2.106,0,0,1,.065,1.016c-.225-.374-.438-.726-.506-.809a1.253,1.253,0,0,0-.5-.228s0,0,0-.007v0s-.311-1.191-.576-1.342a3.585,3.585,0,0,0-1.4-.442.487.487,0,0,0-.242.093l-.083.061a.845.845,0,0,0-.074.079c-.124-.031-.242-.07-.371-.1-.308-.065-.745-.117-1.168-.22l-.29-1.233-.753-.147a1.892,1.892,0,0,1-.439.564,4.966,4.966,0,0,0-1.215-.275l.094-.49-1.163-.877-.766.4-1.441,1.491.106.591a3.844,3.844,0,0,0-.5.525l-.872.645-.094-.354-.028-.108-.917.015-.738,1,.126.875a.943.943,0,0,1-.657.152,4.688,4.688,0,0,0-.665,1.221l-.837.192a3.829,3.829,0,0,0-1.445-.372.688.688,0,0,0-.334.126l-.111.088a5.357,5.357,0,0,0-.564.7,1.767,1.767,0,0,0-.073.9l-.339-.074.06,1.509-.164-.247-.124-.078-.779-.491-1.261.571s-.478,1.785-.5,2.017a1.2,1.2,0,0,0,.19.52l-.445.1a.6.6,0,0,0-.445.712l.258,1.124.506-.117c.045.192.094.386.146.574a23.911,23.911,0,0,0,3.3,6.925l-.614.139-.114-.491-1.258.29.49,2.145,1.263-.29-.116-.495,1.079-.248c.112.154.22.308.331.458l2.3-.528-3.018.695.124.53a.568.568,0,0,0,.7.4l2.889-.664.539.448a3.554,3.554,0,0,0,.035,5.436,42.423,42.423,0,0,1-5.662.475,57.433,57.433,0,0,1-10.924-1.059,3.568,3.568,0,0,0,.374-6.491l.427-.559h2.965a.571.571,0,0,0,.592-.544V178.9H523c.076-.174.146-.347.218-.521h1.107v.508h1.3v-2.2h-1.3v.508h-.627a23.829,23.829,0,0,0,1.661-7.488c.01-.2.013-.4.013-.591h.518v-1.153a.592.592,0,0,0-.592-.592h-.942l.273-.311-.03-.87V166.1l-.743-.157-.731.627-.055-.582-1.39-1.416-.882.323a2.109,2.109,0,0,1-.164,1c-.134-.415-.268-.807-.313-.9a1.2,1.2,0,0,0-.433-.334s0,0,0-.01h0s-.035-1.233-.26-1.438a3.628,3.628,0,0,0-1.273-.745.478.478,0,0,0-.255.035l-.094.041c-.033.018-.061.04-.093.061-.113-.058-.218-.119-.338-.175-.286-.132-.7-.285-1.09-.482l0-1.263-.707-.313a1.862,1.862,0,0,1-.549.45,4.969,4.969,0,0,0-1.124-.539l.2-.458-.937-1.114-.837.213-1.739,1.13-.028.6a3.961,3.961,0,0,0-.611.4l-.995.434-.012-.367,0-.108-.9-.2-.94.812-.073.88a.936.936,0,0,1-.674,0,4.86,4.86,0,0,0-.927,1.041h-.857a3.867,3.867,0,0,0-1.324-.69.7.7,0,0,0-.357.051l-.129.058a5.389,5.389,0,0,0-.7.563c-.136.086-.227.546-.275.862l-.314-.147-.278,1.484-.1-.278-.1-.1-.65-.655-1.357.276s-.864,1.632-.938,1.855a1.165,1.165,0,0,0,.069.546h-.453a.591.591,0,0,0-.591.592v1.153h.518c0,.2.008.4.012.591a23.925,23.925,0,0,0,1.665,7.488h-.629v-.508h-1.292v2.2h1.292v-.508h1.105c.074.174.144.347.222.521h-.741v.546a.571.571,0,0,0,.594.544h2.965l.427.559a3.568,3.568,0,0,0-1.913,3.156,3.911,3.911,0,0,0,.053.544c-3.548-.268-7.119-.4-10.709-.422a3.519,3.519,0,0,0,.2-1.125,3.574,3.574,0,0,0-1.914-3.157l.427-.559h2.964a.569.569,0,0,0,.592-.544V177.9h-.738c.076-.174.144-.346.218-.521h1.109v.508h1.292v-2.2H493.69v.506h-.629a23.9,23.9,0,0,0,1.661-7.489c.008-.194.013-.392.013-.589h.52v-1.153a.592.592,0,0,0-.592-.594h-.946l.278-.311-.028-.87,0,0,0-.093-.74-.159-.73.629-.058-.586-1.387-1.415-.889.323a2.112,2.112,0,0,1-.16,1c-.136-.415-.268-.808-.313-.9a1.26,1.26,0,0,0-.432-.334.009.009,0,0,1,0-.008h0s-.036-1.233-.258-1.438a3.591,3.591,0,0,0-1.272-.745.481.481,0,0,0-.256.035l-.093.041a.754.754,0,0,0-.093.061c-.111-.06-.218-.122-.339-.175-.285-.134-.7-.285-1.089-.482l0-1.264-.7-.313a1.919,1.919,0,0,1-.553.452,4.936,4.936,0,0,0-1.124-.539l.2-.458-.935-1.114-.837.213-1.736,1.13-.031.6a3.431,3.431,0,0,0-.606.4l-1,.432-.013-.367,0-.111-.9-.192-.942.812-.073.88a.936.936,0,0,1-.673,0,4.887,4.887,0,0,0-.923,1.041h-.859a3.851,3.851,0,0,0-1.325-.688.663.663,0,0,0-.354.05l-.129.058a5.717,5.717,0,0,0-.707.561c-.134.086-.227.546-.275.862l-.311-.146-.28,1.484-.106-.278-.1-.1-.649-.657-1.354.276s-.869,1.632-.943,1.853a1.22,1.22,0,0,0,.071.548h-.455a.593.593,0,0,0-.592.594v1.153h.523c0,.2,0,.4.008.589a23.869,23.869,0,0,0,1.665,7.489h-.63v-.506H466.9v2.2h1.292v-.508H469.3c.074.174.142.348.218.521h-.743v.546a.574.574,0,0,0,.6.544h2.965l.427.559a3.541,3.541,0,0,0-1.392,4.994c-3.831.273-7.66.6-11.465.948a3.536,3.536,0,0,0-1.421-4.936l.424-.559h2.965a.571.571,0,0,0,.594-.544v-.546h-.74c.078-.174.144-.348.218-.521h1.107v.508h1.294v-2.2h-1.294v.508h-.627a23.92,23.92,0,0,0,1.661-7.488c.008-.2.013-.4.013-.591h.518v-1.153a.593.593,0,0,0-.592-.592h-.945l.276-.311-.028-.87v0l0-.093-.738-.157-.735.627-.053-.582-1.39-1.416-.884.323a2.11,2.11,0,0,1-.164,1c-.134-.415-.266-.807-.313-.9a1.193,1.193,0,0,0-.432-.334.069.069,0,0,1,0-.01h0s-.036-1.233-.258-1.438a3.627,3.627,0,0,0-1.272-.745.486.486,0,0,0-.256.035l-.094.041a.753.753,0,0,0-.093.061c-.111-.058-.218-.119-.336-.175-.288-.132-.7-.285-1.092-.482l0-1.263-.7-.313a1.862,1.862,0,0,1-.549.45,5,5,0,0,0-1.124-.539l.2-.458-.935-1.114-.839.213-1.736,1.13-.03.6a3.792,3.792,0,0,0-.609.4l-1,.434-.01-.367,0-.108-.9-.2-.945.812-.073.88a.931.931,0,0,1-.672,0,4.809,4.809,0,0,0-.925,1.041h-.86a3.811,3.811,0,0,0-1.32-.69.7.7,0,0,0-.357.051l-.129.058a5.8,5.8,0,0,0-.707.563c-.137.086-.225.546-.273.862l-.316-.147-.276,1.484-.106-.278-.1-.1-.652-.655-1.354.276s-.869,1.632-.942,1.855a1.234,1.234,0,0,0,.069.546h-.452a.594.594,0,0,0-.594.592v1.153h.521c0,.2,0,.4.012.591a23.878,23.878,0,0,0,1.663,7.488h-.629v-.508h-1.3v2.2h1.3v-.508h1.107c.073.174.142.348.22.521h-.743v.546a.571.571,0,0,0,.6.544h2.964l.427.559a3.564,3.564,0,0,0,.544,6.544c-.788.068-1.57.137-2.351.2-4.024.334-8.07.548-12.127.687l-.228-1.19s-1.224-.071-1.565-.776a6.748,6.748,0,0,0-2.183.558l-.1-1.117-2.269-2.527-1.45.577a4.062,4.062,0,0,1-.263,1.787c-.222-.748-.437-1.446-.516-1.615a2.013,2.013,0,0,0-.708-.6,6.786,6.786,0,0,0-.425-2.5,5.718,5.718,0,0,0-2.075-1.327.738.738,0,0,0-.422.063l-.154.071a1.568,1.568,0,0,0-.134.1c-.184-.1-.372-.2-.568-.3-.465-.237-1.143-.508-1.782-.855l0-2.254-1.148-.561a3.213,3.213,0,0,1-.9.806,7.839,7.839,0,0,0-1.835-.965l.331-.817-1.534-1.986-1.368.384-.831.591.046-.533-.4-1.12-.142-.161-.922-1.011-1.911.427-.44.908-1.028-2.336-1.228-.632-.093-.991-2.174-1.1.235-.295-.048-1.828,0,0,0-.194-1.436-.339-.639.6.3-1.277-1.145-.859a7.891,7.891,0,0,0,1.335-.731s-.4-1.88-.778-2.126a4.806,4.806,0,0,0-2-.745.641.641,0,0,0-.351.132l-.121.093a1.456,1.456,0,0,0-.146.157v0a11.079,11.079,0,0,0-3.556-1.651l.114-.751-1.827-1.138-1.868,1.034.033.23-.415.472-.634-.657.462-.521-1.016-1.056-.457.521-.632-.655.457-.523-.058-.063a10.457,10.457,0,0,0,1.365-.544s-.187-2.186-.574-2.532a5.855,5.855,0,0,0-2.11-1.172,2.361,2.361,0,0,1-.356-1.716,7.992,7.992,0,0,0-1.848-1.438,10.441,10.441,0,0,0,1.557-.493s-.058-2.341-.452-2.735a6.131,6.131,0,0,0-2.214-1.415.817.817,0,0,0-.448.07l-.164.079a3.529,3.529,0,0,0-.675.576c-.41-.74-1.119-1.916-1.539-2.04a9.118,9.118,0,0,0-2.113-.3l.03-.046s-.953-1.266-.644-2.186a11.5,11.5,0,0,0-3.286-2.226l-.841.7c-.141-.486-.551-1.921-.644-2.126-.114-.24-.829-.591-.874-.612l-.007,0-.515.248a7.07,7.07,0,0,0-.531-2.83,7.45,7.45,0,0,0-2.677-1.713.934.934,0,0,0-.543.086l-.2.1a8.784,8.784,0,0,0-1.081.93,1.567,1.567,0,0,0-.3.783l-.647-.672-.457.525-.632-.657.458-.525-1.016-1.052-.455.521-.632-.655.458-.523-1.013-1.051-.457.521-.632-.657.065-.073a10.359,10.359,0,0,0,1.977-.592s-.068-2.656-.515-3.1a8.447,8.447,0,0,0-2.184-1.509l.116-.41s-1.044-.7-1.033-1.5a6.48,6.48,0,0,0-2.073-.64l.23-.352.134-1.459-.405-1.155-.151-.167h0l-.945-1.036-1.971.44s-.728,1.491-1.125,2.361l-.243-.253.348-.025-.343-3.971-2.315-2.576-.789.316.213-.344-1.468-2.621-2.935-1.137-.806,2.748s.117.141.3.346l-.137.675a2.733,2.733,0,0,0-1,0c.038-.01.074-.023.113-.03l-.012-.19a1.687,1.687,0,0,0,.632-1.3V108.7H340a3.814,3.814,0,0,0,.255-1.458c-.122-.4-1.539-3.3-1.539-3.3l-2.217-.495-1.231,1.352-.174.5-.452-2.648-2.313,1.186c-.086-.1-.172-.2-.255-.28l-1.3-2.148h-2.606a8.351,8.351,0,0,0-1.512-1.855c-.809.424-2.062-.482-2.062-.482l-.97.945c-.048-.048-.1-.094-.144-.144l.117-.751-1.09-1.344-1.732-.822a6.234,6.234,0,0,0-1-.713l-.046-1.067L316.9,93.153l-1.368-.386L314,94.755l.331.814a7.721,7.721,0,0,0-1.837.965,3.181,3.181,0,0,1-.905-.8l-1.147.559-.007,2.254c-.637.349-1.314.619-1.784.855-.2.1-.382.2-.566.3-.048-.033-.089-.069-.137-.1l-.152-.073a.737.737,0,0,0-.417-.068,5.744,5.744,0,0,0-2.075,1.329c-.367.369-.429,2.563-.429,2.563l0,0a.02.02,0,0,0,0,.01,2.018,2.018,0,0,0-.7.6c-.079.167-.293.864-.513,1.607a4.074,4.074,0,0,1-.27-1.792l-1.448-.576-2.27,2.525-.089,1.042-1.2-1.124-1.21.285,0,.165,0,0-.043,1.552.659.819a4.274,4.274,0,0,0-.559.222h-1.895v1.775a1.839,1.839,0,0,0,1.756,1.756l4.337,8.725a.513.513,0,0,0-.465.534v55.178c-4.071-5.348-8.379-8.836-12.763-9.055l-4.5-.223V152.274h1.057v-1.723h-6.3V121.3h.321a.554.554,0,1,0,0-1.086h-.321v-3.338l1.224-1H279.6a.962.962,0,0,0,.97-.95v-.4a.963.963,0,0,0-.97-.951h.066c0-2.962-4.251-6.794-9.5-6.794h-.556c-5.242,0-9.493,3.4-9.493,6.794h.065a.964.964,0,0,0-.971.951v.4a.963.963,0,0,0,.971.95h-.065l1.223,1v3.338h-.321a.555.555,0,1,0,0,1.086h.321v29.254h-10.83L250,135.012l-.278-8.76-.288-8.77-.291-8.763-.29-8.762-.28-8.772-.288-8.762H249.4V81.286h-9.659v1.138h1.115l-.291,8.762-.278,8.772L240,108.719l-.293,8.763-.291,8.77-.278,8.76-.511,15.539h-7.471l-.513-15.539-.278-8.76-.29-8.77-.29-8.763-.293-8.762-.276-8.772-.293-8.762h1.117V81.286h-9.659v1.138h1.114l-.29,8.762-.278,8.772-.29,8.762-.293,8.763-.288,8.77-.278,8.76-.513,15.539h-5.987v1.723H214.6v1.7h-.113v1.246h.113v8.01q-3.693-.28-7.251-.574l-.253-2.067-.008-.06c-.063-.278-.313-1.5-.654-3.275-.718-3.738-1.815-9.913-2.264-14.8-.108-1.21-.182-2.34-.2-3.336-.01-.642,0-1.228.041-1.746.113-1.4,1.552-7.023,1.552-7.023h-.03v-1.408H186.472v1.408s1.479,5.623,1.59,7.023c.041.518.058,1.1.048,1.746-.01,1-.083,2.126-.2,3.336-.442,4.881-1.546,11.063-2.265,14.8-.319,1.661-.561,2.83-.64,3.2-.826-.1-1.628-.2-2.4-.308-.113-.544-.316-1.564-.571-2.894-.716-3.738-1.815-9.913-2.265-14.8-.108-1.21-.179-2.34-.2-3.336-.012-.642,0-1.228.041-1.746.114-1.4,1.554-7.023,1.554-7.023h-.033V128.94H162.068v1.408s1.478,5.623,1.593,7.023c.04.518.056,1.1.043,1.746-.008,1-.081,2.126-.2,3.336-.44,4.881-1.546,11.063-2.265,14.8-.022.111-.04.213-.061.321-4.373-.419-9.207,49.819-27.708,84.093-18.743,34.724-53.938,63.943-96.834,93.6-20.12,13.911-45.583,27-65.333,42.667,0,0,16.667,10.667,7.333,26.667,1.9-.095,203.2-19.029,347.911-20.831,193.218-2.406,418.065-5.169,418.065-5.169V163.677C739.133,163.4,682.335,171.505,677.494,171.352ZM679.41,63.415h2.4v2.873h-2.4Zm-1.916,0h1.3v2.873h-1.3Zm1.916,18.2h2.4v2.873h-2.4Zm-1.916,0h1.3v2.873h-1.3ZM266.3,141.146v9.4h-3.379V135.39h.875v2.418a1.669,1.669,0,0,0,1.67,1.67h-.083v.834a.93.93,0,0,0,1,.834H266.3Zm10.552,9.4h-3.377v-9.4h-.084a.931.931,0,0,0,1-.834v-.834h-.084a1.667,1.667,0,0,0,1.67-1.67V135.39h.877v15.157Zm31.577,30.531,9.422-3.889,9.424,3.889Zm18.7,1.064-9.189,3-9.187-3Zm-.854-30.551H309.42l8.431-3.842Zm-16.686-8.758h16.517l-8.26,3.768Zm16.8,9.824-8.538,3.773-8.535-3.773Zm.167,8.767H309.142l8.709-3.849Zm.111,1.064-8.815,3.774-8.815-3.774Zm-17.8,8.762,8.985-3.846,8.983,3.846Zm18.058,1.067-9.073,3.74-9.071-3.74Zm-10.406-5.484-9.951,4.264.313-8.394Zm-.043,9.789L306.2,180.859l.311-8.346Zm2.75,0,10.147-4.185.321,8.5Zm-.041-9.789,9.821-4.206.323,8.55ZM319.148,157l9.49-4.19.321,8.527Zm9.438-5.5-9.478-4.325L328.268,143Zm-20.633-17.4,2.014,4.052v2.221h15.94v-2.221h.01l2.014-4.051.288,7.67H307.665Zm-.338,8.985,8.974,4.092-9.288,4.238ZM316.556,157l-9.619,4.253.313-8.365ZM303.677,180.56V125.495l3.468,6.971-.3-.013-1.886,50.159Q304.324,181.559,303.677,180.56Zm2.384,3.928.078-2.092,10.109,3.306-8.077,2.644Q307.134,186.356,306.061,184.488Zm3.1,4.641,8.78-2.873,10.248,3.352C322.534,189.563,315.846,189.39,309.166,189.13Zm10.476-3.429,10.105-3.306.25,6.695Zm12.165,3.923h-.616l-2.145-57.17-.3.013,3.063-6.162ZM395,165.979l-.05.65-.286-.3Zm-.088,1.125-.031.45-.189-.2Zm-7.7-7.766-.111.129-.223-.238Zm-5.024-5.025-.02.02-.114-.124C382.105,154.247,382.147,154.277,382.193,154.313Zm-1.536-2.073c-.015.094-.025.187-.031.275l-.1.108-.495-.518Zm-2.135-5.616-.242.207-.065-.483C378.319,146.44,378.42,146.533,378.523,146.624Zm-1.44-1.56c-.013.127-.023.213-.023.213s.49.462,1.034.958l-1.354-.824-.035.01Q376.892,145.254,377.083,145.063Zm-1.68.751-.354.1-.222-.228C375.038,145.738,375.235,145.78,375.4,145.814Zm-1.236-.278-.212.243-.374-.389C373.77,145.439,373.969,145.488,374.167,145.536Zm-1.914-3.278c-.079.2-.144.382-.2.546l-.726-.756Zm-.329,1.407-.24-.253.243-.28A1.032,1.032,0,0,0,371.924,143.665ZM371,141.972l-.334.386-.571-.591Zm-2.466-2.143.554.743-.07.076-.629-.655Zm-1.165-.918h.03l-.022.025-.041-.041Zm-1.908-2.962c.167-.036.338-.079.513-.131l-.247.3.146.946-.141.162-.63-.659.457-.521Zm-11.4-12.045c-.015.04-.031.079-.046.126l-.1-.1Zm-.089.266a6.5,6.5,0,0,0-.136.675l-.238-.245Zm-1.357-.662-.028.036-.157-.161Zm-1.7-1.8.146-.008-.117.132-.187-.192Zm-2.131-2.373a.608.608,0,0,0-.02.06.511.511,0,0,0-.018.152l-.078-.081Zm-3.8-6.207a2.4,2.4,0,0,1-.6,1.713c.007.036.013.073.022.106l-.045.048-.63-.659.457-.518-.685-.716A2.207,2.207,0,0,1,344.983,113.129Zm-2.9-.5.113-.139a6.318,6.318,0,0,0,.741.543l-.217.248c-.235-.235-.455-.477-.7-.7A.762.762,0,0,1,342.083,112.629Zm-5.547,4.168.114-.035c.007.038.025.071.033.108l-.228.18-.1.113Zm-2.141,4.3.493-.993,1.747,1.817-2.143-.657A.516.516,0,0,0,334.395,121.1Zm54.66,57.542-2.641-.812.564-.644,1.208-1.383Zm-.222-2.411,3.2,3.326-2.411-.74Zm-1.814.137-.958,1.1-.869-2.841,2.644.809Zm-1.605.665-3.2-3.324,2.4.738Zm-.405-3.021-.793-2.586,3.194,3.323Zm-.571-.174-2.643-.809.3-.341L383.571,171Zm-2.993-1.18-.864-2.838,2.638.811Zm-.645-.424-3.2-3.326,2.408.738Zm-.405-3.023-.793-2.586,3.2,3.323Zm-.569-.174-2.644-.809,1.775-2.032Zm-3-1.178-.865-2.841,2.643.811Zm-.642-.427-3.2-3.326,2.4.738Zm-.41-3.023-.789-2.59,3.2,3.328Zm-.566-.177-2.644-.809,1.779-2.029Zm-3-1.176-.864-2.839,2.641.809Zm-.642-.424-3.2-3.329,2.411.738Zm-.409-3.026-.788-2.588,3.2,3.326Zm-.564-.174-2.644-.812.6-.682,1.181-1.347Zm-3-1.18-.865-2.839,2.648.812Zm-.644-.427-3.2-3.326,2.406.74Zm-.409-3.023-.793-2.588,3.2,3.328Zm-.566-.174-2.644-.811,1.774-2.03Zm-1.592-2.783-1.4,1.605-.867-2.839,2.643.812Zm-2.049,1.177-3.2-3.326,2.4.74ZM361.926,150l-.789-2.588,3.2,3.329Zm-.569-.17-2.641-.811,1.777-2.034Zm-1.933-2.393-1.059,1.211-.869-2.839,2.643.809Zm-1.7.786-3.2-3.328,2.411.74Zm-.409-3.025-.789-2.586,3.2,3.324Zm-.566-.175-2.648-.811,1.779-2.034Zm-2.113-2.193-.887,1.014-.865-2.839,2.643.809Zm-1.529.589-3.2-3.326,2.4.736Zm-.409-3.023-.791-2.588,3.2,3.326Zm-.568-.175-2.643-.811,1.776-2.029Zm-3-1.18-.869-2.838,2.643.809Zm-.647-.424-3.2-3.328,2.408.738Zm-.407-3.026-.791-2.586,3.194,3.324Zm-.569-.172-2.641-.812.718-.819,1.056-1.206Zm-3-1.181-.865-2.838,2.643.811Zm-.644-.424-3.2-3.326,2.4.738Zm-.409-3.023-.791-2.593,3.2,3.331Zm-.569-.177-2.639-.811,1.774-2.029Zm-2.992-1.177-.869-2.841,2.644.812Zm-.647-.429-3.2-3.326,2.409.741Zm-.409-3.021-.789-2.586,3.2,3.326Zm-.568-.174L335.636,125l1.276-1.458.5-.571Zm-1.686-2.677-1.311,1.5-.746-2.451v-.352l2.523.773Zm-1.954,1.071-.1-.106v-.23Zm54.519,57.771-.5,2.9-.127-.372-1.231-1.352-2.214.5s-1.418,2.9-1.541,3.3a3.488,3.488,0,0,0,.232,1.373c-15.142.167-29.333.326-44.593,1.133-1.291.07-2.863.113-4.646.137V124.836l.652.68,4.618,4.805,4.615,4.8v0l4.615,4.8,4.264,4.438.01.012.341.354L358,149.258l4.878,5.078,0,0,4.615,4.8h0l4.615,4.8,4.264,4.438,4.967,5.168,4.264,4.435,4.137,4.306Zm-2.318-3.462,2.4.738.793,2.588Zm3.841,3.753-.865-2.841,2.643.812-1.713,1.958Zm1.286.652-.932-.285,1.5-1.724.271-.3.185.607Zm1.531-1.749-.041-.137.134.137Zm2.343-.323-59.512-61.919,1.706,1.774.374-.452.707.738.458-.525.627.657-.455.518,1.011,1.056.458-.523.629.659-.455.523,1.011,1.054.458-.523.63.659-.457.521,1.011,1.052.458-.521.627.657-.457.523,1.016,1.051.457-.523.632.659-.458.525,1.013,1.051.458-.521.629.659-.453.52,1.011,1.052.455-.52.63.655-.457.523,1.016,1.054.457-.52.63.655-.458.518,1.013,1.054.457-.518.634.655-.462.523,1.014,1.056.457-.526.629.659-.457.521,1.013,1.054.458-.526.632.659-.46.52,1.014,1.059.457-.525.63.657-.455.523,1.011,1.054.457-.521.629.655-.455.523,1.011,1.052.458-.52.632.655-.46.525,1.016,1.054.455-.525.63.657-.455.521,1.013,1.056.455-.521.632.655-.457.52,1.013,1.061.46-.528.627.659-.457.521,1.014,1.056.457-.523.629.655-.458.52,1.016,1.057.457-.521.629.655-.453.523,1.009,1.054.458-.523.63.655-.458.521,1.018,1.056.453-.523.629.655-.452.526,1.009,1.054.458-.523.63.654-.455.526,1.011,1.051.457-.523.634.659-.458.52,1.009,1.054.46-.521.625.655-.452.523,1.013,1.052.457-.521.63.659-.455.52,1.018,1.056.452-.523.632.657-.458.523,1.011,1.056.458-.523.634.654-.458.523,1.013,1.054.455-.523.634.655-.457.523,1.013,1.052.455-.518.632.654-.457.523,1.009,1.054.457-.525.635.659-.457.521,1.013,1.054.455-.521.632.655-.457.526,1.013,1.051.453-.521.632.657-.455.521,1.011,1.056.457-.525.634.659-.462.523,1.018,1.054.455-.523.629.657-.453.521.759.8-.394.427,1.479,1.536Zm1.134-11.126-.629-.657.086-.1.743.525Zm1.324-.033a3.085,3.085,0,0,1,.122.543l-.45-.47Zm.008,1.421-.319-.334.44-.506a1.318,1.318,0,0,1-.121.832A.011.011,0,0,0,398.3,171.113Zm2.823,2.935.147.152.136-.157a1.229,1.229,0,0,0,.012.333C401.321,174.267,401.229,174.155,401.126,174.049Zm.473-.5-.511-.531.976-.473C401.892,172.9,401.725,173.264,401.6,173.544Zm1.418,3.185-.6.285a3.892,3.892,0,0,0-.035-.846.851.851,0,0,1,.026.116l.644-.129c0-.045-.018-.093-.025-.137l.482.21.194-.012A5.882,5.882,0,0,0,403.017,176.729ZM447.89,183.1h4.847v1.186H447.89Zm-2.343,3.735a3.607,3.607,0,0,0,1.7-2.153h6.126a3.631,3.631,0,0,0,.733,1.347Q449.8,186.439,445.547,186.833Zm32.975-4.737h4.843v1.186h-4.843Zm-.814,2.049a3.5,3.5,0,0,0,.172-.467h6.127c.022.071.055.139.079.209C481.962,183.942,479.834,184.033,477.708,184.144Zm31.449-1.046H514v1.186h-4.843Zm-.761,1.9c.04-.1.086-.207.116-.314h6.129a3.648,3.648,0,0,0,1.028,1.653C513.275,185.863,510.87,185.38,508.4,184.995Zm31.633-5.442-2.891.664,2.891-.665Zm6.807,2.747.268,1.155-2.363.544-2.361.543-.266-1.157Zm-5.429,4.3a3.68,3.68,0,0,0,.437-1.527c.812-.189,2.988-.688,2.988-.688l2.982-.687a3.619,3.619,0,0,0,1.115,1.228C546.4,185.436,543.916,186.047,541.407,186.6Zm6.391-8.833h0l2.892-.665ZM661.431,74.109a7.843,7.843,0,0,1,.733-.513l2.227,3.859a2.89,2.89,0,0,0-.763.764l-3.855-2.227A7.265,7.265,0,0,1,661.431,74.109ZM661.345,84.4l1.617-2.694.164-.1h.563v1.38Zm2.341-.349v.432h-.25ZM656.54,95.875l.182-3.371,2.694,1.638Zm2.58-.852-2.785,4.65L656.5,96.6Zm-2.092-3.035,2.876-1.731-.18,3.372Zm.3-.88,2.2-3.664v.3h.387c.012.007.015.013.026.018.033.025.065.043.1.066l-.091,1.708Zm2.446-7.562.894-.515V84.37l-.068.113h-.137A7.689,7.689,0,0,1,659.773,83.546Zm2.118-1.223-.609,1.018v-.667Zm-.609-.078V81.61h1.039l-.035.055Zm.119,6.41-.839.506.051-.953C660.87,88.371,661.134,88.519,661.4,88.656Zm-.877,1.229,1.514-.912a1.135,1.135,0,0,0,.132.056c.146.06.295.111.443.162l-2.254,3.764Zm1.848-5.4.971-.586-.334.586Zm.981-3.435.068-.111c.008.018.02.035.031.055Zm-3.935-4.418c.05-.106.116-.207.172-.311l3.862,2.227a2.713,2.713,0,0,0-.28,1.036h-4.458A7.184,7.184,0,0,1,659.419,76.629Zm3.755,3.326c0,.066.011.129.02.194l-.541.905h-2.947v.554h.961V82.6l-1.074.621c-.056-.1-.122-.207-.172-.314a7.163,7.163,0,0,1-.7-2.952h4.456Zm-71.927,96.776,64.731-97.59c-.013.208-.031.417-.031.629,0,.094,0,.187.005.285v0a9.58,9.58,0,0,0,.255,1.9c0,.017.008.035.012.05.033.146.051.293.094.437.01.05.028.1.04.152.061.2.126.4.2.6a8.987,8.987,0,0,0,.381.9c.038.088.081.172.127.256a9.848,9.848,0,0,0,1.066,1.612c.007.007.013.017.02.023.094.119.179.245.278.361.035.038.071.079.1.114q.214.241.447.462c.031.033.068.058.1.088l-2.727,4.549h0l-4.325,7.224h0L648,105.506h0l-3.71,6.192-4.019,6.715,0,0-4.327,7.224h0l-4.021,6.71-4.019,6.71-4.021,6.708h0l-4.021,6.71,0,0-4.021,6.708-3.713,6.2-5.768,8.689C601.567,174.681,596.436,175.642,591.247,176.731Zm61.275-74.149.18-3.369,2.694,1.641Zm2.58-.851-2.783,4.648.164-3.071Zm-2.088-3.03,2.871-1.729-.179,3.367Zm.291-.879,2.782-4.643-.164,3.066Zm-4.8,11.469.182-3.367,1.426.867,1.268.769Zm2.588-.854-2.792,4.653.165-3.073Zm-.96-2.335-1.138-.695,2.873-1.729-.18,3.369Zm-.841-1.577,2.782-4.643-.165,3.069ZM644.482,116l.18-3.374.323.2,2.37,1.445Zm2.583-.851-2.786,4.65.166-3.073Zm-1.206-2.492-.888-.541,2.876-1.731-.18,3.372Zm-.592-1.421,2.785-4.643-.165,3.066Zm-4.8,11.475.18-3.371.96.584,1.736,1.059Zm2.578-.849-2.783,4.643.167-3.068Zm-2.09-3.035,2.874-1.731-.179,3.369Zm.3-.882,2.78-4.64-.165,3.066Zm-4.805,11.474.179-3.372,2.7,1.64Zm2.581-.849-2.783,4.641.166-3.068Zm-.745-2.216-1.347-.819,2.872-1.728-.179,3.367Zm-1.051-1.7,2.782-4.641-.166,3.066Zm-4.807,11.475.18-3.371,2.7,1.638Zm2.583-.852-2.785,4.653.165-3.074Zm-2.092-3.033,2.874-1.731-.179,3.369Zm.294-.877,2.783-4.648-.164,3.071Zm-4.8,11.474.175-3.371,2.7,1.638Zm2.576-.854-2.78,4.646.162-3.071Zm-2.09-3.031,2.874-1.729-.18,3.369Zm.294-.879,2.782-4.648-.165,3.071Zm-4.8,11.474.18-3.371,2.7,1.641Zm2.576-.852-2.783,4.643.167-3.068Zm-2.088-3.033,2.874-1.731-.179,3.371Zm.295-.879,2.783-4.643-.164,3.068Zm-4.8,11.472.179-3.372,2.694,1.64Zm2.58-.851-2.782,4.64.164-3.068Zm-.417-2.015-1.676-1.019,2.876-1.729-.18,3.371Zm-1.382-1.895,2.785-4.648-.166,3.073Zm-4.779,11.457.159-3.352,2.7,1.633Zm2.54-.826L616.2,166.55l.136-2.868Zm-2.073-3.046,2.874-1.729-.18,3.371Zm.293-.875,2.785-4.646-.165,3.068Zm-2.95,8.272-1.324-.712,2.868-1.721-.151,3.146Zm1.105,1.269-2.975,2.252.2-3.7,1.4.712Zm-2.174-2.828,2.793-4.661-.149,3.068Zm-1.585,8.532c-1.18.132-2.37.273-3.563.419l3.688-2.719Zm.162-2.98-4.138,3.137,4.327-6.692Zm.442,2.914.144-2.689,2.581-1.9-2.687,4.587A.3.3,0,0,1,612.128,173.392Zm53.472-2.414a409.7,409.7,0,0,0-52.7,2.331L616.018,168l3.88-6.346.008,0,4.324-7.223h0l4.021-6.708v0l3.71-6.2h0l4.021-6.708,4.327-7.224,4.018-6.707,0,0,3.715-6.2,0,0,4.018-6.713,4.018-6.708,4.329-7.223h0l2.8-4.673c.169.051.338.106.51.144.1.023.189.043.283.061a10.057,10.057,0,0,0,1.6.167v81.233Zm0-86.773-.164.278h-.961l.07-1.307,1.056-.635Zm-.98-1.777.1-.167c.035.017.065.035.1.05Zm.98-5.411a2.807,2.807,0,0,0-.882.263l-2.229-3.86a7.315,7.315,0,0,1,1.84-.708,7.582,7.582,0,0,1,1.271-.159Zm-1.913-10.731h-2.4V63.413h2.4Zm1.913,0h-1.292V63.413H665.6Zm.68-2.871h.427v2.873h-.427Zm0,9.137a7.621,7.621,0,0,1,1.272.159,7.192,7.192,0,0,1,1.842.708l-2.019,3.495-.587.217a2.7,2.7,0,0,0-.508-.114Zm4.067,11.535V82.528l1.65.953Zm1.152.306c-.025.031-.051.058-.076.088h-.159Zm-1.152-2.3V81.61h2.4v.611a6.379,6.379,0,0,1-.285.687c-.05.108-.114.21-.172.314Zm-1.81-1.042-.1-.061a2.82,2.82,0,0,0,.276-1.039h2.058l2.325.859c-.01.081-.028.162-.04.242Zm-1.008,1.094.116-.192a2.732,2.732,0,0,0,.372-.346h.74l.971.561v2.146l-.447.165h-.405Zm.918,2.335h-1.12V82.542Zm-.235-6.314h.132l-.093.051C668.24,78.2,668.224,78.187,668.212,78.168ZM669.5,81.61h.227v.131Zm-.842-2.431,1.1.4h-1.047A2.918,2.918,0,0,0,668.659,79.179Zm4.084.776h.424c0,.051,0,.1-.008.154Zm-1.009-.372-3.113-1.145.465-.268H673a7.345,7.345,0,0,1,.169,1.413h-1.433Zm-1.423-2.123,1.979-1.142c.06.1.124.205.174.311a7.131,7.131,0,0,1,.334.831Zm-.741,0h-1.691l4.191-1.544a.669.669,0,0,1,.041.076Zm-1.648-.746,1.8-3.114a6.921,6.921,0,0,1,1.938,1.737ZM666.28,82.52a2.325,2.325,0,0,0,.371-.069l-.371.621Zm0,1.716.427-.713v.96h-.427Zm0,5.518c.041,0,.086,0,.127,0s.1-.007.157-.007c.214-.015.429-.035.635-.063a9.144,9.144,0,0,0,.97-.17c.093-.02.185-.043.278-.065a9.893,9.893,0,0,0,1.8-.677.447.447,0,0,0,.041-.018c.136-.066.278-.121.409-.192a1.082,1.082,0,0,0,.136-.074c.086-.048.169-.1.25-.154l5.077,1.87-9.879,3.642V89.755Zm0,5.075,9.882,3.64-9.882,3.644Zm0,8.265,9.88,3.639-9.88,3.64Zm0,8.257,9.882,3.642-9.882,3.644Zm0,8.264,9.882,3.644L666.28,126.9Zm0,8.264,9.88,3.642-9.88,3.642Zm0,8.734,9.88,3.642-9.88,3.639Zm0,8.264,9.882,3.639-9.882,3.642Zm0,8.26,9.88,3.644-9.88,3.64Zm0,8.346,4.686,2.912L666.28,167.3Zm0,9.51v-2.547l4.306,2.672C669.194,171.07,667.759,171.026,666.28,170.992Zm.354-3.117,4.969-3.086,4.969,3.086-4.969,3.086Zm10.178,3.453c-1.514-.046-2.95-.094-4.3-.144l4.3-2.669Zm0-4.094-4.574-2.839,4.574-2.843Zm0-6.472L671.6,164l-4.86-3.017,10.069-3.71v3.49Zm0-4.474L667.893,153h8.919Zm0-3.993H667.89l8.922-3.29Zm0-4.267-8.916-3.29h8.916Zm0-4H667.9l8.914-3.288Zm0-4.269-8.919-3.285h8.919Zm0-3.993h-10.2l10.2-3.758Zm0-4.741-8.921-3.285h8.921Zm0-4H667.9l8.914-3.285Zm0-4.267-8.919-3.285h8.919Zm0-3.993h-8.919l8.919-3.29Zm0-4.269-8.919-3.288h8.919Zm0-4h-8.919l8.919-3.285Zm0-4.268-8.919-3.285h8.919Zm0-3.993h-8.921l8.921-3.29Zm0-4.269L667.9,94.691h8.916Zm0-3.993H667.9l8.914-3.285Zm0-4.269-5.029-1.852c.058-.041.116-.079.172-.122h4.858v1.974Zm-1.041-6.9v1.663h-1.024c.068-.127.142-.247.2-.376.045-.086.084-.174.124-.26a9.123,9.123,0,0,0,.334-.9Zm-.134-.678c.008-.045.022-.091.033-.136a.06.06,0,0,1,0-.018c.017-.069.035-.136.05-.205l.048.018v.291Zm1.175,2.343h-.422V82.591l.422-.156Zm0-3.429h-.961c.015-.1.03-.2.038-.308a8.091,8.091,0,0,0,.038-.826.064.064,0,0,1,0,.026c0-.06.008-.119.008-.177,0-.1,0-.192-.008-.286a10.253,10.253,0,0,0-.127-1.315h1.008v2.886Zm0-3.594h-1.16c-.03-.122-.045-.247-.079-.367-.012-.05-.028-.1-.043-.152-.058-.205-.122-.409-.2-.606a8.984,8.984,0,0,0-.382-.9c-.038-.084-.083-.17-.124-.256s-.091-.151-.136-.225l2.125-.784V77.46Zm0-4.024-2.484.915a10.4,10.4,0,0,0-.87-1.173l-.1-.116c-.142-.157-.291-.311-.445-.46a9.7,9.7,0,0,0-.735-.649c-.074-.058-.149-.121-.227-.177a9.929,9.929,0,0,0-1.668-.994.066.066,0,0,1-.015-.007c-.137-.066-.271-.144-.414-.205a1.186,1.186,0,0,0-.141-.056c-.2-.083-.4-.157-.6-.225-.309-.1-.625-.189-.94-.263-.1-.02-.189-.04-.285-.061a10.434,10.434,0,0,0-1.605-.167v-.248h10.532Zm-9.485-7.15V63.413h2.4v2.873Zm3.02,0V63.413h2.4v2.873Zm3.023,0V63.413h2.4v2.873Zm3.442,0h-.422V63.413h.422Zm0-3.427H666.28v-4h10.532Z" transform="translate(535.691 80.399)" fill="#dfdfdf"/>
    <path id="Path_1158" data-name="Path 1158" d="M695.908,95.626v87.985c-28.33-1.285-67.24-3.4-92.619,0-29.107,3.9-20.723,34.767-51.048,35.015-45.318.379-144.507,36.434-188,34-19.955-1.106-433.687,30.688-433.687,30.688s2.168-24.777,123.354-70.354S177.922,143.1,218.574,151.626c0,0,104.658,14.834,113.667,15,40.951.753,42.239-33.379,99.667-45.333,30.641-6.378,160.455-44.131,160.455-44.131s17.817-6.567,30.878-6.535a36.734,36.734,0,0,1,21.365,6.66S694.45,95.592,695.908,95.626Z" transform="translate(583.759 203.374)" fill="#a47b73"/>
    <g id="Background" transform="translate(882.88 148.536)">
      <g id="Group_2096" data-name="Group 2096" transform="translate(33.078 29.464)">
        <g id="Group_2094" data-name="Group 2094" transform="translate(132.888)" opacity="0.5">
          <path id="Path_1151" data-name="Path 1151" d="M329.31,39.843c-2.554.119-5.472-.048-6.156-.048-1.263,0-4.171-.332-5.1.129-.958.471-.515,1.179-1.682,1.662-1.1.453-3.592.212-4.88.219a12.564,12.564,0,0,0-3.229.354c-.5.129-1.026.3-1.651.513a44.282,44.282,0,0,1-10.768,2.6A42.333,42.333,0,0,0,287.669,47a30.548,30.548,0,0,1-11.468,1.33c-3.027-.215-6.162-.131-9.237-.131-3.052,0-5.316.1-7.974-.687a61.29,61.29,0,0,0-8.135-1.549,25.445,25.445,0,0,0-8.191-.365c-3.83.455-4.634-.969-7.928-1.837-2.21-.586-5.414-.121-7.267-1.088a4.1,4.1,0,0,1-.608-.4,3.739,3.739,0,0,1-1.45-3.075c.071-1.2.406-1.265,1.609-1.688.209-.073.448-.16.722-.267a25.629,25.629,0,0,0,3.656-1.7c.874-.539.419-1.078.931-1.738a7.957,7.957,0,0,1,2.439-1.141,21.609,21.609,0,0,1,3.428-.908A17.366,17.366,0,0,1,247.4,32a9.782,9.782,0,0,0,3.908.927c2.406-.054,4.375-1.325,6.874-1.044,1.636.187,3.2,1.1,4.825,1.327a20.77,20.77,0,0,0,4.458.189c3.337-.281,4.085-2.294,7.412-2.2,1.991.058,2.2.27,3.674-.391,1.129-.5,1.278-1,2.754-1.246a10.171,10.171,0,0,1,4.387.336c.978.4,1.2,1.279,2.184,1.808,1.264.688,2.154.417,3.679.6,1.479.179,2.608.771,4.1.873,3.033.2,4.124-.585,7.006.577,3.222,1.3,4.985,1.495,8.968,1.473,3.439-.019,5.857-.533,9.558.141,1.794.329,3.388.965,5.181,1.319,1.352.267,6.857.628,7.056,1.828C333.572,39.4,331.588,39.734,329.31,39.843Z" transform="translate(-225.405 -29.464)" fill="#ddf1f5"/>
          <path id="Path_1152" data-name="Path 1152" d="M308.912,47.187c-.5.129-1.026.3-1.651.513a44.282,44.282,0,0,1-10.768,2.6,42.334,42.334,0,0,0-8.171,1.724,30.548,30.548,0,0,1-11.468,1.33c-3.027-.215-6.162-.131-9.237-.131-3.052,0-5.316.1-7.974-.687a61.292,61.292,0,0,0-8.135-1.549,25.445,25.445,0,0,0-8.191-.365c-3.83.455-4.634-.969-7.928-1.837-2.21-.586-5.414-.121-7.267-1.088a4.1,4.1,0,0,1-.608-.4c1.36-.738,4.157-1.107,5.7-1.37a12.877,12.877,0,0,1,4.156-.051c3.839.307,7.548-.288,11.1.592a30.13,30.13,0,0,0,7.842.909,46.061,46.061,0,0,1,4.971,0c2.1.241,1.691.61,2.936,1.425,2.1,1.371,4.285.873,7.068.771,3.42-.124,7.4.066,10.759-.351,2.368-.3,4.108-1.406,6.7-1.841a25.9,25.9,0,0,1,5.2-.551,23.7,23.7,0,0,0,3.927.189c.883-.115,1.67-.218,2.036-.7,1.522-.289,1.818.445,3.058.7a16.478,16.478,0,0,0,3.442.18C307.238,47.2,308.081,47.191,308.912,47.187Z" transform="translate(-226.057 -34.493)" fill="#96e1ed" opacity="0.7"/>
        </g>
        <g id="Group_2095" data-name="Group 2095" transform="translate(0 6.03)" opacity="0.5">
          <path id="Path_1153" data-name="Path 1153" d="M35.945,47.133c1.772.1,3.8-.041,4.272-.041.877,0,2.894-.286,3.54.111.664.406.358,1.016,1.166,1.432.764.39,2.492.183,3.386.189a7.115,7.115,0,0,1,2.241.3c.349.111.712.255,1.146.442a25.915,25.915,0,0,0,7.472,2.244,24.511,24.511,0,0,1,5.67,1.485,17.338,17.338,0,0,0,7.957,1.146c2.1-.185,4.276-.113,6.409-.113a14.836,14.836,0,0,0,5.534-.591A35.267,35.267,0,0,1,90.382,52.4a14.307,14.307,0,0,1,5.684-.314c2.658.392,3.216-.835,5.5-1.583,1.533-.5,3.757-.1,5.043-.938a2.8,2.8,0,0,0,.421-.343,3.579,3.579,0,0,0,1.006-2.65c-.049-1.033-.282-1.09-1.116-1.454-.146-.063-.312-.138-.5-.23a16.413,16.413,0,0,1-2.537-1.462c-.607-.464-.292-.929-.646-1.5-.245-.4-1.241-.753-1.693-.983a12.775,12.775,0,0,0-2.379-.782,9.8,9.8,0,0,0-6.388.212,5.734,5.734,0,0,1-2.712.8c-1.669-.046-3.036-1.141-4.77-.9-1.136.161-2.22.948-3.348,1.143a11.628,11.628,0,0,1-3.094.163c-2.315-.243-2.835-1.976-5.142-1.9-1.382.05-1.524.233-2.55-.336-.784-.428-.886-.86-1.911-1.074a5.752,5.752,0,0,0-3.044.289c-.679.35-.833,1.1-1.515,1.557-.877.593-1.495.36-2.552.517-1.027.155-1.811.664-2.847.752-2.1.173-2.863-.5-4.862.5a11.2,11.2,0,0,1-6.223,1.269c-2.386-.016-4.063-.46-6.632.122-1.244.283-2.35.832-3.6,1.137-.938.231-4.759.541-4.9,1.575C32.987,46.751,34.364,47.039,35.945,47.133Z" transform="translate(-33.078 -38.191)" fill="#ddf1f5"/>
          <path id="Path_1154" data-name="Path 1154" d="M58.365,53.46c.349.111.712.255,1.146.442a25.915,25.915,0,0,0,7.472,2.244,24.511,24.511,0,0,1,5.67,1.485,17.338,17.338,0,0,0,7.957,1.146c2.1-.185,4.276-.113,6.409-.113a14.836,14.836,0,0,0,5.534-.591A35.268,35.268,0,0,1,98.2,56.736a14.307,14.307,0,0,1,5.684-.314c2.658.392,3.216-.835,5.5-1.583,1.533-.5,3.757-.1,5.043-.938a2.8,2.8,0,0,0,.421-.343,13.372,13.372,0,0,0-3.952-1.181,7.213,7.213,0,0,0-2.884-.044c-2.663.265-5.237-.248-7.7.511a17.063,17.063,0,0,1-5.442.783,25.759,25.759,0,0,0-3.449,0c-1.456.207-1.175.526-2.038,1.227-1.456,1.181-2.974.752-4.9.665a73.4,73.4,0,0,1-7.466-.3c-1.642-.255-2.85-1.211-4.647-1.586a14.65,14.65,0,0,0-3.6-.475,13.3,13.3,0,0,1-2.725.163c-.613-.1-1.159-.188-1.412-.606-1.056-.249-1.262.383-2.121.606a9.26,9.26,0,0,1-2.389.155C59.526,53.47,58.942,53.463,58.365,53.46Z" transform="translate(-40.893 -42.524)" fill="#96e1ed" opacity="0.7"/>
        </g>
      </g>
    </g>
    <path id="Path_1156" data-name="Path 1156" d="M688.331,165.174v70.162c-9.416-.283-18.932-.454-28.483-.234-23.129.541-46.4,1.813-68.943,3.344-29.4,2.007-54.863-.528-83.957-1.029-57.6-1-114.931,2.057-172.6.895-56.145-1.127-111.923.023-168.441.023-55.233,0-114.59,17.149-168.572,19.425,18.287-70.049,279.613-64.767,291.092-61.352,18.559-7.206,45.413-8.87,69.659-11.65,27.668-3.171,57.132-7.761,88.9-7.761,24.925,0,49-.942,73.485-.928C574.948,176.115,633.572,163.681,688.331,165.174Z" transform="translate(591.667 224.241)" fill="#915d53"/>
    <path id="Path_1164" data-name="Path 1164" d="M688.33,283.462c0,.092-766.33,0-766.33,0s38.717-29.5,57.333-30C140.666,214.8,279.172,233.447,288.12,232.881c3.839-.245,7.281-1.178,11.717-1.147,5.828.015,6.776.979,11.5,1.82,18.4,3.258,39.036,1.912,58.829,3.809,8.994.857,18.31,1.713,27.166.994,13-1.04,25.133-2.845,38.3-3.273,15.036-.5,43.411,3.136,55.617-1.667,5.813-2.279,9.774-6.654,13.828-9.009,6.149-3.564,17.009-2.738,21.231-7.312,3.671-3.992,2.31-7.618,6.914-11.686,3.763-3.335,4.467-7.312,7.969-10.4,2.34-2.065,7.91-2.83,9.728-5.063a1.674,1.674,0,0,0,.229-.352c.566-.979.228-2.141-.061-3.289-.306-1.224-.581-2.432.26-3.442.932-1.086,6.256-3.365,8.352-3.916,5.6-1.484,6.241-.948,10.386-2.983,6.989-3.411,10.753-6.18,20.618-7.281,8-.9,14.946-1.377,22.669-2.386,8.382-1.1,16.336-.964,24.336-2.539.6-.122,1.193-.229,1.774-.352,1.346-.26,2.645-.5,3.916-.719,7.388-1.346,13.751-2.218,22.164-3.013,1.7-.168,22.761-1.973,22.761-1.973V283.462Z" transform="translate(591.667 203.538)" fill="#613a33"/>
    <path id="Path_1167" data-name="Path 1167" d="M474.861,151.062c-8.245.78-14.531,1.637-21.721,2.937-1.545.26-3.136.566-4.8.887-.444.092-.887.168-1.331.26-8,1.576-15.954,1.438-24.336,2.539-7.725,1.01-14.669,1.484-22.669,2.386-9.865,1.1-13.629,3.87-20.618,7.281-4.145,2.034-4.788,1.5-10.386,2.983-2.1.551-7.42,2.83-8.352,3.916a2.822,2.822,0,0,0-.26.382c-.306-1.224-.581-2.432.26-3.442.932-1.086,6.256-3.365,8.352-3.916,5.6-1.484,6.241-.948,10.386-2.983,6.989-3.411,10.753-6.18,20.618-7.281,8-.9,14.946-1.377,22.669-2.386,8.382-1.1,16.336-.964,24.336-2.539.6-.122,1.193-.229,1.774-.352,1.346-.26,2.645-.5,3.916-.719,7.388-1.346,13.751-2.218,22.164-3.013C476.558,147.834,476.558,150.893,474.861,151.062Z" transform="translate(782.377 215.209)" fill="#4e322d" opacity="0.4"/>
    <path id="Path_1498" data-name="Path 1498" d="M13756.578-2281.506l-18.564-5.411s-7.338-1.546-11.655,0-16.836,0-16.836,0-22.45-3.092-23.744-8.117-23.312-5.411-23.312-5.411l-8.205-1.546h-10.36s-6.476,1.16-22.449-3.479-20.292,3.479-20.292,3.479l-9.5,1.546s-8.2,11.981-13.813,13.528-23.312,10.049-23.312,10.049l-13.385,3.478h-7.771c-5.612,0-8.2-5.8-25.9-5.8s-32.81,3.865-36.7,2.319a51.422,51.422,0,0,0-25.471-2.319c-11.227,1.933-122.139-6.571-124.728-7.73s-89.44,1.546-94.62,7.73-94.111,2.319-94.111,2.319-17.27,8.89-35.832,10.436-27.2,0-27.2,0a51.259,51.259,0,0,0-6.475,3.865c-2.591,1.933-51.231-2.705-54.684-3.865s-37.253,2.489-34.271,0c-.77.413-42.276,14.876-45.449,16.5a237.2,237.2,0,0,0-26.822,16.676l855.456-.667Z" transform="translate(-12476.122 2720.301)" fill="#512720"/>
    <path id="Path_1499" data-name="Path 1499" d="M13523.333-2563.667s-1.667,5.333,0,5.333,4.668,3.333,3.334,0,0-5.333,0-5.333Z" transform="translate(-12446 2988)" fill="#512720"/>
    <path id="Path_1501" data-name="Path 1501" d="M13526.257-2556.852s1.667-5.333,0-5.333-4.668-3.333-3.334,0,0,5.333,0,5.333Z" transform="translate(-12490.999 3004)" fill="#512720"/>
    <path id="Path_1506" data-name="Path 1506" d="M13524.423-2561.647s.833-1.58,0-1.58-2.333-.988-1.666,0a1.16,1.16,0,0,1,0,1.58Z" transform="matrix(-0.035, -0.999, 0.999, -0.035, 4076.504, 13858.944)" fill="#512720"/>
    <path id="Path_1512" data-name="Path 1512" d="M13524.423-2561.647s.833-1.58,0-1.58-2.333-.988-1.666,0a1.16,1.16,0,0,1,0,1.58Z" transform="matrix(-0.035, -0.999, 0.999, -0.035, 4081.504, 13844.944)" fill="#512720"/>
    <path id="Path_1507" data-name="Path 1507" d="M2.633,4.215s1.2-3.3,0-3.3S-.719-1.145.238.916a3.22,3.22,0,0,1,0,3.3Z" transform="matrix(0.035, 0.999, -0.999, 0.035, 1031.639, 449.754)" fill="#613a33"/>
    <path id="Path_1514" data-name="Path 1514" d="M2.633,4.215s1.2-3.3,0-3.3S-.719-1.145.238.916a3.22,3.22,0,0,1,0,3.3Z" transform="matrix(0.035, 0.999, -0.999, 0.035, 1025.639, 414.754)" fill="#613a33"/>
    <path id="Path_1508" data-name="Path 1508" d="M4.389,1.894S3.658.362,2.461.362c-.3,0,1.3-1.549.657-1.758C2.4-1.624-.478-.628.238.916a14.064,14.064,0,0,1,.42,2.81l2.562-.317Z" transform="translate(1047.613 451.837) rotate(-166)" fill="#613a33"/>
    <path id="Path_1500" data-name="Path 1500" d="M13523.333-2563.667s-1.667,5.333,0,5.333,4.668,3.333,3.334,0,0-5.333,0-5.333Z" transform="translate(-12423 3001)" fill="#512720"/>
    <path id="Path_1502" data-name="Path 1502" d="M13506-2547.355l4.667,5.355,2.666-3.333-4-2.022Z" transform="translate(-12432 2983)" fill="#915d53"/>
    <path id="Path_1503" data-name="Path 1503" d="M13506-2547.355l4.667,5.355,2.666-3.333-4-2.022Z" transform="matrix(-0.208, -0.978, 0.978, -0.208, 6397.554, 13112.702)" fill="#915d53"/>
    <path id="Path_1504" data-name="Path 1504" d="M13475.333-2553.333l2,6,3-1.667-3-7Z" transform="translate(-12470 2983)" fill="#613a33"/>
    <path id="Path_1513" data-name="Path 1513" d="M13475.333-2553.333l2,6,3-1.667-3-7Z" transform="translate(-12379 2971)" fill="#613a33"/>
    <path id="Path_1505" data-name="Path 1505" d="M13475.332-2554.455l5.867,3.477,8.8-.966-8.8-4.056Z" transform="translate(-12425 2991.645)" fill="#613a33"/>
    <path id="Path_1509" data-name="Path 1509" d="M2.952,5.041,2.734,2.128S-.99.911.313,2.3A3.661,3.661,0,0,1,1.368,5.2Z" transform="translate(1022.065 438.175) rotate(-70)" fill="#613a33"/>
    <path id="Path_1510" data-name="Path 1510" d="M13531.74-2541.435s4.168-17.4,0-17.4-11.65-10.875-8.322,0,0,17.4,0,17.4Z" transform="matrix(-0.035, -0.999, 0.999, -0.035, 3992.992, 13871.883)" fill="#512720"/>
    <path id="Path_1511" data-name="Path 1511" d="M13527.084-2563.667s4.258,5.622,2.211,5.622c-.486,0-1.434,1.127-2.311,1.42-1.552.509-5.234-.856-3.988-2.852,1.638-2.619,0-4.19,0-4.19Z" transform="matrix(-0.035, -0.999, 0.999, -0.035, 4020.652, 13855.279)" fill="#512720"/>
  </g>
</svg>
