<svg xmlns="http://www.w3.org/2000/svg" width="983" height="255" viewBox="0 0 983 255">
  <g id="E-auctioning_Process" data-name="E-auctioning Process" transform="translate(-34 -54)">
    <g id="Rectangle_1976" data-name="Rectangle 1976" transform="translate(34 54)" fill="#fff" stroke="#707070" stroke-width="1">
      <rect width="162" height="63" rx="5" stroke="none"/>
      <rect x="0.5" y="0.5" width="161" height="62" rx="4.5" fill="none"/>
    </g>
    <g id="Rectangle_1986" data-name="Rectangle 1986" transform="translate(34 246)" fill="#fff" stroke="#707070" stroke-width="1">
      <rect width="162" height="63" rx="5" stroke="none"/>
      <rect x="0.5" y="0.5" width="161" height="62" rx="4.5" fill="none"/>
    </g>
    <g id="Rectangle_1977" data-name="Rectangle 1977" transform="translate(230 54)" fill="#fff" stroke="#707070" stroke-width="1">
      <rect width="162" height="63" rx="5" stroke="none"/>
      <rect x="0.5" y="0.5" width="161" height="62" rx="4.5" fill="none"/>
    </g>
    <g id="Rectangle_1987" data-name="Rectangle 1987" transform="translate(230 246)" fill="#fff" stroke="#707070" stroke-width="1">
      <rect width="162" height="63" rx="5" stroke="none"/>
      <rect x="0.5" y="0.5" width="161" height="62" rx="4.5" fill="none"/>
    </g>
    <g id="Rectangle_1978" data-name="Rectangle 1978" transform="translate(426 54)" fill="#fff" stroke="#707070" stroke-width="1">
      <rect width="162" height="63" rx="5" stroke="none"/>
      <rect x="0.5" y="0.5" width="161" height="62" rx="4.5" fill="none"/>
    </g>
    <g id="Rectangle_1988" data-name="Rectangle 1988" transform="translate(426 246)" fill="#fff" stroke="#707070" stroke-width="1">
      <rect width="162" height="63" rx="5" stroke="none"/>
      <rect x="0.5" y="0.5" width="161" height="62" rx="4.5" fill="none"/>
    </g>
    <g id="Rectangle_1979" data-name="Rectangle 1979" transform="translate(622 54)" fill="#fff" stroke="#707070" stroke-width="1">
      <rect width="162" height="63" rx="5" stroke="none"/>
      <rect x="0.5" y="0.5" width="161" height="62" rx="4.5" fill="none"/>
    </g>
    <g id="Rectangle_1989" data-name="Rectangle 1989" transform="translate(622 246)" fill="#fff" stroke="#707070" stroke-width="1">
      <rect width="162" height="63" rx="5" stroke="none"/>
      <rect x="0.5" y="0.5" width="161" height="62" rx="4.5" fill="none"/>
    </g>
    <g id="Rectangle_1980" data-name="Rectangle 1980" transform="translate(818 54)" fill="#fff" stroke="#707070" stroke-width="1">
      <rect width="162" height="63" rx="5" stroke="none"/>
      <rect x="0.5" y="0.5" width="161" height="62" rx="4.5" fill="none"/>
    </g>
    <g id="Rectangle_1985" data-name="Rectangle 1985" transform="translate(720 150)" fill="#fff" stroke="#707070" stroke-width="1">
      <rect width="162" height="63" rx="5" stroke="none"/>
      <rect x="0.5" y="0.5" width="161" height="62" rx="4.5" fill="none"/>
    </g>
    <g id="Rectangle_1990" data-name="Rectangle 1990" transform="translate(818 246)" fill="#fff" stroke="#707070" stroke-width="1">
      <rect width="162" height="63" rx="5" stroke="none"/>
      <rect x="0.5" y="0.5" width="161" height="62" rx="4.5" fill="none"/>
    </g>
    <g id="Group">
      <path id="Path_1" data-name="Path 1" d="M2.688-1.308V-3.624H6.744V-4.908H2.688V-7.092H7.26V-8.4H1.128V0h6.3V-1.308Zm5.772-1.4h3.3V-3.96H8.46ZM15.852-6.48a4.506,4.506,0,0,0-2.712.792L13.728-4.6a3.172,3.172,0,0,1,1.944-.636c1.068,0,1.6.516,1.6,1.392v.1H15.612c-1.944,0-2.664.84-2.664,1.908,0,1.116.924,1.92,2.388,1.92A2.271,2.271,0,0,0,17.352-.78V0h1.416V-3.756C18.768-5.6,17.7-6.48,15.852-6.48Zm-.2,5.472c-.768,0-1.224-.348-1.224-.888,0-.468.276-.852,1.3-.852h1.548V-2A1.633,1.633,0,0,1,15.648-1.008Zm9.744-5.4v3.24A1.688,1.688,0,0,1,23.64-1.236c-.948,0-1.5-.552-1.5-1.716V-6.408h-1.5v3.66A2.535,2.535,0,0,0,23.4.084a2.618,2.618,0,0,0,2.064-.9V0h1.428V-6.408ZM31.8.084a2.913,2.913,0,0,0,2.736-1.5l-1.152-.672a1.813,1.813,0,0,1-1.6.888,1.874,1.874,0,0,1-1.944-2,1.881,1.881,0,0,1,1.944-2,1.813,1.813,0,0,1,1.6.888l1.152-.672A2.884,2.884,0,0,0,31.8-6.48,3.242,3.242,0,0,0,28.332-3.2,3.252,3.252,0,0,0,31.8.084Zm7.548-1.5a1.349,1.349,0,0,1-.84.264c-.576,0-.888-.336-.888-.96V-5.16h1.716v-1.2H37.62V-7.824h-1.5V-6.36H35.064v1.2H36.12v3.084A1.969,1.969,0,0,0,38.328.084a2.357,2.357,0,0,0,1.44-.432ZM41.76-7.464a.921.921,0,0,0,.96-.936.893.893,0,0,0-.96-.864.914.914,0,0,0-.96.9A.914.914,0,0,0,41.76-7.464ZM41,0h1.5V-6.408H41Zm6.348.084A3.232,3.232,0,0,0,50.772-3.2a3.222,3.222,0,0,0-3.42-3.276A3.226,3.226,0,0,0,43.944-3.2,3.235,3.235,0,0,0,47.352.084Zm0-1.284a1.864,1.864,0,0,1-1.9-2,1.864,1.864,0,0,1,1.9-2,1.866,1.866,0,0,1,1.908,2A1.866,1.866,0,0,1,47.352-1.2Zm8.5-5.28a2.786,2.786,0,0,0-2.208.9v-.828H52.212V0h1.5V-3.24A1.7,1.7,0,0,1,55.5-5.172c.96,0,1.524.552,1.524,1.692V0h1.5V-3.672A2.5,2.5,0,0,0,55.848-6.48Zm5.34-.984a.921.921,0,0,0,.96-.936.893.893,0,0,0-.96-.864.914.914,0,0,0-.96.9A.914.914,0,0,0,61.188-7.464ZM60.432,0h1.5V-6.408h-1.5Zm7.1-6.48a2.786,2.786,0,0,0-2.208.9v-.828H63.9V0h1.5V-3.24a1.7,1.7,0,0,1,1.788-1.932c.96,0,1.524.552,1.524,1.692V0h1.5V-3.672A2.5,2.5,0,0,0,67.536-6.48Zm9.576.072v.852a2.774,2.774,0,0,0-2.22-.924A3.042,3.042,0,0,0,71.652-3.4a3.061,3.061,0,0,0,3.24,3.108A2.821,2.821,0,0,0,77.04-1.14V-.8c0,1.3-.624,1.944-2.04,1.944A3.871,3.871,0,0,1,72.636.372L71.964,1.5a5.093,5.093,0,0,0,3.12.912c2.244,0,3.456-1.056,3.456-3.384V-6.408ZM75.12-1.56A1.817,1.817,0,0,1,73.164-3.4,1.805,1.805,0,0,1,75.12-5.208,1.8,1.8,0,0,1,77.064-3.4,1.813,1.813,0,0,1,75.12-1.56ZM83.964,0h3.672C90.36,0,92.22-1.68,92.22-4.2s-1.86-4.2-4.584-4.2H83.964Zm1.56-1.32V-7.08h2.04A2.8,2.8,0,0,1,90.648-4.2a2.8,2.8,0,0,1-3.084,2.88Zm8.964-6.144a.921.921,0,0,0,.96-.936.893.893,0,0,0-.96-.864.914.914,0,0,0-.96.9A.914.914,0,0,0,94.488-7.464ZM93.732,0h1.5V-6.408h-1.5ZM99.18.084c1.8,0,2.9-.78,2.9-1.98,0-2.508-3.96-1.356-3.96-2.652,0-.42.432-.72,1.344-.72a3.508,3.508,0,0,1,1.836.48l.576-1.14a5.1,5.1,0,0,0-2.4-.552c-1.728,0-2.82.792-2.82,2,0,2.556,3.96,1.4,3.96,2.628,0,.444-.4.708-1.344.708a4.312,4.312,0,0,1-2.232-.636l-.576,1.14A5.091,5.091,0,0,0,99.18.084Zm7.632-1.5a1.349,1.349,0,0,1-.84.264c-.576,0-.888-.336-.888-.96V-5.16H106.8v-1.2h-1.716V-7.824h-1.5V-6.36h-1.056v1.2h1.056v3.084a1.969,1.969,0,0,0,2.208,2.16,2.357,2.357,0,0,0,1.44-.432ZM109.9-5.472v-.936h-1.428V0h1.5V-3.108a1.747,1.747,0,0,1,1.86-1.98,1.9,1.9,0,0,1,.348.036V-6.48A2.522,2.522,0,0,0,109.9-5.472ZM114.2-7.464a.921.921,0,0,0,.96-.936.893.893,0,0,0-.96-.864.914.914,0,0,0-.96.9A.914.914,0,0,0,114.2-7.464ZM113.448,0h1.5V-6.408h-1.5Zm6.408.084a2.913,2.913,0,0,0,2.736-1.5l-1.152-.672a1.813,1.813,0,0,1-1.6.888,1.874,1.874,0,0,1-1.944-2,1.881,1.881,0,0,1,1.944-2,1.813,1.813,0,0,1,1.6.888l1.152-.672a2.884,2.884,0,0,0-2.736-1.488A3.242,3.242,0,0,0,116.388-3.2,3.252,3.252,0,0,0,119.856.084Zm7.548-1.5a1.349,1.349,0,0,1-.84.264c-.576,0-.888-.336-.888-.96V-5.16h1.716v-1.2h-1.716V-7.824h-1.5V-6.36H123.12v1.2h1.056v3.084a1.969,1.969,0,0,0,2.208,2.16,2.357,2.357,0,0,0,1.44-.432Z" transform="translate(49.306 82)" fill="#1e1e1e"/>
      <path id="Path_2" data-name="Path 2" d="M2.688-1.308V-3.624H6.744V-4.908H2.688V-7.092H7.26V-8.4H1.128V0h6.3V-1.308ZM13.5-6.408,11.448-1.656,9.456-6.408H7.9L10.644,0h1.548L14.94-6.408Zm8.22,3.24A3.125,3.125,0,0,0,18.48-6.48,3.187,3.187,0,0,0,15.168-3.2,3.254,3.254,0,0,0,18.708.084,3.248,3.248,0,0,0,21.288-.96l-.8-.924a2.3,2.3,0,0,1-1.74.7,1.939,1.939,0,0,1-2.076-1.536H21.7C21.708-2.868,21.72-3.048,21.72-3.168ZM18.48-5.28a1.744,1.744,0,0,1,1.812,1.56H16.656A1.771,1.771,0,0,1,18.48-5.28ZM26.8-6.48a2.786,2.786,0,0,0-2.208.9v-.828H23.16V0h1.5V-3.24a1.7,1.7,0,0,1,1.788-1.932c.96,0,1.524.552,1.524,1.692V0h1.5V-3.672A2.5,2.5,0,0,0,26.8-6.48Zm8.016,5.064a1.349,1.349,0,0,1-.84.264c-.576,0-.888-.336-.888-.96V-5.16H34.8v-1.2H33.084V-7.824h-1.5V-6.36H30.528v1.2h1.056v3.084A1.969,1.969,0,0,0,33.792.084a2.357,2.357,0,0,0,1.44-.432Z" transform="translate(97.258 97)" fill="#1e1e1e"/>
    </g>
    <g id="Group-2" data-name="Group">
      <path id="Path_3" data-name="Path 3" d="M4.584-8.4H1.128V0h1.56V-2.424h1.9c2.208,0,3.576-1.14,3.576-2.988S6.792-8.4,4.584-8.4ZM4.512-3.744H2.688V-7.08H4.512c1.368,0,2.076.612,2.076,1.668S5.88-3.744,4.512-3.744Zm6.432-1.728v-.936H9.516V0h1.5V-3.108a1.747,1.747,0,0,1,1.86-1.98,1.9,1.9,0,0,1,.348.036V-6.48A2.522,2.522,0,0,0,10.944-5.472Zm9.516,2.3A3.125,3.125,0,0,0,17.22-6.48,3.187,3.187,0,0,0,13.908-3.2,3.254,3.254,0,0,0,17.448.084,3.248,3.248,0,0,0,20.028-.96l-.8-.924a2.3,2.3,0,0,1-1.74.7,1.939,1.939,0,0,1-2.076-1.536h5.028C20.448-2.868,20.46-3.048,20.46-3.168ZM17.22-5.28a1.744,1.744,0,0,1,1.812,1.56H15.4A1.771,1.771,0,0,1,17.22-5.28Zm8.232-1.2a2.642,2.642,0,0,0-2.124.912v-.84H21.9V2.328h1.5V-.78a2.633,2.633,0,0,0,2.052.864A3.121,3.121,0,0,0,28.7-3.2,3.118,3.118,0,0,0,25.452-6.48ZM25.284-1.2a1.873,1.873,0,0,1-1.908-2,1.873,1.873,0,0,1,1.908-2,1.864,1.864,0,0,1,1.9,2A1.864,1.864,0,0,1,25.284-1.2ZM32.5-6.48a4.506,4.506,0,0,0-2.712.792L30.372-4.6a3.172,3.172,0,0,1,1.944-.636c1.068,0,1.6.516,1.6,1.392v.1H32.256c-1.944,0-2.664.84-2.664,1.908,0,1.116.924,1.92,2.388,1.92A2.271,2.271,0,0,0,34-.78V0h1.416V-3.756C35.412-5.6,34.344-6.48,32.5-6.48Zm-.2,5.472c-.768,0-1.224-.348-1.224-.888,0-.468.276-.852,1.3-.852h1.548V-2A1.633,1.633,0,0,1,32.292-1.008ZM38.76-5.472v-.936H37.332V0h1.5V-3.108a1.747,1.747,0,0,1,1.86-1.98,1.9,1.9,0,0,1,.348.036V-6.48A2.522,2.522,0,0,0,38.76-5.472Zm9.516,2.3a3.125,3.125,0,0,0-3.24-3.312A3.187,3.187,0,0,0,41.724-3.2,3.254,3.254,0,0,0,45.264.084,3.248,3.248,0,0,0,47.844-.96l-.8-.924a2.3,2.3,0,0,1-1.74.7,1.939,1.939,0,0,1-2.076-1.536h5.028C48.264-2.868,48.276-3.048,48.276-3.168ZM45.036-5.28a1.744,1.744,0,0,1,1.812,1.56H43.212A1.771,1.771,0,0,1,45.036-5.28ZM53.028,0h1.5V-8.9h-1.5Zm6.348.084A3.232,3.232,0,0,0,62.8-3.2a3.222,3.222,0,0,0-3.42-3.276A3.226,3.226,0,0,0,55.968-3.2,3.235,3.235,0,0,0,59.376.084Zm0-1.284a1.864,1.864,0,0,1-1.9-2,1.864,1.864,0,0,1,1.9-2,1.866,1.866,0,0,1,1.908,2A1.866,1.866,0,0,1,59.376-1.2Zm9.792-5.208v.852a2.774,2.774,0,0,0-2.22-.924A3.042,3.042,0,0,0,63.708-3.4a3.061,3.061,0,0,0,3.24,3.108A2.821,2.821,0,0,0,69.1-1.14V-.8c0,1.3-.624,1.944-2.04,1.944A3.871,3.871,0,0,1,64.692.372L64.02,1.5a5.093,5.093,0,0,0,3.12.912c2.244,0,3.456-1.056,3.456-3.384V-6.408ZM67.176-1.56A1.817,1.817,0,0,1,65.22-3.4a1.805,1.805,0,0,1,1.956-1.812A1.8,1.8,0,0,1,69.12-3.4,1.813,1.813,0,0,1,67.176-1.56Zm6.144-5.9a.921.921,0,0,0,.96-.936.893.893,0,0,0-.96-.864.914.914,0,0,0-.96.9A.914.914,0,0,0,73.32-7.464ZM72.564,0h1.5V-6.408h-1.5Zm7.1-6.48a2.786,2.786,0,0,0-2.208.9v-.828H76.032V0h1.5V-3.24A1.7,1.7,0,0,1,79.32-5.172c.96,0,1.524.552,1.524,1.692V0h1.5V-3.672A2.5,2.5,0,0,0,79.668-6.48Zm10.5-1.3A1.477,1.477,0,0,1,91-7.512l.42-1.128a2.4,2.4,0,0,0-1.356-.348,2.07,2.07,0,0,0-2.292,2.22v.408H86.712v1.2h1.056V0h1.5V-5.16h1.716v-1.2H89.22v-.384C89.22-7.428,89.544-7.776,90.168-7.776ZM94.776.084A3.232,3.232,0,0,0,98.2-3.2a3.222,3.222,0,0,0-3.42-3.276A3.226,3.226,0,0,0,91.368-3.2,3.235,3.235,0,0,0,94.776.084Zm0-1.284a1.864,1.864,0,0,1-1.9-2,1.864,1.864,0,0,1,1.9-2,1.866,1.866,0,0,1,1.908,2A1.866,1.866,0,0,1,94.776-1.2Zm6.288-4.272v-.936H99.636V0h1.5V-3.108A1.747,1.747,0,0,1,103-5.088a1.9,1.9,0,0,1,.348.036V-6.48A2.522,2.522,0,0,0,101.064-5.472Z" transform="translate(261.498 82)" fill="#1e1e1e"/>
      <path id="Path_4" data-name="Path 4" d="M3.432-6.48A4.506,4.506,0,0,0,.72-5.688L1.308-4.6a3.172,3.172,0,0,1,1.944-.636c1.068,0,1.6.516,1.6,1.392v.1H3.192C1.248-3.744.528-2.9.528-1.836c0,1.116.924,1.92,2.388,1.92A2.271,2.271,0,0,0,4.932-.78V0H6.348V-3.756C6.348-5.6,5.28-6.48,3.432-6.48Zm-.2,5.472C2.46-1.008,2-1.356,2-1.9c0-.468.276-.852,1.3-.852H4.848V-2A1.633,1.633,0,0,1,3.228-1.008Zm9.744-5.4v3.24A1.688,1.688,0,0,1,11.22-1.236c-.948,0-1.5-.552-1.5-1.716V-6.408H8.22v3.66A2.535,2.535,0,0,0,10.98.084a2.618,2.618,0,0,0,2.064-.9V0h1.428V-6.408Zm6.9,4.992a1.349,1.349,0,0,1-.84.264c-.576,0-.888-.336-.888-.96V-5.16H19.86v-1.2H18.144V-7.824h-1.5V-6.36H15.588v1.2h1.056v3.084A1.969,1.969,0,0,0,18.852.084a2.357,2.357,0,0,0,1.44-.432ZM25.164-6.48a2.857,2.857,0,0,0-2.136.816V-8.9h-1.5V0h1.5V-3.24a1.7,1.7,0,0,1,1.788-1.932c.96,0,1.524.552,1.524,1.692V0h1.5V-3.672A2.5,2.5,0,0,0,25.164-6.48ZM32.688.084A3.232,3.232,0,0,0,36.108-3.2a3.222,3.222,0,0,0-3.42-3.276A3.226,3.226,0,0,0,29.28-3.2,3.235,3.235,0,0,0,32.688.084Zm0-1.284a1.864,1.864,0,0,1-1.9-2,1.864,1.864,0,0,1,1.9-2,1.866,1.866,0,0,1,1.908,2A1.866,1.866,0,0,1,32.688-1.2Zm6.288-4.272v-.936H37.548V0h1.5V-3.108a1.747,1.747,0,0,1,1.86-1.98,1.9,1.9,0,0,1,.348.036V-6.48A2.522,2.522,0,0,0,38.976-5.472Zm4.308-1.992a.921.921,0,0,0,.96-.936.893.893,0,0,0-.96-.864.914.914,0,0,0-.96.9A.914.914,0,0,0,43.284-7.464ZM42.528,0h1.5V-6.408h-1.5Zm6.9-1.416a1.349,1.349,0,0,1-.84.264c-.576,0-.888-.336-.888-.96V-5.16h1.716v-1.2H47.7V-7.824H46.2V-6.36H45.144v1.2H46.2v3.084A1.969,1.969,0,0,0,48.408.084a2.357,2.357,0,0,0,1.44-.432ZM51.84-7.464A.921.921,0,0,0,52.8-8.4a.893.893,0,0,0-.96-.864.914.914,0,0,0-.96.9A.914.914,0,0,0,51.84-7.464ZM51.084,0h1.5V-6.408h-1.5Zm9.492-3.168a3.125,3.125,0,0,0-3.24-3.312A3.187,3.187,0,0,0,54.024-3.2,3.254,3.254,0,0,0,57.564.084,3.248,3.248,0,0,0,60.144-.96l-.8-.924a2.3,2.3,0,0,1-1.74.7,1.939,1.939,0,0,1-2.076-1.536h5.028C60.564-2.868,60.576-3.048,60.576-3.168ZM57.336-5.28a1.744,1.744,0,0,1,1.812,1.56H55.512A1.771,1.771,0,0,1,57.336-5.28ZM64,.084c1.8,0,2.9-.78,2.9-1.98,0-2.508-3.96-1.356-3.96-2.652,0-.42.432-.72,1.344-.72a3.508,3.508,0,0,1,1.836.48l.576-1.14a5.1,5.1,0,0,0-2.4-.552c-1.728,0-2.82.792-2.82,2,0,2.556,3.96,1.4,3.96,2.628,0,.444-.4.708-1.344.708a4.312,4.312,0,0,1-2.232-.636l-.576,1.14A5.091,5.091,0,0,0,64,.084ZM76.212-6.408v3.24A1.688,1.688,0,0,1,74.46-1.236c-.948,0-1.5-.552-1.5-1.716V-6.408h-1.5v3.66A2.535,2.535,0,0,0,74.22.084a2.618,2.618,0,0,0,2.064-.9V0h1.428V-6.408ZM81.66.084c1.8,0,2.9-.78,2.9-1.98,0-2.508-3.96-1.356-3.96-2.652,0-.42.432-.72,1.344-.72a3.508,3.508,0,0,1,1.836.48l.576-1.14a5.1,5.1,0,0,0-2.4-.552c-1.728,0-2.82.792-2.82,2,0,2.556,3.96,1.4,3.96,2.628,0,.444-.4.708-1.344.708a4.312,4.312,0,0,1-2.232-.636l-.576,1.14A5.091,5.091,0,0,0,81.66.084Zm4.956-7.548a.921.921,0,0,0,.96-.936.893.893,0,0,0-.96-.864.914.914,0,0,0-.96.9A.914.914,0,0,0,86.616-7.464ZM85.86,0h1.5V-6.408h-1.5Zm7.1-6.48a2.786,2.786,0,0,0-2.208.9v-.828H89.328V0h1.5V-3.24a1.7,1.7,0,0,1,1.788-1.932c.96,0,1.524.552,1.524,1.692V0h1.5V-3.672A2.5,2.5,0,0,0,92.964-6.48Zm9.576.072v.852a2.774,2.774,0,0,0-2.22-.924A3.042,3.042,0,0,0,97.08-3.4a3.061,3.061,0,0,0,3.24,3.108,2.821,2.821,0,0,0,2.148-.852V-.8c0,1.3-.624,1.944-2.04,1.944A3.871,3.871,0,0,1,98.064.372L97.392,1.5a5.093,5.093,0,0,0,3.12.912c2.244,0,3.456-1.056,3.456-3.384V-6.408ZM100.548-1.56A1.817,1.817,0,0,1,98.592-3.4a1.805,1.805,0,0,1,1.956-1.812A1.8,1.8,0,0,1,102.492-3.4,1.813,1.813,0,0,1,100.548-1.56ZM109.392,0h3.672c2.724,0,4.584-1.68,4.584-4.2s-1.86-4.2-4.584-4.2h-3.672Zm1.56-1.32V-7.08h2.04a2.8,2.8,0,0,1,3.084,2.88,2.8,2.8,0,0,1-3.084,2.88ZM121.908.12c2.3,0,3.4-1.152,3.4-2.5,0-3.084-4.98-1.92-4.98-3.708,0-.636.528-1.14,1.824-1.14a4.668,4.668,0,0,1,2.316.66l.492-1.212a5.311,5.311,0,0,0-2.8-.744c-2.3,0-3.384,1.152-3.384,2.508,0,3.12,4.992,1.932,4.992,3.744,0,.624-.552,1.092-1.86,1.092a4.654,4.654,0,0,1-2.772-.924L118.6-.888A5.412,5.412,0,0,0,121.908.12Zm8.832,0a4.263,4.263,0,0,0,3.336-1.4l-1.008-.96a2.92,2.92,0,0,1-2.244,1,2.868,2.868,0,0,1-3-2.952,2.868,2.868,0,0,1,3-2.952,2.95,2.95,0,0,1,2.244.984l1.008-.948a4.255,4.255,0,0,0-3.324-1.4,4.281,4.281,0,0,0-4.5,4.32A4.277,4.277,0,0,0,130.74.12Z" transform="translate(247.776 97)" fill="#1e1e1e"/>
    </g>
    <g id="Group-3" data-name="Group">
      <path id="Path_5" data-name="Path 5" d="M1.128,0H7.08V-1.32H2.688V-8.4H1.128Zm7.8-7.464a.921.921,0,0,0,.96-.936.893.893,0,0,0-.96-.864.914.914,0,0,0-.96.9A.914.914,0,0,0,8.928-7.464ZM8.172,0h1.5V-6.408h-1.5Zm7.1-6.48a2.786,2.786,0,0,0-2.208.9v-.828H11.64V0h1.5V-3.24a1.7,1.7,0,0,1,1.788-1.932c.96,0,1.524.552,1.524,1.692V0h1.5V-3.672A2.5,2.5,0,0,0,15.276-6.48ZM24.7,0H26.52L23.592-3.72l2.676-2.688h-1.8L21.36-3.528V-8.9h-1.5V0h1.5V-1.692l1.116-1.056Zm4.572.084c1.8,0,2.9-.78,2.9-1.98,0-2.508-3.96-1.356-3.96-2.652,0-.42.432-.72,1.344-.72a3.508,3.508,0,0,1,1.836.48l.576-1.14a5.1,5.1,0,0,0-2.4-.552c-1.728,0-2.82.792-2.82,2,0,2.556,3.96,1.4,3.96,2.628,0,.444-.4.708-1.344.708a4.312,4.312,0,0,1-2.232-.636l-.576,1.14A5.091,5.091,0,0,0,29.268.084Zm10.116-7.86a1.477,1.477,0,0,1,.828.264l.42-1.128a2.4,2.4,0,0,0-1.356-.348,2.07,2.07,0,0,0-2.292,2.22v.408H35.928v1.2h1.056V0h1.5V-5.16H40.2v-1.2H38.436v-.384C38.436-7.428,38.76-7.776,39.384-7.776ZM43.992.084A3.232,3.232,0,0,0,47.412-3.2a3.222,3.222,0,0,0-3.42-3.276A3.226,3.226,0,0,0,40.584-3.2,3.235,3.235,0,0,0,43.992.084Zm0-1.284a1.864,1.864,0,0,1-1.9-2,1.864,1.864,0,0,1,1.9-2,1.866,1.866,0,0,1,1.908,2A1.866,1.866,0,0,1,43.992-1.2ZM50.28-5.472v-.936H48.852V0h1.5V-3.108a1.747,1.747,0,0,1,1.86-1.98,1.9,1.9,0,0,1,.348.036V-6.48A2.522,2.522,0,0,0,50.28-5.472ZM60.756-6.48a2.664,2.664,0,0,0-2.052.852V-8.9H57.2V0h1.428V-.828a2.642,2.642,0,0,0,2.124.912A3.121,3.121,0,0,0,64.008-3.2,3.112,3.112,0,0,0,60.756-6.48ZM60.588-1.2a1.873,1.873,0,0,1-1.908-2,1.873,1.873,0,0,1,1.908-2,1.864,1.864,0,0,1,1.9,2A1.864,1.864,0,0,1,60.588-1.2Zm5.6-6.264a.921.921,0,0,0,.96-.936.893.893,0,0,0-.96-.864.914.914,0,0,0-.96.9A.914.914,0,0,0,66.192-7.464ZM65.436,0h1.5V-6.408h-1.5ZM73.68-8.9v3.288a2.624,2.624,0,0,0-2.064-.864A3.109,3.109,0,0,0,68.376-3.2,3.118,3.118,0,0,0,71.616.084,2.642,2.642,0,0,0,73.74-.828V0h1.44V-8.9ZM71.8-1.2a1.873,1.873,0,0,1-1.908-2,1.873,1.873,0,0,1,1.908-2,1.873,1.873,0,0,1,1.908,2A1.873,1.873,0,0,1,71.8-1.2ZM81.924-8.9v3.288A2.624,2.624,0,0,0,79.86-6.48,3.109,3.109,0,0,0,76.62-3.2,3.118,3.118,0,0,0,79.86.084a2.642,2.642,0,0,0,2.124-.912V0h1.44V-8.9ZM80.04-1.2a1.873,1.873,0,0,1-1.908-2,1.873,1.873,0,0,1,1.908-2,1.873,1.873,0,0,1,1.908,2A1.873,1.873,0,0,1,80.04-1.2ZM91.416-3.168a3.125,3.125,0,0,0-3.24-3.312A3.187,3.187,0,0,0,84.864-3.2,3.254,3.254,0,0,0,88.4.084,3.248,3.248,0,0,0,90.984-.96l-.8-.924a2.3,2.3,0,0,1-1.74.7,1.939,1.939,0,0,1-2.076-1.536h5.028C91.4-2.868,91.416-3.048,91.416-3.168ZM88.176-5.28a1.744,1.744,0,0,1,1.812,1.56H86.352A1.771,1.771,0,0,1,88.176-5.28Zm6.108-.192v-.936H92.856V0h1.5V-3.108a1.747,1.747,0,0,1,1.86-1.98,1.9,1.9,0,0,1,.348.036V-6.48A2.522,2.522,0,0,0,94.284-5.472Z" transform="translate(850.544 82)" fill="#1e1e1e"/>
      <path id="Path_6" data-name="Path 6" d="M8.3,0,6.372-2.76A2.685,2.685,0,0,0,8.16-5.412C8.16-7.272,6.792-8.4,4.584-8.4H1.128V0h1.56V-2.448h1.9a2.924,2.924,0,0,0,.324-.012L6.624,0ZM6.588-5.412c0,1.056-.708,1.68-2.076,1.68H2.688V-7.08H4.512C5.88-7.08,6.588-6.468,6.588-5.412ZM15.78-3.168A3.125,3.125,0,0,0,12.54-6.48,3.187,3.187,0,0,0,9.228-3.2,3.254,3.254,0,0,0,12.768.084,3.248,3.248,0,0,0,15.348-.96l-.8-.924a2.3,2.3,0,0,1-1.74.7,1.939,1.939,0,0,1-2.076-1.536h5.028C15.768-2.868,15.78-3.048,15.78-3.168ZM12.54-5.28a1.744,1.744,0,0,1,1.812,1.56H10.716A1.771,1.771,0,0,1,12.54-5.28Zm9.612-1.128v.852a2.774,2.774,0,0,0-2.22-.924A3.042,3.042,0,0,0,16.692-3.4a3.061,3.061,0,0,0,3.24,3.108A2.821,2.821,0,0,0,22.08-1.14V-.8c0,1.3-.624,1.944-2.04,1.944A3.871,3.871,0,0,1,17.676.372L17,1.5a5.093,5.093,0,0,0,3.12.912c2.244,0,3.456-1.056,3.456-3.384V-6.408ZM20.16-1.56A1.817,1.817,0,0,1,18.2-3.4,1.805,1.805,0,0,1,20.16-5.208,1.8,1.8,0,0,1,22.1-3.4,1.813,1.813,0,0,1,20.16-1.56Zm6.144-5.9a.921.921,0,0,0,.96-.936.893.893,0,0,0-.96-.864.914.914,0,0,0-.96.9A.914.914,0,0,0,26.3-7.464ZM25.548,0h1.5V-6.408h-1.5ZM31,.084c1.8,0,2.9-.78,2.9-1.98,0-2.508-3.96-1.356-3.96-2.652,0-.42.432-.72,1.344-.72a3.508,3.508,0,0,1,1.836.48l.576-1.14a5.1,5.1,0,0,0-2.4-.552c-1.728,0-2.82.792-2.82,2,0,2.556,3.96,1.4,3.96,2.628,0,.444-.4.708-1.344.708a4.312,4.312,0,0,1-2.232-.636l-.576,1.14A5.091,5.091,0,0,0,31,.084Zm7.632-1.5a1.349,1.349,0,0,1-.84.264c-.576,0-.888-.336-.888-.96V-5.16h1.716v-1.2H36.9V-7.824H35.4V-6.36H34.344v1.2H35.4v3.084A1.969,1.969,0,0,0,37.608.084a2.357,2.357,0,0,0,1.44-.432Zm3.084-4.056v-.936H40.284V0h1.5V-3.108a1.747,1.747,0,0,1,1.86-1.98,1.9,1.9,0,0,1,.348.036V-6.48A2.522,2.522,0,0,0,41.712-5.472ZM47.676-6.48a4.506,4.506,0,0,0-2.712.792L45.552-4.6A3.172,3.172,0,0,1,47.5-5.232c1.068,0,1.6.516,1.6,1.392v.1H47.436c-1.944,0-2.664.84-2.664,1.908,0,1.116.924,1.92,2.388,1.92A2.271,2.271,0,0,0,49.176-.78V0h1.416V-3.756C50.592-5.6,49.524-6.48,47.676-6.48Zm-.2,5.472c-.768,0-1.224-.348-1.224-.888,0-.468.276-.852,1.3-.852h1.548V-2A1.633,1.633,0,0,1,47.472-1.008Zm8.472-.408a1.349,1.349,0,0,1-.84.264c-.576,0-.888-.336-.888-.96V-5.16h1.716v-1.2H54.216V-7.824h-1.5V-6.36H51.66v1.2h1.056v3.084A1.969,1.969,0,0,0,54.924.084a2.357,2.357,0,0,0,1.44-.432Zm2.412-6.048a.921.921,0,0,0,.96-.936.893.893,0,0,0-.96-.864.914.914,0,0,0-.96.9A.914.914,0,0,0,58.356-7.464ZM57.6,0h1.5V-6.408H57.6Zm6.348.084A3.232,3.232,0,0,0,67.368-3.2a3.222,3.222,0,0,0-3.42-3.276A3.226,3.226,0,0,0,60.54-3.2,3.235,3.235,0,0,0,63.948.084Zm0-1.284a1.864,1.864,0,0,1-1.9-2,1.864,1.864,0,0,1,1.9-2,1.866,1.866,0,0,1,1.908,2A1.866,1.866,0,0,1,63.948-1.2Zm8.5-5.28a2.786,2.786,0,0,0-2.208.9v-.828H68.808V0h1.5V-3.24A1.7,1.7,0,0,1,72.1-5.172c.96,0,1.524.552,1.524,1.692V0h1.5V-3.672A2.5,2.5,0,0,0,72.444-6.48Zm10.5-1.3a1.477,1.477,0,0,1,.828.264l.42-1.128a2.4,2.4,0,0,0-1.356-.348,2.07,2.07,0,0,0-2.292,2.22v.408H79.488v1.2h1.056V0h1.5V-5.16H83.76v-1.2H82v-.384C82-7.428,82.32-7.776,82.944-7.776ZM87.552.084A3.232,3.232,0,0,0,90.972-3.2a3.222,3.222,0,0,0-3.42-3.276A3.226,3.226,0,0,0,84.144-3.2,3.235,3.235,0,0,0,87.552.084Zm0-1.284a1.864,1.864,0,0,1-1.9-2,1.864,1.864,0,0,1,1.9-2,1.866,1.866,0,0,1,1.908,2A1.866,1.866,0,0,1,87.552-1.2ZM93.84-5.472v-.936H92.412V0h1.5V-3.108a1.747,1.747,0,0,1,1.86-1.98,1.9,1.9,0,0,1,.348.036V-6.48A2.522,2.522,0,0,0,93.84-5.472ZM100.908,0h3.672c2.724,0,4.584-1.68,4.584-4.2s-1.86-4.2-4.584-4.2h-3.672Zm1.56-1.32V-7.08h2.04a2.8,2.8,0,0,1,3.084,2.88,2.8,2.8,0,0,1-3.084,2.88ZM113.424.12c2.3,0,3.4-1.152,3.4-2.5,0-3.084-4.98-1.92-4.98-3.708,0-.636.528-1.14,1.824-1.14a4.668,4.668,0,0,1,2.316.66l.492-1.212a5.311,5.311,0,0,0-2.8-.744c-2.3,0-3.384,1.152-3.384,2.508,0,3.12,4.992,1.932,4.992,3.744,0,.624-.552,1.092-1.86,1.092a4.654,4.654,0,0,1-2.772-.924l-.54,1.212A5.412,5.412,0,0,0,113.424.12Zm8.832,0a4.263,4.263,0,0,0,3.336-1.4l-1.008-.96a2.92,2.92,0,0,1-2.244,1,2.868,2.868,0,0,1-3-2.952,2.868,2.868,0,0,1,3-2.952,2.95,2.95,0,0,1,2.244.984l1.008-.948a4.255,4.255,0,0,0-3.324-1.4,4.281,4.281,0,0,0-4.5,4.32A4.277,4.277,0,0,0,122.256.12Z" transform="translate(836.018 97)" fill="#1e1e1e"/>
    </g>
    <g id="Group-4" data-name="Group">
      <path id="Path_7" data-name="Path 7" d="M7.08-4.368A2.014,2.014,0,0,0,8.16-6.216c0-1.332-1.08-2.184-3.1-2.184H1.128V0H5.3c2.16,0,3.288-.84,3.288-2.28A2.069,2.069,0,0,0,7.08-4.368ZM4.9-7.176c1.08,0,1.692.384,1.692,1.164S5.976-4.86,4.9-4.86H2.688V-7.176Zm.312,5.952H2.688V-3.648h2.52c1.176,0,1.812.372,1.812,1.212S6.384-1.224,5.208-1.224Zm5.664-6.24a.921.921,0,0,0,.96-.936.893.893,0,0,0-.96-.864.914.914,0,0,0-.96.9A.914.914,0,0,0,10.872-7.464ZM10.116,0h1.5V-6.408h-1.5ZM18.36-8.9v3.288A2.624,2.624,0,0,0,16.3-6.48,3.109,3.109,0,0,0,13.056-3.2,3.118,3.118,0,0,0,16.3.084,2.642,2.642,0,0,0,18.42-.828V0h1.44V-8.9ZM16.476-1.2a1.873,1.873,0,0,1-1.908-2,1.873,1.873,0,0,1,1.908-2,1.873,1.873,0,0,1,1.908,2A1.873,1.873,0,0,1,16.476-1.2ZM26.6-8.9v3.288A2.624,2.624,0,0,0,24.54-6.48,3.109,3.109,0,0,0,21.3-3.2,3.118,3.118,0,0,0,24.54.084a2.642,2.642,0,0,0,2.124-.912V0H28.1V-8.9ZM24.72-1.2a1.873,1.873,0,0,1-1.908-2,1.873,1.873,0,0,1,1.908-2,1.873,1.873,0,0,1,1.908,2A1.873,1.873,0,0,1,24.72-1.2ZM36.1-3.168a3.125,3.125,0,0,0-3.24-3.312A3.187,3.187,0,0,0,29.544-3.2,3.254,3.254,0,0,0,33.084.084,3.248,3.248,0,0,0,35.664-.96l-.8-.924a2.3,2.3,0,0,1-1.74.7,1.939,1.939,0,0,1-2.076-1.536h5.028C36.084-2.868,36.1-3.048,36.1-3.168ZM32.856-5.28a1.744,1.744,0,0,1,1.812,1.56H31.032A1.771,1.771,0,0,1,32.856-5.28Zm6.108-.192v-.936H37.536V0h1.5V-3.108a1.747,1.747,0,0,1,1.86-1.98,1.9,1.9,0,0,1,.348.036V-6.48A2.522,2.522,0,0,0,38.964-5.472ZM49.44-6.48a2.642,2.642,0,0,0-2.124.912v-.84H45.888V2.328h1.5V-.78A2.633,2.633,0,0,0,49.44.084,3.121,3.121,0,0,0,52.692-3.2,3.118,3.118,0,0,0,49.44-6.48ZM49.272-1.2a1.873,1.873,0,0,1-1.908-2,1.873,1.873,0,0,1,1.908-2,1.864,1.864,0,0,1,1.9,2A1.864,1.864,0,0,1,49.272-1.2Zm7.212-5.28a4.506,4.506,0,0,0-2.712.792L54.36-4.6A3.172,3.172,0,0,1,56.3-5.232c1.068,0,1.6.516,1.6,1.392v.1H56.244c-1.944,0-2.664.84-2.664,1.908,0,1.116.924,1.92,2.388,1.92A2.271,2.271,0,0,0,57.984-.78V0H59.4V-3.756C59.4-5.6,58.332-6.48,56.484-6.48Zm-.2,5.472c-.768,0-1.224-.348-1.224-.888,0-.468.276-.852,1.3-.852H57.9V-2A1.633,1.633,0,0,1,56.28-1.008Zm9.48-5.4-2.028,4.74-2.016-4.74h-1.56l2.8,6.432-.108.252c-.288.636-.6.888-1.128.888a1.625,1.625,0,0,1-1.1-.444l-.6,1.1a2.652,2.652,0,0,0,1.716.588A2.485,2.485,0,0,0,64.2.516l3-6.924ZM70.032.084c1.8,0,2.9-.78,2.9-1.98,0-2.508-3.96-1.356-3.96-2.652,0-.42.432-.72,1.344-.72a3.508,3.508,0,0,1,1.836.48l.576-1.14a5.1,5.1,0,0,0-2.4-.552c-1.728,0-2.82.792-2.82,2,0,2.556,3.96,1.4,3.96,2.628,0,.444-.4.708-1.344.708A4.312,4.312,0,0,1,67.9-1.776L67.32-.636A5.091,5.091,0,0,0,70.032.084ZM84.864,0,82.932-2.76A2.685,2.685,0,0,0,84.72-5.412c0-1.86-1.368-2.988-3.576-2.988H77.688V0h1.56V-2.448h1.9a2.924,2.924,0,0,0,.324-.012L83.184,0ZM83.148-5.412c0,1.056-.708,1.68-2.076,1.68H79.248V-7.08h1.824C82.44-7.08,83.148-6.468,83.148-5.412ZM92.34-3.168A3.125,3.125,0,0,0,89.1-6.48,3.187,3.187,0,0,0,85.788-3.2,3.254,3.254,0,0,0,89.328.084,3.248,3.248,0,0,0,91.908-.96l-.8-.924a2.3,2.3,0,0,1-1.74.7,1.939,1.939,0,0,1-2.076-1.536h5.028C92.328-2.868,92.34-3.048,92.34-3.168ZM89.1-5.28a1.744,1.744,0,0,1,1.812,1.56H87.276A1.771,1.771,0,0,1,89.1-5.28Zm9.612-1.128v.852a2.774,2.774,0,0,0-2.22-.924A3.042,3.042,0,0,0,93.252-3.4a3.061,3.061,0,0,0,3.24,3.108A2.821,2.821,0,0,0,98.64-1.14V-.8c0,1.3-.624,1.944-2.04,1.944A3.871,3.871,0,0,1,94.236.372L93.564,1.5a5.093,5.093,0,0,0,3.12.912c2.244,0,3.456-1.056,3.456-3.384V-6.408ZM96.72-1.56A1.817,1.817,0,0,1,94.764-3.4,1.805,1.805,0,0,1,96.72-5.208,1.8,1.8,0,0,1,98.664-3.4,1.813,1.813,0,0,1,96.72-1.56Zm6.144-5.9a.921.921,0,0,0,.96-.936.893.893,0,0,0-.96-.864.914.914,0,0,0-.96.9A.914.914,0,0,0,102.864-7.464ZM102.108,0h1.5V-6.408h-1.5Zm5.448.084c1.8,0,2.9-.78,2.9-1.98,0-2.508-3.96-1.356-3.96-2.652,0-.42.432-.72,1.344-.72a3.508,3.508,0,0,1,1.836.48l.576-1.14a5.1,5.1,0,0,0-2.4-.552c-1.728,0-2.82.792-2.82,2,0,2.556,3.96,1.4,3.96,2.628,0,.444-.4.708-1.344.708a4.312,4.312,0,0,1-2.232-.636l-.576,1.14A5.091,5.091,0,0,0,107.556.084Zm7.632-1.5a1.349,1.349,0,0,1-.84.264c-.576,0-.888-.336-.888-.96V-5.16h1.716v-1.2H113.46V-7.824h-1.5V-6.36H110.9v1.2h1.056v3.084a1.969,1.969,0,0,0,2.208,2.16,2.357,2.357,0,0,0,1.44-.432Zm3.084-4.056v-.936h-1.428V0h1.5V-3.108a1.747,1.747,0,0,1,1.86-1.98,1.9,1.9,0,0,1,.348.036V-6.48A2.522,2.522,0,0,0,118.272-5.472Zm5.964-1.008a4.506,4.506,0,0,0-2.712.792l.588,1.092a3.172,3.172,0,0,1,1.944-.636c1.068,0,1.6.516,1.6,1.392v.1H124c-1.944,0-2.664.84-2.664,1.908,0,1.116.924,1.92,2.388,1.92a2.271,2.271,0,0,0,2.016-.864V0h1.416V-3.756C127.152-5.6,126.084-6.48,124.236-6.48Zm-.2,5.472c-.768,0-1.224-.348-1.224-.888,0-.468.276-.852,1.3-.852h1.548V-2A1.633,1.633,0,0,1,124.032-1.008Zm8.472-.408a1.349,1.349,0,0,1-.84.264c-.576,0-.888-.336-.888-.96V-5.16h1.716v-1.2h-1.716V-7.824h-1.5V-6.36H128.22v1.2h1.056v3.084a1.969,1.969,0,0,0,2.208,2.16,2.357,2.357,0,0,0,1.44-.432Zm2.412-6.048a.921.921,0,0,0,.96-.936.893.893,0,0,0-.96-.864.914.914,0,0,0-.96.9A.914.914,0,0,0,134.916-7.464ZM134.16,0h1.5V-6.408h-1.5Zm6.348.084a3.232,3.232,0,0,0,3.42-3.288,3.222,3.222,0,0,0-3.42-3.276A3.226,3.226,0,0,0,137.1-3.2,3.235,3.235,0,0,0,140.508.084Zm0-1.284a1.864,1.864,0,0,1-1.9-2,1.864,1.864,0,0,1,1.9-2,1.866,1.866,0,0,1,1.908,2A1.866,1.866,0,0,1,140.508-1.2ZM149-6.48a2.786,2.786,0,0,0-2.208.9v-.828h-1.428V0h1.5V-3.24a1.7,1.7,0,0,1,1.788-1.932c.96,0,1.524.552,1.524,1.692V0h1.5V-3.672A2.5,2.5,0,0,0,149-6.48Z" transform="translate(724.698 171)" fill="#1e1e1e"/>
      <path id="Path_8" data-name="Path 8" d="M5.016.12a4.263,4.263,0,0,0,3.336-1.4l-1.008-.96a2.92,2.92,0,0,1-2.244,1A2.868,2.868,0,0,1,2.1-4.2a2.868,2.868,0,0,1,3-2.952,2.95,2.95,0,0,1,2.244.984l1.008-.948a4.255,4.255,0,0,0-3.324-1.4A4.281,4.281,0,0,0,.528-4.2,4.277,4.277,0,0,0,5.016.12Zm8.328-6.6a2.857,2.857,0,0,0-2.136.816V-8.9h-1.5V0h1.5V-3.24A1.7,1.7,0,0,1,13-5.172c.96,0,1.524.552,1.524,1.692V0h1.5V-3.672A2.5,2.5,0,0,0,13.344-6.48Zm7.032,0a4.506,4.506,0,0,0-2.712.792L18.252-4.6A3.172,3.172,0,0,1,20.2-5.232c1.068,0,1.6.516,1.6,1.392v.1H20.136c-1.944,0-2.664.84-2.664,1.908,0,1.116.924,1.92,2.388,1.92A2.271,2.271,0,0,0,21.876-.78V0h1.416V-3.756C23.292-5.6,22.224-6.48,20.376-6.48Zm-.2,5.472c-.768,0-1.224-.348-1.224-.888,0-.468.276-.852,1.3-.852h1.548V-2A1.633,1.633,0,0,1,20.172-1.008ZM26.64-5.472v-.936H25.212V0h1.5V-3.108a1.747,1.747,0,0,1,1.86-1.98,1.9,1.9,0,0,1,.348.036V-6.48A2.522,2.522,0,0,0,26.64-5.472Zm8.424-.936v.852a2.774,2.774,0,0,0-2.22-.924A3.042,3.042,0,0,0,29.6-3.4a3.061,3.061,0,0,0,3.24,3.108,2.821,2.821,0,0,0,2.148-.852V-.8c0,1.3-.624,1.944-2.04,1.944A3.871,3.871,0,0,1,30.588.372L29.916,1.5a5.093,5.093,0,0,0,3.12.912c2.244,0,3.456-1.056,3.456-3.384V-6.408ZM33.072-1.56A1.817,1.817,0,0,1,31.116-3.4a1.805,1.805,0,0,1,1.956-1.812A1.8,1.8,0,0,1,35.016-3.4,1.813,1.813,0,0,1,33.072-1.56ZM44.484-3.168a3.125,3.125,0,0,0-3.24-3.312A3.187,3.187,0,0,0,37.932-3.2,3.254,3.254,0,0,0,41.472.084,3.248,3.248,0,0,0,44.052-.96l-.8-.924a2.3,2.3,0,0,1-1.74.7,1.939,1.939,0,0,1-2.076-1.536H44.46C44.472-2.868,44.484-3.048,44.484-3.168ZM41.244-5.28a1.744,1.744,0,0,1,1.812,1.56H39.42A1.771,1.771,0,0,1,41.244-5.28ZM47.9.084c1.8,0,2.9-.78,2.9-1.98,0-2.508-3.96-1.356-3.96-2.652,0-.42.432-.72,1.344-.72a3.508,3.508,0,0,1,1.836.48l.576-1.14a5.1,5.1,0,0,0-2.4-.552c-1.728,0-2.82.792-2.82,2,0,2.556,3.96,1.4,3.96,2.628,0,.444-.4.708-1.344.708a4.312,4.312,0,0,1-2.232-.636l-.576,1.14A5.091,5.091,0,0,0,47.9.084Zm9.96-6.564a4.506,4.506,0,0,0-2.712.792L55.74-4.6a3.172,3.172,0,0,1,1.944-.636c1.068,0,1.6.516,1.6,1.392v.1H57.624c-1.944,0-2.664.84-2.664,1.908,0,1.116.924,1.92,2.388,1.92A2.271,2.271,0,0,0,59.364-.78V0H60.78V-3.756C60.78-5.6,59.712-6.48,57.864-6.48Zm-.2,5.472c-.768,0-1.224-.348-1.224-.888,0-.468.276-.852,1.3-.852H59.28V-2A1.633,1.633,0,0,1,57.66-1.008ZM66.336-6.48a2.786,2.786,0,0,0-2.208.9v-.828H62.7V0h1.5V-3.24a1.7,1.7,0,0,1,1.788-1.932c.96,0,1.524.552,1.524,1.692V0h1.5V-3.672A2.5,2.5,0,0,0,66.336-6.48ZM75.756-8.9v3.288a2.624,2.624,0,0,0-2.064-.864A3.109,3.109,0,0,0,70.452-3.2,3.118,3.118,0,0,0,73.692.084a2.642,2.642,0,0,0,2.124-.912V0h1.44V-8.9ZM73.872-1.2a1.873,1.873,0,0,1-1.908-2,1.873,1.873,0,0,1,1.908-2,1.873,1.873,0,0,1,1.908,2A1.873,1.873,0,0,1,73.872-1.2ZM84.384,0h1.56V-7.08h2.784V-8.4H81.6v1.32h2.784Zm10.74-3.168a3.125,3.125,0,0,0-3.24-3.312A3.187,3.187,0,0,0,88.572-3.2,3.254,3.254,0,0,0,92.112.084,3.248,3.248,0,0,0,94.692-.96l-.8-.924a2.3,2.3,0,0,1-1.74.7,1.939,1.939,0,0,1-2.076-1.536H95.1C95.112-2.868,95.124-3.048,95.124-3.168ZM91.884-5.28A1.744,1.744,0,0,1,93.7-3.72H90.06A1.771,1.771,0,0,1,91.884-5.28Zm8.316-1.2a2.786,2.786,0,0,0-2.208.9v-.828H96.564V0h1.5V-3.24a1.7,1.7,0,0,1,1.788-1.932c.96,0,1.524.552,1.524,1.692V0h1.5V-3.672A2.5,2.5,0,0,0,100.2-6.48ZM109.62-8.9v3.288a2.624,2.624,0,0,0-2.064-.864,3.109,3.109,0,0,0-3.24,3.276,3.118,3.118,0,0,0,3.24,3.288,2.642,2.642,0,0,0,2.124-.912V0h1.44V-8.9Zm-1.884,7.7a1.873,1.873,0,0,1-1.908-2,1.873,1.873,0,0,1,1.908-2,1.873,1.873,0,0,1,1.908,2A1.873,1.873,0,0,1,107.736-1.2Zm11.376-1.968a3.125,3.125,0,0,0-3.24-3.312A3.187,3.187,0,0,0,112.56-3.2,3.254,3.254,0,0,0,116.1.084,3.248,3.248,0,0,0,118.68-.96l-.8-.924a2.3,2.3,0,0,1-1.74.7,1.939,1.939,0,0,1-2.076-1.536h5.028C119.1-2.868,119.112-3.048,119.112-3.168Zm-3.24-2.112a1.744,1.744,0,0,1,1.812,1.56h-3.636A1.771,1.771,0,0,1,115.872-5.28Zm6.108-.192v-.936h-1.428V0h1.5V-3.108a1.747,1.747,0,0,1,1.86-1.98,1.9,1.9,0,0,1,.348.036V-6.48A2.522,2.522,0,0,0,121.98-5.472Z" transform="translate(738.696 186)" fill="#1e1e1e"/>
      <path id="Path_9" data-name="Path 9" d="M1.128,0H4.8C7.524,0,9.384-1.68,9.384-4.2S7.524-8.4,4.8-8.4H1.128Zm1.56-1.32V-7.08h2.04A2.8,2.8,0,0,1,7.812-4.2,2.8,2.8,0,0,1,4.728-1.32ZM13.776.084A3.232,3.232,0,0,0,17.2-3.2a3.222,3.222,0,0,0-3.42-3.276A3.226,3.226,0,0,0,10.368-3.2,3.235,3.235,0,0,0,13.776.084Zm0-1.284a1.864,1.864,0,0,1-1.9-2,1.864,1.864,0,0,1,1.9-2,1.866,1.866,0,0,1,1.908,2A1.866,1.866,0,0,1,13.776-1.2Zm7.8,1.284a2.913,2.913,0,0,0,2.736-1.5L23.16-2.088a1.813,1.813,0,0,1-1.6.888,1.874,1.874,0,0,1-1.944-2,1.881,1.881,0,0,1,1.944-2,1.813,1.813,0,0,1,1.6.888l1.152-.672A2.884,2.884,0,0,0,21.576-6.48,3.242,3.242,0,0,0,18.108-3.2,3.252,3.252,0,0,0,21.576.084Zm8.736-6.492v3.24A1.688,1.688,0,0,1,28.56-1.236c-.948,0-1.5-.552-1.5-1.716V-6.408h-1.5v3.66A2.535,2.535,0,0,0,28.32.084a2.618,2.618,0,0,0,2.064-.9V0h1.428V-6.408ZM41.868-6.48a2.991,2.991,0,0,0-2.4,1.068,2.4,2.4,0,0,0-2.16-1.068,2.654,2.654,0,0,0-2.1.888v-.816H33.78V0h1.5V-3.252c0-1.272.672-1.92,1.668-1.92.912,0,1.44.552,1.44,1.692V0h1.5V-3.252c0-1.272.684-1.92,1.668-1.92.912,0,1.44.552,1.44,1.692V0h1.5V-3.672C44.5-5.6,43.416-6.48,41.868-6.48ZM52.5-3.168A3.125,3.125,0,0,0,49.26-6.48,3.187,3.187,0,0,0,45.948-3.2,3.254,3.254,0,0,0,49.488.084,3.248,3.248,0,0,0,52.068-.96l-.8-.924a2.3,2.3,0,0,1-1.74.7,1.939,1.939,0,0,1-2.076-1.536h5.028C52.488-2.868,52.5-3.048,52.5-3.168ZM49.26-5.28a1.744,1.744,0,0,1,1.812,1.56H47.436A1.771,1.771,0,0,1,49.26-5.28Zm8.316-1.2a2.786,2.786,0,0,0-2.208.9v-.828H53.94V0h1.5V-3.24a1.7,1.7,0,0,1,1.788-1.932c.96,0,1.524.552,1.524,1.692V0h1.5V-3.672A2.5,2.5,0,0,0,57.576-6.48Zm8.016,5.064a1.349,1.349,0,0,1-.84.264c-.576,0-.888-.336-.888-.96V-5.16H65.58v-1.2H63.864V-7.824h-1.5V-6.36H61.308v1.2h1.056v3.084A1.969,1.969,0,0,0,64.572.084a2.357,2.357,0,0,0,1.44-.432Zm7.572-6.36a1.477,1.477,0,0,1,.828.264l.42-1.128a2.4,2.4,0,0,0-1.356-.348,2.07,2.07,0,0,0-2.292,2.22v.408H69.708v1.2h1.056V0h1.5V-5.16H73.98v-1.2H72.216v-.384C72.216-7.428,72.54-7.776,73.164-7.776Zm7.752,4.608a3.125,3.125,0,0,0-3.24-3.312A3.187,3.187,0,0,0,74.364-3.2,3.254,3.254,0,0,0,77.9.084,3.248,3.248,0,0,0,80.484-.96l-.8-.924a2.3,2.3,0,0,1-1.74.7,1.939,1.939,0,0,1-2.076-1.536h5.028C80.9-2.868,80.916-3.048,80.916-3.168ZM77.676-5.28a1.744,1.744,0,0,1,1.812,1.56H75.852A1.771,1.771,0,0,1,77.676-5.28Zm10.7,2.112A3.125,3.125,0,0,0,85.14-6.48,3.187,3.187,0,0,0,81.828-3.2,3.254,3.254,0,0,0,85.368.084,3.248,3.248,0,0,0,87.948-.96l-.8-.924a2.3,2.3,0,0,1-1.74.7,1.939,1.939,0,0,1-2.076-1.536h5.028C88.368-2.868,88.38-3.048,88.38-3.168ZM85.14-5.28a1.744,1.744,0,0,1,1.812,1.56H83.316A1.771,1.771,0,0,1,85.14-5.28ZM91.8.084c1.8,0,2.9-.78,2.9-1.98,0-2.508-3.96-1.356-3.96-2.652,0-.42.432-.72,1.344-.72a3.508,3.508,0,0,1,1.836.48l.576-1.14a5.1,5.1,0,0,0-2.4-.552c-1.728,0-2.82.792-2.82,2,0,2.556,3.96,1.4,3.96,2.628,0,.444-.4.708-1.344.708a4.312,4.312,0,0,1-2.232-.636l-.576,1.14A5.091,5.091,0,0,0,91.8.084Zm10.392,0a3.232,3.232,0,0,0,3.42-3.288,3.222,3.222,0,0,0-3.42-3.276A3.226,3.226,0,0,0,98.784-3.2,3.235,3.235,0,0,0,102.192.084Zm0-1.284a1.864,1.864,0,0,1-1.9-2,1.864,1.864,0,0,1,1.9-2,1.866,1.866,0,0,1,1.908,2A1.866,1.866,0,0,1,102.192-1.2Zm8.5-5.28a2.786,2.786,0,0,0-2.208.9v-.828h-1.428V0h1.5V-3.24a1.7,1.7,0,0,1,1.788-1.932c.96,0,1.524.552,1.524,1.692V0h1.5V-3.672A2.5,2.5,0,0,0,110.688-6.48ZM115.272,0h1.5V-8.9h-1.5ZM119.5-7.464a.921.921,0,0,0,.96-.936.893.893,0,0,0-.96-.864.914.914,0,0,0-.96.9A.914.914,0,0,0,119.5-7.464ZM118.74,0h1.5V-6.408h-1.5Zm7.1-6.48a2.786,2.786,0,0,0-2.208.9v-.828h-1.428V0h1.5V-3.24A1.7,1.7,0,0,1,125.5-5.172c.96,0,1.524.552,1.524,1.692V0h1.5V-3.672A2.5,2.5,0,0,0,125.844-6.48Zm10.668,3.312a3.125,3.125,0,0,0-3.24-3.312A3.187,3.187,0,0,0,129.96-3.2,3.254,3.254,0,0,0,133.5.084,3.248,3.248,0,0,0,136.08-.96l-.8-.924a2.3,2.3,0,0,1-1.74.7,1.939,1.939,0,0,1-2.076-1.536h5.028C136.5-2.868,136.512-3.048,136.512-3.168Zm-3.24-2.112a1.744,1.744,0,0,1,1.812,1.56h-3.636A1.771,1.771,0,0,1,133.272-5.28Z" transform="translate(732.516 201)" fill="#1e1e1e"/>
    </g>
    <g id="Group-5" data-name="Group">
      <path id="Path_10" data-name="Path 10" d="M3.732.12c2.3,0,3.4-1.152,3.4-2.5,0-3.084-4.98-1.92-4.98-3.708,0-.636.528-1.14,1.824-1.14a4.668,4.668,0,0,1,2.316.66L6.78-7.776a5.311,5.311,0,0,0-2.8-.744C1.68-8.52.6-7.368.6-6.012c0,3.12,4.992,1.932,4.992,3.744,0,.624-.552,1.092-1.86,1.092A4.654,4.654,0,0,1,.96-2.1L.42-.888A5.412,5.412,0,0,0,3.732.12Zm9.5-6.528v3.24a1.688,1.688,0,0,1-1.752,1.932c-.948,0-1.5-.552-1.5-1.716V-6.408h-1.5v3.66A2.535,2.535,0,0,0,11.244.084a2.618,2.618,0,0,0,2.064-.9V0h1.428V-6.408Zm7.02-.072a2.664,2.664,0,0,0-2.052.852V-8.9H16.7V0h1.428V-.828a2.642,2.642,0,0,0,2.124.912A3.121,3.121,0,0,0,23.508-3.2,3.112,3.112,0,0,0,20.256-6.48ZM20.088-1.2a1.873,1.873,0,0,1-1.908-2,1.873,1.873,0,0,1,1.908-2,1.864,1.864,0,0,1,1.9,2A1.864,1.864,0,0,1,20.088-1.2ZM33.024-6.48a2.991,2.991,0,0,0-2.4,1.068,2.4,2.4,0,0,0-2.16-1.068,2.654,2.654,0,0,0-2.1.888v-.816H24.936V0h1.5V-3.252c0-1.272.672-1.92,1.668-1.92.912,0,1.44.552,1.44,1.692V0h1.5V-3.252c0-1.272.684-1.92,1.668-1.92.912,0,1.44.552,1.44,1.692V0h1.5V-3.672C35.652-5.6,34.572-6.48,33.024-6.48Zm5.3-.984a.921.921,0,0,0,.96-.936.893.893,0,0,0-.96-.864.914.914,0,0,0-.96.9A.914.914,0,0,0,38.328-7.464ZM37.572,0h1.5V-6.408h-1.5Zm6.9-1.416a1.349,1.349,0,0,1-.84.264c-.576,0-.888-.336-.888-.96V-5.16H44.46v-1.2H42.744V-7.824h-1.5V-6.36H40.188v1.2h1.056v3.084A1.969,1.969,0,0,0,43.452.084a2.357,2.357,0,0,0,1.44-.432Zm8.4,0a1.349,1.349,0,0,1-.84.264c-.576,0-.888-.336-.888-.96V-5.16H52.86v-1.2H51.144V-7.824h-1.5V-6.36H48.588v1.2h1.056v3.084A1.969,1.969,0,0,0,51.852.084a2.357,2.357,0,0,0,1.44-.432ZM58.164-6.48a2.857,2.857,0,0,0-2.136.816V-8.9h-1.5V0h1.5V-3.24a1.7,1.7,0,0,1,1.788-1.932c.96,0,1.524.552,1.524,1.692V0h1.5V-3.672A2.5,2.5,0,0,0,58.164-6.48ZM68.832-3.168a3.125,3.125,0,0,0-3.24-3.312A3.187,3.187,0,0,0,62.28-3.2,3.254,3.254,0,0,0,65.82.084,3.248,3.248,0,0,0,68.4-.96l-.8-.924a2.3,2.3,0,0,1-1.74.7A1.939,1.939,0,0,1,63.78-2.724h5.028C68.82-2.868,68.832-3.048,68.832-3.168ZM65.592-5.28A1.744,1.744,0,0,1,67.4-3.72H63.768A1.771,1.771,0,0,1,65.592-5.28ZM79.608-3.168a3.125,3.125,0,0,0-3.24-3.312A3.187,3.187,0,0,0,73.056-3.2,3.254,3.254,0,0,0,76.6.084,3.248,3.248,0,0,0,79.176-.96l-.8-.924a2.3,2.3,0,0,1-1.74.7,1.939,1.939,0,0,1-2.076-1.536h5.028C79.6-2.868,79.608-3.048,79.608-3.168ZM76.368-5.28A1.744,1.744,0,0,1,78.18-3.72H74.544A1.771,1.771,0,0,1,76.368-5.28ZM81.048,0h1.5V-8.9h-1.5Zm4.224-7.464a.921.921,0,0,0,.96-.936.893.893,0,0,0-.96-.864.914.914,0,0,0-.96.9A.914.914,0,0,0,85.272-7.464ZM84.516,0h1.5V-6.408h-1.5Zm8.4-6.408v.852A2.774,2.774,0,0,0,90.7-6.48,3.042,3.042,0,0,0,87.456-3.4,3.061,3.061,0,0,0,90.7-.288a2.821,2.821,0,0,0,2.148-.852V-.8c0,1.3-.624,1.944-2.04,1.944A3.871,3.871,0,0,1,88.44.372L87.768,1.5a5.093,5.093,0,0,0,3.12.912c2.244,0,3.456-1.056,3.456-3.384V-6.408ZM90.924-1.56A1.817,1.817,0,0,1,88.968-3.4a1.805,1.805,0,0,1,1.956-1.812A1.8,1.8,0,0,1,92.868-3.4,1.813,1.813,0,0,1,90.924-1.56Zm6.144-5.9a.921.921,0,0,0,.96-.936.893.893,0,0,0-.96-.864.914.914,0,0,0-.96.9A.914.914,0,0,0,97.068-7.464ZM96.312,0h1.5V-6.408h-1.5Zm7.02-6.48a2.664,2.664,0,0,0-2.052.852V-8.9h-1.5V0h1.428V-.828a2.642,2.642,0,0,0,2.124.912A3.121,3.121,0,0,0,106.584-3.2,3.112,3.112,0,0,0,103.332-6.48Zm-.168,5.28a1.873,1.873,0,0,1-1.908-2,1.873,1.873,0,0,1,1.908-2,1.864,1.864,0,0,1,1.9,2A1.864,1.864,0,0,1,103.164-1.2Zm5.6-6.264a.921.921,0,0,0,.96-.936.893.893,0,0,0-.96-.864.914.914,0,0,0-.96.9A.914.914,0,0,0,108.768-7.464ZM108.012,0h1.5V-6.408h-1.5Zm3.468,0h1.5V-8.9h-1.5ZM115.7-7.464a.921.921,0,0,0,.96-.936.893.893,0,0,0-.96-.864.914.914,0,0,0-.96.9A.914.914,0,0,0,115.7-7.464ZM114.948,0h1.5V-6.408h-1.5Zm6.9-1.416a1.349,1.349,0,0,1-.84.264c-.576,0-.888-.336-.888-.96V-5.16h1.716v-1.2H120.12V-7.824h-1.5V-6.36h-1.056v1.2h1.056v3.084a1.969,1.969,0,0,0,2.208,2.16,2.357,2.357,0,0,0,1.44-.432Zm6.1-4.992-2.028,4.74L123.9-6.408h-1.56l2.8,6.432-.108.252c-.288.636-.6.888-1.128.888A1.625,1.625,0,0,1,122.8.72l-.6,1.1a2.652,2.652,0,0,0,1.716.588,2.485,2.485,0,0,0,2.472-1.9l3-6.924Z" transform="translate(834.332 275)" fill="#1e1e1e"/>
      <path id="Path_11" data-name="Path 11" d="M5.76-8.9v3.288A2.624,2.624,0,0,0,3.7-6.48,3.109,3.109,0,0,0,.456-3.2,3.118,3.118,0,0,0,3.7.084,2.642,2.642,0,0,0,5.82-.828V0H7.26V-8.9ZM3.876-1.2a1.873,1.873,0,0,1-1.908-2,1.873,1.873,0,0,1,1.908-2,1.873,1.873,0,0,1,1.908,2A1.873,1.873,0,0,1,3.876-1.2ZM12.108.084A3.232,3.232,0,0,0,15.528-3.2a3.222,3.222,0,0,0-3.42-3.276A3.226,3.226,0,0,0,8.7-3.2,3.235,3.235,0,0,0,12.108.084Zm0-1.284a1.864,1.864,0,0,1-1.9-2,1.864,1.864,0,0,1,1.9-2,1.866,1.866,0,0,1,1.908,2A1.866,1.866,0,0,1,12.108-1.2Zm7.8,1.284a2.913,2.913,0,0,0,2.736-1.5l-1.152-.672a1.813,1.813,0,0,1-1.6.888,1.874,1.874,0,0,1-1.944-2,1.881,1.881,0,0,1,1.944-2,1.813,1.813,0,0,1,1.6.888l1.152-.672A2.884,2.884,0,0,0,19.908-6.48,3.242,3.242,0,0,0,16.44-3.2,3.252,3.252,0,0,0,19.908.084Zm8.736-6.492v3.24a1.688,1.688,0,0,1-1.752,1.932c-.948,0-1.5-.552-1.5-1.716V-6.408h-1.5v3.66A2.535,2.535,0,0,0,26.652.084a2.618,2.618,0,0,0,2.064-.9V0h1.428V-6.408ZM40.2-6.48a2.991,2.991,0,0,0-2.4,1.068A2.4,2.4,0,0,0,35.64-6.48a2.654,2.654,0,0,0-2.1.888v-.816H32.112V0h1.5V-3.252c0-1.272.672-1.92,1.668-1.92.912,0,1.44.552,1.44,1.692V0h1.5V-3.252c0-1.272.684-1.92,1.668-1.92.912,0,1.44.552,1.44,1.692V0h1.5V-3.672C42.828-5.6,41.748-6.48,40.2-6.48ZM50.832-3.168a3.125,3.125,0,0,0-3.24-3.312A3.187,3.187,0,0,0,44.28-3.2,3.254,3.254,0,0,0,47.82.084,3.248,3.248,0,0,0,50.4-.96l-.8-.924a2.3,2.3,0,0,1-1.74.7A1.939,1.939,0,0,1,45.78-2.724h5.028C50.82-2.868,50.832-3.048,50.832-3.168ZM47.592-5.28A1.744,1.744,0,0,1,49.4-3.72H45.768A1.771,1.771,0,0,1,47.592-5.28Zm8.316-1.2a2.786,2.786,0,0,0-2.208.9v-.828H52.272V0h1.5V-3.24A1.7,1.7,0,0,1,55.56-5.172c.96,0,1.524.552,1.524,1.692V0h1.5V-3.672A2.5,2.5,0,0,0,55.908-6.48Zm8.016,5.064a1.349,1.349,0,0,1-.84.264c-.576,0-.888-.336-.888-.96V-5.16h1.716v-1.2H62.2V-7.824H60.7V-6.36H59.64v1.2H60.7v3.084A1.969,1.969,0,0,0,62.9.084a2.357,2.357,0,0,0,1.44-.432Zm9,1.536a4.263,4.263,0,0,0,3.336-1.4l-1.008-.96a2.92,2.92,0,0,1-2.244,1,2.868,2.868,0,0,1-3-2.952,2.868,2.868,0,0,1,3-2.952,2.95,2.95,0,0,1,2.244.984l1.008-.948a4.255,4.255,0,0,0-3.324-1.4,4.281,4.281,0,0,0-4.5,4.32A4.277,4.277,0,0,0,72.924.12Zm8.328-6.6a2.857,2.857,0,0,0-2.136.816V-8.9h-1.5V0h1.5V-3.24A1.7,1.7,0,0,1,80.9-5.172c.96,0,1.524.552,1.524,1.692V0h1.5V-3.672A2.5,2.5,0,0,0,81.252-6.48ZM91.92-3.168A3.125,3.125,0,0,0,88.68-6.48,3.187,3.187,0,0,0,85.368-3.2,3.254,3.254,0,0,0,88.908.084,3.248,3.248,0,0,0,91.488-.96l-.8-.924a2.3,2.3,0,0,1-1.74.7,1.939,1.939,0,0,1-2.076-1.536H91.9C91.908-2.868,91.92-3.048,91.92-3.168ZM88.68-5.28a1.744,1.744,0,0,1,1.812,1.56H86.856A1.771,1.771,0,0,1,88.68-5.28ZM96.3.084a2.913,2.913,0,0,0,2.736-1.5l-1.152-.672a1.813,1.813,0,0,1-1.6.888,1.874,1.874,0,0,1-1.944-2,1.881,1.881,0,0,1,1.944-2,1.813,1.813,0,0,1,1.6.888l1.152-.672A2.884,2.884,0,0,0,96.3-6.48,3.242,3.242,0,0,0,92.832-3.2,3.252,3.252,0,0,0,96.3.084ZM105.108,0h1.824L104-3.72l2.676-2.688h-1.8l-3.108,2.88V-8.9h-1.5V0h1.5V-1.692l1.116-1.056Zm2.8,0h1.5V-8.9h-1.5Zm4.224-7.464a.921.921,0,0,0,.96-.936.893.893,0,0,0-.96-.864.914.914,0,0,0-.96.9A.914.914,0,0,0,112.128-7.464ZM111.372,0h1.5V-6.408h-1.5Zm5.448.084c1.8,0,2.9-.78,2.9-1.98,0-2.508-3.96-1.356-3.96-2.652,0-.42.432-.72,1.344-.72a3.508,3.508,0,0,1,1.836.48l.576-1.14a5.1,5.1,0,0,0-2.4-.552c-1.728,0-2.82.792-2.82,2,0,2.556,3.96,1.4,3.96,2.628,0,.444-.4.708-1.344.708a4.312,4.312,0,0,1-2.232-.636l-.576,1.14A5.091,5.091,0,0,0,116.82.084Zm7.632-1.5a1.349,1.349,0,0,1-.84.264c-.576,0-.888-.336-.888-.96V-5.16h1.716v-1.2h-1.716V-7.824h-1.5V-6.36h-1.056v1.2h1.056v3.084a1.969,1.969,0,0,0,2.208,2.16,2.357,2.357,0,0,0,1.44-.432Z" transform="translate(836.438 290)" fill="#1e1e1e"/>
    </g>
    <g id="Group-6" data-name="Group">
      <path id="Path_12" data-name="Path 12" d="M7.08-4.368A2.014,2.014,0,0,0,8.16-6.216c0-1.332-1.08-2.184-3.1-2.184H1.128V0H5.3c2.16,0,3.288-.84,3.288-2.28A2.069,2.069,0,0,0,7.08-4.368ZM4.9-7.176c1.08,0,1.692.384,1.692,1.164S5.976-4.86,4.9-4.86H2.688V-7.176Zm.312,5.952H2.688V-3.648h2.52c1.176,0,1.812.372,1.812,1.212S6.384-1.224,5.208-1.224Zm5.664-6.24a.921.921,0,0,0,.96-.936.893.893,0,0,0-.96-.864.914.914,0,0,0-.96.9A.914.914,0,0,0,10.872-7.464ZM10.116,0h1.5V-6.408h-1.5ZM18.36-8.9v3.288A2.624,2.624,0,0,0,16.3-6.48,3.109,3.109,0,0,0,13.056-3.2,3.118,3.118,0,0,0,16.3.084,2.642,2.642,0,0,0,18.42-.828V0h1.44V-8.9ZM16.476-1.2a1.873,1.873,0,0,1-1.908-2,1.873,1.873,0,0,1,1.908-2,1.873,1.873,0,0,1,1.908,2A1.873,1.873,0,0,1,16.476-1.2ZM26.6-8.9v3.288A2.624,2.624,0,0,0,24.54-6.48,3.109,3.109,0,0,0,21.3-3.2,3.118,3.118,0,0,0,24.54.084a2.642,2.642,0,0,0,2.124-.912V0H28.1V-8.9ZM24.72-1.2a1.873,1.873,0,0,1-1.908-2,1.873,1.873,0,0,1,1.908-2,1.873,1.873,0,0,1,1.908,2A1.873,1.873,0,0,1,24.72-1.2ZM36.1-3.168a3.125,3.125,0,0,0-3.24-3.312A3.187,3.187,0,0,0,29.544-3.2,3.254,3.254,0,0,0,33.084.084,3.248,3.248,0,0,0,35.664-.96l-.8-.924a2.3,2.3,0,0,1-1.74.7,1.939,1.939,0,0,1-2.076-1.536h5.028C36.084-2.868,36.1-3.048,36.1-3.168ZM32.856-5.28a1.744,1.744,0,0,1,1.812,1.56H31.032A1.771,1.771,0,0,1,32.856-5.28Zm6.108-.192v-.936H37.536V0h1.5V-3.108a1.747,1.747,0,0,1,1.86-1.98,1.9,1.9,0,0,1,.348.036V-6.48A2.522,2.522,0,0,0,38.964-5.472ZM49.44-6.48a2.642,2.642,0,0,0-2.124.912v-.84H45.888V2.328h1.5V-.78A2.633,2.633,0,0,0,49.44.084,3.121,3.121,0,0,0,52.692-3.2,3.118,3.118,0,0,0,49.44-6.48ZM49.272-1.2a1.873,1.873,0,0,1-1.908-2,1.873,1.873,0,0,1,1.908-2,1.864,1.864,0,0,1,1.9,2A1.864,1.864,0,0,1,49.272-1.2Zm7.212-5.28a4.506,4.506,0,0,0-2.712.792L54.36-4.6A3.172,3.172,0,0,1,56.3-5.232c1.068,0,1.6.516,1.6,1.392v.1H56.244c-1.944,0-2.664.84-2.664,1.908,0,1.116.924,1.92,2.388,1.92A2.271,2.271,0,0,0,57.984-.78V0H59.4V-3.756C59.4-5.6,58.332-6.48,56.484-6.48Zm-.2,5.472c-.768,0-1.224-.348-1.224-.888,0-.468.276-.852,1.3-.852H57.9V-2A1.633,1.633,0,0,1,56.28-1.008Zm9.48-5.4-2.028,4.74-2.016-4.74h-1.56l2.8,6.432-.108.252c-.288.636-.6.888-1.128.888a1.625,1.625,0,0,1-1.1-.444l-.6,1.1a2.652,2.652,0,0,0,1.716.588A2.485,2.485,0,0,0,64.2.516l3-6.924ZM70.032.084c1.8,0,2.9-.78,2.9-1.98,0-2.508-3.96-1.356-3.96-2.652,0-.42.432-.72,1.344-.72a3.508,3.508,0,0,1,1.836.48l.576-1.14a5.1,5.1,0,0,0-2.4-.552c-1.728,0-2.82.792-2.82,2,0,2.556,3.96,1.4,3.96,2.628,0,.444-.4.708-1.344.708A4.312,4.312,0,0,1,67.9-1.776L67.32-.636A5.091,5.091,0,0,0,70.032.084Z" transform="translate(470.376 275)" fill="#1e1e1e"/>
      <path id="Path_13" data-name="Path 13" d="M2.688-1.308V-3.624H6.744V-4.908H2.688V-7.092H7.26V-8.4H1.128V0h6.3V-1.308ZM18.36,0l-.012-8.4H17.064L13.788-2.832,10.452-8.4H9.168V0h1.488V-5.5L13.416-.96h.7l2.76-4.608L16.884,0Zm5.724-8.4H20.628V0h1.56V-2.424h1.9c2.208,0,3.576-1.14,3.576-2.988S26.292-8.4,24.084-8.4Zm-.072,4.656H22.188V-7.08h1.824c1.368,0,2.076.612,2.076,1.668S25.38-3.744,24.012-3.744ZM36.576.12A4.294,4.294,0,0,0,41.1-4.2a4.294,4.294,0,0,0-4.524-4.32A4.3,4.3,0,0,0,32.052-4.2,4.3,4.3,0,0,0,36.576.12Zm0-1.368A2.863,2.863,0,0,1,33.624-4.2a2.863,2.863,0,0,1,2.952-2.952A2.863,2.863,0,0,1,39.528-4.2,2.863,2.863,0,0,1,36.576-1.248ZM46.248-6.48a2.786,2.786,0,0,0-2.208.9v-.828H42.612V0h1.5V-3.24A1.7,1.7,0,0,1,45.9-5.172c.96,0,1.524.552,1.524,1.692V0h1.5V-3.672A2.5,2.5,0,0,0,46.248-6.48ZM50.832,0h1.5V-8.9h-1.5Zm4.224-7.464a.921.921,0,0,0,.96-.936.893.893,0,0,0-.96-.864.914.914,0,0,0-.96.9A.914.914,0,0,0,55.056-7.464ZM54.3,0h1.5V-6.408H54.3Zm7.1-6.48a2.786,2.786,0,0,0-2.208.9v-.828H57.768V0h1.5V-3.24a1.7,1.7,0,0,1,1.788-1.932c.96,0,1.524.552,1.524,1.692V0h1.5V-3.672A2.5,2.5,0,0,0,61.4-6.48ZM72.072-3.168a3.125,3.125,0,0,0-3.24-3.312A3.187,3.187,0,0,0,65.52-3.2,3.254,3.254,0,0,0,69.06.084,3.248,3.248,0,0,0,71.64-.96l-.8-.924a2.3,2.3,0,0,1-1.74.7A1.939,1.939,0,0,1,67.02-2.724h5.028C72.06-2.868,72.072-3.048,72.072-3.168ZM68.832-5.28a1.744,1.744,0,0,1,1.812,1.56H67.008A1.771,1.771,0,0,1,68.832-5.28Z" transform="translate(470.736 290)" fill="#1e1e1e"/>
    </g>
    <path id="Online_Bidding" data-name="Online Bidding" d="M5.052.12A4.294,4.294,0,0,0,9.576-4.2,4.294,4.294,0,0,0,5.052-8.52,4.3,4.3,0,0,0,.528-4.2,4.3,4.3,0,0,0,5.052.12Zm0-1.368A2.863,2.863,0,0,1,2.1-4.2,2.863,2.863,0,0,1,5.052-7.152,2.863,2.863,0,0,1,8-4.2,2.863,2.863,0,0,1,5.052-1.248ZM14.724-6.48a2.786,2.786,0,0,0-2.208.9v-.828H11.088V0h1.5V-3.24a1.7,1.7,0,0,1,1.788-1.932c.96,0,1.524.552,1.524,1.692V0h1.5V-3.672A2.5,2.5,0,0,0,14.724-6.48ZM19.308,0h1.5V-8.9h-1.5Zm4.224-7.464a.921.921,0,0,0,.96-.936.893.893,0,0,0-.96-.864.914.914,0,0,0-.96.9A.914.914,0,0,0,23.532-7.464ZM22.776,0h1.5V-6.408h-1.5Zm7.1-6.48a2.786,2.786,0,0,0-2.208.9v-.828H26.244V0h1.5V-3.24a1.7,1.7,0,0,1,1.788-1.932c.96,0,1.524.552,1.524,1.692V0h1.5V-3.672A2.5,2.5,0,0,0,29.88-6.48ZM40.548-3.168a3.125,3.125,0,0,0-3.24-3.312A3.187,3.187,0,0,0,34-3.2,3.254,3.254,0,0,0,37.536.084,3.248,3.248,0,0,0,40.116-.96l-.8-.924a2.3,2.3,0,0,1-1.74.7A1.939,1.939,0,0,1,35.5-2.724h5.028C40.536-2.868,40.548-3.048,40.548-3.168ZM37.308-5.28A1.744,1.744,0,0,1,39.12-3.72H35.484A1.771,1.771,0,0,1,37.308-5.28ZM51.4-4.368a2.014,2.014,0,0,0,1.08-1.848c0-1.332-1.08-2.184-3.1-2.184H45.444V0H49.62c2.16,0,3.288-.84,3.288-2.28A2.069,2.069,0,0,0,51.4-4.368ZM49.212-7.176c1.08,0,1.692.384,1.692,1.164S50.292-4.86,49.212-4.86H47V-7.176Zm.312,5.952H47V-3.648h2.52c1.176,0,1.812.372,1.812,1.212S50.7-1.224,49.524-1.224Zm5.664-6.24a.921.921,0,0,0,.96-.936.893.893,0,0,0-.96-.864.914.914,0,0,0-.96.9A.914.914,0,0,0,55.188-7.464ZM54.432,0h1.5V-6.408h-1.5Zm8.244-8.9v3.288a2.624,2.624,0,0,0-2.064-.864A3.109,3.109,0,0,0,57.372-3.2,3.118,3.118,0,0,0,60.612.084a2.642,2.642,0,0,0,2.124-.912V0h1.44V-8.9ZM60.792-1.2a1.873,1.873,0,0,1-1.908-2,1.873,1.873,0,0,1,1.908-2,1.873,1.873,0,0,1,1.908,2A1.873,1.873,0,0,1,60.792-1.2ZM70.92-8.9v3.288a2.624,2.624,0,0,0-2.064-.864A3.109,3.109,0,0,0,65.616-3.2,3.118,3.118,0,0,0,68.856.084,2.642,2.642,0,0,0,70.98-.828V0h1.44V-8.9ZM69.036-1.2a1.873,1.873,0,0,1-1.908-2,1.873,1.873,0,0,1,1.908-2,1.873,1.873,0,0,1,1.908,2A1.873,1.873,0,0,1,69.036-1.2Zm6.108-6.264A.921.921,0,0,0,76.1-8.4a.893.893,0,0,0-.96-.864.914.914,0,0,0-.96.9A.914.914,0,0,0,75.144-7.464ZM74.388,0h1.5V-6.408h-1.5Zm7.1-6.48a2.786,2.786,0,0,0-2.208.9v-.828H77.856V0h1.5V-3.24a1.7,1.7,0,0,1,1.788-1.932c.96,0,1.524.552,1.524,1.692V0h1.5V-3.672A2.5,2.5,0,0,0,81.492-6.48Zm9.576.072v.852a2.774,2.774,0,0,0-2.22-.924A3.042,3.042,0,0,0,85.608-3.4a3.061,3.061,0,0,0,3.24,3.108A2.821,2.821,0,0,0,91-1.14V-.8c0,1.3-.624,1.944-2.04,1.944A3.871,3.871,0,0,1,86.592.372L85.92,1.5a5.093,5.093,0,0,0,3.12.912c2.244,0,3.456-1.056,3.456-3.384V-6.408ZM89.076-1.56A1.817,1.817,0,0,1,87.12-3.4a1.805,1.805,0,0,1,1.956-1.812A1.8,1.8,0,0,1,91.02-3.4,1.813,1.813,0,0,1,89.076-1.56Z" transform="translate(264.26 282)" fill="#1e1e1e"/>
    <path id="Document_Verification" data-name="Document Verification" d="M1.128,0H4.8C7.524,0,9.384-1.68,9.384-4.2S7.524-8.4,4.8-8.4H1.128Zm1.56-1.32V-7.08h2.04A2.8,2.8,0,0,1,7.812-4.2,2.8,2.8,0,0,1,4.728-1.32ZM13.776.084A3.232,3.232,0,0,0,17.2-3.2a3.222,3.222,0,0,0-3.42-3.276A3.226,3.226,0,0,0,10.368-3.2,3.235,3.235,0,0,0,13.776.084Zm0-1.284a1.864,1.864,0,0,1-1.9-2,1.864,1.864,0,0,1,1.9-2,1.866,1.866,0,0,1,1.908,2A1.866,1.866,0,0,1,13.776-1.2Zm7.8,1.284a2.913,2.913,0,0,0,2.736-1.5L23.16-2.088a1.813,1.813,0,0,1-1.6.888,1.874,1.874,0,0,1-1.944-2,1.881,1.881,0,0,1,1.944-2,1.813,1.813,0,0,1,1.6.888l1.152-.672A2.884,2.884,0,0,0,21.576-6.48,3.242,3.242,0,0,0,18.108-3.2,3.252,3.252,0,0,0,21.576.084Zm8.736-6.492v3.24A1.688,1.688,0,0,1,28.56-1.236c-.948,0-1.5-.552-1.5-1.716V-6.408h-1.5v3.66A2.535,2.535,0,0,0,28.32.084a2.618,2.618,0,0,0,2.064-.9V0h1.428V-6.408ZM41.868-6.48a2.991,2.991,0,0,0-2.4,1.068,2.4,2.4,0,0,0-2.16-1.068,2.654,2.654,0,0,0-2.1.888v-.816H33.78V0h1.5V-3.252c0-1.272.672-1.92,1.668-1.92.912,0,1.44.552,1.44,1.692V0h1.5V-3.252c0-1.272.684-1.92,1.668-1.92.912,0,1.44.552,1.44,1.692V0h1.5V-3.672C44.5-5.6,43.416-6.48,41.868-6.48ZM52.5-3.168A3.125,3.125,0,0,0,49.26-6.48,3.187,3.187,0,0,0,45.948-3.2,3.254,3.254,0,0,0,49.488.084,3.248,3.248,0,0,0,52.068-.96l-.8-.924a2.3,2.3,0,0,1-1.74.7,1.939,1.939,0,0,1-2.076-1.536h5.028C52.488-2.868,52.5-3.048,52.5-3.168ZM49.26-5.28a1.744,1.744,0,0,1,1.812,1.56H47.436A1.771,1.771,0,0,1,49.26-5.28Zm8.316-1.2a2.786,2.786,0,0,0-2.208.9v-.828H53.94V0h1.5V-3.24a1.7,1.7,0,0,1,1.788-1.932c.96,0,1.524.552,1.524,1.692V0h1.5V-3.672A2.5,2.5,0,0,0,57.576-6.48Zm8.016,5.064a1.349,1.349,0,0,1-.84.264c-.576,0-.888-.336-.888-.96V-5.16H65.58v-1.2H63.864V-7.824h-1.5V-6.36H61.308v1.2h1.056v3.084A1.969,1.969,0,0,0,64.572.084a2.357,2.357,0,0,0,1.44-.432ZM76.824-8.4,74-1.92l-2.8-6.48H69.516L73.188,0h1.536l3.66-8.4Zm7.848,5.232a3.125,3.125,0,0,0-3.24-3.312A3.187,3.187,0,0,0,78.12-3.2,3.254,3.254,0,0,0,81.66.084,3.248,3.248,0,0,0,84.24-.96l-.8-.924a2.3,2.3,0,0,1-1.74.7A1.939,1.939,0,0,1,79.62-2.724h5.028C84.66-2.868,84.672-3.048,84.672-3.168ZM81.432-5.28a1.744,1.744,0,0,1,1.812,1.56H79.608A1.771,1.771,0,0,1,81.432-5.28Zm6.108-.192v-.936H86.112V0h1.5V-3.108a1.747,1.747,0,0,1,1.86-1.98,1.9,1.9,0,0,1,.348.036V-6.48A2.522,2.522,0,0,0,87.54-5.472Zm4.308-1.992a.921.921,0,0,0,.96-.936.893.893,0,0,0-.96-.864.914.914,0,0,0-.96.9A.914.914,0,0,0,91.848-7.464ZM91.092,0h1.5V-6.408h-1.5ZM100.7-7.464a.921.921,0,0,0,.96-.936.893.893,0,0,0-.96-.864.914.914,0,0,0-.96.9A.914.914,0,0,0,100.7-7.464Zm-5.94.7v.408H93.708v1.2h1.056V0h1.5V-5.16H97.98v-1.2H96.216v-.384c0-.684.324-1.032.948-1.032a1.477,1.477,0,0,1,.828.264l.42-1.128a2.4,2.4,0,0,0-1.356-.348A2.07,2.07,0,0,0,94.764-6.768ZM99.948,0h1.5V-6.408h-1.5Zm6.408.084a2.913,2.913,0,0,0,2.736-1.5l-1.152-.672a1.813,1.813,0,0,1-1.6.888,1.874,1.874,0,0,1-1.944-2,1.881,1.881,0,0,1,1.944-2,1.813,1.813,0,0,1,1.6.888l1.152-.672a2.884,2.884,0,0,0-2.736-1.488A3.242,3.242,0,0,0,102.888-3.2,3.252,3.252,0,0,0,106.356.084Zm6.48-6.564a4.506,4.506,0,0,0-2.712.792l.588,1.092a3.172,3.172,0,0,1,1.944-.636c1.068,0,1.6.516,1.6,1.392v.1H112.6c-1.944,0-2.664.84-2.664,1.908,0,1.116.924,1.92,2.388,1.92a2.271,2.271,0,0,0,2.016-.864V0h1.416V-3.756C115.752-5.6,114.684-6.48,112.836-6.48Zm-.2,5.472c-.768,0-1.224-.348-1.224-.888,0-.468.276-.852,1.3-.852h1.548V-2A1.633,1.633,0,0,1,112.632-1.008Zm8.472-.408a1.349,1.349,0,0,1-.84.264c-.576,0-.888-.336-.888-.96V-5.16h1.716v-1.2h-1.716V-7.824h-1.5V-6.36H116.82v1.2h1.056v3.084a1.969,1.969,0,0,0,2.208,2.16,2.357,2.357,0,0,0,1.44-.432Zm2.412-6.048a.921.921,0,0,0,.96-.936.893.893,0,0,0-.96-.864.914.914,0,0,0-.96.9A.914.914,0,0,0,123.516-7.464ZM122.76,0h1.5V-6.408h-1.5Zm6.348.084a3.232,3.232,0,0,0,3.42-3.288,3.222,3.222,0,0,0-3.42-3.276A3.226,3.226,0,0,0,125.7-3.2,3.235,3.235,0,0,0,129.108.084Zm0-1.284a1.864,1.864,0,0,1-1.9-2,1.864,1.864,0,0,1,1.9-2,1.866,1.866,0,0,1,1.908,2A1.866,1.866,0,0,1,129.108-1.2Zm8.5-5.28a2.786,2.786,0,0,0-2.208.9v-.828h-1.428V0h1.5V-3.24a1.7,1.7,0,0,1,1.788-1.932c.96,0,1.524.552,1.524,1.692V0h1.5V-3.672A2.5,2.5,0,0,0,137.6-6.48Z" transform="translate(632.398 282)" fill="#1e1e1e"/>
    <path id="Plot_Registration" data-name="Plot Registration" d="M4.584-8.4H1.128V0h1.56V-2.424h1.9c2.208,0,3.576-1.14,3.576-2.988S6.792-8.4,4.584-8.4ZM4.512-3.744H2.688V-7.08H4.512c1.368,0,2.076.612,2.076,1.668S5.88-3.744,4.512-3.744ZM9.7,0h1.5V-8.9H9.7Zm6.348.084A3.232,3.232,0,0,0,19.464-3.2a3.222,3.222,0,0,0-3.42-3.276A3.226,3.226,0,0,0,12.636-3.2,3.235,3.235,0,0,0,16.044.084Zm0-1.284a1.864,1.864,0,0,1-1.9-2,1.864,1.864,0,0,1,1.9-2,1.866,1.866,0,0,1,1.908,2A1.866,1.866,0,0,1,16.044-1.2Zm8.292-.216a1.349,1.349,0,0,1-.84.264c-.576,0-.888-.336-.888-.96V-5.16h1.716v-1.2H22.608V-7.824h-1.5V-6.36H20.052v1.2h1.056v3.084A1.969,1.969,0,0,0,23.316.084a2.357,2.357,0,0,0,1.44-.432ZM36.624,0,34.692-2.76A2.685,2.685,0,0,0,36.48-5.412c0-1.86-1.368-2.988-3.576-2.988H29.448V0h1.56V-2.448h1.9a2.924,2.924,0,0,0,.324-.012L34.944,0ZM34.908-5.412c0,1.056-.708,1.68-2.076,1.68H31.008V-7.08h1.824C34.2-7.08,34.908-6.468,34.908-5.412ZM44.1-3.168A3.125,3.125,0,0,0,40.86-6.48,3.187,3.187,0,0,0,37.548-3.2,3.254,3.254,0,0,0,41.088.084,3.248,3.248,0,0,0,43.668-.96l-.8-.924a2.3,2.3,0,0,1-1.74.7,1.939,1.939,0,0,1-2.076-1.536h5.028C44.088-2.868,44.1-3.048,44.1-3.168ZM40.86-5.28a1.744,1.744,0,0,1,1.812,1.56H39.036A1.771,1.771,0,0,1,40.86-5.28Zm9.612-1.128v.852a2.774,2.774,0,0,0-2.22-.924A3.042,3.042,0,0,0,45.012-3.4a3.061,3.061,0,0,0,3.24,3.108A2.821,2.821,0,0,0,50.4-1.14V-.8c0,1.3-.624,1.944-2.04,1.944A3.871,3.871,0,0,1,46,.372L45.324,1.5a5.093,5.093,0,0,0,3.12.912c2.244,0,3.456-1.056,3.456-3.384V-6.408ZM48.48-1.56A1.817,1.817,0,0,1,46.524-3.4,1.805,1.805,0,0,1,48.48-5.208,1.8,1.8,0,0,1,50.424-3.4,1.813,1.813,0,0,1,48.48-1.56Zm6.144-5.9a.921.921,0,0,0,.96-.936.893.893,0,0,0-.96-.864.914.914,0,0,0-.96.9A.914.914,0,0,0,54.624-7.464ZM53.868,0h1.5V-6.408h-1.5Zm5.448.084c1.8,0,2.9-.78,2.9-1.98,0-2.508-3.96-1.356-3.96-2.652,0-.42.432-.72,1.344-.72a3.508,3.508,0,0,1,1.836.48l.576-1.14a5.1,5.1,0,0,0-2.4-.552c-1.728,0-2.82.792-2.82,2,0,2.556,3.96,1.4,3.96,2.628,0,.444-.4.708-1.344.708a4.312,4.312,0,0,1-2.232-.636L56.6-.636A5.091,5.091,0,0,0,59.316.084Zm7.632-1.5a1.349,1.349,0,0,1-.84.264c-.576,0-.888-.336-.888-.96V-5.16h1.716v-1.2H65.22V-7.824h-1.5V-6.36H62.664v1.2H63.72v3.084A1.969,1.969,0,0,0,65.928.084a2.357,2.357,0,0,0,1.44-.432Zm3.084-4.056v-.936H68.6V0h1.5V-3.108a1.747,1.747,0,0,1,1.86-1.98,1.9,1.9,0,0,1,.348.036V-6.48A2.522,2.522,0,0,0,70.032-5.472ZM76-6.48a4.506,4.506,0,0,0-2.712.792L73.872-4.6a3.172,3.172,0,0,1,1.944-.636c1.068,0,1.6.516,1.6,1.392v.1H75.756c-1.944,0-2.664.84-2.664,1.908,0,1.116.924,1.92,2.388,1.92A2.271,2.271,0,0,0,77.5-.78V0h1.416V-3.756C78.912-5.6,77.844-6.48,76-6.48Zm-.2,5.472c-.768,0-1.224-.348-1.224-.888,0-.468.276-.852,1.3-.852h1.548V-2A1.633,1.633,0,0,1,75.792-1.008Zm8.472-.408a1.349,1.349,0,0,1-.84.264c-.576,0-.888-.336-.888-.96V-5.16h1.716v-1.2H82.536V-7.824h-1.5V-6.36H79.98v1.2h1.056v3.084A1.969,1.969,0,0,0,83.244.084a2.357,2.357,0,0,0,1.44-.432Zm2.412-6.048a.921.921,0,0,0,.96-.936.893.893,0,0,0-.96-.864.914.914,0,0,0-.96.9A.914.914,0,0,0,86.676-7.464ZM85.92,0h1.5V-6.408h-1.5Zm6.348.084A3.232,3.232,0,0,0,95.688-3.2a3.222,3.222,0,0,0-3.42-3.276A3.226,3.226,0,0,0,88.86-3.2,3.235,3.235,0,0,0,92.268.084Zm0-1.284a1.864,1.864,0,0,1-1.9-2,1.864,1.864,0,0,1,1.9-2,1.866,1.866,0,0,1,1.908,2A1.866,1.866,0,0,1,92.268-1.2Zm8.5-5.28a2.786,2.786,0,0,0-2.208.9v-.828H97.128V0h1.5V-3.24a1.7,1.7,0,0,1,1.788-1.932c.96,0,1.524.552,1.524,1.692V0h1.5V-3.672A2.5,2.5,0,0,0,100.764-6.48Z" transform="translate(454.818 90)" fill="#1e1e1e"/>
    <path id="Publish_Tenders" data-name="Publish Tenders" d="M4.584-8.4H1.128V0h1.56V-2.424h1.9c2.208,0,3.576-1.14,3.576-2.988S6.792-8.4,4.584-8.4ZM4.512-3.744H2.688V-7.08H4.512c1.368,0,2.076.612,2.076,1.668S5.88-3.744,4.512-3.744ZM14.4-6.408v3.24a1.688,1.688,0,0,1-1.752,1.932c-.948,0-1.5-.552-1.5-1.716V-6.408h-1.5v3.66A2.535,2.535,0,0,0,12.408.084a2.618,2.618,0,0,0,2.064-.9V0H15.9V-6.408Zm7.02-.072a2.664,2.664,0,0,0-2.052.852V-8.9h-1.5V0H19.3V-.828A2.642,2.642,0,0,0,21.42.084,3.121,3.121,0,0,0,24.672-3.2,3.112,3.112,0,0,0,21.42-6.48ZM21.252-1.2a1.873,1.873,0,0,1-1.908-2,1.873,1.873,0,0,1,1.908-2,1.864,1.864,0,0,1,1.9,2A1.864,1.864,0,0,1,21.252-1.2ZM26.1,0h1.5V-8.9H26.1Zm4.224-7.464a.921.921,0,0,0,.96-.936.893.893,0,0,0-.96-.864.914.914,0,0,0-.96.9A.914.914,0,0,0,30.324-7.464ZM29.568,0h1.5V-6.408h-1.5Zm5.448.084c1.8,0,2.9-.78,2.9-1.98,0-2.508-3.96-1.356-3.96-2.652,0-.42.432-.72,1.344-.72a3.508,3.508,0,0,1,1.836.48l.576-1.14a5.1,5.1,0,0,0-2.4-.552c-1.728,0-2.82.792-2.82,2,0,2.556,3.96,1.4,3.96,2.628,0,.444-.4.708-1.344.708a4.312,4.312,0,0,1-2.232-.636L32.3-.636A5.091,5.091,0,0,0,35.016.084ZM42.852-6.48a2.857,2.857,0,0,0-2.136.816V-8.9h-1.5V0h1.5V-3.24A1.7,1.7,0,0,1,42.5-5.172c.96,0,1.524.552,1.524,1.692V0h1.5V-3.672A2.5,2.5,0,0,0,42.852-6.48ZM52.6,0h1.56V-7.08H56.94V-8.4H49.812v1.32H52.6Zm10.74-3.168A3.125,3.125,0,0,0,60.1-6.48,3.187,3.187,0,0,0,56.784-3.2,3.254,3.254,0,0,0,60.324.084,3.248,3.248,0,0,0,62.9-.96l-.8-.924a2.3,2.3,0,0,1-1.74.7,1.939,1.939,0,0,1-2.076-1.536h5.028C63.324-2.868,63.336-3.048,63.336-3.168ZM60.1-5.28a1.744,1.744,0,0,1,1.812,1.56H58.272A1.771,1.771,0,0,1,60.1-5.28Zm8.316-1.2a2.786,2.786,0,0,0-2.208.9v-.828H64.776V0h1.5V-3.24a1.7,1.7,0,0,1,1.788-1.932c.96,0,1.524.552,1.524,1.692V0h1.5V-3.672A2.5,2.5,0,0,0,68.412-6.48ZM77.832-8.9v3.288a2.624,2.624,0,0,0-2.064-.864A3.109,3.109,0,0,0,72.528-3.2,3.118,3.118,0,0,0,75.768.084a2.642,2.642,0,0,0,2.124-.912V0h1.44V-8.9ZM75.948-1.2a1.873,1.873,0,0,1-1.908-2,1.873,1.873,0,0,1,1.908-2,1.873,1.873,0,0,1,1.908,2A1.873,1.873,0,0,1,75.948-1.2ZM87.324-3.168a3.125,3.125,0,0,0-3.24-3.312A3.187,3.187,0,0,0,80.772-3.2,3.254,3.254,0,0,0,84.312.084,3.248,3.248,0,0,0,86.892-.96l-.8-.924a2.3,2.3,0,0,1-1.74.7,1.939,1.939,0,0,1-2.076-1.536H87.3C87.312-2.868,87.324-3.048,87.324-3.168ZM84.084-5.28A1.744,1.744,0,0,1,85.9-3.72H82.26A1.771,1.771,0,0,1,84.084-5.28Zm6.108-.192v-.936H88.764V0h1.5V-3.108a1.747,1.747,0,0,1,1.86-1.98,1.9,1.9,0,0,1,.348.036V-6.48A2.522,2.522,0,0,0,90.192-5.472ZM95.748.084c1.8,0,2.9-.78,2.9-1.98,0-2.508-3.96-1.356-3.96-2.652,0-.42.432-.72,1.344-.72a3.508,3.508,0,0,1,1.836.48l.576-1.14a5.1,5.1,0,0,0-2.4-.552c-1.728,0-2.82.792-2.82,2,0,2.556,3.96,1.4,3.96,2.628,0,.444-.4.708-1.344.708a4.312,4.312,0,0,1-2.232-.636l-.576,1.14A5.091,5.091,0,0,0,95.748.084Z" transform="translate(653.518 90)" fill="#1e1e1e"/>
    <g id="Group-7" data-name="Group">
      <path id="Path_14" data-name="Path 14" d="M4.584-8.4H1.128V0h1.56V-2.424h1.9c2.208,0,3.576-1.14,3.576-2.988S6.792-8.4,4.584-8.4ZM4.512-3.744H2.688V-7.08H4.512c1.368,0,2.076.612,2.076,1.668S5.88-3.744,4.512-3.744ZM9.7,0h1.5V-8.9H9.7Zm6.348.084A3.232,3.232,0,0,0,19.464-3.2a3.222,3.222,0,0,0-3.42-3.276A3.226,3.226,0,0,0,12.636-3.2,3.235,3.235,0,0,0,16.044.084Zm0-1.284a1.864,1.864,0,0,1-1.9-2,1.864,1.864,0,0,1,1.9-2,1.866,1.866,0,0,1,1.908,2A1.866,1.866,0,0,1,16.044-1.2Zm8.292-.216a1.349,1.349,0,0,1-.84.264c-.576,0-.888-.336-.888-.96V-5.16h1.716v-1.2H22.608V-7.824h-1.5V-6.36H20.052v1.2h1.056v3.084A1.969,1.969,0,0,0,23.316.084a2.357,2.357,0,0,0,1.44-.432ZM31.752-6.48a4.506,4.506,0,0,0-2.712.792L29.628-4.6a3.172,3.172,0,0,1,1.944-.636c1.068,0,1.6.516,1.6,1.392v.1H31.512c-1.944,0-2.664.84-2.664,1.908,0,1.116.924,1.92,2.388,1.92A2.271,2.271,0,0,0,33.252-.78V0h1.416V-3.756C34.668-5.6,33.6-6.48,31.752-6.48Zm-.2,5.472c-.768,0-1.224-.348-1.224-.888,0-.468.276-.852,1.3-.852h1.548V-2A1.633,1.633,0,0,1,31.548-1.008ZM36.588,0h1.5V-8.9h-1.5Zm3.468,0h1.5V-8.9h-1.5ZM46.4.084A3.232,3.232,0,0,0,49.824-3.2,3.222,3.222,0,0,0,46.4-6.48,3.226,3.226,0,0,0,43-3.2,3.235,3.235,0,0,0,46.4.084Zm0-1.284a1.864,1.864,0,0,1-1.9-2,1.864,1.864,0,0,1,1.9-2,1.866,1.866,0,0,1,1.908,2A1.866,1.866,0,0,1,46.4-1.2ZM54.7-1.416a1.349,1.349,0,0,1-.84.264c-.576,0-.888-.336-.888-.96V-5.16h1.716v-1.2H52.968V-7.824h-1.5V-6.36H50.412v1.2h1.056v3.084A1.969,1.969,0,0,0,53.676.084a2.357,2.357,0,0,0,1.44-.432ZM64.44-6.48a2.991,2.991,0,0,0-2.4,1.068A2.4,2.4,0,0,0,59.88-6.48a2.654,2.654,0,0,0-2.1.888v-.816H56.352V0h1.5V-3.252c0-1.272.672-1.92,1.668-1.92.912,0,1.44.552,1.44,1.692V0h1.5V-3.252c0-1.272.684-1.92,1.668-1.92.912,0,1.44.552,1.44,1.692V0h1.5V-3.672C67.068-5.6,65.988-6.48,64.44-6.48ZM75.072-3.168a3.125,3.125,0,0,0-3.24-3.312A3.187,3.187,0,0,0,68.52-3.2,3.254,3.254,0,0,0,72.06.084,3.248,3.248,0,0,0,74.64-.96l-.8-.924a2.3,2.3,0,0,1-1.74.7A1.939,1.939,0,0,1,70.02-2.724h5.028C75.06-2.868,75.072-3.048,75.072-3.168ZM71.832-5.28a1.744,1.744,0,0,1,1.812,1.56H70.008A1.771,1.771,0,0,1,71.832-5.28Zm8.316-1.2a2.786,2.786,0,0,0-2.208.9v-.828H76.512V0h1.5V-3.24A1.7,1.7,0,0,1,79.8-5.172c.96,0,1.524.552,1.524,1.692V0h1.5V-3.672A2.5,2.5,0,0,0,80.148-6.48Zm8.016,5.064a1.349,1.349,0,0,1-.84.264c-.576,0-.888-.336-.888-.96V-5.16h1.716v-1.2H86.436V-7.824h-1.5V-6.36H83.88v1.2h1.056v3.084A1.969,1.969,0,0,0,87.144.084a2.357,2.357,0,0,0,1.44-.432Z" transform="translate(70.582 275)" fill="#1e1e1e"/>
      <path id="Path_15" data-name="Path 15" d="M4.416-1.416a1.349,1.349,0,0,1-.84.264c-.576,0-.888-.336-.888-.96V-5.16H4.4v-1.2H2.688V-7.824h-1.5V-6.36H.132v1.2H1.188v3.084A1.969,1.969,0,0,0,3.4.084a2.357,2.357,0,0,0,1.44-.432Zm4.32,1.5A3.232,3.232,0,0,0,12.156-3.2,3.222,3.222,0,0,0,8.736-6.48,3.226,3.226,0,0,0,5.328-3.2,3.235,3.235,0,0,0,8.736.084Zm0-1.284a1.864,1.864,0,0,1-1.9-2,1.864,1.864,0,0,1,1.9-2,1.866,1.866,0,0,1,1.908,2A1.866,1.866,0,0,1,8.736-1.2Zm19.1-7.2L25.692-1.98,23.568-8.4h-1.44L19.956-2.016,17.868-8.4h-1.62L19.032,0H20.7l2.112-6.216L24.888,0h1.656l2.784-8.4Zm3.432.936a.921.921,0,0,0,.96-.936.893.893,0,0,0-.96-.864.914.914,0,0,0-.96.9A.914.914,0,0,0,31.272-7.464ZM30.516,0h1.5V-6.408h-1.5Zm7.1-6.48a2.786,2.786,0,0,0-2.208.9v-.828H33.984V0h1.5V-3.24a1.7,1.7,0,0,1,1.788-1.932c.96,0,1.524.552,1.524,1.692V0h1.5V-3.672A2.5,2.5,0,0,0,37.62-6.48Zm8.22,0a2.786,2.786,0,0,0-2.208.9v-.828H42.2V0h1.5V-3.24a1.7,1.7,0,0,1,1.788-1.932c.96,0,1.524.552,1.524,1.692V0h1.5V-3.672A2.5,2.5,0,0,0,45.84-6.48ZM56.508-3.168a3.125,3.125,0,0,0-3.24-3.312A3.187,3.187,0,0,0,49.956-3.2,3.254,3.254,0,0,0,53.5.084,3.248,3.248,0,0,0,56.076-.96l-.8-.924a2.3,2.3,0,0,1-1.74.7,1.939,1.939,0,0,1-2.076-1.536h5.028C56.5-2.868,56.508-3.048,56.508-3.168ZM53.268-5.28A1.744,1.744,0,0,1,55.08-3.72H51.444A1.771,1.771,0,0,1,53.268-5.28Zm6.108-.192v-.936H57.948V0h1.5V-3.108a1.747,1.747,0,0,1,1.86-1.98,1.9,1.9,0,0,1,.348.036V-6.48A2.522,2.522,0,0,0,59.376-5.472Z" transform="translate(83.998 290)" fill="#1e1e1e"/>
    </g>
    <g id="Group_10825" data-name="Group 10825" transform="translate(0 -110)">
      <line id="Line_296" data-name="Line 296" x2="35" transform="translate(195.5 195.5)" fill="none" stroke="#707070" stroke-width="1"/>
      <path id="Path_13721" data-name="Path 13721" d="M-8625.25,16610.5l3.891,3.152-3.891,2.785" transform="translate(8851 -16418.008)" fill="none" stroke="#707070" stroke-width="1"/>
    </g>
    <g id="Group_10833" data-name="Group 10833" transform="translate(196 -110)">
      <line id="Line_296-2" data-name="Line 296" x2="35" transform="translate(195.5 195.5)" fill="none" stroke="#707070" stroke-width="1"/>
      <path id="Path_13721-2" data-name="Path 13721" d="M-8625.25,16610.5l3.891,3.152-3.891,2.785" transform="translate(8851 -16418.008)" fill="none" stroke="#707070" stroke-width="1"/>
    </g>
    <g id="Group_10834" data-name="Group 10834" transform="translate(392 -110)">
      <line id="Line_296-3" data-name="Line 296" x2="35" transform="translate(195.5 195.5)" fill="none" stroke="#707070" stroke-width="1"/>
      <path id="Path_13721-3" data-name="Path 13721" d="M-8625.25,16610.5l3.891,3.152-3.891,2.785" transform="translate(8851 -16418.008)" fill="none" stroke="#707070" stroke-width="1"/>
    </g>
    <g id="Group_10835" data-name="Group 10835" transform="translate(588 -110)">
      <line id="Line_296-4" data-name="Line 296" x2="35" transform="translate(195.5 195.5)" fill="none" stroke="#707070" stroke-width="1"/>
      <path id="Path_13721-4" data-name="Path 13721" d="M-8625.25,16610.5l3.891,3.152-3.891,2.785" transform="translate(8851 -16418.008)" fill="none" stroke="#707070" stroke-width="1"/>
    </g>
    <g id="Group_10836" data-name="Group 10836" transform="translate(783.5 275)">
      <line id="Line_296-5" data-name="Line 296" x1="35" transform="translate(0 3)" fill="none" stroke="#707070" stroke-width="1"/>
      <path id="Path_13721-5" data-name="Path 13721" d="M-8621.35,16610.5l-3.891,3.152,3.891,2.785" transform="translate(8626.1 -16610.508)" fill="none" stroke="#707070" stroke-width="1"/>
    </g>
    <g id="Group_10837" data-name="Group 10837" transform="translate(587.5 275)">
      <line id="Line_296-6" data-name="Line 296" x1="35" transform="translate(0 3)" fill="none" stroke="#707070" stroke-width="1"/>
      <path id="Path_13721-6" data-name="Path 13721" d="M-8621.35,16610.5l-3.891,3.152,3.891,2.785" transform="translate(8626.1 -16610.508)" fill="none" stroke="#707070" stroke-width="1"/>
    </g>
    <g id="Group_10838" data-name="Group 10838" transform="translate(391.5 275)">
      <line id="Line_296-7" data-name="Line 296" x1="35" transform="translate(0 3)" fill="none" stroke="#707070" stroke-width="1"/>
      <path id="Path_13721-7" data-name="Path 13721" d="M-8621.35,16610.5l-3.891,3.152,3.891,2.785" transform="translate(8626.1 -16610.508)" fill="none" stroke="#707070" stroke-width="1"/>
    </g>
    <g id="Group_10839" data-name="Group 10839" transform="translate(195.5 275)">
      <line id="Line_296-8" data-name="Line 296" x1="35" transform="translate(0 3)" fill="none" stroke="#707070" stroke-width="1"/>
      <path id="Path_13721-8" data-name="Path 13721" d="M-8621.35,16610.5l-3.891,3.152,3.891,2.785" transform="translate(8626.1 -16610.508)" fill="none" stroke="#707070" stroke-width="1"/>
    </g>
    <path id="Path_13725" data-name="Path 13725" d="M-9.548,0H27" transform="translate(989.5 85.5)" fill="none" stroke="#707070" stroke-width="1"/>
    <line id="Line_301" data-name="Line 301" x2="133" transform="translate(883.5 181.5)" fill="none" stroke="#707070" stroke-width="1"/>
    <line id="Line_300" data-name="Line 300" x2="35" transform="translate(981.5 277.5)" fill="none" stroke="#707070" stroke-width="1"/>
    <path id="Path_13721-9" data-name="Path 13721" d="M-8621.35,16610.5l-3.891,3.152,3.891,2.785" transform="translate(9508 -16432)" fill="none" stroke="#707070" stroke-width="1"/>
    <path id="Path_13724" data-name="Path 13724" d="M-8621.35,16610.5l-3.891,3.152,3.891,2.785" transform="translate(9606 -16336)" fill="none" stroke="#707070" stroke-width="1"/>
    <line id="Line_299" data-name="Line 299" y2="192" transform="translate(1016.5 85.5)" fill="none" stroke="#707070" stroke-width="1"/>
  </g>
</svg>
