<svg xmlns="http://www.w3.org/2000/svg" width="977.67" height="349" viewBox="0 0 977.67 349">
  <g id="e-TP_Flow" data-name="e-TP Flow" transform="translate(-34 -466)">
    <g id="Rectangle_2002" data-name="Rectangle 2002" transform="translate(230 562)" fill="#fff" stroke="#707070" stroke-width="1">
      <rect width="162" height="63" rx="5" stroke="none"/>
      <rect x="0.5" y="0.5" width="161" height="62" rx="4.5" fill="none"/>
    </g>
    <g id="Rectangle_2007" data-name="Rectangle 2007" transform="translate(230 752)" fill="#fff" stroke="#707070" stroke-width="1">
      <rect width="162" height="63" rx="5" stroke="none"/>
      <rect x="0.5" y="0.5" width="161" height="62" rx="4.5" fill="none"/>
    </g>
    <g id="Rectangle_2003" data-name="Rectangle 2003" transform="translate(426 562)" fill="#fff" stroke="#707070" stroke-width="1">
      <rect width="162" height="63" rx="5" stroke="none"/>
      <rect x="0.5" y="0.5" width="161" height="62" rx="4.5" fill="none"/>
    </g>
    <g id="Rectangle_2006" data-name="Rectangle 2006" transform="translate(426 752)" fill="#fff" stroke="#707070" stroke-width="1">
      <rect width="162" height="63" rx="31.5" stroke="none"/>
      <rect x="0.5" y="0.5" width="161" height="62" rx="31" fill="none"/>
    </g>
    <g id="Rectangle_2004" data-name="Rectangle 2004" transform="translate(622 562)" fill="#fff" stroke="#707070" stroke-width="1">
      <rect width="162" height="63" rx="5" stroke="none"/>
      <rect x="0.5" y="0.5" width="161" height="62" rx="4.5" fill="none"/>
    </g>
    <g id="Rectangle_2005" data-name="Rectangle 2005" transform="translate(622 752)" fill="#fff" stroke="#707070" stroke-width="1">
      <rect width="162" height="63" rx="5" stroke="none"/>
      <rect x="0.5" y="0.5" width="161" height="62" rx="4.5" fill="none"/>
    </g>
    <g id="Rectangle_1995" data-name="Rectangle 1995" transform="translate(426 466)" fill="#fff" stroke="#707070" stroke-width="1">
      <rect width="162" height="63" rx="5" stroke="none"/>
      <rect x="0.5" y="0.5" width="161" height="62" rx="4.5" fill="none"/>
    </g>
    <g id="Rectangle_1996" data-name="Rectangle 1996" transform="translate(426 658)" fill="#fff" stroke="#707070" stroke-width="1">
      <rect width="162" height="63" rx="5" stroke="none"/>
      <rect x="0.5" y="0.5" width="161" height="62" rx="4.5" fill="none"/>
    </g>
    <g id="Rectangle_1999" data-name="Rectangle 1999" transform="translate(34 562)" fill="#fff" stroke="#707070" stroke-width="1">
      <rect width="162" height="63" rx="5" stroke="none"/>
      <rect x="0.5" y="0.5" width="161" height="62" rx="4.5" fill="none"/>
    </g>
    <g id="Group">
      <path id="Path_19" data-name="Path 19" d="M3.732.12c2.3,0,3.4-1.152,3.4-2.5,0-3.084-4.98-1.92-4.98-3.708,0-.636.528-1.14,1.824-1.14a4.668,4.668,0,0,1,2.316.66L6.78-7.776a5.311,5.311,0,0,0-2.8-.744C1.68-8.52.6-7.368.6-6.012c0,3.12,4.992,1.932,4.992,3.744,0,.624-.552,1.092-1.86,1.092A4.654,4.654,0,0,1,.96-2.1L.42-.888A5.412,5.412,0,0,0,3.732.12Zm9.5-6.528v3.24a1.688,1.688,0,0,1-1.752,1.932c-.948,0-1.5-.552-1.5-1.716V-6.408h-1.5v3.66A2.535,2.535,0,0,0,11.244.084a2.618,2.618,0,0,0,2.064-.9V0h1.428V-6.408Zm7.02-.072a2.642,2.642,0,0,0-2.124.912v-.84H16.7V2.328h1.5V-.78a2.633,2.633,0,0,0,2.052.864A3.121,3.121,0,0,0,23.508-3.2,3.118,3.118,0,0,0,20.256-6.48ZM20.088-1.2a1.873,1.873,0,0,1-1.908-2,1.873,1.873,0,0,1,1.908-2,1.864,1.864,0,0,1,1.9,2A1.864,1.864,0,0,1,20.088-1.2ZM30.96-3.168A3.125,3.125,0,0,0,27.72-6.48,3.187,3.187,0,0,0,24.408-3.2,3.254,3.254,0,0,0,27.948.084,3.248,3.248,0,0,0,30.528-.96l-.8-.924a2.3,2.3,0,0,1-1.74.7,1.939,1.939,0,0,1-2.076-1.536h5.028C30.948-2.868,30.96-3.048,30.96-3.168ZM27.72-5.28a1.744,1.744,0,0,1,1.812,1.56H25.9A1.771,1.771,0,0,1,27.72-5.28Zm6.108-.192v-.936H32.4V0h1.5V-3.108a1.747,1.747,0,0,1,1.86-1.98,1.9,1.9,0,0,1,.348.036V-6.48A2.522,2.522,0,0,0,33.828-5.472Zm8.352-.936L40.128-1.656,38.136-6.408h-1.56L39.324,0h1.548L43.62-6.408Zm3.132-1.056a.921.921,0,0,0,.96-.936.893.893,0,0,0-.96-.864.914.914,0,0,0-.96.9A.914.914,0,0,0,45.312-7.464ZM44.556,0h1.5V-6.408h-1.5ZM50,.084c1.8,0,2.9-.78,2.9-1.98,0-2.508-3.96-1.356-3.96-2.652,0-.42.432-.72,1.344-.72a3.508,3.508,0,0,1,1.836.48l.576-1.14a5.1,5.1,0,0,0-2.4-.552c-1.728,0-2.82.792-2.82,2,0,2.556,3.96,1.4,3.96,2.628,0,.444-.4.708-1.344.708a4.312,4.312,0,0,1-2.232-.636l-.576,1.14A5.091,5.091,0,0,0,50,.084Zm7.08,0A3.232,3.232,0,0,0,60.5-3.2a3.222,3.222,0,0,0-3.42-3.276A3.226,3.226,0,0,0,53.676-3.2,3.235,3.235,0,0,0,57.084.084Zm0-1.284a1.864,1.864,0,0,1-1.9-2,1.864,1.864,0,0,1,1.9-2,1.866,1.866,0,0,1,1.908,2A1.866,1.866,0,0,1,57.084-1.2Zm6.288-4.272v-.936H61.944V0h1.5V-3.108a1.747,1.747,0,0,1,1.86-1.98,1.9,1.9,0,0,1,.348.036V-6.48A2.522,2.522,0,0,0,63.372-5.472ZM73.236.084a2.913,2.913,0,0,0,2.736-1.5L74.82-2.088a1.813,1.813,0,0,1-1.6.888,1.874,1.874,0,0,1-1.944-2,1.881,1.881,0,0,1,1.944-2,1.813,1.813,0,0,1,1.6.888l1.152-.672A2.884,2.884,0,0,0,73.236-6.48,3.242,3.242,0,0,0,69.768-3.2,3.252,3.252,0,0,0,73.236.084Zm6.48-6.564A4.506,4.506,0,0,0,77-5.688L77.592-4.6a3.172,3.172,0,0,1,1.944-.636c1.068,0,1.6.516,1.6,1.392v.1H79.476c-1.944,0-2.664.84-2.664,1.908,0,1.116.924,1.92,2.388,1.92A2.271,2.271,0,0,0,81.216-.78V0h1.416V-3.756C82.632-5.6,81.564-6.48,79.716-6.48Zm-.2,5.472c-.768,0-1.224-.348-1.224-.888,0-.468.276-.852,1.3-.852h1.548V-2A1.633,1.633,0,0,1,79.512-1.008ZM88.188-6.48a2.786,2.786,0,0,0-2.208.9v-.828H84.552V0h1.5V-3.24A1.7,1.7,0,0,1,87.84-5.172c.96,0,1.524.552,1.524,1.692V0h1.5V-3.672A2.5,2.5,0,0,0,88.188-6.48Zm12.828.072v.852A2.774,2.774,0,0,0,98.8-6.48,3.042,3.042,0,0,0,95.556-3.4,3.061,3.061,0,0,0,98.8-.288a2.821,2.821,0,0,0,2.148-.852V-.8c0,1.3-.624,1.944-2.04,1.944A3.871,3.871,0,0,1,96.54.372L95.868,1.5a5.093,5.093,0,0,0,3.12.912c2.244,0,3.456-1.056,3.456-3.384V-6.408ZM99.024-1.56A1.817,1.817,0,0,1,97.068-3.4a1.805,1.805,0,0,1,1.956-1.812A1.8,1.8,0,0,1,100.968-3.4,1.813,1.813,0,0,1,99.024-1.56Zm11.412-1.608A3.125,3.125,0,0,0,107.2-6.48,3.187,3.187,0,0,0,103.884-3.2a3.254,3.254,0,0,0,3.54,3.288A3.248,3.248,0,0,0,110-.96l-.8-.924a2.3,2.3,0,0,1-1.74.7,1.939,1.939,0,0,1-2.076-1.536h5.028C110.424-2.868,110.436-3.048,110.436-3.168ZM107.2-5.28a1.744,1.744,0,0,1,1.812,1.56h-3.636A1.771,1.771,0,0,1,107.2-5.28Zm8.316-1.2a2.786,2.786,0,0,0-2.208.9v-.828h-1.428V0h1.5V-3.24a1.7,1.7,0,0,1,1.788-1.932c.96,0,1.524.552,1.524,1.692V0h1.5V-3.672A2.5,2.5,0,0,0,115.512-6.48ZM126.18-3.168a3.125,3.125,0,0,0-3.24-3.312A3.187,3.187,0,0,0,119.628-3.2a3.254,3.254,0,0,0,3.54,3.288,3.248,3.248,0,0,0,2.58-1.044l-.8-.924a2.3,2.3,0,0,1-1.74.7,1.939,1.939,0,0,1-2.076-1.536h5.028C126.168-2.868,126.18-3.048,126.18-3.168ZM122.94-5.28a1.744,1.744,0,0,1,1.812,1.56h-3.636A1.771,1.771,0,0,1,122.94-5.28Zm6.108-.192v-.936H127.62V0h1.5V-3.108a1.747,1.747,0,0,1,1.86-1.98,1.9,1.9,0,0,1,.348.036V-6.48A2.522,2.522,0,0,0,129.048-5.472Zm5.964-1.008a4.506,4.506,0,0,0-2.712.792l.588,1.092a3.172,3.172,0,0,1,1.944-.636c1.068,0,1.6.516,1.6,1.392v.1h-1.656c-1.944,0-2.664.84-2.664,1.908,0,1.116.924,1.92,2.388,1.92a2.271,2.271,0,0,0,2.016-.864V0h1.416V-3.756C137.928-5.6,136.86-6.48,135.012-6.48Zm-.2,5.472c-.768,0-1.224-.348-1.224-.888,0-.468.276-.852,1.3-.852h1.548V-2A1.633,1.633,0,0,1,134.808-1.008Zm8.472-.408a1.349,1.349,0,0,1-.84.264c-.576,0-.888-.336-.888-.96V-5.16h1.716v-1.2h-1.716V-7.824h-1.5V-6.36H139v1.2h1.056v3.084A1.969,1.969,0,0,0,142.26.084a2.357,2.357,0,0,0,1.44-.432Zm7.464-1.752A3.125,3.125,0,0,0,147.5-6.48,3.187,3.187,0,0,0,144.192-3.2a3.254,3.254,0,0,0,3.54,3.288,3.248,3.248,0,0,0,2.58-1.044l-.8-.924a2.3,2.3,0,0,1-1.74.7,1.939,1.939,0,0,1-2.076-1.536h5.028C150.732-2.868,150.744-3.048,150.744-3.168ZM147.5-5.28a1.744,1.744,0,0,1,1.812,1.56H145.68A1.771,1.771,0,0,1,147.5-5.28Z" transform="translate(235.4 590)" fill="#1e1e1e"/>
      <path id="Path_20" data-name="Path 20" d="M7.008-3.168A3.125,3.125,0,0,0,3.768-6.48,3.187,3.187,0,0,0,.456-3.2,3.254,3.254,0,0,0,4,.084,3.248,3.248,0,0,0,6.576-.96l-.8-.924a2.3,2.3,0,0,1-1.74.7A1.939,1.939,0,0,1,1.956-2.724H6.984C7-2.868,7.008-3.048,7.008-3.168ZM3.768-5.28A1.744,1.744,0,0,1,5.58-3.72H1.944A1.771,1.771,0,0,1,3.768-5.28ZM9.156,0h1.56V-7.08H13.5V-8.4H6.372v1.32H9.156Zm8.976-8.4H14.676V0h1.56V-2.424h1.9c2.208,0,3.576-1.14,3.576-2.988S20.34-8.4,18.132-8.4ZM18.06-3.744H16.236V-7.08H18.06c1.368,0,2.076.612,2.076,1.668S19.428-3.744,18.06-3.744ZM29.988-1.416a1.349,1.349,0,0,1-.84.264c-.576,0-.888-.336-.888-.96V-5.16h1.716v-1.2H28.26V-7.824h-1.5V-6.36H25.7v1.2H26.76v3.084A1.969,1.969,0,0,0,28.968.084a2.357,2.357,0,0,0,1.44-.432ZM35.28-6.48a2.857,2.857,0,0,0-2.136.816V-8.9h-1.5V0h1.5V-3.24a1.7,1.7,0,0,1,1.788-1.932c.96,0,1.524.552,1.524,1.692V0h1.5V-3.672A2.5,2.5,0,0,0,35.28-6.48Zm6.012,1.008v-.936H39.864V0h1.5V-3.108a1.747,1.747,0,0,1,1.86-1.98,1.9,1.9,0,0,1,.348.036V-6.48A2.522,2.522,0,0,0,41.292-5.472ZM47.664.084A3.232,3.232,0,0,0,51.084-3.2a3.222,3.222,0,0,0-3.42-3.276A3.226,3.226,0,0,0,44.256-3.2,3.235,3.235,0,0,0,47.664.084Zm0-1.284a1.864,1.864,0,0,1-1.9-2,1.864,1.864,0,0,1,1.9-2,1.866,1.866,0,0,1,1.908,2A1.866,1.866,0,0,1,47.664-1.2Zm9.564-5.208v3.24a1.688,1.688,0,0,1-1.752,1.932c-.948,0-1.5-.552-1.5-1.716V-6.408h-1.5v3.66A2.535,2.535,0,0,0,55.236.084a2.618,2.618,0,0,0,2.064-.9V0h1.428V-6.408Zm8.4,0v.852a2.774,2.774,0,0,0-2.22-.924A3.042,3.042,0,0,0,60.168-3.4a3.061,3.061,0,0,0,3.24,3.108,2.821,2.821,0,0,0,2.148-.852V-.8c0,1.3-.624,1.944-2.04,1.944A3.871,3.871,0,0,1,61.152.372L60.48,1.5a5.093,5.093,0,0,0,3.12.912c2.244,0,3.456-1.056,3.456-3.384V-6.408ZM63.636-1.56A1.817,1.817,0,0,1,61.68-3.4a1.805,1.805,0,0,1,1.956-1.812A1.8,1.8,0,0,1,65.58-3.4,1.813,1.813,0,0,1,63.636-1.56ZM72.66-6.48a2.857,2.857,0,0,0-2.136.816V-8.9h-1.5V0h1.5V-3.24a1.7,1.7,0,0,1,1.788-1.932c.96,0,1.524.552,1.524,1.692V0h1.5V-3.672A2.5,2.5,0,0,0,72.66-6.48ZM83.676-4.932l2.04-2.424V-8.4H79.992v1.308h3.816L81.9-4.824v1.068h.768c1.272,0,1.824.492,1.824,1.248,0,.78-.66,1.272-1.776,1.272a3.917,3.917,0,0,1-2.46-.828L79.584-.852A5.277,5.277,0,0,0,82.74.12C85,.12,86.064-1.1,86.064-2.52A2.4,2.4,0,0,0,83.676-4.932Zm15.84-1.476-1.74,4.752L96.048-6.408h-1.26L93.024-1.68,91.332-6.408H89.916L92.268,0h1.44l1.68-4.416L97.044,0h1.44l2.364-6.408Zm4.608-.072a4.506,4.506,0,0,0-2.712.792L102-4.6a3.172,3.172,0,0,1,1.944-.636c1.068,0,1.6.516,1.6,1.392v.1h-1.656c-1.944,0-2.664.84-2.664,1.908,0,1.116.924,1.92,2.388,1.92a2.271,2.271,0,0,0,2.016-.864V0h1.416V-3.756C107.04-5.6,105.972-6.48,104.124-6.48Zm-.2,5.472c-.768,0-1.224-.348-1.224-.888,0-.468.276-.852,1.3-.852h1.548V-2A1.633,1.633,0,0,1,103.92-1.008Zm9.48-5.4-2.028,4.74-2.016-4.74H107.8l2.8,6.432-.108.252c-.288.636-.6.888-1.128.888a1.625,1.625,0,0,1-1.1-.444l-.6,1.1a2.652,2.652,0,0,0,1.716.588,2.485,2.485,0,0,0,2.472-1.9l3-6.924ZM117.672.084c1.8,0,2.9-.78,2.9-1.98,0-2.508-3.96-1.356-3.96-2.652,0-.42.432-.72,1.344-.72a3.508,3.508,0,0,1,1.836.48l.576-1.14a5.1,5.1,0,0,0-2.4-.552c-1.728,0-2.82.792-2.82,2,0,2.556,3.96,1.4,3.96,2.628,0,.444-.4.708-1.344.708a4.312,4.312,0,0,1-2.232-.636l-.576,1.14A5.091,5.091,0,0,0,117.672.084Z" transform="translate(253.718 605)" fill="#1e1e1e"/>
    </g>
    <g id="Group-2" data-name="Group">
      <path id="Path_25" data-name="Path 25" d="M7.008-3.168A3.125,3.125,0,0,0,3.768-6.48,3.187,3.187,0,0,0,.456-3.2,3.254,3.254,0,0,0,4,.084,3.248,3.248,0,0,0,6.576-.96l-.8-.924a2.3,2.3,0,0,1-1.74.7A1.939,1.939,0,0,1,1.956-2.724H6.984C7-2.868,7.008-3.048,7.008-3.168ZM3.768-5.28A1.744,1.744,0,0,1,5.58-3.72H1.944A1.771,1.771,0,0,1,3.768-5.28ZM8.244-2.712h3.3V-3.96h-3.3ZM14.616,0h1.56V-7.08H18.96V-8.4H11.832v1.32h2.784Zm8.976-8.4H20.136V0H21.7V-2.424h1.9c2.208,0,3.576-1.14,3.576-2.988S25.8-8.4,23.592-8.4ZM23.52-3.744H21.7V-7.08H23.52c1.368,0,2.076.612,2.076,1.668S24.888-3.744,23.52-3.744ZM35.652-6.48a2.786,2.786,0,0,0-2.208.9v-.828H32.016V0h1.5V-3.24A1.7,1.7,0,0,1,35.3-5.172c.96,0,1.524.552,1.524,1.692V0h1.5V-3.672A2.5,2.5,0,0,0,35.652-6.48Zm9.288.072v3.24a1.688,1.688,0,0,1-1.752,1.932c-.948,0-1.5-.552-1.5-1.716V-6.408h-1.5v3.66A2.535,2.535,0,0,0,42.948.084a2.618,2.618,0,0,0,2.064-.9V0H46.44V-6.408ZM56.5-6.48a2.991,2.991,0,0,0-2.4,1.068,2.4,2.4,0,0,0-2.16-1.068,2.654,2.654,0,0,0-2.1.888v-.816H48.408V0h1.5V-3.252c0-1.272.672-1.92,1.668-1.92.912,0,1.44.552,1.44,1.692V0h1.5V-3.252c0-1.272.684-1.92,1.668-1.92.912,0,1.44.552,1.44,1.692V0h1.5V-3.672C59.124-5.6,58.044-6.48,56.5-6.48Zm8.1,0a2.664,2.664,0,0,0-2.052.852V-8.9h-1.5V0h1.428V-.828A2.642,2.642,0,0,0,64.6.084,3.121,3.121,0,0,0,67.848-3.2,3.112,3.112,0,0,0,64.6-6.48ZM64.428-1.2a1.873,1.873,0,0,1-1.908-2,1.873,1.873,0,0,1,1.908-2,1.864,1.864,0,0,1,1.9,2A1.864,1.864,0,0,1,64.428-1.2ZM75.3-3.168A3.125,3.125,0,0,0,72.06-6.48,3.187,3.187,0,0,0,68.748-3.2,3.254,3.254,0,0,0,72.288.084,3.248,3.248,0,0,0,74.868-.96l-.8-.924a2.3,2.3,0,0,1-1.74.7,1.939,1.939,0,0,1-2.076-1.536h5.028C75.288-2.868,75.3-3.048,75.3-3.168ZM72.06-5.28a1.744,1.744,0,0,1,1.812,1.56H70.236A1.771,1.771,0,0,1,72.06-5.28Zm6.108-.192v-.936H76.74V0h1.5V-3.108a1.747,1.747,0,0,1,1.86-1.98,1.9,1.9,0,0,1,.348.036V-6.48A2.522,2.522,0,0,0,78.168-5.472ZM87.54-6.48a4.506,4.506,0,0,0-2.712.792L85.416-4.6a3.172,3.172,0,0,1,1.944-.636c1.068,0,1.6.516,1.6,1.392v.1H87.3c-1.944,0-2.664.84-2.664,1.908,0,1.116.924,1.92,2.388,1.92A2.271,2.271,0,0,0,89.04-.78V0h1.416V-3.756C90.456-5.6,89.388-6.48,87.54-6.48Zm-.2,5.472c-.768,0-1.224-.348-1.224-.888,0-.468.276-.852,1.3-.852h1.548V-2A1.633,1.633,0,0,1,87.336-1.008ZM96.012-6.48a2.786,2.786,0,0,0-2.208.9v-.828H92.376V0h1.5V-3.24a1.7,1.7,0,0,1,1.788-1.932c.96,0,1.524.552,1.524,1.692V0h1.5V-3.672A2.5,2.5,0,0,0,96.012-6.48Zm9.42-2.424v3.288a2.624,2.624,0,0,0-2.064-.864,3.109,3.109,0,0,0-3.24,3.276,3.118,3.118,0,0,0,3.24,3.288,2.642,2.642,0,0,0,2.124-.912V0h1.44V-8.9Zm-1.884,7.7a1.873,1.873,0,0,1-1.908-2,1.873,1.873,0,0,1,1.908-2,1.873,1.873,0,0,1,1.908,2A1.873,1.873,0,0,1,103.548-1.2Zm13.224-5.208L114.72-1.656l-1.992-4.752h-1.56L113.916,0h1.548l2.748-6.408Zm4.62-.072a4.506,4.506,0,0,0-2.712.792l.588,1.092a3.172,3.172,0,0,1,1.944-.636c1.068,0,1.6.516,1.6,1.392v.1h-1.656c-1.944,0-2.664.84-2.664,1.908,0,1.116.924,1.92,2.388,1.92a2.271,2.271,0,0,0,2.016-.864V0h1.416V-3.756C124.308-5.6,123.24-6.48,121.392-6.48Zm-.2,5.472c-.768,0-1.224-.348-1.224-.888,0-.468.276-.852,1.3-.852h1.548V-2A1.633,1.633,0,0,1,121.188-1.008ZM126.228,0h1.5V-8.9h-1.5Zm4.224-7.464a.921.921,0,0,0,.96-.936.893.893,0,0,0-.96-.864.914.914,0,0,0-.96.9A.914.914,0,0,0,130.452-7.464ZM129.7,0h1.5V-6.408h-1.5Zm8.244-8.9v3.288a2.624,2.624,0,0,0-2.064-.864,3.109,3.109,0,0,0-3.24,3.276,3.118,3.118,0,0,0,3.24,3.288A2.642,2.642,0,0,0,138-.828V0h1.44V-8.9Zm-1.884,7.7a1.873,1.873,0,0,1-1.908-2,1.873,1.873,0,0,1,1.908-2,1.873,1.873,0,0,1,1.908,2A1.873,1.873,0,0,1,136.056-1.2Zm6.108-6.264a.921.921,0,0,0,.96-.936.893.893,0,0,0-.96-.864.914.914,0,0,0-.96.9A.914.914,0,0,0,142.164-7.464ZM141.408,0h1.5V-6.408h-1.5Zm6.9-1.416a1.349,1.349,0,0,1-.84.264c-.576,0-.888-.336-.888-.96V-5.16H148.3v-1.2H146.58V-7.824h-1.5V-6.36h-1.056v1.2h1.056v3.084a1.969,1.969,0,0,0,2.208,2.16,2.357,2.357,0,0,0,1.44-.432Zm6.1-4.992-2.028,4.74-2.016-4.74H148.8L151.6.024l-.108.252c-.288.636-.6.888-1.128.888a1.625,1.625,0,0,1-1.1-.444l-.6,1.1a2.652,2.652,0,0,0,1.716.588,2.485,2.485,0,0,0,2.472-1.9l3-6.924Z" transform="translate(233.102 765)" fill="#1e1e1e"/>
      <path id="Path_26" data-name="Path 26" d="M4.536-6.48a2.642,2.642,0,0,0-2.124.912v-.84H.984V2.328h1.5V-.78A2.633,2.633,0,0,0,4.536.084,3.121,3.121,0,0,0,7.788-3.2,3.118,3.118,0,0,0,4.536-6.48ZM4.368-1.2a1.873,1.873,0,0,1-1.908-2,1.873,1.873,0,0,1,1.908-2,1.864,1.864,0,0,1,1.9,2A1.864,1.864,0,0,1,4.368-1.2ZM15.24-3.168A3.125,3.125,0,0,0,12-6.48,3.187,3.187,0,0,0,8.688-3.2,3.254,3.254,0,0,0,12.228.084,3.248,3.248,0,0,0,14.808-.96L14-1.884a2.3,2.3,0,0,1-1.74.7,1.939,1.939,0,0,1-2.076-1.536h5.028C15.228-2.868,15.24-3.048,15.24-3.168ZM12-5.28a1.744,1.744,0,0,1,1.812,1.56H10.176A1.771,1.771,0,0,1,12-5.28Zm6.108-.192v-.936H16.68V0h1.5V-3.108a1.747,1.747,0,0,1,1.86-1.98,1.9,1.9,0,0,1,.348.036V-6.48A2.522,2.522,0,0,0,18.108-5.472Zm4.308-1.992a.921.921,0,0,0,.96-.936.893.893,0,0,0-.96-.864.914.914,0,0,0-.96.9A.914.914,0,0,0,22.416-7.464ZM21.66,0h1.5V-6.408h-1.5Zm6.348.084A3.232,3.232,0,0,0,31.428-3.2a3.222,3.222,0,0,0-3.42-3.276A3.226,3.226,0,0,0,24.6-3.2,3.235,3.235,0,0,0,28.008.084Zm0-1.284a1.864,1.864,0,0,1-1.9-2,1.864,1.864,0,0,1,1.9-2,1.866,1.866,0,0,1,1.908,2A1.866,1.866,0,0,1,28.008-1.2Zm9.636-7.7v3.288A2.624,2.624,0,0,0,35.58-6.48,3.109,3.109,0,0,0,32.34-3.2,3.118,3.118,0,0,0,35.58.084,2.642,2.642,0,0,0,37.7-.828V0h1.44V-8.9ZM35.76-1.2a1.873,1.873,0,0,1-1.908-2,1.873,1.873,0,0,1,1.908-2,1.873,1.873,0,0,1,1.908,2A1.873,1.873,0,0,1,35.76-1.2ZM53.088-6.408l-1.74,4.752L49.62-6.408H48.36L46.6-1.68,44.9-6.408H43.488L45.84,0h1.44l1.68-4.416L50.616,0h1.44L54.42-6.408Zm3.792.936v-.936H55.452V0h1.5V-3.108a1.747,1.747,0,0,1,1.86-1.98,1.9,1.9,0,0,1,.348.036V-6.48A2.522,2.522,0,0,0,56.88-5.472Zm4.308-1.992a.921.921,0,0,0,.96-.936.893.893,0,0,0-.96-.864.914.914,0,0,0-.96.9A.914.914,0,0,0,61.188-7.464ZM60.432,0h1.5V-6.408h-1.5Zm6.9-1.416a1.349,1.349,0,0,1-.84.264c-.576,0-.888-.336-.888-.96V-5.16H67.32v-1.2H65.6V-7.824H64.1V-6.36H63.048v1.2H64.1v3.084A1.969,1.969,0,0,0,66.312.084a2.357,2.357,0,0,0,1.44-.432Zm4.932,0a1.349,1.349,0,0,1-.84.264c-.576,0-.888-.336-.888-.96V-5.16h1.716v-1.2H70.536V-7.824h-1.5V-6.36H67.98v1.2h1.056v3.084A1.969,1.969,0,0,0,71.244.084a2.357,2.357,0,0,0,1.44-.432Zm7.464-1.752a3.125,3.125,0,0,0-3.24-3.312A3.187,3.187,0,0,0,73.176-3.2,3.254,3.254,0,0,0,76.716.084,3.248,3.248,0,0,0,79.3-.96l-.8-.924a2.3,2.3,0,0,1-1.74.7,1.939,1.939,0,0,1-2.076-1.536H79.7C79.716-2.868,79.728-3.048,79.728-3.168ZM76.488-5.28A1.744,1.744,0,0,1,78.3-3.72H74.664A1.771,1.771,0,0,1,76.488-5.28ZM84.8-6.48a2.786,2.786,0,0,0-2.208.9v-.828H81.168V0h1.5V-3.24a1.7,1.7,0,0,1,1.788-1.932c.96,0,1.524.552,1.524,1.692V0h1.5V-3.672A2.5,2.5,0,0,0,84.8-6.48ZM95.58.084A3.232,3.232,0,0,0,99-3.2,3.222,3.222,0,0,0,95.58-6.48,3.226,3.226,0,0,0,92.172-3.2,3.235,3.235,0,0,0,95.58.084Zm0-1.284a1.864,1.864,0,0,1-1.9-2,1.864,1.864,0,0,1,1.9-2,1.866,1.866,0,0,1,1.908,2A1.866,1.866,0,0,1,95.58-1.2Zm8.5-5.28a2.786,2.786,0,0,0-2.208.9v-.828H100.44V0h1.5V-3.24a1.7,1.7,0,0,1,1.788-1.932c.96,0,1.524.552,1.524,1.692V0h1.5V-3.672A2.5,2.5,0,0,0,104.076-6.48Z" transform="translate(255.506 780)" fill="#1e1e1e"/>
      <path id="Path_27" data-name="Path 27" d="M4.536-6.48a2.642,2.642,0,0,0-2.124.912v-.84H.984V2.328h1.5V-.78A2.633,2.633,0,0,0,4.536.084,3.121,3.121,0,0,0,7.788-3.2,3.118,3.118,0,0,0,4.536-6.48ZM4.368-1.2a1.873,1.873,0,0,1-1.908-2,1.873,1.873,0,0,1,1.908-2,1.864,1.864,0,0,1,1.9,2A1.864,1.864,0,0,1,4.368-1.2Zm8.484-5.28a2.857,2.857,0,0,0-2.136.816V-8.9h-1.5V0h1.5V-3.24A1.7,1.7,0,0,1,12.5-5.172c.96,0,1.524.552,1.524,1.692V0h1.5V-3.672A2.5,2.5,0,0,0,12.852-6.48Zm9.024.072-2.028,4.74-2.016-4.74h-1.56l2.8,6.432L18.96.276c-.288.636-.6.888-1.128.888a1.625,1.625,0,0,1-1.1-.444l-.6,1.1a2.652,2.652,0,0,0,1.716.588,2.485,2.485,0,0,0,2.472-1.9l3-6.924ZM26.148.084c1.8,0,2.9-.78,2.9-1.98,0-2.508-3.96-1.356-3.96-2.652,0-.42.432-.72,1.344-.72a3.508,3.508,0,0,1,1.836.48l.576-1.14a5.1,5.1,0,0,0-2.4-.552c-1.728,0-2.82.792-2.82,2,0,2.556,3.96,1.4,3.96,2.628,0,.444-.4.708-1.344.708a4.312,4.312,0,0,1-2.232-.636l-.576,1.14A5.091,5.091,0,0,0,26.148.084ZM31.1-7.464a.921.921,0,0,0,.96-.936.893.893,0,0,0-.96-.864.914.914,0,0,0-.96.9A.914.914,0,0,0,31.1-7.464ZM30.348,0h1.5V-6.408h-1.5Zm6.408.084a2.913,2.913,0,0,0,2.736-1.5L38.34-2.088a1.813,1.813,0,0,1-1.6.888,1.874,1.874,0,0,1-1.944-2,1.881,1.881,0,0,1,1.944-2,1.813,1.813,0,0,1,1.6.888l1.152-.672A2.884,2.884,0,0,0,36.756-6.48,3.242,3.242,0,0,0,33.288-3.2,3.252,3.252,0,0,0,36.756.084Zm6.48-6.564a4.506,4.506,0,0,0-2.712.792L41.112-4.6a3.172,3.172,0,0,1,1.944-.636c1.068,0,1.6.516,1.6,1.392v.1H43c-1.944,0-2.664.84-2.664,1.908,0,1.116.924,1.92,2.388,1.92A2.271,2.271,0,0,0,44.736-.78V0h1.416V-3.756C46.152-5.6,45.084-6.48,43.236-6.48Zm-.2,5.472c-.768,0-1.224-.348-1.224-.888,0-.468.276-.852,1.3-.852h1.548V-2A1.633,1.633,0,0,1,43.032-1.008ZM48.072,0h1.5V-8.9h-1.5ZM56.7,0h1.56V-7.08h2.784V-8.4H53.916v1.32H56.7Zm8.976-8.4H62.22V0h1.56V-2.424h1.9c2.208,0,3.576-1.14,3.576-2.988S67.884-8.4,65.676-8.4ZM65.6-3.744H63.78V-7.08H65.6c1.368,0,2.076.612,2.076,1.668S66.972-3.744,65.6-3.744ZM76.548-6.48a4.506,4.506,0,0,0-2.712.792L74.424-4.6a3.172,3.172,0,0,1,1.944-.636c1.068,0,1.6.516,1.6,1.392v.1H76.308c-1.944,0-2.664.84-2.664,1.908,0,1.116.924,1.92,2.388,1.92A2.271,2.271,0,0,0,78.048-.78V0h1.416V-3.756C79.464-5.6,78.4-6.48,76.548-6.48Zm-.2,5.472c-.768,0-1.224-.348-1.224-.888,0-.468.276-.852,1.3-.852h1.548V-2A1.633,1.633,0,0,1,76.344-1.008ZM85.02-6.48a2.786,2.786,0,0,0-2.208.9v-.828H81.384V0h1.5V-3.24a1.7,1.7,0,0,1,1.788-1.932c.96,0,1.524.552,1.524,1.692V0h1.5V-3.672A2.5,2.5,0,0,0,85.02-6.48ZM94.44-8.9v3.288a2.624,2.624,0,0,0-2.064-.864A3.109,3.109,0,0,0,89.136-3.2,3.118,3.118,0,0,0,92.376.084,2.642,2.642,0,0,0,94.5-.828V0h1.44V-8.9ZM92.556-1.2a1.873,1.873,0,0,1-1.908-2,1.873,1.873,0,0,1,1.908-2,1.873,1.873,0,0,1,1.908,2A1.873,1.873,0,0,1,92.556-1.2Zm9.42-6.264a.921.921,0,0,0,.96-.936.893.893,0,0,0-.96-.864.914.914,0,0,0-.96.9A.914.914,0,0,0,101.976-7.464ZM101.22,0h1.5V-6.408h-1.5Zm5.448.084c1.8,0,2.9-.78,2.9-1.98,0-2.508-3.96-1.356-3.96-2.652,0-.42.432-.72,1.344-.72a3.508,3.508,0,0,1,1.836.48l.576-1.14a5.1,5.1,0,0,0-2.4-.552c-1.728,0-2.82.792-2.82,2,0,2.556,3.96,1.4,3.96,2.628,0,.444-.4.708-1.344.708a4.312,4.312,0,0,1-2.232-.636l-.576,1.14A5.091,5.091,0,0,0,106.668.084Zm6.18,0c1.8,0,2.9-.78,2.9-1.98,0-2.508-3.96-1.356-3.96-2.652,0-.42.432-.72,1.344-.72a3.508,3.508,0,0,1,1.836.48l.576-1.14a5.1,5.1,0,0,0-2.4-.552c-1.728,0-2.82.792-2.82,2,0,2.556,3.96,1.4,3.96,2.628,0,.444-.4.708-1.344.708a4.312,4.312,0,0,1-2.232-.636l-.576,1.14A5.091,5.091,0,0,0,112.848.084Zm8.9-6.492v3.24A1.688,1.688,0,0,1,120-1.236c-.948,0-1.5-.552-1.5-1.716V-6.408H117v3.66A2.535,2.535,0,0,0,119.76.084a2.618,2.618,0,0,0,2.064-.9V0h1.428V-6.408Zm9.492,3.24A3.125,3.125,0,0,0,128-6.48,3.187,3.187,0,0,0,124.692-3.2a3.254,3.254,0,0,0,3.54,3.288,3.248,3.248,0,0,0,2.58-1.044l-.8-.924a2.3,2.3,0,0,1-1.74.7,1.939,1.939,0,0,1-2.076-1.536h5.028C131.232-2.868,131.244-3.048,131.244-3.168ZM128-5.28a1.744,1.744,0,0,1,1.812,1.56H126.18A1.771,1.771,0,0,1,128-5.28ZM137.46-8.9v3.288A2.624,2.624,0,0,0,135.4-6.48a3.109,3.109,0,0,0-3.24,3.276A3.118,3.118,0,0,0,135.4.084a2.642,2.642,0,0,0,2.124-.912V0h1.44V-8.9Zm-1.884,7.7a1.873,1.873,0,0,1-1.908-2,1.873,1.873,0,0,1,1.908-2,1.873,1.873,0,0,1,1.908,2A1.873,1.873,0,0,1,135.576-1.2Z" transform="translate(239.602 795)" fill="#1e1e1e"/>
      <path id="Path_28" data-name="Path 28" d="M4.416-1.416a1.349,1.349,0,0,1-.84.264c-.576,0-.888-.336-.888-.96V-5.16H4.4v-1.2H2.688V-7.824h-1.5V-6.36H.132v1.2H1.188v3.084A1.969,1.969,0,0,0,3.4.084a2.357,2.357,0,0,0,1.44-.432Zm4.32,1.5A3.232,3.232,0,0,0,12.156-3.2,3.222,3.222,0,0,0,8.736-6.48,3.226,3.226,0,0,0,5.328-3.2,3.235,3.235,0,0,0,8.736.084Zm0-1.284a1.864,1.864,0,0,1-1.9-2,1.864,1.864,0,0,1,1.9-2,1.866,1.866,0,0,1,1.908,2A1.866,1.866,0,0,1,8.736-1.2ZM21.684-8.9v3.288A2.624,2.624,0,0,0,19.62-6.48,3.109,3.109,0,0,0,16.38-3.2,3.118,3.118,0,0,0,19.62.084a2.642,2.642,0,0,0,2.124-.912V0h1.44V-8.9ZM19.8-1.2a1.873,1.873,0,0,1-1.908-2,1.873,1.873,0,0,1,1.908-2,1.873,1.873,0,0,1,1.908,2A1.873,1.873,0,0,1,19.8-1.2Zm6.78-4.272v-.936H25.152V0h1.5V-3.108a1.747,1.747,0,0,1,1.86-1.98,1.9,1.9,0,0,1,.348.036V-6.48A2.522,2.522,0,0,0,26.58-5.472Zm4.308-1.992a.921.921,0,0,0,.96-.936.893.893,0,0,0-.96-.864.914.914,0,0,0-.96.9A.914.914,0,0,0,30.888-7.464ZM30.132,0h1.5V-6.408h-1.5ZM38.16-6.408,36.108-1.656,34.116-6.408h-1.56L35.3,0h1.548L39.6-6.408Zm8.22,3.24A3.125,3.125,0,0,0,43.14-6.48,3.187,3.187,0,0,0,39.828-3.2,3.254,3.254,0,0,0,43.368.084,3.248,3.248,0,0,0,45.948-.96l-.8-.924a2.3,2.3,0,0,1-1.74.7,1.939,1.939,0,0,1-2.076-1.536h5.028C46.368-2.868,46.38-3.048,46.38-3.168ZM43.14-5.28a1.744,1.744,0,0,1,1.812,1.56H41.316A1.771,1.771,0,0,1,43.14-5.28Zm6.108-.192v-.936H47.82V0h1.5V-3.108a1.747,1.747,0,0,1,1.86-1.98,1.9,1.9,0,0,1,.348.036V-6.48A2.522,2.522,0,0,0,49.248-5.472Z" transform="translate(285.062 810)" fill="#1e1e1e"/>
    </g>
    <path id="Mobile_Applications" data-name="Mobile Applications" d="M10.32,0l-.012-8.4H9.024L5.748-2.832,2.412-8.4H1.128V0H2.616V-5.5L5.376-.96h.7l2.76-4.608L8.844,0Zm5,.084A3.232,3.232,0,0,0,18.744-3.2a3.222,3.222,0,0,0-3.42-3.276A3.226,3.226,0,0,0,11.916-3.2,3.235,3.235,0,0,0,15.324.084Zm0-1.284a1.864,1.864,0,0,1-1.9-2,1.864,1.864,0,0,1,1.9-2,1.866,1.866,0,0,1,1.908,2A1.866,1.866,0,0,1,15.324-1.2Zm8.412-5.28a2.664,2.664,0,0,0-2.052.852V-8.9h-1.5V0h1.428V-.828a2.642,2.642,0,0,0,2.124.912A3.121,3.121,0,0,0,26.988-3.2,3.112,3.112,0,0,0,23.736-6.48ZM23.568-1.2a1.873,1.873,0,0,1-1.908-2,1.873,1.873,0,0,1,1.908-2,1.864,1.864,0,0,1,1.9,2A1.864,1.864,0,0,1,23.568-1.2Zm5.6-6.264a.921.921,0,0,0,.96-.936.893.893,0,0,0-.96-.864.914.914,0,0,0-.96.9A.914.914,0,0,0,29.172-7.464ZM28.416,0h1.5V-6.408h-1.5Zm3.468,0h1.5V-8.9h-1.5Zm9.492-3.168a3.125,3.125,0,0,0-3.24-3.312A3.187,3.187,0,0,0,34.824-3.2,3.254,3.254,0,0,0,38.364.084,3.248,3.248,0,0,0,40.944-.96l-.8-.924a2.3,2.3,0,0,1-1.74.7,1.939,1.939,0,0,1-2.076-1.536h5.028C41.364-2.868,41.376-3.048,41.376-3.168ZM38.136-5.28a1.744,1.744,0,0,1,1.812,1.56H36.312A1.771,1.771,0,0,1,38.136-5.28ZM52.56,0h1.632L50.4-8.4H48.864L45.084,0h1.608l.828-1.944h4.2ZM48.048-3.168,49.62-6.84,51.2-3.168ZM58.668-6.48a2.642,2.642,0,0,0-2.124.912v-.84H55.116V2.328h1.5V-.78a2.633,2.633,0,0,0,2.052.864A3.121,3.121,0,0,0,61.92-3.2,3.118,3.118,0,0,0,58.668-6.48ZM58.5-1.2a1.873,1.873,0,0,1-1.908-2,1.873,1.873,0,0,1,1.908-2,1.864,1.864,0,0,1,1.9,2A1.864,1.864,0,0,1,58.5-1.2Zm8.4-5.28a2.642,2.642,0,0,0-2.124.912v-.84H63.348V2.328h1.5V-.78A2.633,2.633,0,0,0,66.9.084,3.121,3.121,0,0,0,70.152-3.2,3.118,3.118,0,0,0,66.9-6.48ZM66.732-1.2a1.873,1.873,0,0,1-1.908-2,1.873,1.873,0,0,1,1.908-2,1.864,1.864,0,0,1,1.9,2A1.864,1.864,0,0,1,66.732-1.2ZM71.58,0h1.5V-8.9h-1.5ZM75.8-7.464a.921.921,0,0,0,.96-.936.893.893,0,0,0-.96-.864.914.914,0,0,0-.96.9A.914.914,0,0,0,75.8-7.464ZM75.048,0h1.5V-6.408h-1.5Zm6.408.084a2.913,2.913,0,0,0,2.736-1.5L83.04-2.088a1.813,1.813,0,0,1-1.6.888,1.874,1.874,0,0,1-1.944-2,1.881,1.881,0,0,1,1.944-2,1.813,1.813,0,0,1,1.6.888l1.152-.672A2.884,2.884,0,0,0,81.456-6.48,3.242,3.242,0,0,0,77.988-3.2,3.252,3.252,0,0,0,81.456.084Zm6.48-6.564a4.506,4.506,0,0,0-2.712.792L85.812-4.6a3.172,3.172,0,0,1,1.944-.636c1.068,0,1.6.516,1.6,1.392v.1H87.7c-1.944,0-2.664.84-2.664,1.908,0,1.116.924,1.92,2.388,1.92A2.271,2.271,0,0,0,89.436-.78V0h1.416V-3.756C90.852-5.6,89.784-6.48,87.936-6.48Zm-.2,5.472c-.768,0-1.224-.348-1.224-.888,0-.468.276-.852,1.3-.852h1.548V-2A1.633,1.633,0,0,1,87.732-1.008ZM96.2-1.416a1.349,1.349,0,0,1-.84.264c-.576,0-.888-.336-.888-.96V-5.16h1.716v-1.2H94.476V-7.824h-1.5V-6.36H91.92v1.2h1.056v3.084A1.969,1.969,0,0,0,95.184.084a2.357,2.357,0,0,0,1.44-.432Zm2.412-6.048a.921.921,0,0,0,.96-.936.893.893,0,0,0-.96-.864.914.914,0,0,0-.96.9A.914.914,0,0,0,98.616-7.464ZM97.86,0h1.5V-6.408h-1.5Zm6.348.084a3.232,3.232,0,0,0,3.42-3.288,3.222,3.222,0,0,0-3.42-3.276A3.226,3.226,0,0,0,100.8-3.2,3.235,3.235,0,0,0,104.208.084Zm0-1.284a1.864,1.864,0,0,1-1.9-2,1.864,1.864,0,0,1,1.9-2,1.866,1.866,0,0,1,1.908,2A1.866,1.866,0,0,1,104.208-1.2Zm8.5-5.28a2.786,2.786,0,0,0-2.208.9v-.828h-1.428V0h1.5V-3.24a1.7,1.7,0,0,1,1.788-1.932c.96,0,1.524.552,1.524,1.692V0h1.5V-3.672A2.5,2.5,0,0,0,112.7-6.48ZM119.268.084c1.8,0,2.9-.78,2.9-1.98,0-2.508-3.96-1.356-3.96-2.652,0-.42.432-.72,1.344-.72a3.508,3.508,0,0,1,1.836.48l.576-1.14a5.1,5.1,0,0,0-2.4-.552c-1.728,0-2.82.792-2.82,2,0,2.556,3.96,1.4,3.96,2.628,0,.444-.4.708-1.344.708a4.312,4.312,0,0,1-2.232-.636l-.576,1.14A5.091,5.091,0,0,0,119.268.084Z" transform="translate(445.758 598)" fill="#1e1e1e"/>
    <g id="Group-3" data-name="Group">
      <path id="Path_29" data-name="Path 29" d="M7.008-3.168A3.125,3.125,0,0,0,3.768-6.48,3.187,3.187,0,0,0,.456-3.2,3.254,3.254,0,0,0,4,.084,3.248,3.248,0,0,0,6.576-.96l-.8-.924a2.3,2.3,0,0,1-1.74.7A1.939,1.939,0,0,1,1.956-2.724H6.984C7-2.868,7.008-3.048,7.008-3.168ZM3.768-5.28A1.744,1.744,0,0,1,5.58-3.72H1.944A1.771,1.771,0,0,1,3.768-5.28ZM8.244-2.712h3.3V-3.96h-3.3ZM14.616,0h1.56V-7.08H18.96V-8.4H11.832v1.32h2.784Zm8.976-8.4H20.136V0H21.7V-2.424h1.9c2.208,0,3.576-1.14,3.576-2.988S25.8-8.4,23.592-8.4ZM23.52-3.744H21.7V-7.08H23.52c1.368,0,2.076.612,2.076,1.668S24.888-3.744,23.52-3.744ZM36.948-6.408v.852a2.774,2.774,0,0,0-2.22-.924A3.042,3.042,0,0,0,31.488-3.4a3.061,3.061,0,0,0,3.24,3.108,2.821,2.821,0,0,0,2.148-.852V-.8c0,1.3-.624,1.944-2.04,1.944A3.871,3.871,0,0,1,32.472.372L31.8,1.5a5.093,5.093,0,0,0,3.12.912c2.244,0,3.456-1.056,3.456-3.384V-6.408ZM34.956-1.56A1.817,1.817,0,0,1,33-3.4a1.805,1.805,0,0,1,1.956-1.812A1.8,1.8,0,0,1,36.9-3.4,1.813,1.813,0,0,1,34.956-1.56ZM46.368-3.168a3.125,3.125,0,0,0-3.24-3.312A3.187,3.187,0,0,0,39.816-3.2,3.254,3.254,0,0,0,43.356.084,3.248,3.248,0,0,0,45.936-.96l-.8-.924a2.3,2.3,0,0,1-1.74.7,1.939,1.939,0,0,1-2.076-1.536h5.028C46.356-2.868,46.368-3.048,46.368-3.168ZM43.128-5.28A1.744,1.744,0,0,1,44.94-3.72H41.3A1.771,1.771,0,0,1,43.128-5.28Zm8.316-1.2a2.786,2.786,0,0,0-2.208.9v-.828H47.808V0h1.5V-3.24A1.7,1.7,0,0,1,51.1-5.172c.96,0,1.524.552,1.524,1.692V0h1.5V-3.672A2.5,2.5,0,0,0,51.444-6.48ZM62.112-3.168a3.125,3.125,0,0,0-3.24-3.312A3.187,3.187,0,0,0,55.56-3.2,3.254,3.254,0,0,0,59.1.084,3.248,3.248,0,0,0,61.68-.96l-.8-.924a2.3,2.3,0,0,1-1.74.7A1.939,1.939,0,0,1,57.06-2.724h5.028C62.1-2.868,62.112-3.048,62.112-3.168ZM58.872-5.28a1.744,1.744,0,0,1,1.812,1.56H57.048A1.771,1.771,0,0,1,58.872-5.28Zm6.108-.192v-.936H63.552V0h1.5V-3.108a1.747,1.747,0,0,1,1.86-1.98,1.9,1.9,0,0,1,.348.036V-6.48A2.522,2.522,0,0,0,64.98-5.472ZM70.944-6.48a4.506,4.506,0,0,0-2.712.792L68.82-4.6a3.172,3.172,0,0,1,1.944-.636c1.068,0,1.6.516,1.6,1.392v.1H70.7c-1.944,0-2.664.84-2.664,1.908,0,1.116.924,1.92,2.388,1.92A2.271,2.271,0,0,0,72.444-.78V0H73.86V-3.756C73.86-5.6,72.792-6.48,70.944-6.48Zm-.2,5.472c-.768,0-1.224-.348-1.224-.888,0-.468.276-.852,1.3-.852H72.36V-2A1.633,1.633,0,0,1,70.74-1.008Zm8.472-.408a1.349,1.349,0,0,1-.84.264c-.576,0-.888-.336-.888-.96V-5.16H79.2v-1.2H77.484V-7.824h-1.5V-6.36H74.928v1.2h1.056v3.084A1.969,1.969,0,0,0,78.192.084a2.357,2.357,0,0,0,1.44-.432Zm7.464-1.752a3.125,3.125,0,0,0-3.24-3.312A3.187,3.187,0,0,0,80.124-3.2,3.254,3.254,0,0,0,83.664.084,3.248,3.248,0,0,0,86.244-.96l-.8-.924a2.3,2.3,0,0,1-1.74.7,1.939,1.939,0,0,1-2.076-1.536h5.028C86.664-2.868,86.676-3.048,86.676-3.168ZM83.436-5.28a1.744,1.744,0,0,1,1.812,1.56H81.612A1.771,1.771,0,0,1,83.436-5.28ZM92.892-8.9v3.288a2.624,2.624,0,0,0-2.064-.864A3.109,3.109,0,0,0,87.588-3.2,3.118,3.118,0,0,0,90.828.084a2.642,2.642,0,0,0,2.124-.912V0h1.44V-8.9ZM91.008-1.2a1.873,1.873,0,0,1-1.908-2,1.873,1.873,0,0,1,1.908-2,1.873,1.873,0,0,1,1.908,2A1.873,1.873,0,0,1,91.008-1.2Z" transform="translate(457.656 781)" fill="#1e1e1e"/>
      <path id="Path_30" data-name="Path 30" d="M3.864.084A3.232,3.232,0,0,0,7.284-3.2,3.222,3.222,0,0,0,3.864-6.48,3.226,3.226,0,0,0,.456-3.2,3.235,3.235,0,0,0,3.864.084Zm0-1.284a1.864,1.864,0,0,1-1.9-2,1.864,1.864,0,0,1,1.9-2,1.866,1.866,0,0,1,1.908,2A1.866,1.866,0,0,1,3.864-1.2Zm8.5-5.28a2.786,2.786,0,0,0-2.208.9v-.828H8.724V0h1.5V-3.24a1.7,1.7,0,0,1,1.788-1.932c.96,0,1.524.552,1.524,1.692V0h1.5V-3.672A2.5,2.5,0,0,0,12.36-6.48ZM22.236.084c1.8,0,2.9-.78,2.9-1.98,0-2.508-3.96-1.356-3.96-2.652,0-.42.432-.72,1.344-.72a3.508,3.508,0,0,1,1.836.48l.576-1.14a5.1,5.1,0,0,0-2.4-.552c-1.728,0-2.82.792-2.82,2,0,2.556,3.96,1.4,3.96,2.628,0,.444-.4.708-1.344.708A4.312,4.312,0,0,1,20.1-1.776l-.576,1.14A5.091,5.091,0,0,0,22.236.084ZM32.46-3.168A3.125,3.125,0,0,0,29.22-6.48,3.187,3.187,0,0,0,25.908-3.2,3.254,3.254,0,0,0,29.448.084,3.248,3.248,0,0,0,32.028-.96l-.8-.924a2.3,2.3,0,0,1-1.74.7,1.939,1.939,0,0,1-2.076-1.536h5.028C32.448-2.868,32.46-3.048,32.46-3.168ZM29.22-5.28a1.744,1.744,0,0,1,1.812,1.56H27.4A1.771,1.771,0,0,1,29.22-5.28Zm6.108-.192v-.936H33.9V0h1.5V-3.108a1.747,1.747,0,0,1,1.86-1.98,1.9,1.9,0,0,1,.348.036V-6.48A2.522,2.522,0,0,0,35.328-5.472Zm8.352-.936L41.628-1.656,39.636-6.408h-1.56L40.824,0h1.548L45.12-6.408Zm8.22,3.24A3.125,3.125,0,0,0,48.66-6.48,3.187,3.187,0,0,0,45.348-3.2,3.254,3.254,0,0,0,48.888.084,3.248,3.248,0,0,0,51.468-.96l-.8-.924a2.3,2.3,0,0,1-1.74.7,1.939,1.939,0,0,1-2.076-1.536h5.028C51.888-2.868,51.9-3.048,51.9-3.168ZM48.66-5.28a1.744,1.744,0,0,1,1.812,1.56H46.836A1.771,1.771,0,0,1,48.66-5.28Zm6.108-.192v-.936H53.34V0h1.5V-3.108a1.747,1.747,0,0,1,1.86-1.98,1.9,1.9,0,0,1,.348.036V-6.48A2.522,2.522,0,0,0,54.768-5.472Z" transform="translate(478.302 796)" fill="#1e1e1e"/>
    </g>
    <g id="Group-4" data-name="Group">
      <path id="Path_23" data-name="Path 23" d="M3.732.12c2.3,0,3.4-1.152,3.4-2.5,0-3.084-4.98-1.92-4.98-3.708,0-.636.528-1.14,1.824-1.14a4.668,4.668,0,0,1,2.316.66L6.78-7.776a5.311,5.311,0,0,0-2.8-.744C1.68-8.52.6-7.368.6-6.012c0,3.12,4.992,1.932,4.992,3.744,0,.624-.552,1.092-1.86,1.092A4.654,4.654,0,0,1,.96-2.1L.42-.888A5.412,5.412,0,0,0,3.732.12ZM14.556-3.168a3.125,3.125,0,0,0-3.24-3.312A3.187,3.187,0,0,0,8-3.2,3.254,3.254,0,0,0,11.544.084,3.248,3.248,0,0,0,14.124-.96l-.8-.924a2.3,2.3,0,0,1-1.74.7A1.939,1.939,0,0,1,9.5-2.724h5.028C14.544-2.868,14.556-3.048,14.556-3.168ZM11.316-5.28a1.744,1.744,0,0,1,1.812,1.56H9.492A1.771,1.771,0,0,1,11.316-5.28Zm8.316-1.2a2.786,2.786,0,0,0-2.208.9v-.828H16V0h1.5V-3.24a1.7,1.7,0,0,1,1.788-1.932c.96,0,1.524.552,1.524,1.692V0h1.5V-3.672A2.5,2.5,0,0,0,19.632-6.48ZM29.052-8.9v3.288a2.624,2.624,0,0,0-2.064-.864A3.109,3.109,0,0,0,23.748-3.2,3.118,3.118,0,0,0,26.988.084a2.642,2.642,0,0,0,2.124-.912V0h1.44V-8.9ZM27.168-1.2a1.873,1.873,0,0,1-1.908-2,1.873,1.873,0,0,1,1.908-2,1.873,1.873,0,0,1,1.908,2A1.873,1.873,0,0,1,27.168-1.2Z" transform="translate(820.576 590)" fill="#1e1e1e"/>
      <path id="Path_24" data-name="Path 24" d="M8.3,0,6.372-2.76A2.685,2.685,0,0,0,8.16-5.412C8.16-7.272,6.792-8.4,4.584-8.4H1.128V0h1.56V-2.448h1.9a2.924,2.924,0,0,0,.324-.012L6.624,0ZM6.588-5.412c0,1.056-.708,1.68-2.076,1.68H2.688V-7.08H4.512C5.88-7.08,6.588-6.468,6.588-5.412ZM15.78-3.168A3.125,3.125,0,0,0,12.54-6.48,3.187,3.187,0,0,0,9.228-3.2,3.254,3.254,0,0,0,12.768.084,3.248,3.248,0,0,0,15.348-.96l-.8-.924a2.3,2.3,0,0,1-1.74.7,1.939,1.939,0,0,1-2.076-1.536h5.028C15.768-2.868,15.78-3.048,15.78-3.168ZM12.54-5.28a1.744,1.744,0,0,1,1.812,1.56H10.716A1.771,1.771,0,0,1,12.54-5.28Zm9.516-1.128v.84a2.642,2.642,0,0,0-2.124-.912A3.109,3.109,0,0,0,16.692-3.2,3.112,3.112,0,0,0,19.932.084,2.633,2.633,0,0,0,21.984-.78V2.328h1.5V-6.408ZM20.1-1.2a1.864,1.864,0,0,1-1.9-2,1.864,1.864,0,0,1,1.9-2,1.866,1.866,0,0,1,1.908,2A1.866,1.866,0,0,1,20.1-1.2ZM30.156-6.408v3.24A1.688,1.688,0,0,1,28.4-1.236c-.948,0-1.5-.552-1.5-1.716V-6.408H25.4v3.66A2.535,2.535,0,0,0,28.164.084a2.618,2.618,0,0,0,2.064-.9V0h1.428V-6.408Zm9.492,3.24a3.125,3.125,0,0,0-3.24-3.312A3.187,3.187,0,0,0,33.1-3.2,3.254,3.254,0,0,0,36.636.084,3.248,3.248,0,0,0,39.216-.96l-.8-.924a2.3,2.3,0,0,1-1.74.7A1.939,1.939,0,0,1,34.6-2.724h5.028C39.636-2.868,39.648-3.048,39.648-3.168ZM36.408-5.28A1.744,1.744,0,0,1,38.22-3.72H34.584A1.771,1.771,0,0,1,36.408-5.28ZM43.068.084c1.8,0,2.9-.78,2.9-1.98,0-2.508-3.96-1.356-3.96-2.652,0-.42.432-.72,1.344-.72a3.508,3.508,0,0,1,1.836.48l.576-1.14a5.1,5.1,0,0,0-2.4-.552c-1.728,0-2.82.792-2.82,2,0,2.556,3.96,1.4,3.96,2.628,0,.444-.4.708-1.344.708a4.312,4.312,0,0,1-2.232-.636l-.576,1.14A5.091,5.091,0,0,0,43.068.084Zm7.632-1.5a1.349,1.349,0,0,1-.84.264c-.576,0-.888-.336-.888-.96V-5.16h1.716v-1.2H48.972V-7.824h-1.5V-6.36H46.416v1.2h1.056v3.084A1.969,1.969,0,0,0,49.68.084a2.357,2.357,0,0,0,1.44-.432Z" transform="translate(812.314 601)" fill="#1e1e1e"/>
    </g>
    <path id="Maha-khanij_Server" data-name="Maha-khanij Server" d="M10.32,0l-.012-8.4H9.024L5.748-2.832,2.412-8.4H1.128V0H2.616V-5.5L5.376-.96h.7l2.76-4.608L8.844,0Zm4.572-6.48a4.506,4.506,0,0,0-2.712.792L12.768-4.6a3.172,3.172,0,0,1,1.944-.636c1.068,0,1.6.516,1.6,1.392v.1H14.652c-1.944,0-2.664.84-2.664,1.908,0,1.116.924,1.92,2.388,1.92A2.271,2.271,0,0,0,16.392-.78V0h1.416V-3.756C17.808-5.6,16.74-6.48,14.892-6.48Zm-.2,5.472c-.768,0-1.224-.348-1.224-.888,0-.468.276-.852,1.3-.852h1.548V-2A1.633,1.633,0,0,1,14.688-1.008ZM23.364-6.48a2.857,2.857,0,0,0-2.136.816V-8.9h-1.5V0h1.5V-3.24a1.7,1.7,0,0,1,1.788-1.932c.96,0,1.524.552,1.524,1.692V0h1.5V-3.672A2.5,2.5,0,0,0,23.364-6.48Zm7.032,0a4.506,4.506,0,0,0-2.712.792L28.272-4.6a3.172,3.172,0,0,1,1.944-.636c1.068,0,1.6.516,1.6,1.392v.1H30.156c-1.944,0-2.664.84-2.664,1.908,0,1.116.924,1.92,2.388,1.92A2.271,2.271,0,0,0,31.9-.78V0h1.416V-3.756C33.312-5.6,32.244-6.48,30.4-6.48Zm-.2,5.472c-.768,0-1.224-.348-1.224-.888,0-.468.276-.852,1.3-.852h1.548V-2A1.633,1.633,0,0,1,30.192-1.008Zm4.716-1.7h3.3V-3.96h-3.3ZM44.688,0h1.824L43.584-3.72,46.26-6.408h-1.8l-3.108,2.88V-8.9h-1.5V0h1.5V-1.692l1.116-1.056ZM51.12-6.48a2.857,2.857,0,0,0-2.136.816V-8.9h-1.5V0h1.5V-3.24a1.7,1.7,0,0,1,1.788-1.932c.96,0,1.524.552,1.524,1.692V0h1.5V-3.672A2.5,2.5,0,0,0,51.12-6.48Zm7.032,0a4.506,4.506,0,0,0-2.712.792L56.028-4.6a3.172,3.172,0,0,1,1.944-.636c1.068,0,1.6.516,1.6,1.392v.1H57.912c-1.944,0-2.664.84-2.664,1.908,0,1.116.924,1.92,2.388,1.92A2.271,2.271,0,0,0,59.652-.78V0h1.416V-3.756C61.068-5.6,60-6.48,58.152-6.48Zm-.2,5.472c-.768,0-1.224-.348-1.224-.888,0-.468.276-.852,1.3-.852h1.548V-2A1.633,1.633,0,0,1,57.948-1.008ZM66.624-6.48a2.786,2.786,0,0,0-2.208.9v-.828H62.988V0h1.5V-3.24a1.7,1.7,0,0,1,1.788-1.932c.96,0,1.524.552,1.524,1.692V0h1.5V-3.672A2.5,2.5,0,0,0,66.624-6.48Zm5.34-.984a.921.921,0,0,0,.96-.936.893.893,0,0,0-.96-.864.914.914,0,0,0-.96.9A.914.914,0,0,0,71.964-7.464ZM71.208,0h1.5V-6.408h-1.5Zm4.284-7.464a.921.921,0,0,0,.96-.936.893.893,0,0,0-.96-.864.914.914,0,0,0-.96.9A.914.914,0,0,0,75.492-7.464ZM74.016,2.412A2.079,2.079,0,0,0,76.248.12V-6.408h-1.5V.156c0,.684-.312,1.02-.864,1.02a1.481,1.481,0,0,1-.876-.252L72.576,2.04A2.452,2.452,0,0,0,74.016,2.412ZM84.276.12c2.3,0,3.4-1.152,3.4-2.5,0-3.084-4.98-1.92-4.98-3.708,0-.636.528-1.14,1.824-1.14a4.668,4.668,0,0,1,2.316.66l.492-1.212a5.311,5.311,0,0,0-2.8-.744c-2.3,0-3.384,1.152-3.384,2.508,0,3.12,4.992,1.932,4.992,3.744,0,.624-.552,1.092-1.86,1.092A4.654,4.654,0,0,1,81.5-2.1l-.54,1.212A5.412,5.412,0,0,0,84.276.12ZM95.1-3.168A3.125,3.125,0,0,0,91.86-6.48,3.187,3.187,0,0,0,88.548-3.2,3.254,3.254,0,0,0,92.088.084,3.248,3.248,0,0,0,94.668-.96l-.8-.924a2.3,2.3,0,0,1-1.74.7,1.939,1.939,0,0,1-2.076-1.536h5.028C95.088-2.868,95.1-3.048,95.1-3.168ZM91.86-5.28a1.744,1.744,0,0,1,1.812,1.56H90.036A1.771,1.771,0,0,1,91.86-5.28Zm6.108-.192v-.936H96.54V0h1.5V-3.108a1.747,1.747,0,0,1,1.86-1.98,1.9,1.9,0,0,1,.348.036V-6.48A2.522,2.522,0,0,0,97.968-5.472Zm8.352-.936-2.052,4.752-1.992-4.752h-1.56L103.464,0h1.548l2.748-6.408Zm8.22,3.24A3.125,3.125,0,0,0,111.3-6.48,3.187,3.187,0,0,0,107.988-3.2a3.254,3.254,0,0,0,3.54,3.288,3.248,3.248,0,0,0,2.58-1.044l-.8-.924a2.3,2.3,0,0,1-1.74.7,1.939,1.939,0,0,1-2.076-1.536h5.028C114.528-2.868,114.54-3.048,114.54-3.168ZM111.3-5.28a1.744,1.744,0,0,1,1.812,1.56h-3.636A1.771,1.771,0,0,1,111.3-5.28Zm6.108-.192v-.936H115.98V0h1.5V-3.108a1.747,1.747,0,0,1,1.86-1.98,1.9,1.9,0,0,1,.348.036V-6.48A2.522,2.522,0,0,0,117.408-5.472Z" transform="translate(891.982 651)" fill="#1e1e1e"/>
    <g id="Group-5" data-name="Group">
      <path id="Path_21" data-name="Path 21" d="M3.732.12c2.3,0,3.4-1.152,3.4-2.5,0-3.084-4.98-1.92-4.98-3.708,0-.636.528-1.14,1.824-1.14a4.668,4.668,0,0,1,2.316.66L6.78-7.776a5.311,5.311,0,0,0-2.8-.744C1.68-8.52.6-7.368.6-6.012c0,3.12,4.992,1.932,4.992,3.744,0,.624-.552,1.092-1.86,1.092A4.654,4.654,0,0,1,.96-2.1L.42-.888A5.412,5.412,0,0,0,3.732.12Zm7.74-.036a2.913,2.913,0,0,0,2.736-1.5l-1.152-.672a1.813,1.813,0,0,1-1.6.888,1.874,1.874,0,0,1-1.944-2,1.881,1.881,0,0,1,1.944-2,1.813,1.813,0,0,1,1.6.888l1.152-.672A2.884,2.884,0,0,0,11.472-6.48,3.242,3.242,0,0,0,8-3.2,3.252,3.252,0,0,0,11.472.084Zm6.48-6.564a4.506,4.506,0,0,0-2.712.792L15.828-4.6a3.172,3.172,0,0,1,1.944-.636c1.068,0,1.6.516,1.6,1.392v.1H17.712c-1.944,0-2.664.84-2.664,1.908,0,1.116.924,1.92,2.388,1.92A2.271,2.271,0,0,0,19.452-.78V0h1.416V-3.756C20.868-5.6,19.8-6.48,17.952-6.48Zm-.2,5.472c-.768,0-1.224-.348-1.224-.888,0-.468.276-.852,1.3-.852h1.548V-2A1.633,1.633,0,0,1,17.748-1.008ZM26.424-6.48a2.786,2.786,0,0,0-2.208.9v-.828H22.788V0h1.5V-3.24a1.7,1.7,0,0,1,1.788-1.932c.96,0,1.524.552,1.524,1.692V0h1.5V-3.672A2.5,2.5,0,0,0,26.424-6.48ZM40.416-4.368A2.014,2.014,0,0,0,41.5-6.216c0-1.332-1.08-2.184-3.1-2.184H34.464V0H38.64c2.16,0,3.288-.84,3.288-2.28A2.069,2.069,0,0,0,40.416-4.368ZM38.232-7.176c1.08,0,1.692.384,1.692,1.164S39.312-4.86,38.232-4.86H36.024V-7.176Zm.312,5.952h-2.52V-3.648h2.52c1.176,0,1.812.372,1.812,1.212S39.72-1.224,38.544-1.224ZM45.9-6.48a4.506,4.506,0,0,0-2.712.792L43.776-4.6a3.172,3.172,0,0,1,1.944-.636c1.068,0,1.6.516,1.6,1.392v.1H45.66C43.716-3.744,43-2.9,43-1.836,43-.72,43.92.084,45.384.084A2.271,2.271,0,0,0,47.4-.78V0h1.416V-3.756C48.816-5.6,47.748-6.48,45.9-6.48Zm-.2,5.472c-.768,0-1.224-.348-1.224-.888,0-.468.276-.852,1.3-.852h1.548V-2A1.633,1.633,0,0,1,45.7-1.008Zm6.468-4.464v-.936H50.736V0h1.5V-3.108a1.747,1.747,0,0,1,1.86-1.98,1.9,1.9,0,0,1,.348.036V-6.48A2.522,2.522,0,0,0,52.164-5.472ZM58.6.084a2.913,2.913,0,0,0,2.736-1.5L60.18-2.088a1.813,1.813,0,0,1-1.6.888,1.874,1.874,0,0,1-1.944-2,1.881,1.881,0,0,1,1.944-2,1.813,1.813,0,0,1,1.6.888l1.152-.672A2.884,2.884,0,0,0,58.6-6.48,3.242,3.242,0,0,0,55.128-3.2,3.252,3.252,0,0,0,58.6.084Zm6.816,0A3.232,3.232,0,0,0,68.832-3.2a3.222,3.222,0,0,0-3.42-3.276A3.226,3.226,0,0,0,62-3.2,3.235,3.235,0,0,0,65.412.084Zm0-1.284a1.864,1.864,0,0,1-1.9-2,1.864,1.864,0,0,1,1.9-2,1.866,1.866,0,0,1,1.908,2A1.866,1.866,0,0,1,65.412-1.2Zm9.636-7.7v3.288a2.624,2.624,0,0,0-2.064-.864A3.109,3.109,0,0,0,69.744-3.2,3.118,3.118,0,0,0,72.984.084a2.642,2.642,0,0,0,2.124-.912V0h1.44V-8.9ZM73.164-1.2a1.873,1.873,0,0,1-1.908-2,1.873,1.873,0,0,1,1.908-2,1.873,1.873,0,0,1,1.908,2A1.873,1.873,0,0,1,73.164-1.2ZM84.54-3.168A3.125,3.125,0,0,0,81.3-6.48,3.187,3.187,0,0,0,77.988-3.2,3.254,3.254,0,0,0,81.528.084,3.248,3.248,0,0,0,84.108-.96l-.8-.924a2.3,2.3,0,0,1-1.74.7,1.939,1.939,0,0,1-2.076-1.536h5.028C84.528-2.868,84.54-3.048,84.54-3.168ZM81.3-5.28a1.744,1.744,0,0,1,1.812,1.56H79.476A1.771,1.771,0,0,1,81.3-5.28ZM96.564-.84,95.508-1.848a5.738,5.738,0,0,0,.756-1.92l-1.212-.4a5.448,5.448,0,0,1-.468,1.416L92.772-4.476c1.212-.684,1.716-1.308,1.716-2.172,0-1.14-.888-1.848-2.244-1.848-1.476,0-2.436.8-2.436,1.98a2.543,2.543,0,0,0,.936,1.848C89.376-3.9,88.8-3.168,88.8-2.124,88.8-.8,90.084.12,91.86.12A4.244,4.244,0,0,0,94.68-.888L95.736.132Zm-4.32-6.588c.624,0,.972.324.972.8,0,.456-.312.8-1.284,1.332-.6-.6-.756-.876-.756-1.248C91.176-7.056,91.572-7.428,92.244-7.428ZM91.968-1.1c-1.032,0-1.7-.48-1.7-1.176,0-.6.336-1.044,1.308-1.584l2.22,2.124A2.814,2.814,0,0,1,91.968-1.1ZM107.1-3.168a3.125,3.125,0,0,0-3.24-3.312A3.187,3.187,0,0,0,100.548-3.2a3.254,3.254,0,0,0,3.54,3.288,3.248,3.248,0,0,0,2.58-1.044l-.8-.924a2.3,2.3,0,0,1-1.74.7,1.939,1.939,0,0,1-2.076-1.536h5.028C107.088-2.868,107.1-3.048,107.1-3.168ZM103.86-5.28a1.744,1.744,0,0,1,1.812,1.56h-3.636A1.771,1.771,0,0,1,103.86-5.28Zm8.316-1.2a2.786,2.786,0,0,0-2.208.9v-.828H108.54V0h1.5V-3.24a1.7,1.7,0,0,1,1.788-1.932c.96,0,1.524.552,1.524,1.692V0h1.5V-3.672A2.5,2.5,0,0,0,112.176-6.48Zm8.016,5.064a1.349,1.349,0,0,1-.84.264c-.576,0-.888-.336-.888-.96V-5.16h1.716v-1.2h-1.716V-7.824h-1.5V-6.36h-1.056v1.2h1.056v3.084a1.969,1.969,0,0,0,2.208,2.16,2.357,2.357,0,0,0,1.44-.432Zm7.464-1.752a3.125,3.125,0,0,0-3.24-3.312A3.187,3.187,0,0,0,121.1-3.2a3.254,3.254,0,0,0,3.54,3.288,3.248,3.248,0,0,0,2.58-1.044l-.8-.924a2.3,2.3,0,0,1-1.74.7A1.939,1.939,0,0,1,122.6-2.724h5.028C127.644-2.868,127.656-3.048,127.656-3.168Zm-3.24-2.112a1.744,1.744,0,0,1,1.812,1.56h-3.636A1.771,1.771,0,0,1,124.416-5.28Zm6.108-.192v-.936H129.1V0h1.5V-3.108a1.747,1.747,0,0,1,1.86-1.98,1.9,1.9,0,0,1,.348.036V-6.48A2.522,2.522,0,0,0,130.524-5.472Z" transform="translate(640.66 591)" fill="#1e1e1e"/>
      <path id="Path_22" data-name="Path 22" d="M2.412-5.472v-.936H.984V0h1.5V-3.108a1.747,1.747,0,0,1,1.86-1.98,1.9,1.9,0,0,1,.348.036V-6.48A2.522,2.522,0,0,0,2.412-5.472Zm9.516,2.3A3.125,3.125,0,0,0,8.688-6.48,3.187,3.187,0,0,0,5.376-3.2,3.254,3.254,0,0,0,8.916.084,3.248,3.248,0,0,0,11.5-.96l-.8-.924a2.3,2.3,0,0,1-1.74.7A1.939,1.939,0,0,1,6.876-2.724H11.9C11.916-2.868,11.928-3.048,11.928-3.168ZM8.688-5.28A1.744,1.744,0,0,1,10.5-3.72H6.864A1.771,1.771,0,0,1,8.688-5.28ZM18.2-6.408v.84A2.642,2.642,0,0,0,16.08-6.48,3.109,3.109,0,0,0,12.84-3.2,3.112,3.112,0,0,0,16.08.084,2.633,2.633,0,0,0,18.132-.78V2.328h1.5V-6.408ZM16.248-1.2a1.864,1.864,0,0,1-1.9-2,1.864,1.864,0,0,1,1.9-2,1.866,1.866,0,0,1,1.908,2A1.866,1.866,0,0,1,16.248-1.2ZM26.3-6.408v3.24a1.688,1.688,0,0,1-1.752,1.932c-.948,0-1.5-.552-1.5-1.716V-6.408h-1.5v3.66A2.535,2.535,0,0,0,24.312.084a2.618,2.618,0,0,0,2.064-.9V0H27.8V-6.408Zm4.224-1.056a.921.921,0,0,0,.96-.936.893.893,0,0,0-.96-.864.914.914,0,0,0-.96.9A.914.914,0,0,0,30.528-7.464ZM29.772,0h1.5V-6.408h-1.5Zm4.9-5.472v-.936H33.24V0h1.5V-3.108a1.747,1.747,0,0,1,1.86-1.98,1.9,1.9,0,0,1,.348.036V-6.48A2.522,2.522,0,0,0,34.668-5.472Zm9.516,2.3a3.125,3.125,0,0,0-3.24-3.312A3.187,3.187,0,0,0,37.632-3.2,3.254,3.254,0,0,0,41.172.084,3.248,3.248,0,0,0,43.752-.96l-.8-.924a2.3,2.3,0,0,1-1.74.7,1.939,1.939,0,0,1-2.076-1.536H44.16C44.172-2.868,44.184-3.048,44.184-3.168ZM40.944-5.28a1.744,1.744,0,0,1,1.812,1.56H39.12A1.771,1.771,0,0,1,40.944-5.28ZM50.4-8.9v3.288a2.624,2.624,0,0,0-2.064-.864A3.109,3.109,0,0,0,45.1-3.2,3.118,3.118,0,0,0,48.336.084,2.642,2.642,0,0,0,50.46-.828V0H51.9V-8.9ZM48.516-1.2a1.873,1.873,0,0,1-1.908-2,1.873,1.873,0,0,1,1.908-2,1.873,1.873,0,0,1,1.908,2A1.873,1.873,0,0,1,48.516-1.2ZM63.324-7.464a.921.921,0,0,0,.96-.936.893.893,0,0,0-.96-.864.914.914,0,0,0-.96.9A.914.914,0,0,0,63.324-7.464Zm-5.94.7v.408H56.328v1.2h1.056V0h1.5V-5.16H60.6v-1.2H58.836v-.384c0-.684.324-1.032.948-1.032a1.477,1.477,0,0,1,.828.264l.42-1.128a2.4,2.4,0,0,0-1.356-.348A2.07,2.07,0,0,0,57.384-6.768ZM62.568,0h1.5V-6.408h-1.5ZM72.06-3.168A3.125,3.125,0,0,0,68.82-6.48,3.187,3.187,0,0,0,65.508-3.2,3.254,3.254,0,0,0,69.048.084,3.248,3.248,0,0,0,71.628-.96l-.8-.924a2.3,2.3,0,0,1-1.74.7,1.939,1.939,0,0,1-2.076-1.536h5.028C72.048-2.868,72.06-3.048,72.06-3.168ZM68.82-5.28a1.744,1.744,0,0,1,1.812,1.56H67A1.771,1.771,0,0,1,68.82-5.28ZM73.5,0H75V-8.9H73.5Zm8.244-8.9v3.288A2.624,2.624,0,0,0,79.68-6.48,3.109,3.109,0,0,0,76.44-3.2,3.118,3.118,0,0,0,79.68.084,2.642,2.642,0,0,0,81.8-.828V0h1.44V-8.9ZM79.86-1.2a1.873,1.873,0,0,1-1.908-2,1.873,1.873,0,0,1,1.908-2,1.873,1.873,0,0,1,1.908,2A1.873,1.873,0,0,1,79.86-1.2ZM87.192.084c1.8,0,2.9-.78,2.9-1.98,0-2.508-3.96-1.356-3.96-2.652,0-.42.432-.72,1.344-.72a3.508,3.508,0,0,1,1.836.48l.576-1.14a5.1,5.1,0,0,0-2.4-.552c-1.728,0-2.82.792-2.82,2,0,2.556,3.96,1.4,3.96,2.628,0,.444-.4.708-1.344.708a4.312,4.312,0,0,1-2.232-.636L84.48-.636A5.091,5.091,0,0,0,87.192.084Z" transform="translate(657.796 606)" fill="#1e1e1e"/>
    </g>
    <g id="Group-6" data-name="Group">
      <path id="Path_31" data-name="Path 31" d="M7.248-8.4,4.428-1.92,1.632-8.4H-.06L3.612,0H5.148l3.66-8.4ZM15.1-3.168a3.125,3.125,0,0,0-3.24-3.312A3.187,3.187,0,0,0,8.544-3.2,3.254,3.254,0,0,0,12.084.084,3.248,3.248,0,0,0,14.664-.96l-.8-.924a2.3,2.3,0,0,1-1.74.7,1.939,1.939,0,0,1-2.076-1.536h5.028C15.084-2.868,15.1-3.048,15.1-3.168ZM11.856-5.28a1.744,1.744,0,0,1,1.812,1.56H10.032A1.771,1.771,0,0,1,11.856-5.28Zm6.108-.192v-.936H16.536V0h1.5V-3.108a1.747,1.747,0,0,1,1.86-1.98,1.9,1.9,0,0,1,.348.036V-6.48A2.522,2.522,0,0,0,17.964-5.472Zm4.308-1.992a.921.921,0,0,0,.96-.936.893.893,0,0,0-.96-.864.914.914,0,0,0-.96.9A.914.914,0,0,0,22.272-7.464ZM21.516,0h1.5V-6.408h-1.5Zm6.072-7.776a1.477,1.477,0,0,1,.828.264l.42-1.128a2.4,2.4,0,0,0-1.356-.348,2.07,2.07,0,0,0-2.292,2.22v.408H24.132v1.2h1.056V0h1.5V-5.16H28.4v-1.2H26.64v-.384C26.64-7.428,26.964-7.776,27.588-7.776Zm6.5,1.368-2.028,4.74-2.016-4.74h-1.56l2.8,6.432-.108.252c-.288.636-.6.888-1.128.888a1.625,1.625,0,0,1-1.1-.444l-.6,1.1a2.652,2.652,0,0,0,1.716.588,2.485,2.485,0,0,0,2.472-1.9l3-6.924Zm9.12,4.992a1.349,1.349,0,0,1-.84.264c-.576,0-.888-.336-.888-.96V-5.16H43.2v-1.2H41.484V-7.824h-1.5V-6.36H38.928v1.2h1.056v3.084A1.969,1.969,0,0,0,42.192.084a2.357,2.357,0,0,0,1.44-.432ZM48.5-6.48a2.857,2.857,0,0,0-2.136.816V-8.9h-1.5V0h1.5V-3.24a1.7,1.7,0,0,1,1.788-1.932c.96,0,1.524.552,1.524,1.692V0h1.5V-3.672A2.5,2.5,0,0,0,48.5-6.48ZM59.172-3.168a3.125,3.125,0,0,0-3.24-3.312A3.187,3.187,0,0,0,52.62-3.2,3.254,3.254,0,0,0,56.16.084,3.248,3.248,0,0,0,58.74-.96l-.8-.924a2.3,2.3,0,0,1-1.74.7A1.939,1.939,0,0,1,54.12-2.724h5.028C59.16-2.868,59.172-3.048,59.172-3.168ZM55.932-5.28a1.744,1.744,0,0,1,1.812,1.56H54.108A1.771,1.771,0,0,1,55.932-5.28ZM63.924,0h1.5V-8.9h-1.5Zm9.492-3.168a3.125,3.125,0,0,0-3.24-3.312A3.187,3.187,0,0,0,66.864-3.2,3.254,3.254,0,0,0,70.4.084,3.248,3.248,0,0,0,72.984-.96l-.8-.924a2.3,2.3,0,0,1-1.74.7,1.939,1.939,0,0,1-2.076-1.536h5.028C73.4-2.868,73.416-3.048,73.416-3.168ZM70.176-5.28a1.744,1.744,0,0,1,1.812,1.56H68.352A1.771,1.771,0,0,1,70.176-5.28Zm6.948-1.2a4.506,4.506,0,0,0-2.712.792L75-4.6a3.172,3.172,0,0,1,1.944-.636c1.068,0,1.6.516,1.6,1.392v.1H76.884c-1.944,0-2.664.84-2.664,1.908,0,1.116.924,1.92,2.388,1.92A2.271,2.271,0,0,0,78.624-.78V0H80.04V-3.756C80.04-5.6,78.972-6.48,77.124-6.48Zm-.2,5.472c-.768,0-1.224-.348-1.224-.888,0-.468.276-.852,1.3-.852H78.54V-2A1.633,1.633,0,0,1,76.92-1.008ZM83.94.084c1.8,0,2.9-.78,2.9-1.98,0-2.508-3.96-1.356-3.96-2.652,0-.42.432-.72,1.344-.72a3.508,3.508,0,0,1,1.836.48l.576-1.14a5.1,5.1,0,0,0-2.4-.552c-1.728,0-2.82.792-2.82,2,0,2.556,3.96,1.4,3.96,2.628,0,.444-.4.708-1.344.708A4.312,4.312,0,0,1,81.8-1.776l-.576,1.14A5.091,5.091,0,0,0,83.94.084ZM94.164-3.168a3.125,3.125,0,0,0-3.24-3.312A3.187,3.187,0,0,0,87.612-3.2,3.254,3.254,0,0,0,91.152.084,3.248,3.248,0,0,0,93.732-.96l-.8-.924a2.3,2.3,0,0,1-1.74.7,1.939,1.939,0,0,1-2.076-1.536H94.14C94.152-2.868,94.164-3.048,94.164-3.168ZM90.924-5.28a1.744,1.744,0,0,1,1.812,1.56H89.1A1.771,1.771,0,0,1,90.924-5.28Zm11.628-1.2a2.857,2.857,0,0,0-2.136.816V-8.9h-1.5V0h1.5V-3.24A1.7,1.7,0,0,1,102.2-5.172c.96,0,1.524.552,1.524,1.692V0h1.5V-3.672A2.5,2.5,0,0,0,102.552-6.48ZM110.076.084A3.232,3.232,0,0,0,113.5-3.2a3.222,3.222,0,0,0-3.42-3.276A3.226,3.226,0,0,0,106.668-3.2,3.235,3.235,0,0,0,110.076.084Zm0-1.284a1.864,1.864,0,0,1-1.9-2,1.864,1.864,0,0,1,1.9-2,1.866,1.866,0,0,1,1.908,2A1.866,1.866,0,0,1,110.076-1.2Zm4.86,1.2h1.5V-8.9h-1.5Zm8.244-8.9v3.288a2.624,2.624,0,0,0-2.064-.864,3.109,3.109,0,0,0-3.24,3.276,3.118,3.118,0,0,0,3.24,3.288,2.642,2.642,0,0,0,2.124-.912V0h1.44V-8.9ZM121.3-1.2a1.873,1.873,0,0,1-1.908-2,1.873,1.873,0,0,1,1.908-2,1.873,1.873,0,0,1,1.908,2A1.873,1.873,0,0,1,121.3-1.2Zm11.376-1.968a3.125,3.125,0,0,0-3.24-3.312A3.187,3.187,0,0,0,126.12-3.2,3.254,3.254,0,0,0,129.66.084,3.248,3.248,0,0,0,132.24-.96l-.8-.924a2.3,2.3,0,0,1-1.74.7,1.939,1.939,0,0,1-2.076-1.536h5.028C132.66-2.868,132.672-3.048,132.672-3.168Zm-3.24-2.112a1.744,1.744,0,0,1,1.812,1.56h-3.636A1.771,1.771,0,0,1,129.432-5.28Zm6.108-.192v-.936h-1.428V0h1.5V-3.108a1.747,1.747,0,0,1,1.86-1.98,1.9,1.9,0,0,1,.348.036V-6.48A2.522,2.522,0,0,0,135.54-5.472Z" transform="translate(633.916 773)" fill="#1e1e1e"/>
      <path id="Path_32" data-name="Path 32" d="M5.76-8.9v3.288A2.624,2.624,0,0,0,3.7-6.48,3.109,3.109,0,0,0,.456-3.2,3.118,3.118,0,0,0,3.7.084,2.642,2.642,0,0,0,5.82-.828V0H7.26V-8.9ZM3.876-1.2a1.873,1.873,0,0,1-1.908-2,1.873,1.873,0,0,1,1.908-2,1.873,1.873,0,0,1,1.908,2A1.873,1.873,0,0,1,3.876-1.2ZM15.252-3.168a3.125,3.125,0,0,0-3.24-3.312A3.187,3.187,0,0,0,8.7-3.2,3.254,3.254,0,0,0,12.24.084,3.248,3.248,0,0,0,14.82-.96l-.8-.924a2.3,2.3,0,0,1-1.74.7A1.939,1.939,0,0,1,10.2-2.724h5.028C15.24-2.868,15.252-3.048,15.252-3.168ZM12.012-5.28a1.744,1.744,0,0,1,1.812,1.56H10.188A1.771,1.771,0,0,1,12.012-5.28Zm8.112,3.864a1.349,1.349,0,0,1-.84.264c-.576,0-.888-.336-.888-.96V-5.16h1.716v-1.2H18.4V-7.824H16.9V-6.36H15.84v1.2H16.9v3.084A1.969,1.969,0,0,0,19.1.084a2.357,2.357,0,0,0,1.44-.432Zm4.1-5.064a4.506,4.506,0,0,0-2.712.792L22.1-4.6a3.172,3.172,0,0,1,1.944-.636c1.068,0,1.6.516,1.6,1.392v.1H23.988c-1.944,0-2.664.84-2.664,1.908,0,1.116.924,1.92,2.388,1.92A2.271,2.271,0,0,0,25.728-.78V0h1.416V-3.756C27.144-5.6,26.076-6.48,24.228-6.48Zm-.2,5.472c-.768,0-1.224-.348-1.224-.888,0-.468.276-.852,1.3-.852h1.548V-2A1.633,1.633,0,0,1,24.024-1.008Zm5.8-6.456a.921.921,0,0,0,.96-.936.893.893,0,0,0-.96-.864.914.914,0,0,0-.96.9A.914.914,0,0,0,29.82-7.464ZM29.064,0h1.5V-6.408h-1.5Zm3.468,0h1.5V-8.9h-1.5ZM37.98.084c1.8,0,2.9-.78,2.9-1.98,0-2.508-3.96-1.356-3.96-2.652,0-.42.432-.72,1.344-.72a3.508,3.508,0,0,1,1.836.48l.576-1.14a5.1,5.1,0,0,0-2.4-.552c-1.728,0-2.82.792-2.82,2,0,2.556,3.96,1.4,3.96,2.628,0,.444-.4.708-1.344.708a4.312,4.312,0,0,1-2.232-.636l-.576,1.14A5.091,5.091,0,0,0,37.98.084ZM47.94-6.48a4.506,4.506,0,0,0-2.712.792L45.816-4.6a3.172,3.172,0,0,1,1.944-.636c1.068,0,1.6.516,1.6,1.392v.1H47.7c-1.944,0-2.664.84-2.664,1.908,0,1.116.924,1.92,2.388,1.92A2.271,2.271,0,0,0,49.44-.78V0h1.416V-3.756C50.856-5.6,49.788-6.48,47.94-6.48Zm-.2,5.472c-.768,0-1.224-.348-1.224-.888,0-.468.276-.852,1.3-.852h1.548V-2A1.633,1.633,0,0,1,47.736-1.008ZM56.412-6.48a2.786,2.786,0,0,0-2.208.9v-.828H52.776V0h1.5V-3.24a1.7,1.7,0,0,1,1.788-1.932c.96,0,1.524.552,1.524,1.692V0h1.5V-3.672A2.5,2.5,0,0,0,56.412-6.48ZM65.832-8.9v3.288a2.624,2.624,0,0,0-2.064-.864A3.109,3.109,0,0,0,60.528-3.2,3.118,3.118,0,0,0,63.768.084a2.642,2.642,0,0,0,2.124-.912V0h1.44V-8.9ZM63.948-1.2a1.873,1.873,0,0,1-1.908-2,1.873,1.873,0,0,1,1.908-2,1.873,1.873,0,0,1,1.908,2A1.873,1.873,0,0,1,63.948-1.2ZM76.164-6.48a2.642,2.642,0,0,0-2.124.912v-.84H72.612V2.328h1.5V-.78a2.633,2.633,0,0,0,2.052.864A3.121,3.121,0,0,0,79.416-3.2,3.118,3.118,0,0,0,76.164-6.48ZM76-1.2a1.873,1.873,0,0,1-1.908-2,1.873,1.873,0,0,1,1.908-2,1.864,1.864,0,0,1,1.9,2A1.864,1.864,0,0,1,76-1.2ZM86.868-3.168a3.125,3.125,0,0,0-3.24-3.312A3.187,3.187,0,0,0,80.316-3.2,3.254,3.254,0,0,0,83.856.084,3.248,3.248,0,0,0,86.436-.96l-.8-.924a2.3,2.3,0,0,1-1.74.7,1.939,1.939,0,0,1-2.076-1.536h5.028C86.856-2.868,86.868-3.048,86.868-3.168ZM83.628-5.28A1.744,1.744,0,0,1,85.44-3.72H81.8A1.771,1.771,0,0,1,83.628-5.28Zm6.108-.192v-.936H88.308V0h1.5V-3.108a1.747,1.747,0,0,1,1.86-1.98,1.9,1.9,0,0,1,.348.036V-6.48A2.522,2.522,0,0,0,89.736-5.472Zm11.64-1.008a2.991,2.991,0,0,0-2.4,1.068,2.4,2.4,0,0,0-2.16-1.068,2.654,2.654,0,0,0-2.1.888v-.816H93.288V0h1.5V-3.252c0-1.272.672-1.92,1.668-1.92.912,0,1.44.552,1.44,1.692V0h1.5V-3.252c0-1.272.684-1.92,1.668-1.92.912,0,1.44.552,1.44,1.692V0H104V-3.672C104-5.6,102.924-6.48,101.376-6.48Zm5.3-.984a.921.921,0,0,0,.96-.936.893.893,0,0,0-.96-.864.914.914,0,0,0-.96.9A.914.914,0,0,0,106.68-7.464ZM105.924,0h1.5V-6.408h-1.5Zm5.448.084c1.8,0,2.9-.78,2.9-1.98,0-2.508-3.96-1.356-3.96-2.652,0-.42.432-.72,1.344-.72a3.508,3.508,0,0,1,1.836.48l.576-1.14a5.1,5.1,0,0,0-2.4-.552c-1.728,0-2.82.792-2.82,2,0,2.556,3.96,1.4,3.96,2.628,0,.444-.4.708-1.344.708a4.312,4.312,0,0,1-2.232-.636l-.576,1.14A5.091,5.091,0,0,0,111.372.084Zm6.18,0c1.8,0,2.9-.78,2.9-1.98,0-2.508-3.96-1.356-3.96-2.652,0-.42.432-.72,1.344-.72a3.508,3.508,0,0,1,1.836.48l.576-1.14a5.1,5.1,0,0,0-2.4-.552c-1.728,0-2.82.792-2.82,2,0,2.556,3.96,1.4,3.96,2.628,0,.444-.4.708-1.344.708a4.312,4.312,0,0,1-2.232-.636l-.576,1.14A5.091,5.091,0,0,0,117.552.084Zm4.956-7.548a.921.921,0,0,0,.96-.936.893.893,0,0,0-.96-.864.914.914,0,0,0-.96.9A.914.914,0,0,0,122.508-7.464ZM121.752,0h1.5V-6.408h-1.5Zm7.02-6.48a2.664,2.664,0,0,0-2.052.852V-8.9h-1.5V0h1.428V-.828a2.642,2.642,0,0,0,2.124.912A3.121,3.121,0,0,0,132.024-3.2,3.112,3.112,0,0,0,128.772-6.48ZM128.6-1.2a1.873,1.873,0,0,1-1.908-2,1.873,1.873,0,0,1,1.908-2,1.864,1.864,0,0,1,1.9,2A1.864,1.864,0,0,1,128.6-1.2ZM133.452,0h1.5V-8.9h-1.5Zm9.492-3.168A3.125,3.125,0,0,0,139.7-6.48,3.187,3.187,0,0,0,136.392-3.2a3.254,3.254,0,0,0,3.54,3.288,3.248,3.248,0,0,0,2.58-1.044l-.8-.924a2.3,2.3,0,0,1-1.74.7,1.939,1.939,0,0,1-2.076-1.536h5.028C142.932-2.868,142.944-3.048,142.944-3.168ZM139.7-5.28a1.744,1.744,0,0,1,1.812,1.56H137.88A1.771,1.771,0,0,1,139.7-5.28Z" transform="translate(631.3 788)" fill="#1e1e1e"/>
      <path id="Path_33" data-name="Path 33" d="M5.82-6.408v.84A2.642,2.642,0,0,0,3.7-6.48,3.109,3.109,0,0,0,.456-3.2,3.112,3.112,0,0,0,3.7.084,2.633,2.633,0,0,0,5.748-.78V2.328h1.5V-6.408ZM3.864-1.2a1.864,1.864,0,0,1-1.9-2,1.864,1.864,0,0,1,1.9-2,1.866,1.866,0,0,1,1.908,2A1.866,1.866,0,0,1,3.864-1.2ZM13.92-6.408v3.24a1.688,1.688,0,0,1-1.752,1.932c-.948,0-1.5-.552-1.5-1.716V-6.408h-1.5v3.66A2.535,2.535,0,0,0,11.928.084a2.618,2.618,0,0,0,2.064-.9V0H15.42V-6.408Zm5.916-.072a4.506,4.506,0,0,0-2.712.792L17.712-4.6a3.172,3.172,0,0,1,1.944-.636c1.068,0,1.6.516,1.6,1.392v.1H19.6c-1.944,0-2.664.84-2.664,1.908,0,1.116.924,1.92,2.388,1.92A2.271,2.271,0,0,0,21.336-.78V0h1.416V-3.756C22.752-5.6,21.684-6.48,19.836-6.48Zm-.2,5.472c-.768,0-1.224-.348-1.224-.888,0-.468.276-.852,1.3-.852h1.548V-2A1.633,1.633,0,0,1,19.632-1.008ZM28.308-6.48a2.786,2.786,0,0,0-2.208.9v-.828H24.672V0h1.5V-3.24A1.7,1.7,0,0,1,27.96-5.172c.96,0,1.524.552,1.524,1.692V0h1.5V-3.672A2.5,2.5,0,0,0,28.308-6.48Zm8.016,5.064a1.349,1.349,0,0,1-.84.264c-.576,0-.888-.336-.888-.96V-5.16h1.716v-1.2H34.6V-7.824H33.1V-6.36H32.04v1.2H33.1v3.084A1.969,1.969,0,0,0,35.3.084a2.357,2.357,0,0,0,1.44-.432Zm2.412-6.048A.921.921,0,0,0,39.7-8.4a.893.893,0,0,0-.96-.864.914.914,0,0,0-.96.9A.914.914,0,0,0,38.736-7.464ZM37.98,0h1.5V-6.408h-1.5Zm6.9-1.416a1.349,1.349,0,0,1-.84.264c-.576,0-.888-.336-.888-.96V-5.16h1.716v-1.2H43.152V-7.824h-1.5V-6.36H40.6v1.2h1.056v3.084A1.969,1.969,0,0,0,43.86.084,2.357,2.357,0,0,0,45.3-.348Zm6.1-4.992-2.028,4.74-2.016-4.74h-1.56l2.8,6.432L48.06.276c-.288.636-.6.888-1.128.888a1.625,1.625,0,0,1-1.1-.444l-.6,1.1a2.652,2.652,0,0,0,1.716.588,2.485,2.485,0,0,0,2.472-1.9l3-6.924Z" transform="translate(676.816 803)" fill="#1e1e1e"/>
    </g>
    <g id="Group-7" data-name="Group">
      <path id="Path_16" data-name="Path 16" d="M1.128,0H7.08V-1.32H2.688V-8.4H1.128ZM14.136-3.168A3.125,3.125,0,0,0,10.9-6.48,3.187,3.187,0,0,0,7.584-3.2,3.254,3.254,0,0,0,11.124.084,3.248,3.248,0,0,0,13.7-.96l-.8-.924a2.3,2.3,0,0,1-1.74.7A1.939,1.939,0,0,1,9.084-2.724h5.028C14.124-2.868,14.136-3.048,14.136-3.168ZM10.9-5.28a1.744,1.744,0,0,1,1.812,1.56H9.072A1.771,1.771,0,0,1,10.9-5.28Zm6.948-1.2a4.506,4.506,0,0,0-2.712.792L15.72-4.6a3.172,3.172,0,0,1,1.944-.636c1.068,0,1.6.516,1.6,1.392v.1H17.6c-1.944,0-2.664.84-2.664,1.908,0,1.116.924,1.92,2.388,1.92A2.271,2.271,0,0,0,19.344-.78V0H20.76V-3.756C20.76-5.6,19.692-6.48,17.844-6.48Zm-.2,5.472c-.768,0-1.224-.348-1.224-.888,0-.468.276-.852,1.3-.852H19.26V-2A1.633,1.633,0,0,1,17.64-1.008ZM24.66.084c1.8,0,2.9-.78,2.9-1.98,0-2.508-3.96-1.356-3.96-2.652,0-.42.432-.72,1.344-.72a3.508,3.508,0,0,1,1.836.48l.576-1.14a5.1,5.1,0,0,0-2.4-.552c-1.728,0-2.82.792-2.82,2,0,2.556,3.96,1.4,3.96,2.628,0,.444-.4.708-1.344.708a4.312,4.312,0,0,1-2.232-.636l-.576,1.14A5.091,5.091,0,0,0,24.66.084ZM34.884-3.168a3.125,3.125,0,0,0-3.24-3.312A3.187,3.187,0,0,0,28.332-3.2,3.254,3.254,0,0,0,31.872.084,3.248,3.248,0,0,0,34.452-.96l-.8-.924a2.3,2.3,0,0,1-1.74.7,1.939,1.939,0,0,1-2.076-1.536H34.86C34.872-2.868,34.884-3.048,34.884-3.168ZM31.644-5.28a1.744,1.744,0,0,1,1.812,1.56H29.82A1.771,1.771,0,0,1,31.644-5.28Zm11.628-1.2a2.857,2.857,0,0,0-2.136.816V-8.9h-1.5V0h1.5V-3.24a1.7,1.7,0,0,1,1.788-1.932c.96,0,1.524.552,1.524,1.692V0h1.5V-3.672A2.5,2.5,0,0,0,43.272-6.48ZM50.8.084A3.232,3.232,0,0,0,54.216-3.2,3.222,3.222,0,0,0,50.8-6.48,3.226,3.226,0,0,0,47.388-3.2,3.235,3.235,0,0,0,50.8.084Zm0-1.284a1.864,1.864,0,0,1-1.9-2,1.864,1.864,0,0,1,1.9-2,1.866,1.866,0,0,1,1.908,2A1.866,1.866,0,0,1,50.8-1.2ZM55.656,0h1.5V-8.9h-1.5ZM63.9-8.9v3.288a2.624,2.624,0,0,0-2.064-.864A3.109,3.109,0,0,0,58.6-3.2,3.118,3.118,0,0,0,61.836.084,2.642,2.642,0,0,0,63.96-.828V0H65.4V-8.9ZM62.016-1.2a1.873,1.873,0,0,1-1.908-2,1.873,1.873,0,0,1,1.908-2,1.873,1.873,0,0,1,1.908,2A1.873,1.873,0,0,1,62.016-1.2ZM73.392-3.168a3.125,3.125,0,0,0-3.24-3.312A3.187,3.187,0,0,0,66.84-3.2,3.254,3.254,0,0,0,70.38.084,3.248,3.248,0,0,0,72.96-.96l-.8-.924a2.3,2.3,0,0,1-1.74.7A1.939,1.939,0,0,1,68.34-2.724h5.028C73.38-2.868,73.392-3.048,73.392-3.168ZM70.152-5.28a1.744,1.744,0,0,1,1.812,1.56H68.328A1.771,1.771,0,0,1,70.152-5.28Zm6.108-.192v-.936H74.832V0h1.5V-3.108a1.747,1.747,0,0,1,1.86-1.98,1.9,1.9,0,0,1,.348.036V-6.48A2.522,2.522,0,0,0,76.26-5.472ZM86.124.084a2.913,2.913,0,0,0,2.736-1.5l-1.152-.672a1.813,1.813,0,0,1-1.6.888,1.874,1.874,0,0,1-1.944-2,1.881,1.881,0,0,1,1.944-2,1.813,1.813,0,0,1,1.6.888l1.152-.672A2.884,2.884,0,0,0,86.124-6.48,3.242,3.242,0,0,0,82.656-3.2,3.252,3.252,0,0,0,86.124.084Zm5.46-5.556v-.936H90.156V0h1.5V-3.108a1.747,1.747,0,0,1,1.86-1.98,1.9,1.9,0,0,1,.348.036V-6.48A2.522,2.522,0,0,0,91.584-5.472Zm9.516,2.3A3.125,3.125,0,0,0,97.86-6.48,3.187,3.187,0,0,0,94.548-3.2,3.254,3.254,0,0,0,98.088.084a3.248,3.248,0,0,0,2.58-1.044l-.8-.924a2.3,2.3,0,0,1-1.74.7,1.939,1.939,0,0,1-2.076-1.536h5.028C101.088-2.868,101.1-3.048,101.1-3.168ZM97.86-5.28a1.744,1.744,0,0,1,1.812,1.56H96.036A1.771,1.771,0,0,1,97.86-5.28Zm6.948-1.2a4.506,4.506,0,0,0-2.712.792l.588,1.092a3.172,3.172,0,0,1,1.944-.636c1.068,0,1.6.516,1.6,1.392v.1h-1.656c-1.944,0-2.664.84-2.664,1.908,0,1.116.924,1.92,2.388,1.92a2.271,2.271,0,0,0,2.016-.864V0h1.416V-3.756C107.724-5.6,106.656-6.48,104.808-6.48Zm-.2,5.472c-.768,0-1.224-.348-1.224-.888,0-.468.276-.852,1.3-.852h1.548V-2A1.633,1.633,0,0,1,104.6-1.008Zm8.472-.408a1.349,1.349,0,0,1-.84.264c-.576,0-.888-.336-.888-.96V-5.16h1.716v-1.2h-1.716V-7.824h-1.5V-6.36h-1.056v1.2h1.056v3.084a1.969,1.969,0,0,0,2.208,2.16,2.357,2.357,0,0,0,1.44-.432Zm7.464-1.752A3.125,3.125,0,0,0,117.3-6.48,3.187,3.187,0,0,0,113.988-3.2a3.254,3.254,0,0,0,3.54,3.288,3.248,3.248,0,0,0,2.58-1.044l-.8-.924a2.3,2.3,0,0,1-1.74.7,1.939,1.939,0,0,1-2.076-1.536h5.028C120.528-2.868,120.54-3.048,120.54-3.168ZM117.3-5.28a1.744,1.744,0,0,1,1.812,1.56h-3.636A1.771,1.771,0,0,1,117.3-5.28ZM123.96.084c1.8,0,2.9-.78,2.9-1.98,0-2.508-3.96-1.356-3.96-2.652,0-.42.432-.72,1.344-.72a3.508,3.508,0,0,1,1.836.48l.576-1.14a5.1,5.1,0,0,0-2.4-.552c-1.728,0-2.82.792-2.82,2,0,2.556,3.96,1.4,3.96,2.628,0,.444-.4.708-1.344.708a4.312,4.312,0,0,1-2.232-.636l-.576,1.14A5.091,5.091,0,0,0,123.96.084Z" transform="translate(51.412 583)" fill="#1e1e1e"/>
      <path id="Path_17" data-name="Path 17" d="M2.964.084c1.8,0,2.9-.78,2.9-1.98,0-2.508-3.96-1.356-3.96-2.652,0-.42.432-.72,1.344-.72a3.508,3.508,0,0,1,1.836.48l.576-1.14a5.1,5.1,0,0,0-2.4-.552c-1.728,0-2.82.792-2.82,2,0,2.556,3.96,1.4,3.96,2.628,0,.444-.4.708-1.344.708A4.312,4.312,0,0,1,.828-1.776L.252-.636A5.091,5.091,0,0,0,2.964.084Zm8.9-6.492v3.24a1.688,1.688,0,0,1-1.752,1.932c-.948,0-1.5-.552-1.5-1.716V-6.408h-1.5v3.66A2.535,2.535,0,0,0,9.876.084a2.618,2.618,0,0,0,2.064-.9V0h1.428V-6.408Zm7.02-.072a2.642,2.642,0,0,0-2.124.912v-.84H15.336V2.328h1.5V-.78a2.633,2.633,0,0,0,2.052.864A3.121,3.121,0,0,0,22.14-3.2,3.118,3.118,0,0,0,18.888-6.48ZM18.72-1.2a1.873,1.873,0,0,1-1.908-2,1.873,1.873,0,0,1,1.908-2,1.864,1.864,0,0,1,1.9,2A1.864,1.864,0,0,1,18.72-1.2ZM29.592-3.168a3.125,3.125,0,0,0-3.24-3.312A3.187,3.187,0,0,0,23.04-3.2,3.254,3.254,0,0,0,26.58.084,3.248,3.248,0,0,0,29.16-.96l-.8-.924a2.3,2.3,0,0,1-1.74.7A1.939,1.939,0,0,1,24.54-2.724h5.028C29.58-2.868,29.592-3.048,29.592-3.168ZM26.352-5.28a1.744,1.744,0,0,1,1.812,1.56H24.528A1.771,1.771,0,0,1,26.352-5.28Zm6.108-.192v-.936H31.032V0h1.5V-3.108a1.747,1.747,0,0,1,1.86-1.98,1.9,1.9,0,0,1,.348.036V-6.48A2.522,2.522,0,0,0,32.46-5.472Zm8.352-.936L38.76-1.656,36.768-6.408h-1.56L37.956,0H39.5l2.748-6.408Zm3.132-1.056A.921.921,0,0,0,44.9-8.4a.893.893,0,0,0-.96-.864.914.914,0,0,0-.96.9A.914.914,0,0,0,43.944-7.464ZM43.188,0h1.5V-6.408h-1.5Zm5.448.084c1.8,0,2.9-.78,2.9-1.98,0-2.508-3.96-1.356-3.96-2.652,0-.42.432-.72,1.344-.72a3.508,3.508,0,0,1,1.836.48l.576-1.14a5.1,5.1,0,0,0-2.4-.552c-1.728,0-2.82.792-2.82,2,0,2.556,3.96,1.4,3.96,2.628,0,.444-.4.708-1.344.708A4.312,4.312,0,0,1,46.5-1.776l-.576,1.14A5.091,5.091,0,0,0,48.636.084Zm7.08,0A3.232,3.232,0,0,0,59.136-3.2a3.222,3.222,0,0,0-3.42-3.276A3.226,3.226,0,0,0,52.308-3.2,3.235,3.235,0,0,0,55.716.084Zm0-1.284a1.864,1.864,0,0,1-1.9-2,1.864,1.864,0,0,1,1.9-2,1.866,1.866,0,0,1,1.908,2A1.866,1.866,0,0,1,55.716-1.2ZM62-5.472v-.936H60.576V0h1.5V-3.108a1.747,1.747,0,0,1,1.86-1.98,1.9,1.9,0,0,1,.348.036V-6.48A2.522,2.522,0,0,0,62-5.472Zm9.528-2.3a1.477,1.477,0,0,1,.828.264l.42-1.128a2.4,2.4,0,0,0-1.356-.348,2.07,2.07,0,0,0-2.292,2.22v.408H68.076v1.2h1.056V0h1.5V-5.16h1.716v-1.2H70.584v-.384C70.584-7.428,70.908-7.776,71.532-7.776ZM76.14.084A3.232,3.232,0,0,0,79.56-3.2,3.222,3.222,0,0,0,76.14-6.48,3.226,3.226,0,0,0,72.732-3.2,3.235,3.235,0,0,0,76.14.084Zm0-1.284a1.864,1.864,0,0,1-1.9-2,1.864,1.864,0,0,1,1.9-2,1.866,1.866,0,0,1,1.908,2A1.866,1.866,0,0,1,76.14-1.2Zm6.288-4.272v-.936H81V0h1.5V-3.108a1.747,1.747,0,0,1,1.86-1.98,1.9,1.9,0,0,1,.348.036V-6.48A2.522,2.522,0,0,0,82.428-5.472Zm12.948,2.3a3.125,3.125,0,0,0-3.24-3.312A3.187,3.187,0,0,0,88.824-3.2,3.254,3.254,0,0,0,92.364.084,3.248,3.248,0,0,0,94.944-.96l-.8-.924a2.3,2.3,0,0,1-1.74.7,1.939,1.939,0,0,1-2.076-1.536h5.028C95.364-2.868,95.376-3.048,95.376-3.168ZM92.136-5.28a1.744,1.744,0,0,1,1.812,1.56H90.312A1.771,1.771,0,0,1,92.136-5.28Zm6.948-1.2a4.506,4.506,0,0,0-2.712.792L96.96-4.6A3.172,3.172,0,0,1,98.9-5.232c1.068,0,1.6.516,1.6,1.392v.1H98.844c-1.944,0-2.664.84-2.664,1.908,0,1.116.924,1.92,2.388,1.92a2.271,2.271,0,0,0,2.016-.864V0H102V-3.756C102-5.6,100.932-6.48,99.084-6.48Zm-.2,5.472c-.768,0-1.224-.348-1.224-.888,0-.468.276-.852,1.3-.852H100.5V-2A1.633,1.633,0,0,1,98.88-1.008ZM106.92.084a2.913,2.913,0,0,0,2.736-1.5L108.5-2.088a1.813,1.813,0,0,1-1.6.888,1.874,1.874,0,0,1-1.944-2,1.881,1.881,0,0,1,1.944-2,1.813,1.813,0,0,1,1.6.888l1.152-.672A2.884,2.884,0,0,0,106.92-6.48,3.242,3.242,0,0,0,103.452-3.2,3.252,3.252,0,0,0,106.92.084Zm7.608-6.564a2.857,2.857,0,0,0-2.136.816V-8.9h-1.5V0h1.5V-3.24a1.7,1.7,0,0,1,1.788-1.932c.96,0,1.524.552,1.524,1.692V0h1.5V-3.672A2.5,2.5,0,0,0,114.528-6.48ZM125.3.084a3.232,3.232,0,0,0,3.42-3.288A3.222,3.222,0,0,0,125.3-6.48,3.226,3.226,0,0,0,121.9-3.2,3.235,3.235,0,0,0,125.3.084Zm0-1.284a1.864,1.864,0,0,1-1.9-2,1.864,1.864,0,0,1,1.9-2,1.866,1.866,0,0,1,1.908,2A1.866,1.866,0,0,1,125.3-1.2Zm7.464-6.576a1.477,1.477,0,0,1,.828.264l.42-1.128a2.4,2.4,0,0,0-1.356-.348,2.07,2.07,0,0,0-2.292,2.22v.408h-1.056v1.2h1.056V0h1.5V-5.16h1.716v-1.2H131.82v-.384C131.82-7.428,132.144-7.776,132.768-7.776Z" transform="translate(48.196 598)" fill="#1e1e1e"/>
      <path id="Path_18" data-name="Path 18" d="M4.62-6.48a2.857,2.857,0,0,0-2.136.816V-8.9H.984V0h1.5V-3.24A1.7,1.7,0,0,1,4.272-5.172c.96,0,1.524.552,1.524,1.692V0H7.3V-3.672A2.5,2.5,0,0,0,4.62-6.48Zm5.34-.984a.921.921,0,0,0,.96-.936.893.893,0,0,0-.96-.864.914.914,0,0,0-.96.9A.914.914,0,0,0,9.96-7.464ZM9.2,0h1.5V-6.408H9.2Zm5.448.084c1.8,0,2.9-.78,2.9-1.98,0-2.508-3.96-1.356-3.96-2.652,0-.42.432-.72,1.344-.72a3.508,3.508,0,0,1,1.836.48l.576-1.14a5.1,5.1,0,0,0-2.4-.552c-1.728,0-2.82.792-2.82,2,0,2.556,3.96,1.4,3.96,2.628,0,.444-.4.708-1.344.708a4.312,4.312,0,0,1-2.232-.636L11.94-.636A5.091,5.091,0,0,0,14.652.084ZM25.764-8.4H22.308V0h1.56V-2.424h1.9c2.208,0,3.576-1.14,3.576-2.988S27.972-8.4,25.764-8.4Zm-.072,4.656H23.868V-7.08h1.824c1.368,0,2.076.612,2.076,1.668S27.06-3.744,25.692-3.744ZM30.876,0h1.5V-8.9h-1.5Zm6.348.084A3.232,3.232,0,0,0,40.644-3.2a3.222,3.222,0,0,0-3.42-3.276A3.226,3.226,0,0,0,33.816-3.2,3.235,3.235,0,0,0,37.224.084Zm0-1.284a1.864,1.864,0,0,1-1.9-2,1.864,1.864,0,0,1,1.9-2,1.866,1.866,0,0,1,1.908,2A1.866,1.866,0,0,1,37.224-1.2Zm8.292-.216a1.349,1.349,0,0,1-.84.264c-.576,0-.888-.336-.888-.96V-5.16H45.5v-1.2H43.788V-7.824h-1.5V-6.36H41.232v1.2h1.056v3.084A1.969,1.969,0,0,0,44.5.084a2.357,2.357,0,0,0,1.44-.432Z" transform="translate(91.906 613)" fill="#1e1e1e"/>
    </g>
    <path id="SMS" d="M3.732.12c2.3,0,3.4-1.152,3.4-2.5,0-3.084-4.98-1.92-4.98-3.708,0-.636.528-1.14,1.824-1.14a4.668,4.668,0,0,1,2.316.66L6.78-7.776a5.311,5.311,0,0,0-2.8-.744C1.68-8.52.6-7.368.6-6.012c0,3.12,4.992,1.932,4.992,3.744,0,.624-.552,1.092-1.86,1.092A4.654,4.654,0,0,1,.96-2.1L.42-.888A5.412,5.412,0,0,0,3.732.12ZM17.868,0l-.012-8.4H16.572L13.3-2.832,9.96-8.4H8.676V0h1.488V-5.5L12.924-.96h.7l2.76-4.608L16.392,0ZM22.74.12c2.3,0,3.4-1.152,3.4-2.5,0-3.084-4.98-1.92-4.98-3.708,0-.636.528-1.14,1.824-1.14a4.668,4.668,0,0,1,2.316.66l.492-1.212a5.311,5.311,0,0,0-2.8-.744c-2.3,0-3.384,1.152-3.384,2.508,0,3.12,4.992,1.932,4.992,3.744,0,.624-.552,1.092-1.86,1.092A4.654,4.654,0,0,1,19.968-2.1l-.54,1.212A5.412,5.412,0,0,0,22.74.12Z" transform="translate(493.722 694)" fill="#1e1e1e"/>
    <path id="Maha-khanij_Web_portal" data-name="Maha-khanij Web portal" d="M10.32,0l-.012-8.4H9.024L5.748-2.832,2.412-8.4H1.128V0H2.616V-5.5L5.376-.96h.7l2.76-4.608L8.844,0Zm4.572-6.48a4.506,4.506,0,0,0-2.712.792L12.768-4.6a3.172,3.172,0,0,1,1.944-.636c1.068,0,1.6.516,1.6,1.392v.1H14.652c-1.944,0-2.664.84-2.664,1.908,0,1.116.924,1.92,2.388,1.92A2.271,2.271,0,0,0,16.392-.78V0h1.416V-3.756C17.808-5.6,16.74-6.48,14.892-6.48Zm-.2,5.472c-.768,0-1.224-.348-1.224-.888,0-.468.276-.852,1.3-.852h1.548V-2A1.633,1.633,0,0,1,14.688-1.008ZM23.364-6.48a2.857,2.857,0,0,0-2.136.816V-8.9h-1.5V0h1.5V-3.24a1.7,1.7,0,0,1,1.788-1.932c.96,0,1.524.552,1.524,1.692V0h1.5V-3.672A2.5,2.5,0,0,0,23.364-6.48Zm7.032,0a4.506,4.506,0,0,0-2.712.792L28.272-4.6a3.172,3.172,0,0,1,1.944-.636c1.068,0,1.6.516,1.6,1.392v.1H30.156c-1.944,0-2.664.84-2.664,1.908,0,1.116.924,1.92,2.388,1.92A2.271,2.271,0,0,0,31.9-.78V0h1.416V-3.756C33.312-5.6,32.244-6.48,30.4-6.48Zm-.2,5.472c-.768,0-1.224-.348-1.224-.888,0-.468.276-.852,1.3-.852h1.548V-2A1.633,1.633,0,0,1,30.192-1.008Zm4.716-1.7h3.3V-3.96h-3.3ZM44.688,0h1.824L43.584-3.72,46.26-6.408h-1.8l-3.108,2.88V-8.9h-1.5V0h1.5V-1.692l1.116-1.056ZM51.12-6.48a2.857,2.857,0,0,0-2.136.816V-8.9h-1.5V0h1.5V-3.24a1.7,1.7,0,0,1,1.788-1.932c.96,0,1.524.552,1.524,1.692V0h1.5V-3.672A2.5,2.5,0,0,0,51.12-6.48Zm7.032,0a4.506,4.506,0,0,0-2.712.792L56.028-4.6a3.172,3.172,0,0,1,1.944-.636c1.068,0,1.6.516,1.6,1.392v.1H57.912c-1.944,0-2.664.84-2.664,1.908,0,1.116.924,1.92,2.388,1.92A2.271,2.271,0,0,0,59.652-.78V0h1.416V-3.756C61.068-5.6,60-6.48,58.152-6.48Zm-.2,5.472c-.768,0-1.224-.348-1.224-.888,0-.468.276-.852,1.3-.852h1.548V-2A1.633,1.633,0,0,1,57.948-1.008ZM66.624-6.48a2.786,2.786,0,0,0-2.208.9v-.828H62.988V0h1.5V-3.24a1.7,1.7,0,0,1,1.788-1.932c.96,0,1.524.552,1.524,1.692V0h1.5V-3.672A2.5,2.5,0,0,0,66.624-6.48Zm5.34-.984a.921.921,0,0,0,.96-.936.893.893,0,0,0-.96-.864.914.914,0,0,0-.96.9A.914.914,0,0,0,71.964-7.464ZM71.208,0h1.5V-6.408h-1.5Zm4.284-7.464a.921.921,0,0,0,.96-.936.893.893,0,0,0-.96-.864.914.914,0,0,0-.96.9A.914.914,0,0,0,75.492-7.464ZM74.016,2.412A2.079,2.079,0,0,0,76.248.12V-6.408h-1.5V.156c0,.684-.312,1.02-.864,1.02a1.481,1.481,0,0,1-.876-.252L72.576,2.04A2.452,2.452,0,0,0,74.016,2.412ZM92.46-8.4,90.312-1.98,88.188-8.4h-1.44L84.576-2.016,82.488-8.4h-1.62L83.652,0H85.32l2.112-6.216L89.508,0h1.656l2.784-8.4Zm8.16,5.232A3.125,3.125,0,0,0,97.38-6.48,3.187,3.187,0,0,0,94.068-3.2,3.254,3.254,0,0,0,97.608.084a3.248,3.248,0,0,0,2.58-1.044l-.8-.924a2.3,2.3,0,0,1-1.74.7,1.939,1.939,0,0,1-2.076-1.536H100.6C100.608-2.868,100.62-3.048,100.62-3.168ZM97.38-5.28a1.744,1.744,0,0,1,1.812,1.56H95.556A1.771,1.771,0,0,1,97.38-5.28Zm8.232-1.2a2.664,2.664,0,0,0-2.052.852V-8.9h-1.5V0h1.428V-.828a2.642,2.642,0,0,0,2.124.912A3.121,3.121,0,0,0,108.864-3.2,3.112,3.112,0,0,0,105.612-6.48Zm-.168,5.28a1.873,1.873,0,0,1-1.908-2,1.873,1.873,0,0,1,1.908-2,1.864,1.864,0,0,1,1.9,2A1.864,1.864,0,0,1,105.444-1.2Zm11.712-5.28a2.642,2.642,0,0,0-2.124.912v-.84H113.6V2.328h1.5V-.78a2.633,2.633,0,0,0,2.052.864A3.121,3.121,0,0,0,120.408-3.2,3.118,3.118,0,0,0,117.156-6.48Zm-.168,5.28a1.873,1.873,0,0,1-1.908-2,1.873,1.873,0,0,1,1.908-2,1.864,1.864,0,0,1,1.9,2A1.864,1.864,0,0,1,116.988-1.2ZM124.716.084a3.232,3.232,0,0,0,3.42-3.288,3.222,3.222,0,0,0-3.42-3.276A3.226,3.226,0,0,0,121.308-3.2,3.235,3.235,0,0,0,124.716.084Zm0-1.284a1.864,1.864,0,0,1-1.9-2,1.864,1.864,0,0,1,1.9-2,1.866,1.866,0,0,1,1.908,2A1.866,1.866,0,0,1,124.716-1.2ZM131-5.472v-.936h-1.428V0h1.5V-3.108a1.747,1.747,0,0,1,1.86-1.98,1.9,1.9,0,0,1,.348.036V-6.48A2.522,2.522,0,0,0,131-5.472Zm7.224,4.056a1.349,1.349,0,0,1-.84.264c-.576,0-.888-.336-.888-.96V-5.16h1.716v-1.2H136.5V-7.824H135V-6.36h-1.056v1.2H135v3.084a1.969,1.969,0,0,0,2.208,2.16,2.357,2.357,0,0,0,1.44-.432Zm4.1-5.064a4.506,4.506,0,0,0-2.712.792l.588,1.092a3.172,3.172,0,0,1,1.944-.636c1.068,0,1.6.516,1.6,1.392v.1h-1.656c-1.944,0-2.664.84-2.664,1.908,0,1.116.924,1.92,2.388,1.92a2.271,2.271,0,0,0,2.016-.864V0h1.416V-3.756C145.248-5.6,144.18-6.48,142.332-6.48Zm-.2,5.472c-.768,0-1.224-.348-1.224-.888,0-.468.276-.852,1.3-.852h1.548V-2A1.633,1.633,0,0,1,142.128-1.008ZM147.168,0h1.5V-8.9h-1.5Z" transform="translate(432.174 502)" fill="#1e1e1e"/>
    <g id="Group_10848" data-name="Group 10848" transform="translate(0 398)">
      <line id="Line_296" data-name="Line 296" x2="35" transform="translate(195.5 195.5)" fill="none" stroke="#707070" stroke-width="1"/>
      <path id="Path_13721" data-name="Path 13721" d="M-8625.25,16610.5l3.891,3.152-3.891,2.785" transform="translate(8851 -16418.008)" fill="none" stroke="#707070" stroke-width="1"/>
    </g>
    <g id="Group_10849" data-name="Group 10849" transform="translate(196 398)">
      <line id="Line_296-2" data-name="Line 296" x2="35" transform="translate(195.5 195.5)" fill="none" stroke="#707070" stroke-width="1"/>
      <path id="Path_13721-2" data-name="Path 13721" d="M-8625.25,16610.5l3.891,3.152-3.891,2.785" transform="translate(8851 -16418.008)" fill="none" stroke="#707070" stroke-width="1"/>
    </g>
    <g id="Group_10851" data-name="Group 10851" transform="translate(392 398)">
      <line id="Line_296-3" data-name="Line 296" x2="35" transform="translate(195.5 195.5)" fill="none" stroke="#707070" stroke-width="1"/>
      <path id="Path_13721-3" data-name="Path 13721" d="M-8625.25,16610.5l3.891,3.152-3.891,2.785" transform="translate(8851 -16418.008)" fill="none" stroke="#707070" stroke-width="1"/>
    </g>
    <path id="Path_13721-4" data-name="Path 13721" d="M-8621.35,16610.5l-3.891,3.152,3.891,2.785" transform="translate(9410 -15830.008)" fill="none" stroke="#707070" stroke-width="1"/>
    <g id="Group_10862" data-name="Group 10862" transform="translate(601 398)">
      <line id="Line_296-4" data-name="Line 296" x2="23" transform="translate(182.5 195.5)" fill="none" stroke="#707070" stroke-width="1"/>
      <line id="Line_307" data-name="Line 307" x2="27" transform="translate(265.5 195.5)" fill="none" stroke="#707070" stroke-width="1"/>
      <path id="Path_13721-5" data-name="Path 13721" d="M-8625.25,16610.5l3.891,3.152-3.891,2.785" transform="translate(8827 -16418.008)" fill="none" stroke="#707070" stroke-width="1"/>
      <path id="Path_13755" data-name="Path 13755" d="M-8625.25,16610.5l3.891,3.152-3.891,2.785" transform="translate(8914 -16418.008)" fill="none" stroke="#707070" stroke-width="1"/>
    </g>
    <g id="Group_10841" data-name="Group 10841" transform="translate(196 302)">
      <line id="Line_296-5" data-name="Line 296" x2="16" transform="translate(214.5 195.5)" fill="none" stroke="#707070" stroke-width="1"/>
      <path id="Path_13721-6" data-name="Path 13721" d="M-8625.25,16610.5l3.891,3.152-3.891,2.785" transform="translate(8851 -16418.008)" fill="none" stroke="#707070" stroke-width="1"/>
    </g>
    <g id="Group_10852" data-name="Group 10852" transform="translate(590.5 494.5)">
      <line id="Line_296-6" data-name="Line 296" x1="19" transform="translate(-3 3)" fill="none" stroke="#707070" stroke-width="1"/>
    </g>
    <g id="Group_10853" data-name="Group 10853" transform="translate(590.5 687.5)">
      <line id="Line_296-7" data-name="Line 296" x1="19" transform="translate(-3 3)" fill="none" stroke="#707070" stroke-width="1"/>
    </g>
    <g id="Group_10850" data-name="Group 10850" transform="translate(196 495)">
      <line id="Line_296-8" data-name="Line 296" x2="16" transform="translate(214.5 195.5)" fill="none" stroke="#707070" stroke-width="1"/>
      <path id="Path_13721-7" data-name="Path 13721" d="M-8625.25,16610.5l3.891,3.152-3.891,2.785" transform="translate(8851 -16418.008)" fill="none" stroke="#707070" stroke-width="1"/>
    </g>
    <g id="Group_10864" data-name="Group 10864" transform="translate(587.5 783)">
      <line id="Line_296-9" data-name="Line 296" x1="35" transform="translate(0 3)" fill="none" stroke="#707070" stroke-width="1"/>
      <path id="Path_13721-8" data-name="Path 13721" d="M-8621.35,16610.5l-3.891,3.152,3.891,2.785" transform="translate(8626.1 -16610.508)" fill="none" stroke="#707070" stroke-width="1"/>
    </g>
    <g id="Group_10865" data-name="Group 10865" transform="translate(391.5 783)">
      <line id="Line_296-10" data-name="Line 296" x1="35" transform="translate(0 3)" fill="none" stroke="#707070" stroke-width="1"/>
      <path id="Path_13721-9" data-name="Path 13721" d="M-8621.35,16610.5l-3.891,3.152,3.891,2.785" transform="translate(8626.1 -16610.508)" fill="none" stroke="#707070" stroke-width="1"/>
    </g>
    <line id="Line_305" data-name="Line 305" y2="193" transform="translate(410.5 497.5)" fill="none" stroke="#707070" stroke-width="1"/>
    <line id="Line_306" data-name="Line 306" y2="193" transform="translate(606.5 497.5)" fill="none" stroke="#707070" stroke-width="1"/>
    <g id="server" transform="translate(893 537.467)">
      <path id="Path_13736" data-name="Path 13736" d="M12.445,51.2H45.693v70.409H12.445A3.923,3.923,0,0,1,8.533,117.7V55.112A3.923,3.923,0,0,1,12.445,51.2Z" transform="translate(-5.816 -32.888)" fill="#2c3e50"/>
      <path id="Path_13737" data-name="Path 13737" d="M8.533,55.112V70.758h37.16V51.2H12.445a3.923,3.923,0,0,0-3.912,3.912Z" transform="translate(-5.816 -32.888)" fill="#35495e"/>
      <g id="Group_10856" data-name="Group 10856" transform="translate(14.452 43.738)">
        <path id="Path_13738" data-name="Path 13738" d="M73.424,166.045H61.69a1.956,1.956,0,1,1,0-3.911H73.424a1.956,1.956,0,1,1,0,3.911Z" transform="translate(-59.734 -162.134)" fill="#547580"/>
        <path id="Path_13739" data-name="Path 13739" d="M61.69,196.267H73.424a1.956,1.956,0,0,1,0,3.911H61.69a1.956,1.956,0,0,1,0-3.911Z" transform="translate(-59.734 -188.444)" fill="#547580"/>
      </g>
      <circle id="Ellipse_405" data-name="Ellipse 405" cx="5.867" cy="5.867" r="5.867" transform="translate(16.407 65.251)" fill="#4c8056"/>
      <g id="Group_10857" data-name="Group 10857" transform="translate(8.584 18.312)">
        <path id="Path_13740" data-name="Path 13740" d="M49.78,85.333H36.09a1.956,1.956,0,1,0,0,3.911H49.78a1.956,1.956,0,0,0,0-3.911Z" transform="translate(-34.134 -77.51)" fill="#2c3e50"/>
        <path id="Path_13741" data-name="Path 13741" d="M131.912,85.333h-1.956a1.956,1.956,0,1,0,0,3.911h1.956a1.956,1.956,0,1,0,0-3.911Z" transform="translate(-106.487 -77.51)" fill="#2c3e50"/>
        <path id="Path_13742" data-name="Path 13742" d="M374.582,51.2H341.333v70.409h33.249a3.923,3.923,0,0,0,3.912-3.912V55.112a3.923,3.923,0,0,0-3.912-3.912Z" transform="translate(-270.925 -51.2)" fill="#2c3e50"/>
      </g>
      <path id="Path_13743" data-name="Path 13743" d="M378.493,55.112V70.758h-37.16V51.2h33.249a3.923,3.923,0,0,1,3.911,3.912Z" transform="translate(-262.34 -32.888)" fill="#35495e"/>
      <g id="Group_10858" data-name="Group 10858" transform="translate(88.772 43.738)">
        <path id="Path_13744" data-name="Path 13744" d="M385.956,166.045H397.69a1.956,1.956,0,1,0,0-3.911H385.956a1.956,1.956,0,1,0,0,3.911Z" transform="translate(-384 -162.134)" fill="#547580"/>
        <path id="Path_13745" data-name="Path 13745" d="M397.69,196.267H385.956a1.956,1.956,0,0,0,0,3.911H397.69a1.956,1.956,0,1,0,0-3.911Z" transform="translate(-384 -188.444)" fill="#547580"/>
      </g>
      <circle id="Ellipse_406" data-name="Ellipse 406" cx="5.867" cy="5.867" r="5.867" transform="translate(90.727 65.251)" fill="#4c8056"/>
      <g id="Group_10859" data-name="Group 10859" transform="translate(82.904 26.135)">
        <path id="Path_13746" data-name="Path 13746" d="M374.047,85.333h-13.69a1.956,1.956,0,0,0,0,3.911h13.69a1.956,1.956,0,1,0,0-3.911Z" transform="translate(-358.401 -85.333)" fill="#2c3e50"/>
        <path id="Path_13747" data-name="Path 13747" d="M456.178,85.333h-1.956a1.956,1.956,0,1,0,0,3.911h1.956a1.956,1.956,0,1,0,0-3.911Z" transform="translate(-430.753 -85.333)" fill="#2c3e50"/>
      </g>
      <path id="Path_13748" data-name="Path 13748" d="M153.6,37.87V94.588a3.923,3.923,0,0,0,3.912,3.912h39.116a3.923,3.923,0,0,0,3.912-3.912V12.445a3.923,3.923,0,0,0-3.912-3.912H157.512a3.923,3.923,0,0,0-3.912,3.912v5.867" transform="translate(-117.635)" fill="#3f5c6c"/>
      <path id="Path_13749" data-name="Path 13749" d="M200.539,12.445V32H153.6V12.445a3.923,3.923,0,0,1,3.912-3.912h39.116a3.923,3.923,0,0,1,3.911,3.912Z" transform="translate(-117.635)" fill="#547580"/>
      <circle id="Ellipse_407" data-name="Ellipse 407" cx="5.867" cy="5.867" r="5.867" transform="translate(53.567 75.03)" fill="#71c285"/>
      <g id="Group_10860" data-name="Group 10860" transform="translate(41.833 18.312)">
        <path id="Path_13750" data-name="Path 13750" d="M202.67,51.2H181.156a1.956,1.956,0,1,0,0,3.911H202.67a1.956,1.956,0,1,0,0-3.911Z" transform="translate(-179.2 -51.2)" fill="#3f5c6c"/>
        <path id="Path_13751" data-name="Path 13751" d="M311.112,51.2h-1.956a1.956,1.956,0,1,0,0,3.911h1.956a1.956,1.956,0,1,0,0-3.911Z" transform="translate(-277.864 -51.2)" fill="#3f5c6c"/>
      </g>
      <g id="Group_10861" data-name="Group 10861" transform="translate(47.7 37.87)">
        <path id="Path_13752" data-name="Path 13752" d="M206.756,140.445h19.558a1.956,1.956,0,1,0,0-3.911H206.756a1.956,1.956,0,0,0,0,3.911Z" transform="translate(-204.8 -136.534)" fill="#84b5cb"/>
        <path id="Path_13753" data-name="Path 13753" d="M226.315,170.667H206.757a1.956,1.956,0,1,0,0,3.911h19.558a1.956,1.956,0,1,0,0-3.911Z" transform="translate(-204.801 -162.844)" fill="#84b5cb"/>
        <path id="Path_13754" data-name="Path 13754" d="M226.315,204.8H206.757a1.956,1.956,0,1,0,0,3.911h19.558a1.956,1.956,0,1,0,0-3.911Z" transform="translate(-204.801 -189.154)" fill="#84b5cb"/>
      </g>
    </g>
    <path id="Path_13756" data-name="Path 13756" d="M.564-11.934.549,116.156" transform="translate(952.501 667.434)" fill="none" stroke="#707070" stroke-width="1"/>
    <path id="Path_13757" data-name="Path 13757" d="M.922.047,169,0" transform="translate(784.5 783.5)" fill="none" stroke="#707070" stroke-width="1"/>
  </g>
</svg>
