<svg xmlns="http://www.w3.org/2000/svg" width="1012.982" height="539.5" viewBox="0 0 1012.982 539.5">
  <g id="MonitoringFlow" transform="translate(-2452 -27)">
    <g id="Rectangle_2002" data-name="Rectangle 2002" transform="translate(2682 123)" fill="#fff" stroke="#707070" stroke-width="1">
      <rect width="162" height="63" rx="5" stroke="none"/>
      <rect x="0.5" y="0.5" width="161" height="62" rx="4.5" fill="none"/>
    </g>
    <g id="Rectangle_2011" data-name="Rectangle 2011" transform="translate(2648 503.5)" fill="#fff" stroke="#707070" stroke-width="1">
      <rect width="162" height="63" rx="5" stroke="none"/>
      <rect x="0.5" y="0.5" width="161" height="62" rx="4.5" fill="none"/>
    </g>
    <g id="Rectangle_2007" data-name="Rectangle 2007" transform="translate(2844 503.5)" fill="#fff" stroke="#707070" stroke-width="1">
      <rect width="162" height="63" rx="5" stroke="none"/>
      <rect x="0.5" y="0.5" width="161" height="62" rx="4.5" fill="none"/>
    </g>
    <g id="Rectangle_2003" data-name="Rectangle 2003" transform="translate(3075 123)" fill="#fff" stroke="#707070" stroke-width="1">
      <rect width="162" height="63" rx="5" stroke="none"/>
      <rect x="0.5" y="0.5" width="161" height="62" rx="4.5" fill="none"/>
    </g>
    <g id="Rectangle_2004" data-name="Rectangle 2004" transform="translate(2879 123)" fill="#fff" stroke="#707070" stroke-width="1">
      <rect width="162" height="63" rx="5" stroke="none"/>
      <rect x="0.5" y="0.5" width="161" height="62" rx="4.5" fill="none"/>
    </g>
    <g id="Rectangle_2009" data-name="Rectangle 2009" transform="translate(2844 391.5)" fill="#fff" stroke="#707070" stroke-width="1">
      <rect width="162" height="63" rx="5" stroke="none"/>
      <rect x="0.5" y="0.5" width="161" height="62" rx="4.5" fill="none"/>
    </g>
    <g id="Rectangle_2005" data-name="Rectangle 2005" transform="translate(3302 440.5)" fill="#fff" stroke="#707070" stroke-width="1">
      <rect width="162" height="63" rx="5" stroke="none"/>
      <rect x="0.5" y="0.5" width="161" height="62" rx="4.5" fill="none"/>
    </g>
    <g id="Rectangle_1995" data-name="Rectangle 1995" transform="translate(3075 27)" fill="#fff" stroke="#707070" stroke-width="1">
      <rect width="162" height="63" rx="5" stroke="none"/>
      <rect x="0.5" y="0.5" width="161" height="62" rx="4.5" fill="none"/>
    </g>
    <g id="Rectangle_1996" data-name="Rectangle 1996" transform="translate(3075 219)" fill="#fff" stroke="#707070" stroke-width="1">
      <rect width="162" height="63" rx="5" stroke="none"/>
      <rect x="0.5" y="0.5" width="161" height="62" rx="4.5" fill="none"/>
    </g>
    <g id="Rectangle_1996-2" data-name="Rectangle 1996" transform="translate(3075 313)" fill="#fff" stroke="#707070" stroke-width="1">
      <rect width="162" height="63" rx="5" stroke="none"/>
      <rect x="0.5" y="0.5" width="161" height="62" rx="4.5" fill="none"/>
    </g>
    <g id="Rectangle_1999" data-name="Rectangle 1999" transform="translate(2486 123)" fill="#fff" stroke="#707070" stroke-width="1">
      <rect width="162" height="63" rx="5" stroke="none"/>
      <rect x="0.5" y="0.5" width="161" height="62" rx="4.5" fill="none"/>
    </g>
    <g id="Rectangle_2010" data-name="Rectangle 2010" transform="translate(2452 503.5)" fill="#fff" stroke="#707070" stroke-width="1">
      <rect width="162" height="63" rx="5" stroke="none"/>
      <rect x="0.5" y="0.5" width="161" height="62" rx="4.5" fill="none"/>
    </g>
    <g id="Group" transform="translate(2452 -945)">
      <path id="Path_37" data-name="Path 37" d="M1.128,0h1.56V-8.4H1.128Zm7.32-6.48a2.786,2.786,0,0,0-2.208.9v-.828H4.812V0h1.5V-3.24A1.7,1.7,0,0,1,8.1-5.172c.96,0,1.524.552,1.524,1.692V0h1.5V-3.672A2.5,2.5,0,0,0,8.448-6.48Zm8.016,5.064a1.349,1.349,0,0,1-.84.264c-.576,0-.888-.336-.888-.96V-5.16h1.716v-1.2H14.736V-7.824h-1.5V-6.36H12.18v1.2h1.056v3.084A1.969,1.969,0,0,0,15.444.084a2.357,2.357,0,0,0,1.44-.432Zm7.464-1.752a3.125,3.125,0,0,0-3.24-3.312A3.187,3.187,0,0,0,17.376-3.2,3.254,3.254,0,0,0,20.916.084,3.248,3.248,0,0,0,23.5-.96l-.8-.924a2.3,2.3,0,0,1-1.74.7,1.939,1.939,0,0,1-2.076-1.536H23.9C23.916-2.868,23.928-3.048,23.928-3.168ZM20.688-5.28A1.744,1.744,0,0,1,22.5-3.72H18.864A1.771,1.771,0,0,1,20.688-5.28ZM26.8-5.472v-.936H25.368V0h1.5V-3.108a1.747,1.747,0,0,1,1.86-1.98,1.9,1.9,0,0,1,.348.036V-6.48A2.522,2.522,0,0,0,26.8-5.472ZM33.228.084a2.913,2.913,0,0,0,2.736-1.5l-1.152-.672a1.813,1.813,0,0,1-1.6.888,1.874,1.874,0,0,1-1.944-2,1.881,1.881,0,0,1,1.944-2,1.813,1.813,0,0,1,1.6.888l1.152-.672A2.884,2.884,0,0,0,33.228-6.48,3.242,3.242,0,0,0,29.76-3.2,3.252,3.252,0,0,0,33.228.084Zm9.96-3.252a3.125,3.125,0,0,0-3.24-3.312A3.187,3.187,0,0,0,36.636-3.2,3.254,3.254,0,0,0,40.176.084,3.248,3.248,0,0,0,42.756-.96l-.8-.924a2.3,2.3,0,0,1-1.74.7,1.939,1.939,0,0,1-2.076-1.536h5.028C43.176-2.868,43.188-3.048,43.188-3.168ZM39.948-5.28A1.744,1.744,0,0,1,41.76-3.72H38.124A1.771,1.771,0,0,1,39.948-5.28Zm8.232-1.2a2.642,2.642,0,0,0-2.124.912v-.84H44.628V2.328h1.5V-.78A2.633,2.633,0,0,0,48.18.084,3.121,3.121,0,0,0,51.432-3.2,3.118,3.118,0,0,0,48.18-6.48ZM48.012-1.2a1.873,1.873,0,0,1-1.908-2,1.873,1.873,0,0,1,1.908-2,1.864,1.864,0,0,1,1.9,2A1.864,1.864,0,0,1,48.012-1.2Zm8.28-.216a1.349,1.349,0,0,1-.84.264c-.576,0-.888-.336-.888-.96V-5.16H56.28v-1.2H54.564V-7.824h-1.5V-6.36H52.008v1.2h1.056v3.084A1.969,1.969,0,0,0,55.272.084a2.357,2.357,0,0,0,1.44-.432ZM63.708-6.48A4.506,4.506,0,0,0,61-5.688L61.584-4.6a3.172,3.172,0,0,1,1.944-.636c1.068,0,1.6.516,1.6,1.392v.1H63.468c-1.944,0-2.664.84-2.664,1.908,0,1.116.924,1.92,2.388,1.92A2.271,2.271,0,0,0,65.208-.78V0h1.416V-3.756C66.624-5.6,65.556-6.48,63.708-6.48Zm-.2,5.472c-.768,0-1.224-.348-1.224-.888,0-.468.276-.852,1.3-.852h1.548V-2A1.633,1.633,0,0,1,63.5-1.008ZM72.18-6.48a2.786,2.786,0,0,0-2.208.9v-.828H68.544V0h1.5V-3.24a1.7,1.7,0,0,1,1.788-1.932c.96,0,1.524.552,1.524,1.692V0h1.5V-3.672A2.5,2.5,0,0,0,72.18-6.48Zm9.024.072-2.028,4.74L77.16-6.408H75.6L78.4.024l-.108.252c-.288.636-.6.888-1.128.888a1.625,1.625,0,0,1-1.1-.444l-.6,1.1a2.652,2.652,0,0,0,1.716.588,2.485,2.485,0,0,0,2.472-1.9l3-6.924ZM94.98-6.48a2.991,2.991,0,0,0-2.4,1.068A2.4,2.4,0,0,0,90.42-6.48a2.654,2.654,0,0,0-2.1.888v-.816H86.892V0h1.5V-3.252c0-1.272.672-1.92,1.668-1.92.912,0,1.44.552,1.44,1.692V0H93V-3.252c0-1.272.684-1.92,1.668-1.92.912,0,1.44.552,1.44,1.692V0h1.5V-3.672C97.608-5.6,96.528-6.48,94.98-6.48Zm5.3-.984a.921.921,0,0,0,.96-.936.893.893,0,0,0-.96-.864.914.914,0,0,0-.96.9A.914.914,0,0,0,100.284-7.464ZM99.528,0h1.5V-6.408h-1.5Zm7.1-6.48a2.786,2.786,0,0,0-2.208.9v-.828H103V0h1.5V-3.24a1.7,1.7,0,0,1,1.788-1.932c.96,0,1.524.552,1.524,1.692V0h1.5V-3.672A2.5,2.5,0,0,0,106.632-6.48ZM117.3-3.168a3.125,3.125,0,0,0-3.24-3.312A3.187,3.187,0,0,0,110.748-3.2a3.254,3.254,0,0,0,3.54,3.288,3.248,3.248,0,0,0,2.58-1.044l-.8-.924a2.3,2.3,0,0,1-1.74.7,1.939,1.939,0,0,1-2.076-1.536h5.028C117.288-2.868,117.3-3.048,117.3-3.168ZM114.06-5.28a1.744,1.744,0,0,1,1.812,1.56h-3.636A1.771,1.771,0,0,1,114.06-5.28Zm6.108-.192v-.936H118.74V0h1.5V-3.108a1.747,1.747,0,0,1,1.86-1.98,1.9,1.9,0,0,1,.348.036V-6.48A2.522,2.522,0,0,0,120.168-5.472Zm5.964-1.008a4.506,4.506,0,0,0-2.712.792l.588,1.092a3.172,3.172,0,0,1,1.944-.636c1.068,0,1.6.516,1.6,1.392v.1h-1.656c-1.944,0-2.664.84-2.664,1.908,0,1.116.924,1.92,2.388,1.92a2.271,2.271,0,0,0,2.016-.864V0h1.416V-3.756C129.048-5.6,127.98-6.48,126.132-6.48Zm-.2,5.472c-.768,0-1.224-.348-1.224-.888,0-.468.276-.852,1.3-.852h1.548V-2A1.633,1.633,0,0,1,125.928-1.008ZM130.968,0h1.5V-8.9h-1.5Z" transform="translate(244.274 1097)" fill="#1e1e1e"/>
      <path id="Path_38" data-name="Path 38" d="M4.416-1.416a1.349,1.349,0,0,1-.84.264c-.576,0-.888-.336-.888-.96V-5.16H4.4v-1.2H2.688V-7.824h-1.5V-6.36H.132v1.2H1.188v3.084A1.969,1.969,0,0,0,3.4.084a2.357,2.357,0,0,0,1.44-.432ZM7.5-5.472v-.936H6.072V0h1.5V-3.108a1.747,1.747,0,0,1,1.86-1.98,1.9,1.9,0,0,1,.348.036V-6.48A2.522,2.522,0,0,0,7.5-5.472ZM13.464-6.48a4.506,4.506,0,0,0-2.712.792L11.34-4.6a3.172,3.172,0,0,1,1.944-.636c1.068,0,1.6.516,1.6,1.392v.1H13.224c-1.944,0-2.664.84-2.664,1.908,0,1.116.924,1.92,2.388,1.92A2.271,2.271,0,0,0,14.964-.78V0H16.38V-3.756C16.38-5.6,15.312-6.48,13.464-6.48Zm-.2,5.472c-.768,0-1.224-.348-1.224-.888,0-.468.276-.852,1.3-.852H14.88V-2A1.633,1.633,0,0,1,13.26-1.008ZM21.936-6.48a2.786,2.786,0,0,0-2.208.9v-.828H18.3V0h1.5V-3.24a1.7,1.7,0,0,1,1.788-1.932c.96,0,1.524.552,1.524,1.692V0h1.5V-3.672A2.5,2.5,0,0,0,21.936-6.48ZM28.5.084c1.8,0,2.9-.78,2.9-1.98,0-2.508-3.96-1.356-3.96-2.652,0-.42.432-.72,1.344-.72a3.508,3.508,0,0,1,1.836.48l.576-1.14a5.1,5.1,0,0,0-2.4-.552c-1.728,0-2.82.792-2.82,2,0,2.556,3.96,1.4,3.96,2.628,0,.444-.4.708-1.344.708a4.312,4.312,0,0,1-2.232-.636l-.576,1.14A5.091,5.091,0,0,0,28.5.084ZM36.252-6.48a2.642,2.642,0,0,0-2.124.912v-.84H32.7V2.328h1.5V-.78a2.633,2.633,0,0,0,2.052.864A3.121,3.121,0,0,0,39.5-3.2,3.118,3.118,0,0,0,36.252-6.48ZM36.084-1.2a1.873,1.873,0,0,1-1.908-2,1.873,1.873,0,0,1,1.908-2,1.864,1.864,0,0,1,1.9,2A1.864,1.864,0,0,1,36.084-1.2ZM43.812.084A3.232,3.232,0,0,0,47.232-3.2a3.222,3.222,0,0,0-3.42-3.276A3.226,3.226,0,0,0,40.4-3.2,3.235,3.235,0,0,0,43.812.084Zm0-1.284a1.864,1.864,0,0,1-1.9-2,1.864,1.864,0,0,1,1.9-2,1.866,1.866,0,0,1,1.908,2A1.866,1.866,0,0,1,43.812-1.2ZM50.1-5.472v-.936H48.672V0h1.5V-3.108a1.747,1.747,0,0,1,1.86-1.98,1.9,1.9,0,0,1,.348.036V-6.48A2.522,2.522,0,0,0,50.1-5.472Zm7.224,4.056a1.349,1.349,0,0,1-.84.264c-.576,0-.888-.336-.888-.96V-5.16h1.716v-1.2H55.6V-7.824H54.1V-6.36H53.04v1.2H54.1v3.084A1.969,1.969,0,0,0,56.3.084a2.357,2.357,0,0,0,1.44-.432Zm9.528-4.992L64.8-1.656,62.808-6.408h-1.56L64,0h1.548l2.748-6.408Zm8.22,3.24a3.125,3.125,0,0,0-3.24-3.312A3.187,3.187,0,0,0,68.52-3.2,3.254,3.254,0,0,0,72.06.084,3.248,3.248,0,0,0,74.64-.96l-.8-.924a2.3,2.3,0,0,1-1.74.7A1.939,1.939,0,0,1,70.02-2.724h5.028C75.06-2.868,75.072-3.048,75.072-3.168ZM71.832-5.28a1.744,1.744,0,0,1,1.812,1.56H70.008A1.771,1.771,0,0,1,71.832-5.28Zm8.316-1.2a2.857,2.857,0,0,0-2.136.816V-8.9h-1.5V0h1.5V-3.24A1.7,1.7,0,0,1,79.8-5.172c.96,0,1.524.552,1.524,1.692V0h1.5V-3.672A2.5,2.5,0,0,0,80.148-6.48Zm5.34-.984a.921.921,0,0,0,.96-.936.893.893,0,0,0-.96-.864.914.914,0,0,0-.96.9A.914.914,0,0,0,85.488-7.464ZM84.732,0h1.5V-6.408h-1.5ZM91.14.084a2.913,2.913,0,0,0,2.736-1.5l-1.152-.672a1.813,1.813,0,0,1-1.6.888,1.874,1.874,0,0,1-1.944-2,1.881,1.881,0,0,1,1.944-2,1.813,1.813,0,0,1,1.6.888l1.152-.672A2.884,2.884,0,0,0,91.14-6.48,3.242,3.242,0,0,0,87.672-3.2,3.252,3.252,0,0,0,91.14.084ZM95.112,0h1.5V-8.9h-1.5ZM104.6-3.168a3.125,3.125,0,0,0-3.24-3.312A3.187,3.187,0,0,0,98.052-3.2a3.254,3.254,0,0,0,3.54,3.288,3.248,3.248,0,0,0,2.58-1.044l-.8-.924a2.3,2.3,0,0,1-1.74.7,1.939,1.939,0,0,1-2.076-1.536h5.028C104.592-2.868,104.6-3.048,104.6-3.168Zm-3.24-2.112a1.744,1.744,0,0,1,1.812,1.56H99.54A1.771,1.771,0,0,1,101.364-5.28Z" transform="translate(258.47 1112)" fill="#1e1e1e"/>
    </g>
    <g id="Group-2" data-name="Group" transform="translate(2418 -851.5)">
      <text id="Applicable_for_penalty" data-name="Applicable for penalty" transform="translate(242.786 1384)" fill="#1e1e1e" font-size="12" font-family="Montserrat-SemiBold, Montserrat" font-weight="600"><tspan x="0" y="0">Applicable for penalty</tspan></text>
      <text id="charges" transform="translate(286.346 1399)" fill="#1e1e1e" font-size="12" font-family="Montserrat-SemiBold, Montserrat" font-weight="600"><tspan x="0" y="0">charges</tspan></text>
    </g>
    <text id="No_Action_Taken" data-name="No Action Taken" transform="translate(2884.5 539.5)" fill="#1e1e1e" font-size="12" font-family="Montserrat-SemiBold, Montserrat" font-weight="600"><tspan x="0" y="0">Action Taken</tspan></text>
    <path id="e-TP_number" data-name="e-TP number" d="M7.008-3.168A3.125,3.125,0,0,0,3.768-6.48,3.187,3.187,0,0,0,.456-3.2,3.254,3.254,0,0,0,4,.084,3.248,3.248,0,0,0,6.576-.96l-.8-.924a2.3,2.3,0,0,1-1.74.7A1.939,1.939,0,0,1,1.956-2.724H6.984C7-2.868,7.008-3.048,7.008-3.168ZM3.768-5.28A1.744,1.744,0,0,1,5.58-3.72H1.944A1.771,1.771,0,0,1,3.768-5.28ZM8.244-2.712h3.3V-3.96h-3.3ZM14.616,0h1.56V-7.08H18.96V-8.4H11.832v1.32h2.784Zm8.976-8.4H20.136V0H21.7V-2.424h1.9c2.208,0,3.576-1.14,3.576-2.988S25.8-8.4,23.592-8.4ZM23.52-3.744H21.7V-7.08H23.52c1.368,0,2.076.612,2.076,1.668S24.888-3.744,23.52-3.744ZM35.652-6.48a2.786,2.786,0,0,0-2.208.9v-.828H32.016V0h1.5V-3.24A1.7,1.7,0,0,1,35.3-5.172c.96,0,1.524.552,1.524,1.692V0h1.5V-3.672A2.5,2.5,0,0,0,35.652-6.48Zm9.288.072v3.24a1.688,1.688,0,0,1-1.752,1.932c-.948,0-1.5-.552-1.5-1.716V-6.408h-1.5v3.66A2.535,2.535,0,0,0,42.948.084a2.618,2.618,0,0,0,2.064-.9V0H46.44V-6.408ZM56.5-6.48a2.991,2.991,0,0,0-2.4,1.068,2.4,2.4,0,0,0-2.16-1.068,2.654,2.654,0,0,0-2.1.888v-.816H48.408V0h1.5V-3.252c0-1.272.672-1.92,1.668-1.92.912,0,1.44.552,1.44,1.692V0h1.5V-3.252c0-1.272.684-1.92,1.668-1.92.912,0,1.44.552,1.44,1.692V0h1.5V-3.672C59.124-5.6,58.044-6.48,56.5-6.48Zm8.1,0a2.664,2.664,0,0,0-2.052.852V-8.9h-1.5V0h1.428V-.828A2.642,2.642,0,0,0,64.6.084,3.121,3.121,0,0,0,67.848-3.2,3.112,3.112,0,0,0,64.6-6.48ZM64.428-1.2a1.873,1.873,0,0,1-1.908-2,1.873,1.873,0,0,1,1.908-2,1.864,1.864,0,0,1,1.9,2A1.864,1.864,0,0,1,64.428-1.2ZM75.3-3.168A3.125,3.125,0,0,0,72.06-6.48,3.187,3.187,0,0,0,68.748-3.2,3.254,3.254,0,0,0,72.288.084,3.248,3.248,0,0,0,74.868-.96l-.8-.924a2.3,2.3,0,0,1-1.74.7,1.939,1.939,0,0,1-2.076-1.536h5.028C75.288-2.868,75.3-3.048,75.3-3.168ZM72.06-5.28a1.744,1.744,0,0,1,1.812,1.56H70.236A1.771,1.771,0,0,1,72.06-5.28Zm6.108-.192v-.936H76.74V0h1.5V-3.108a1.747,1.747,0,0,1,1.86-1.98,1.9,1.9,0,0,1,.348.036V-6.48A2.522,2.522,0,0,0,78.168-5.472Z" transform="translate(3115.602 159)" fill="#1e1e1e"/>
    <g id="Group-3" data-name="Group" transform="translate(2452 -945)">
      <path id="Path_43" data-name="Path 43" d="M3.732.12c2.3,0,3.4-1.152,3.4-2.5,0-3.084-4.98-1.92-4.98-3.708,0-.636.528-1.14,1.824-1.14a4.668,4.668,0,0,1,2.316.66L6.78-7.776a5.311,5.311,0,0,0-2.8-.744C1.68-8.52.6-7.368.6-6.012c0,3.12,4.992,1.932,4.992,3.744,0,.624-.552,1.092-1.86,1.092A4.654,4.654,0,0,1,.96-2.1L.42-.888A5.412,5.412,0,0,0,3.732.12ZM14.556-3.168a3.125,3.125,0,0,0-3.24-3.312A3.187,3.187,0,0,0,8-3.2,3.254,3.254,0,0,0,11.544.084,3.248,3.248,0,0,0,14.124-.96l-.8-.924a2.3,2.3,0,0,1-1.74.7A1.939,1.939,0,0,1,9.5-2.724h5.028C14.544-2.868,14.556-3.048,14.556-3.168ZM11.316-5.28a1.744,1.744,0,0,1,1.812,1.56H9.492A1.771,1.771,0,0,1,11.316-5.28Zm8.316-1.2a2.786,2.786,0,0,0-2.208.9v-.828H16V0h1.5V-3.24a1.7,1.7,0,0,1,1.788-1.932c.96,0,1.524.552,1.524,1.692V0h1.5V-3.672A2.5,2.5,0,0,0,19.632-6.48ZM29.052-8.9v3.288a2.624,2.624,0,0,0-2.064-.864A3.109,3.109,0,0,0,23.748-3.2,3.118,3.118,0,0,0,26.988.084a2.642,2.642,0,0,0,2.124-.912V0h1.44V-8.9ZM27.168-1.2a1.873,1.873,0,0,1-1.908-2,1.873,1.873,0,0,1,1.908-2,1.873,1.873,0,0,1,1.908,2A1.873,1.873,0,0,1,27.168-1.2Z" transform="translate(832.576 1096)" fill="#1e1e1e"/>
      <path id="Path_44" data-name="Path 44" d="M8.3,0,6.372-2.76A2.685,2.685,0,0,0,8.16-5.412C8.16-7.272,6.792-8.4,4.584-8.4H1.128V0h1.56V-2.448h1.9a2.924,2.924,0,0,0,.324-.012L6.624,0ZM6.588-5.412c0,1.056-.708,1.68-2.076,1.68H2.688V-7.08H4.512C5.88-7.08,6.588-6.468,6.588-5.412ZM15.78-3.168A3.125,3.125,0,0,0,12.54-6.48,3.187,3.187,0,0,0,9.228-3.2,3.254,3.254,0,0,0,12.768.084,3.248,3.248,0,0,0,15.348-.96l-.8-.924a2.3,2.3,0,0,1-1.74.7,1.939,1.939,0,0,1-2.076-1.536h5.028C15.768-2.868,15.78-3.048,15.78-3.168ZM12.54-5.28a1.744,1.744,0,0,1,1.812,1.56H10.716A1.771,1.771,0,0,1,12.54-5.28Zm9.516-1.128v.84a2.642,2.642,0,0,0-2.124-.912A3.109,3.109,0,0,0,16.692-3.2,3.112,3.112,0,0,0,19.932.084,2.633,2.633,0,0,0,21.984-.78V2.328h1.5V-6.408ZM20.1-1.2a1.864,1.864,0,0,1-1.9-2,1.864,1.864,0,0,1,1.9-2,1.866,1.866,0,0,1,1.908,2A1.866,1.866,0,0,1,20.1-1.2ZM30.156-6.408v3.24A1.688,1.688,0,0,1,28.4-1.236c-.948,0-1.5-.552-1.5-1.716V-6.408H25.4v3.66A2.535,2.535,0,0,0,28.164.084a2.618,2.618,0,0,0,2.064-.9V0h1.428V-6.408Zm9.492,3.24a3.125,3.125,0,0,0-3.24-3.312A3.187,3.187,0,0,0,33.1-3.2,3.254,3.254,0,0,0,36.636.084,3.248,3.248,0,0,0,39.216-.96l-.8-.924a2.3,2.3,0,0,1-1.74.7A1.939,1.939,0,0,1,34.6-2.724h5.028C39.636-2.868,39.648-3.048,39.648-3.168ZM36.408-5.28A1.744,1.744,0,0,1,38.22-3.72H34.584A1.771,1.771,0,0,1,36.408-5.28ZM43.068.084c1.8,0,2.9-.78,2.9-1.98,0-2.508-3.96-1.356-3.96-2.652,0-.42.432-.72,1.344-.72a3.508,3.508,0,0,1,1.836.48l.576-1.14a5.1,5.1,0,0,0-2.4-.552c-1.728,0-2.82.792-2.82,2,0,2.556,3.96,1.4,3.96,2.628,0,.444-.4.708-1.344.708a4.312,4.312,0,0,1-2.232-.636l-.576,1.14A5.091,5.091,0,0,0,43.068.084Zm7.632-1.5a1.349,1.349,0,0,1-.84.264c-.576,0-.888-.336-.888-.96V-5.16h1.716v-1.2H48.972V-7.824h-1.5V-6.36H46.416v1.2h1.056v3.084A1.969,1.969,0,0,0,49.68.084a2.357,2.357,0,0,0,1.44-.432Z" transform="translate(824.314 1107)" fill="#1e1e1e"/>
    </g>
    <text id="Maha-khanij_Server" data-name="Maha-khanij Server" transform="translate(3343.982 212)" fill="#1e1e1e" font-size="12" font-family="Montserrat-SemiBold, Montserrat" font-weight="600"><tspan x="0" y="0">Maha-khanij Server</tspan></text>
    <g id="Group-4" data-name="Group" transform="translate(2452 -945)">
      <path id="Path_39" data-name="Path 39" d="M11.916-8.4,9.768-1.98,7.644-8.4H6.2L4.032-2.016,1.944-8.4H.324L3.108,0H4.776L6.888-6.216,8.964,0H10.62L13.4-8.4ZM16.5-6.48a4.506,4.506,0,0,0-2.712.792L14.376-4.6a3.172,3.172,0,0,1,1.944-.636c1.068,0,1.6.516,1.6,1.392v.1H16.26c-1.944,0-2.664.84-2.664,1.908,0,1.116.924,1.92,2.388,1.92A2.271,2.271,0,0,0,18-.78V0h1.416V-3.756C19.416-5.6,18.348-6.48,16.5-6.48Zm-.2,5.472c-.768,0-1.224-.348-1.224-.888,0-.468.276-.852,1.3-.852h1.548V-2A1.633,1.633,0,0,1,16.3-1.008Zm9.48-5.4-2.028,4.74-2.016-4.74h-1.56l2.8,6.432L22.86.276c-.288.636-.6.888-1.128.888a1.625,1.625,0,0,1-1.1-.444l-.6,1.1a2.652,2.652,0,0,0,1.716.588,2.485,2.485,0,0,0,2.472-1.9l3-6.924ZM30.048.084c1.8,0,2.9-.78,2.9-1.98,0-2.508-3.96-1.356-3.96-2.652,0-.42.432-.72,1.344-.72a3.508,3.508,0,0,1,1.836.48l.576-1.14a5.1,5.1,0,0,0-2.4-.552c-1.728,0-2.82.792-2.82,2,0,2.556,3.96,1.4,3.96,2.628,0,.444-.4.708-1.344.708a4.312,4.312,0,0,1-2.232-.636l-.576,1.14A5.091,5.091,0,0,0,30.048.084Zm10.392,0A3.232,3.232,0,0,0,43.86-3.2,3.222,3.222,0,0,0,40.44-6.48,3.226,3.226,0,0,0,37.032-3.2,3.235,3.235,0,0,0,40.44.084Zm0-1.284a1.864,1.864,0,0,1-1.9-2,1.864,1.864,0,0,1,1.9-2,1.866,1.866,0,0,1,1.908,2A1.866,1.866,0,0,1,40.44-1.2ZM47.9-7.776a1.477,1.477,0,0,1,.828.264l.42-1.128A2.4,2.4,0,0,0,47.8-8.988,2.07,2.07,0,0,0,45.5-6.768v.408H44.448v1.2H45.5V0H47V-5.16H48.72v-1.2H46.956v-.384C46.956-7.428,47.28-7.776,47.9-7.776Zm13.224,1.3a2.991,2.991,0,0,0-2.4,1.068,2.4,2.4,0,0,0-2.16-1.068,2.654,2.654,0,0,0-2.1.888v-.816H53.04V0h1.5V-3.252c0-1.272.672-1.92,1.668-1.92.912,0,1.44.552,1.44,1.692V0h1.5V-3.252c0-1.272.684-1.92,1.668-1.92.912,0,1.44.552,1.44,1.692V0h1.5V-3.672C63.756-5.6,62.676-6.48,61.128-6.48ZM68.616.084A3.232,3.232,0,0,0,72.036-3.2a3.222,3.222,0,0,0-3.42-3.276A3.226,3.226,0,0,0,65.208-3.2,3.235,3.235,0,0,0,68.616.084Zm0-1.284a1.864,1.864,0,0,1-1.9-2,1.864,1.864,0,0,1,1.9-2,1.866,1.866,0,0,1,1.908,2A1.866,1.866,0,0,1,68.616-1.2Zm8.5-5.28a2.786,2.786,0,0,0-2.208.9v-.828H73.476V0h1.5V-3.24a1.7,1.7,0,0,1,1.788-1.932c.96,0,1.524.552,1.524,1.692V0h1.5V-3.672A2.5,2.5,0,0,0,77.112-6.48Zm5.34-.984a.921.921,0,0,0,.96-.936.893.893,0,0,0-.96-.864.914.914,0,0,0-.96.9A.914.914,0,0,0,82.452-7.464ZM81.7,0h1.5V-6.408H81.7Zm6.9-1.416a1.349,1.349,0,0,1-.84.264c-.576,0-.888-.336-.888-.96V-5.16h1.716v-1.2H86.868V-7.824h-1.5V-6.36H84.312v1.2h1.056v3.084A1.969,1.969,0,0,0,87.576.084a2.357,2.357,0,0,0,1.44-.432Zm4.32,1.5A3.232,3.232,0,0,0,96.336-3.2a3.222,3.222,0,0,0-3.42-3.276A3.226,3.226,0,0,0,89.508-3.2,3.235,3.235,0,0,0,92.916.084Zm0-1.284a1.864,1.864,0,0,1-1.9-2,1.864,1.864,0,0,1,1.9-2,1.866,1.866,0,0,1,1.908,2A1.866,1.866,0,0,1,92.916-1.2ZM99.2-5.472v-.936H97.776V0h1.5V-3.108a1.747,1.747,0,0,1,1.86-1.98,1.9,1.9,0,0,1,.348.036V-6.48A2.522,2.522,0,0,0,99.2-5.472Zm4.308-1.992a.921.921,0,0,0,.96-.936.893.893,0,0,0-.96-.864.914.914,0,0,0-.96.9A.914.914,0,0,0,103.512-7.464ZM102.756,0h1.5V-6.408h-1.5Zm7.1-6.48a2.786,2.786,0,0,0-2.208.9v-.828h-1.428V0h1.5V-3.24a1.7,1.7,0,0,1,1.788-1.932c.96,0,1.524.552,1.524,1.692V0h1.5V-3.672A2.5,2.5,0,0,0,109.86-6.48Zm9.576.072v.852a2.774,2.774,0,0,0-2.22-.924,3.042,3.042,0,0,0-3.24,3.084,3.061,3.061,0,0,0,3.24,3.108,2.821,2.821,0,0,0,2.148-.852V-.8c0,1.3-.624,1.944-2.04,1.944A3.871,3.871,0,0,1,114.96.372L114.288,1.5a5.093,5.093,0,0,0,3.12.912c2.244,0,3.456-1.056,3.456-3.384V-6.408ZM117.444-1.56A1.817,1.817,0,0,1,115.488-3.4a1.805,1.805,0,0,1,1.956-1.812A1.8,1.8,0,0,1,119.388-3.4,1.813,1.813,0,0,1,117.444-1.56Z" transform="translate(447.076 1082)" fill="#1e1e1e"/>
      <path id="Path_40" data-name="Path 40" d="M10.32,0l-.012-8.4H9.024L5.748-2.832,2.412-8.4H1.128V0H2.616V-5.5L5.376-.96h.7l2.76-4.608L8.844,0Zm4.572-6.48a4.506,4.506,0,0,0-2.712.792L12.768-4.6a3.172,3.172,0,0,1,1.944-.636c1.068,0,1.6.516,1.6,1.392v.1H14.652c-1.944,0-2.664.84-2.664,1.908,0,1.116.924,1.92,2.388,1.92A2.271,2.271,0,0,0,16.392-.78V0h1.416V-3.756C17.808-5.6,16.74-6.48,14.892-6.48Zm-.2,5.472c-.768,0-1.224-.348-1.224-.888,0-.468.276-.852,1.3-.852h1.548V-2A1.633,1.633,0,0,1,14.688-1.008ZM23.364-6.48a2.857,2.857,0,0,0-2.136.816V-8.9h-1.5V0h1.5V-3.24a1.7,1.7,0,0,1,1.788-1.932c.96,0,1.524.552,1.524,1.692V0h1.5V-3.672A2.5,2.5,0,0,0,23.364-6.48Zm7.032,0a4.506,4.506,0,0,0-2.712.792L28.272-4.6a3.172,3.172,0,0,1,1.944-.636c1.068,0,1.6.516,1.6,1.392v.1H30.156c-1.944,0-2.664.84-2.664,1.908,0,1.116.924,1.92,2.388,1.92A2.271,2.271,0,0,0,31.9-.78V0h1.416V-3.756C33.312-5.6,32.244-6.48,30.4-6.48Zm-.2,5.472c-.768,0-1.224-.348-1.224-.888,0-.468.276-.852,1.3-.852h1.548V-2A1.633,1.633,0,0,1,30.192-1.008Zm4.716-1.7h3.3V-3.96h-3.3ZM44.688,0h1.824L43.584-3.72,46.26-6.408h-1.8l-3.108,2.88V-8.9h-1.5V0h1.5V-1.692l1.116-1.056ZM51.12-6.48a2.857,2.857,0,0,0-2.136.816V-8.9h-1.5V0h1.5V-3.24a1.7,1.7,0,0,1,1.788-1.932c.96,0,1.524.552,1.524,1.692V0h1.5V-3.672A2.5,2.5,0,0,0,51.12-6.48Zm7.032,0a4.506,4.506,0,0,0-2.712.792L56.028-4.6a3.172,3.172,0,0,1,1.944-.636c1.068,0,1.6.516,1.6,1.392v.1H57.912c-1.944,0-2.664.84-2.664,1.908,0,1.116.924,1.92,2.388,1.92A2.271,2.271,0,0,0,59.652-.78V0h1.416V-3.756C61.068-5.6,60-6.48,58.152-6.48Zm-.2,5.472c-.768,0-1.224-.348-1.224-.888,0-.468.276-.852,1.3-.852h1.548V-2A1.633,1.633,0,0,1,57.948-1.008ZM66.624-6.48a2.786,2.786,0,0,0-2.208.9v-.828H62.988V0h1.5V-3.24a1.7,1.7,0,0,1,1.788-1.932c.96,0,1.524.552,1.524,1.692V0h1.5V-3.672A2.5,2.5,0,0,0,66.624-6.48Zm5.34-.984a.921.921,0,0,0,.96-.936.893.893,0,0,0-.96-.864.914.914,0,0,0-.96.9A.914.914,0,0,0,71.964-7.464ZM71.208,0h1.5V-6.408h-1.5Zm4.284-7.464a.921.921,0,0,0,.96-.936.893.893,0,0,0-.96-.864.914.914,0,0,0-.96.9A.914.914,0,0,0,75.492-7.464ZM74.016,2.412A2.079,2.079,0,0,0,76.248.12V-6.408h-1.5V.156c0,.684-.312,1.02-.864,1.02a1.481,1.481,0,0,1-.876-.252L72.576,2.04A2.452,2.452,0,0,0,74.016,2.412Zm16.176-8.82-1.74,4.752L86.724-6.408h-1.26L83.7-1.68,82.008-6.408H80.592L82.944,0h1.44l1.68-4.416L87.72,0h1.44l2.364-6.408ZM98.4-3.168A3.125,3.125,0,0,0,95.16-6.48,3.187,3.187,0,0,0,91.848-3.2,3.254,3.254,0,0,0,95.388.084,3.248,3.248,0,0,0,97.968-.96l-.8-.924a2.3,2.3,0,0,1-1.74.7,1.939,1.939,0,0,1-2.076-1.536h5.028C98.388-2.868,98.4-3.048,98.4-3.168ZM95.16-5.28a1.744,1.744,0,0,1,1.812,1.56H93.336A1.771,1.771,0,0,1,95.16-5.28Zm8.232-1.2a2.664,2.664,0,0,0-2.052.852V-8.9h-1.5V0h1.428V-.828a2.642,2.642,0,0,0,2.124.912A3.121,3.121,0,0,0,106.644-3.2,3.112,3.112,0,0,0,103.392-6.48Zm-.168,5.28a1.873,1.873,0,0,1-1.908-2,1.873,1.873,0,0,1,1.908-2,1.864,1.864,0,0,1,1.9,2A1.864,1.864,0,0,1,103.224-1.2Zm11.712-5.28a2.642,2.642,0,0,0-2.124.912v-.84h-1.428V2.328h1.5V-.78a2.633,2.633,0,0,0,2.052.864A3.121,3.121,0,0,0,118.188-3.2,3.118,3.118,0,0,0,114.936-6.48Zm-.168,5.28a1.873,1.873,0,0,1-1.908-2,1.873,1.873,0,0,1,1.908-2,1.864,1.864,0,0,1,1.9,2A1.864,1.864,0,0,1,114.768-1.2ZM122.5.084a3.232,3.232,0,0,0,3.42-3.288A3.222,3.222,0,0,0,122.5-6.48,3.226,3.226,0,0,0,119.088-3.2,3.235,3.235,0,0,0,122.5.084Zm0-1.284a1.864,1.864,0,0,1-1.9-2,1.864,1.864,0,0,1,1.9-2,1.866,1.866,0,0,1,1.908,2A1.866,1.866,0,0,1,122.5-1.2Zm6.288-4.272v-.936h-1.428V0h1.5V-3.108a1.747,1.747,0,0,1,1.86-1.98,1.9,1.9,0,0,1,.348.036V-6.48A2.522,2.522,0,0,0,128.784-5.472Zm7.224,4.056a1.349,1.349,0,0,1-.84.264c-.576,0-.888-.336-.888-.96V-5.16H136v-1.2H134.28V-7.824h-1.5V-6.36h-1.056v1.2h1.056v3.084a1.969,1.969,0,0,0,2.208,2.16,2.357,2.357,0,0,0,1.44-.432Zm4.1-5.064a4.506,4.506,0,0,0-2.712.792l.588,1.092a3.172,3.172,0,0,1,1.944-.636c1.068,0,1.6.516,1.6,1.392v.1h-1.656c-1.944,0-2.664.84-2.664,1.908,0,1.116.924,1.92,2.388,1.92a2.271,2.271,0,0,0,2.016-.864V0h1.416V-3.756C143.028-5.6,141.96-6.48,140.112-6.48Zm-.2,5.472c-.768,0-1.224-.348-1.224-.888,0-.468.276-.852,1.3-.852h1.548V-2A1.633,1.633,0,0,1,139.908-1.008ZM144.948,0h1.5V-8.9h-1.5Zm3.96-1.908a.945.945,0,0,0-.972,1,.923.923,0,0,0,.564.888l-.48,1.836h.972L149.6.12a2.706,2.706,0,0,0,.276-1.032A.945.945,0,0,0,148.908-1.908Z" transform="translate(432.82 1097)" fill="#1e1e1e"/>
      <path id="Path_41" data-name="Path 41" d="M10.32,0l-.012-8.4H9.024L5.748-2.832,2.412-8.4H1.128V0H2.616V-5.5L5.376-.96h.7l2.76-4.608L8.844,0Zm5,.084A3.232,3.232,0,0,0,18.744-3.2a3.222,3.222,0,0,0-3.42-3.276A3.226,3.226,0,0,0,11.916-3.2,3.235,3.235,0,0,0,15.324.084Zm0-1.284a1.864,1.864,0,0,1-1.9-2,1.864,1.864,0,0,1,1.9-2,1.866,1.866,0,0,1,1.908,2A1.866,1.866,0,0,1,15.324-1.2Zm8.412-5.28a2.664,2.664,0,0,0-2.052.852V-8.9h-1.5V0h1.428V-.828a2.642,2.642,0,0,0,2.124.912A3.121,3.121,0,0,0,26.988-3.2,3.112,3.112,0,0,0,23.736-6.48ZM23.568-1.2a1.873,1.873,0,0,1-1.908-2,1.873,1.873,0,0,1,1.908-2,1.864,1.864,0,0,1,1.9,2A1.864,1.864,0,0,1,23.568-1.2Zm5.6-6.264a.921.921,0,0,0,.96-.936.893.893,0,0,0-.96-.864.914.914,0,0,0-.96.9A.914.914,0,0,0,29.172-7.464ZM28.416,0h1.5V-6.408h-1.5Zm3.468,0h1.5V-8.9h-1.5Zm9.492-3.168a3.125,3.125,0,0,0-3.24-3.312A3.187,3.187,0,0,0,34.824-3.2,3.254,3.254,0,0,0,38.364.084,3.248,3.248,0,0,0,40.944-.96l-.8-.924a2.3,2.3,0,0,1-1.74.7,1.939,1.939,0,0,1-2.076-1.536h5.028C41.364-2.868,41.376-3.048,41.376-3.168ZM38.136-5.28a1.744,1.744,0,0,1,1.812,1.56H36.312A1.771,1.771,0,0,1,38.136-5.28Zm10.44-1.2a4.506,4.506,0,0,0-2.712.792L46.452-4.6A3.172,3.172,0,0,1,48.4-5.232c1.068,0,1.6.516,1.6,1.392v.1H48.336c-1.944,0-2.664.84-2.664,1.908,0,1.116.924,1.92,2.388,1.92A2.271,2.271,0,0,0,50.076-.78V0h1.416V-3.756C51.492-5.6,50.424-6.48,48.576-6.48Zm-.2,5.472c-.768,0-1.224-.348-1.224-.888,0-.468.276-.852,1.3-.852h1.548V-2A1.633,1.633,0,0,1,48.372-1.008ZM56.964-6.48a2.642,2.642,0,0,0-2.124.912v-.84H53.412V2.328h1.5V-.78a2.633,2.633,0,0,0,2.052.864A3.121,3.121,0,0,0,60.216-3.2,3.118,3.118,0,0,0,56.964-6.48ZM56.8-1.2a1.873,1.873,0,0,1-1.908-2,1.873,1.873,0,0,1,1.908-2,1.864,1.864,0,0,1,1.9,2A1.864,1.864,0,0,1,56.8-1.2Zm8.4-5.28a2.642,2.642,0,0,0-2.124.912v-.84H61.644V2.328h1.5V-.78A2.633,2.633,0,0,0,65.2.084,3.121,3.121,0,0,0,68.448-3.2,3.118,3.118,0,0,0,65.2-6.48ZM65.028-1.2a1.873,1.873,0,0,1-1.908-2,1.873,1.873,0,0,1,1.908-2,1.864,1.864,0,0,1,1.9,2A1.864,1.864,0,0,1,65.028-1.2ZM69.876,0h1.5V-8.9h-1.5ZM74.1-7.464a.921.921,0,0,0,.96-.936.893.893,0,0,0-.96-.864.914.914,0,0,0-.96.9A.914.914,0,0,0,74.1-7.464ZM73.344,0h1.5V-6.408h-1.5Zm6.408.084a2.913,2.913,0,0,0,2.736-1.5l-1.152-.672a1.813,1.813,0,0,1-1.6.888,1.874,1.874,0,0,1-1.944-2,1.881,1.881,0,0,1,1.944-2,1.813,1.813,0,0,1,1.6.888l1.152-.672A2.884,2.884,0,0,0,79.752-6.48,3.242,3.242,0,0,0,76.284-3.2,3.252,3.252,0,0,0,79.752.084Zm6.48-6.564a4.506,4.506,0,0,0-2.712.792L84.108-4.6a3.172,3.172,0,0,1,1.944-.636c1.068,0,1.6.516,1.6,1.392v.1H85.992c-1.944,0-2.664.84-2.664,1.908,0,1.116.924,1.92,2.388,1.92A2.271,2.271,0,0,0,87.732-.78V0h1.416V-3.756C89.148-5.6,88.08-6.48,86.232-6.48Zm-.2,5.472c-.768,0-1.224-.348-1.224-.888,0-.468.276-.852,1.3-.852h1.548V-2A1.633,1.633,0,0,1,86.028-1.008ZM94.5-1.416a1.349,1.349,0,0,1-.84.264c-.576,0-.888-.336-.888-.96V-5.16h1.716v-1.2H92.772V-7.824h-1.5V-6.36H90.216v1.2h1.056v3.084A1.969,1.969,0,0,0,93.48.084a2.357,2.357,0,0,0,1.44-.432Zm2.412-6.048a.921.921,0,0,0,.96-.936.893.893,0,0,0-.96-.864.914.914,0,0,0-.96.9A.914.914,0,0,0,96.912-7.464ZM96.156,0h1.5V-6.408h-1.5ZM102.5.084a3.232,3.232,0,0,0,3.42-3.288A3.222,3.222,0,0,0,102.5-6.48,3.226,3.226,0,0,0,99.1-3.2,3.235,3.235,0,0,0,102.5.084Zm0-1.284a1.864,1.864,0,0,1-1.9-2,1.864,1.864,0,0,1,1.9-2,1.866,1.866,0,0,1,1.908,2A1.866,1.866,0,0,1,102.5-1.2ZM111-6.48a2.786,2.786,0,0,0-2.208.9v-.828h-1.428V0h1.5V-3.24a1.7,1.7,0,0,1,1.788-1.932c.96,0,1.524.552,1.524,1.692V0h1.5V-3.672A2.5,2.5,0,0,0,111-6.48Z" transform="translate(449.044 1112)" fill="#1e1e1e"/>
      <path id="Path_42" data-name="Path 42" d="M3.432-6.48A4.506,4.506,0,0,0,.72-5.688L1.308-4.6a3.172,3.172,0,0,1,1.944-.636c1.068,0,1.6.516,1.6,1.392v.1H3.192C1.248-3.744.528-2.9.528-1.836c0,1.116.924,1.92,2.388,1.92A2.271,2.271,0,0,0,4.932-.78V0H6.348V-3.756C6.348-5.6,5.28-6.48,3.432-6.48Zm-.2,5.472C2.46-1.008,2-1.356,2-1.9c0-.468.276-.852,1.3-.852H4.848V-2A1.633,1.633,0,0,1,3.228-1.008ZM11.9-6.48a2.786,2.786,0,0,0-2.208.9v-.828H8.268V0h1.5V-3.24a1.7,1.7,0,0,1,1.788-1.932c.96,0,1.524.552,1.524,1.692V0h1.5V-3.672A2.5,2.5,0,0,0,11.9-6.48ZM21.324-8.9v3.288A2.624,2.624,0,0,0,19.26-6.48,3.109,3.109,0,0,0,16.02-3.2,3.118,3.118,0,0,0,19.26.084a2.642,2.642,0,0,0,2.124-.912V0h1.44V-8.9ZM19.44-1.2a1.873,1.873,0,0,1-1.908-2,1.873,1.873,0,0,1,1.908-2,1.873,1.873,0,0,1,1.908,2A1.873,1.873,0,0,1,19.44-1.2ZM30.852.12c2.3,0,3.4-1.152,3.4-2.5,0-3.084-4.98-1.92-4.98-3.708,0-.636.528-1.14,1.824-1.14a4.668,4.668,0,0,1,2.316.66L33.9-7.776a5.311,5.311,0,0,0-2.8-.744c-2.3,0-3.384,1.152-3.384,2.508,0,3.12,4.992,1.932,4.992,3.744,0,.624-.552,1.092-1.86,1.092A4.654,4.654,0,0,1,28.08-2.1L27.54-.888A5.412,5.412,0,0,0,30.852.12ZM44.988,0l-.012-8.4H43.692L40.416-2.832,37.08-8.4H35.8V0h1.488V-5.5L40.044-.96h.7L43.5-5.568,43.512,0ZM49.86.12c2.3,0,3.4-1.152,3.4-2.5,0-3.084-4.98-1.92-4.98-3.708,0-.636.528-1.14,1.824-1.14a4.668,4.668,0,0,1,2.316.66l.492-1.212a5.311,5.311,0,0,0-2.8-.744c-2.3,0-3.384,1.152-3.384,2.508,0,3.12,4.992,1.932,4.992,3.744,0,.624-.552,1.092-1.86,1.092A4.654,4.654,0,0,1,47.088-2.1l-.54,1.212A5.412,5.412,0,0,0,49.86.12Z" transform="translate(481.162 1127)" fill="#1e1e1e"/>
    </g>
    <text id="No_Action_Taken-2" data-name="No Action Taken" transform="translate(2874.096 427.5)" fill="#1e1e1e" font-size="12" font-family="Montserrat-SemiBold, Montserrat" font-weight="600"><tspan x="0" y="0">No Action Taken</tspan></text>
    <text id="No_Action_Taken-3" data-name="No Action Taken" transform="translate(3037.5 427.5)" fill="#1e1e1e" font-size="12" font-family="Montserrat-SemiBold, Montserrat" font-weight="600"><tspan x="0" y="0">Legal</tspan></text>
    <text id="No_Action_Taken-4" data-name="No Action Taken" transform="translate(3034.5 536.992)" fill="#1e1e1e" font-size="12" font-family="Montserrat-SemiBold, Montserrat" font-weight="600"><tspan x="0" y="0">Illegal</tspan></text>
    <g id="Group-5" data-name="Group" transform="translate(2452 -851.5)">
      <text id="Verifies_intercepted" data-name="Verifies intercepted" transform="translate(870.046 1321)" fill="#1e1e1e" font-size="12" font-family="Montserrat-SemiBold, Montserrat" font-weight="600"><tspan x="0" y="0">Verifies intercepted</tspan></text>
      <text id="Vehicle_details" data-name="Vehicle details" transform="translate(886.204 1336)" fill="#1e1e1e" font-size="12" font-family="Montserrat-SemiBold, Montserrat" font-weight="600"><tspan x="0" y="0">Vehicle details</tspan></text>
    </g>
    <g id="Group-6" data-name="Group" transform="translate(2452 -945)">
      <path id="Path_34" data-name="Path 34" d="M8.3,0,6.372-2.76A2.685,2.685,0,0,0,8.16-5.412C8.16-7.272,6.792-8.4,4.584-8.4H1.128V0h1.56V-2.448h1.9a2.924,2.924,0,0,0,.324-.012L6.624,0ZM6.588-5.412c0,1.056-.708,1.68-2.076,1.68H2.688V-7.08H4.512C5.88-7.08,6.588-6.468,6.588-5.412ZM15.78-3.168A3.125,3.125,0,0,0,12.54-6.48,3.187,3.187,0,0,0,9.228-3.2,3.254,3.254,0,0,0,12.768.084,3.248,3.248,0,0,0,15.348-.96l-.8-.924a2.3,2.3,0,0,1-1.74.7,1.939,1.939,0,0,1-2.076-1.536h5.028C15.768-2.868,15.78-3.048,15.78-3.168ZM12.54-5.28a1.744,1.744,0,0,1,1.812,1.56H10.716A1.771,1.771,0,0,1,12.54-5.28Zm9.12-1.128L19.608-1.656,17.616-6.408h-1.56L18.8,0h1.548L23.1-6.408Zm8.22,3.24A3.125,3.125,0,0,0,26.64-6.48,3.187,3.187,0,0,0,23.328-3.2,3.254,3.254,0,0,0,26.868.084,3.248,3.248,0,0,0,29.448-.96l-.8-.924a2.3,2.3,0,0,1-1.74.7,1.939,1.939,0,0,1-2.076-1.536h5.028C29.868-2.868,29.88-3.048,29.88-3.168ZM26.64-5.28a1.744,1.744,0,0,1,1.812,1.56H24.816A1.771,1.771,0,0,1,26.64-5.28Zm8.316-1.2a2.786,2.786,0,0,0-2.208.9v-.828H31.32V0h1.5V-3.24a1.7,1.7,0,0,1,1.788-1.932c.96,0,1.524.552,1.524,1.692V0h1.5V-3.672A2.5,2.5,0,0,0,34.956-6.48Zm9.288.072v3.24a1.688,1.688,0,0,1-1.752,1.932c-.948,0-1.5-.552-1.5-1.716V-6.408h-1.5v3.66A2.535,2.535,0,0,0,42.252.084a2.618,2.618,0,0,0,2.064-.9V0h1.428V-6.408Zm9.492,3.24A3.125,3.125,0,0,0,50.5-6.48,3.187,3.187,0,0,0,47.184-3.2,3.254,3.254,0,0,0,50.724.084,3.248,3.248,0,0,0,53.3-.96l-.8-.924a2.3,2.3,0,0,1-1.74.7,1.939,1.939,0,0,1-2.076-1.536h5.028C53.724-2.868,53.736-3.048,53.736-3.168ZM50.5-5.28a1.744,1.744,0,0,1,1.812,1.56H48.672A1.771,1.771,0,0,1,50.5-5.28ZM63.264-8.9v3.288A2.624,2.624,0,0,0,61.2-6.48,3.109,3.109,0,0,0,57.96-3.2,3.118,3.118,0,0,0,61.2.084a2.642,2.642,0,0,0,2.124-.912V0h1.44V-8.9ZM61.38-1.2a1.873,1.873,0,0,1-1.908-2,1.873,1.873,0,0,1,1.908-2,1.873,1.873,0,0,1,1.908,2A1.873,1.873,0,0,1,61.38-1.2ZM72.756-3.168a3.125,3.125,0,0,0-3.24-3.312A3.187,3.187,0,0,0,66.2-3.2,3.254,3.254,0,0,0,69.744.084,3.248,3.248,0,0,0,72.324-.96l-.8-.924a2.3,2.3,0,0,1-1.74.7A1.939,1.939,0,0,1,67.7-2.724h5.028C72.744-2.868,72.756-3.048,72.756-3.168ZM69.516-5.28a1.744,1.744,0,0,1,1.812,1.56H67.692A1.771,1.771,0,0,1,69.516-5.28Zm8.232-1.2a2.642,2.642,0,0,0-2.124.912v-.84H74.2V2.328h1.5V-.78a2.633,2.633,0,0,0,2.052.864A3.121,3.121,0,0,0,81-3.2,3.118,3.118,0,0,0,77.748-6.48ZM77.58-1.2a1.873,1.873,0,0,1-1.908-2,1.873,1.873,0,0,1,1.908-2,1.864,1.864,0,0,1,1.9,2A1.864,1.864,0,0,1,77.58-1.2Zm7.212-5.28a4.506,4.506,0,0,0-2.712.792L82.668-4.6a3.172,3.172,0,0,1,1.944-.636c1.068,0,1.6.516,1.6,1.392v.1H84.552c-1.944,0-2.664.84-2.664,1.908,0,1.116.924,1.92,2.388,1.92A2.271,2.271,0,0,0,86.292-.78V0h1.416V-3.756C87.708-5.6,86.64-6.48,84.792-6.48Zm-.2,5.472c-.768,0-1.224-.348-1.224-.888,0-.468.276-.852,1.3-.852h1.548V-2A1.633,1.633,0,0,1,84.588-1.008Zm6.468-4.464v-.936H89.628V0h1.5V-3.108a1.747,1.747,0,0,1,1.86-1.98,1.9,1.9,0,0,1,.348.036V-6.48A2.522,2.522,0,0,0,91.056-5.472ZM98.28-1.416a1.349,1.349,0,0,1-.84.264c-.576,0-.888-.336-.888-.96V-5.16h1.716v-1.2H96.552V-7.824h-1.5V-6.36H94v1.2h1.056v3.084A1.969,1.969,0,0,0,97.26.084,2.357,2.357,0,0,0,98.7-.348Zm9.744-5.064a2.991,2.991,0,0,0-2.4,1.068,2.4,2.4,0,0,0-2.16-1.068,2.654,2.654,0,0,0-2.1.888v-.816H99.936V0h1.5V-3.252c0-1.272.672-1.92,1.668-1.92.912,0,1.44.552,1.44,1.692V0h1.5V-3.252c0-1.272.684-1.92,1.668-1.92.912,0,1.44.552,1.44,1.692V0h1.5V-3.672C110.652-5.6,109.572-6.48,108.024-6.48Zm10.632,3.312a3.125,3.125,0,0,0-3.24-3.312A3.187,3.187,0,0,0,112.1-3.2a3.254,3.254,0,0,0,3.54,3.288,3.248,3.248,0,0,0,2.58-1.044l-.8-.924a2.3,2.3,0,0,1-1.74.7A1.939,1.939,0,0,1,113.6-2.724h5.028C118.644-2.868,118.656-3.048,118.656-3.168Zm-3.24-2.112a1.744,1.744,0,0,1,1.812,1.56h-3.636A1.771,1.771,0,0,1,115.416-5.28Zm8.316-1.2a2.786,2.786,0,0,0-2.208.9v-.828H120.1V0h1.5V-3.24a1.7,1.7,0,0,1,1.788-1.932c.96,0,1.524.552,1.524,1.692V0h1.5V-3.672A2.5,2.5,0,0,0,123.732-6.48Zm8.016,5.064a1.349,1.349,0,0,1-.84.264c-.576,0-.888-.336-.888-.96V-5.16h1.716v-1.2H130.02V-7.824h-1.5V-6.36h-1.056v1.2h1.056v3.084a1.969,1.969,0,0,0,2.208,2.16,2.357,2.357,0,0,0,1.44-.432Z" transform="translate(48.79 1089)" fill="#1e1e1e"/>
      <path id="Path_35" data-name="Path 35" d="M3.864.084A3.232,3.232,0,0,0,7.284-3.2,3.222,3.222,0,0,0,3.864-6.48,3.226,3.226,0,0,0,.456-3.2,3.235,3.235,0,0,0,3.864.084Zm0-1.284a1.864,1.864,0,0,1-1.9-2,1.864,1.864,0,0,1,1.9-2,1.866,1.866,0,0,1,1.908,2A1.866,1.866,0,0,1,3.864-1.2Zm7.464-6.576a1.477,1.477,0,0,1,.828.264l.42-1.128a2.4,2.4,0,0,0-1.356-.348,2.07,2.07,0,0,0-2.292,2.22v.408H7.872v1.2H8.928V0h1.5V-5.16h1.716v-1.2H10.38v-.384C10.38-7.428,10.7-7.776,11.328-7.776Zm7.968.312a.921.921,0,0,0,.96-.936.893.893,0,0,0-.96-.864.914.914,0,0,0-.96.9A.914.914,0,0,0,19.3-7.464Zm-5.94.7v.408H12.3v1.2h1.056V0h1.5V-5.16h1.716v-1.2H14.808v-.384c0-.684.324-1.032.948-1.032a1.477,1.477,0,0,1,.828.264L17-8.64a2.4,2.4,0,0,0-1.356-.348A2.07,2.07,0,0,0,13.356-6.768ZM18.54,0h1.5V-6.408h-1.5Zm6.408.084a2.913,2.913,0,0,0,2.736-1.5l-1.152-.672a1.813,1.813,0,0,1-1.6.888,1.874,1.874,0,0,1-1.944-2,1.881,1.881,0,0,1,1.944-2,1.813,1.813,0,0,1,1.6.888l1.152-.672A2.884,2.884,0,0,0,24.948-6.48,3.242,3.242,0,0,0,21.48-3.2,3.252,3.252,0,0,0,24.948.084Zm9.96-3.252a3.125,3.125,0,0,0-3.24-3.312A3.187,3.187,0,0,0,28.356-3.2,3.254,3.254,0,0,0,31.9.084,3.248,3.248,0,0,0,34.476-.96l-.8-.924a2.3,2.3,0,0,1-1.74.7,1.939,1.939,0,0,1-2.076-1.536h5.028C34.9-2.868,34.908-3.048,34.908-3.168ZM31.668-5.28A1.744,1.744,0,0,1,33.48-3.72H29.844A1.771,1.771,0,0,1,31.668-5.28Zm6.108-.192v-.936H36.348V0h1.5V-3.108a1.747,1.747,0,0,1,1.86-1.98,1.9,1.9,0,0,1,.348.036V-6.48A2.522,2.522,0,0,0,37.776-5.472ZM44.7,0h1.5V-8.9H44.7Zm6.348.084A3.232,3.232,0,0,0,54.468-3.2a3.222,3.222,0,0,0-3.42-3.276A3.226,3.226,0,0,0,47.64-3.2,3.235,3.235,0,0,0,51.048.084Zm0-1.284a1.864,1.864,0,0,1-1.9-2,1.864,1.864,0,0,1,1.9-2,1.866,1.866,0,0,1,1.908,2A1.866,1.866,0,0,1,51.048-1.2ZM60.84-6.408v.852a2.774,2.774,0,0,0-2.22-.924A3.042,3.042,0,0,0,55.38-3.4,3.061,3.061,0,0,0,58.62-.288a2.821,2.821,0,0,0,2.148-.852V-.8c0,1.3-.624,1.944-2.04,1.944A3.871,3.871,0,0,1,56.364.372L55.692,1.5a5.093,5.093,0,0,0,3.12.912c2.244,0,3.456-1.056,3.456-3.384V-6.408ZM58.848-1.56A1.817,1.817,0,0,1,56.892-3.4a1.805,1.805,0,0,1,1.956-1.812A1.8,1.8,0,0,1,60.792-3.4,1.813,1.813,0,0,1,58.848-1.56Zm6.144-5.9a.921.921,0,0,0,.96-.936.893.893,0,0,0-.96-.864.914.914,0,0,0-.96.9A.914.914,0,0,0,64.992-7.464ZM64.236,0h1.5V-6.408h-1.5Zm7.1-6.48a2.786,2.786,0,0,0-2.208.9v-.828H67.7V0h1.5V-3.24a1.7,1.7,0,0,1,1.788-1.932c.96,0,1.524.552,1.524,1.692V0h1.5V-3.672A2.5,2.5,0,0,0,71.34-6.48ZM82.668-1.416a1.349,1.349,0,0,1-.84.264c-.576,0-.888-.336-.888-.96V-5.16h1.716v-1.2H80.94V-7.824h-1.5V-6.36H78.384v1.2H79.44v3.084A1.969,1.969,0,0,0,81.648.084a2.357,2.357,0,0,0,1.44-.432Zm4.32,1.5A3.232,3.232,0,0,0,90.408-3.2a3.222,3.222,0,0,0-3.42-3.276A3.226,3.226,0,0,0,83.58-3.2,3.235,3.235,0,0,0,86.988.084Zm0-1.284a1.864,1.864,0,0,1-1.9-2,1.864,1.864,0,0,1,1.9-2,1.866,1.866,0,0,1,1.908,2A1.866,1.866,0,0,1,86.988-1.2Z" transform="translate(69.568 1104)" fill="#1e1e1e"/>
      <path id="Path_36" data-name="Path 36" d="M10.32,0l-.012-8.4H9.024L5.748-2.832,2.412-8.4H1.128V0H2.616V-5.5L5.376-.96h.7l2.76-4.608L8.844,0Zm4.572-6.48a4.506,4.506,0,0,0-2.712.792L12.768-4.6a3.172,3.172,0,0,1,1.944-.636c1.068,0,1.6.516,1.6,1.392v.1H14.652c-1.944,0-2.664.84-2.664,1.908,0,1.116.924,1.92,2.388,1.92A2.271,2.271,0,0,0,16.392-.78V0h1.416V-3.756C17.808-5.6,16.74-6.48,14.892-6.48Zm-.2,5.472c-.768,0-1.224-.348-1.224-.888,0-.468.276-.852,1.3-.852h1.548V-2A1.633,1.633,0,0,1,14.688-1.008ZM23.364-6.48a2.857,2.857,0,0,0-2.136.816V-8.9h-1.5V0h1.5V-3.24a1.7,1.7,0,0,1,1.788-1.932c.96,0,1.524.552,1.524,1.692V0h1.5V-3.672A2.5,2.5,0,0,0,23.364-6.48Zm7.032,0a4.506,4.506,0,0,0-2.712.792L28.272-4.6a3.172,3.172,0,0,1,1.944-.636c1.068,0,1.6.516,1.6,1.392v.1H30.156c-1.944,0-2.664.84-2.664,1.908,0,1.116.924,1.92,2.388,1.92A2.271,2.271,0,0,0,31.9-.78V0h1.416V-3.756C33.312-5.6,32.244-6.48,30.4-6.48Zm-.2,5.472c-.768,0-1.224-.348-1.224-.888,0-.468.276-.852,1.3-.852h1.548V-2A1.633,1.633,0,0,1,30.192-1.008Zm4.716-1.7h3.3V-3.96h-3.3ZM44.688,0h1.824L43.584-3.72,46.26-6.408h-1.8l-3.108,2.88V-8.9h-1.5V0h1.5V-1.692l1.116-1.056ZM51.12-6.48a2.857,2.857,0,0,0-2.136.816V-8.9h-1.5V0h1.5V-3.24a1.7,1.7,0,0,1,1.788-1.932c.96,0,1.524.552,1.524,1.692V0h1.5V-3.672A2.5,2.5,0,0,0,51.12-6.48Zm7.032,0a4.506,4.506,0,0,0-2.712.792L56.028-4.6a3.172,3.172,0,0,1,1.944-.636c1.068,0,1.6.516,1.6,1.392v.1H57.912c-1.944,0-2.664.84-2.664,1.908,0,1.116.924,1.92,2.388,1.92A2.271,2.271,0,0,0,59.652-.78V0h1.416V-3.756C61.068-5.6,60-6.48,58.152-6.48Zm-.2,5.472c-.768,0-1.224-.348-1.224-.888,0-.468.276-.852,1.3-.852h1.548V-2A1.633,1.633,0,0,1,57.948-1.008ZM66.624-6.48a2.786,2.786,0,0,0-2.208.9v-.828H62.988V0h1.5V-3.24a1.7,1.7,0,0,1,1.788-1.932c.96,0,1.524.552,1.524,1.692V0h1.5V-3.672A2.5,2.5,0,0,0,66.624-6.48Zm5.34-.984a.921.921,0,0,0,.96-.936.893.893,0,0,0-.96-.864.914.914,0,0,0-.96.9A.914.914,0,0,0,71.964-7.464ZM71.208,0h1.5V-6.408h-1.5Zm4.284-7.464a.921.921,0,0,0,.96-.936.893.893,0,0,0-.96-.864.914.914,0,0,0-.96.9A.914.914,0,0,0,75.492-7.464ZM74.016,2.412A2.079,2.079,0,0,0,76.248.12V-6.408h-1.5V.156c0,.684-.312,1.02-.864,1.02a1.481,1.481,0,0,1-.876-.252L72.576,2.04A2.452,2.452,0,0,0,74.016,2.412ZM85.08-6.48a2.642,2.642,0,0,0-2.124.912v-.84H81.528V2.328h1.5V-.78A2.633,2.633,0,0,0,85.08.084,3.121,3.121,0,0,0,88.332-3.2,3.118,3.118,0,0,0,85.08-6.48ZM84.912-1.2A1.873,1.873,0,0,1,83-3.2a1.873,1.873,0,0,1,1.908-2,1.864,1.864,0,0,1,1.9,2A1.864,1.864,0,0,1,84.912-1.2ZM92.64.084A3.232,3.232,0,0,0,96.06-3.2,3.222,3.222,0,0,0,92.64-6.48,3.226,3.226,0,0,0,89.232-3.2,3.235,3.235,0,0,0,92.64.084Zm0-1.284a1.864,1.864,0,0,1-1.9-2,1.864,1.864,0,0,1,1.9-2,1.866,1.866,0,0,1,1.908,2A1.866,1.866,0,0,1,92.64-1.2Zm6.288-4.272v-.936H97.5V0H99V-3.108a1.747,1.747,0,0,1,1.86-1.98,1.9,1.9,0,0,1,.348.036V-6.48A2.522,2.522,0,0,0,98.928-5.472Zm7.224,4.056a1.349,1.349,0,0,1-.84.264c-.576,0-.888-.336-.888-.96V-5.16h1.716v-1.2h-1.716V-7.824h-1.5V-6.36h-1.056v1.2h1.056v3.084a1.969,1.969,0,0,0,2.208,2.16,2.357,2.357,0,0,0,1.44-.432Zm4.1-5.064a4.506,4.506,0,0,0-2.712.792l.588,1.092a3.172,3.172,0,0,1,1.944-.636c1.068,0,1.6.516,1.6,1.392v.1h-1.656c-1.944,0-2.664.84-2.664,1.908,0,1.116.924,1.92,2.388,1.92a2.271,2.271,0,0,0,2.016-.864V0h1.416V-3.756C113.172-5.6,112.1-6.48,110.256-6.48Zm-.2,5.472c-.768,0-1.224-.348-1.224-.888,0-.468.276-.852,1.3-.852h1.548V-2A1.633,1.633,0,0,1,110.052-1.008ZM115.092,0h1.5V-8.9h-1.5Z" transform="translate(56.212 1119)" fill="#1e1e1e"/>
    </g>
    <text id="Fines_are_collected" data-name="Fines are collected" transform="translate(2475.07 539.5)" fill="#1e1e1e" font-size="12" font-family="Montserrat-SemiBold, Montserrat" font-weight="600"><tspan x="0" y="0">Fines are collected</tspan></text>
    <path id="Vehicle_number" data-name="Vehicle number" d="M7.248-8.4,4.428-1.92,1.632-8.4H-.06L3.612,0H5.148l3.66-8.4ZM15.1-3.168a3.125,3.125,0,0,0-3.24-3.312A3.187,3.187,0,0,0,8.544-3.2,3.254,3.254,0,0,0,12.084.084,3.248,3.248,0,0,0,14.664-.96l-.8-.924a2.3,2.3,0,0,1-1.74.7,1.939,1.939,0,0,1-2.076-1.536h5.028C15.084-2.868,15.1-3.048,15.1-3.168ZM11.856-5.28a1.744,1.744,0,0,1,1.812,1.56H10.032A1.771,1.771,0,0,1,11.856-5.28Zm8.316-1.2a2.857,2.857,0,0,0-2.136.816V-8.9h-1.5V0h1.5V-3.24a1.7,1.7,0,0,1,1.788-1.932c.96,0,1.524.552,1.524,1.692V0h1.5V-3.672A2.5,2.5,0,0,0,20.172-6.48Zm5.34-.984a.921.921,0,0,0,.96-.936.893.893,0,0,0-.96-.864.914.914,0,0,0-.96.9A.914.914,0,0,0,25.512-7.464ZM24.756,0h1.5V-6.408h-1.5Zm6.408.084a2.913,2.913,0,0,0,2.736-1.5l-1.152-.672a1.813,1.813,0,0,1-1.6.888,1.874,1.874,0,0,1-1.944-2,1.881,1.881,0,0,1,1.944-2,1.813,1.813,0,0,1,1.6.888L33.9-4.992A2.884,2.884,0,0,0,31.164-6.48,3.242,3.242,0,0,0,27.7-3.2,3.252,3.252,0,0,0,31.164.084ZM35.136,0h1.5V-8.9h-1.5Zm9.492-3.168a3.125,3.125,0,0,0-3.24-3.312A3.187,3.187,0,0,0,38.076-3.2,3.254,3.254,0,0,0,41.616.084,3.248,3.248,0,0,0,44.2-.96l-.8-.924a2.3,2.3,0,0,1-1.74.7,1.939,1.939,0,0,1-2.076-1.536H44.6C44.616-2.868,44.628-3.048,44.628-3.168ZM41.388-5.28A1.744,1.744,0,0,1,43.2-3.72H39.564A1.771,1.771,0,0,1,41.388-5.28Zm11.628-1.2a2.786,2.786,0,0,0-2.208.9v-.828H49.38V0h1.5V-3.24a1.7,1.7,0,0,1,1.788-1.932c.96,0,1.524.552,1.524,1.692V0h1.5V-3.672A2.5,2.5,0,0,0,53.016-6.48Zm9.288.072v3.24a1.688,1.688,0,0,1-1.752,1.932c-.948,0-1.5-.552-1.5-1.716V-6.408h-1.5v3.66A2.535,2.535,0,0,0,60.312.084a2.618,2.618,0,0,0,2.064-.9V0H63.8V-6.408ZM73.86-6.48a2.991,2.991,0,0,0-2.4,1.068A2.4,2.4,0,0,0,69.3-6.48a2.654,2.654,0,0,0-2.1.888v-.816H65.772V0h1.5V-3.252c0-1.272.672-1.92,1.668-1.92.912,0,1.44.552,1.44,1.692V0h1.5V-3.252c0-1.272.684-1.92,1.668-1.92.912,0,1.44.552,1.44,1.692V0h1.5V-3.672C76.488-5.6,75.408-6.48,73.86-6.48Zm8.1,0a2.664,2.664,0,0,0-2.052.852V-8.9h-1.5V0h1.428V-.828A2.642,2.642,0,0,0,81.96.084,3.121,3.121,0,0,0,85.212-3.2,3.112,3.112,0,0,0,81.96-6.48ZM81.792-1.2a1.873,1.873,0,0,1-1.908-2,1.873,1.873,0,0,1,1.908-2,1.864,1.864,0,0,1,1.9,2A1.864,1.864,0,0,1,81.792-1.2ZM92.664-3.168a3.125,3.125,0,0,0-3.24-3.312A3.187,3.187,0,0,0,86.112-3.2,3.254,3.254,0,0,0,89.652.084,3.248,3.248,0,0,0,92.232-.96l-.8-.924a2.3,2.3,0,0,1-1.74.7,1.939,1.939,0,0,1-2.076-1.536H92.64C92.652-2.868,92.664-3.048,92.664-3.168ZM89.424-5.28a1.744,1.744,0,0,1,1.812,1.56H87.6A1.771,1.771,0,0,1,89.424-5.28Zm6.108-.192v-.936H94.1V0h1.5V-3.108a1.747,1.747,0,0,1,1.86-1.98,1.9,1.9,0,0,1,.348.036V-6.48A2.522,2.522,0,0,0,95.532-5.472Z" transform="translate(3106.92 255)" fill="#1e1e1e"/>
    <path id="Vehicle_number-2" data-name="Vehicle number" d="M1.128,0H4.8C7.524,0,9.384-1.68,9.384-4.2S7.524-8.4,4.8-8.4H1.128Zm1.56-1.32V-7.08h2.04A2.8,2.8,0,0,1,7.812-4.2,2.8,2.8,0,0,1,4.728-1.32Zm9.636-4.152v-.936H10.9V0h1.5V-3.108a1.747,1.747,0,0,1,1.86-1.98,1.9,1.9,0,0,1,.348.036V-6.48A2.522,2.522,0,0,0,12.324-5.472Zm4.308-1.992a.921.921,0,0,0,.96-.936.893.893,0,0,0-.96-.864.914.914,0,0,0-.96.9A.914.914,0,0,0,16.632-7.464ZM15.876,0h1.5V-6.408h-1.5ZM23.9-6.408,21.852-1.656,19.86-6.408H18.3L21.048,0H22.6l2.748-6.408Zm8.22,3.24a3.125,3.125,0,0,0-3.24-3.312A3.187,3.187,0,0,0,25.572-3.2,3.254,3.254,0,0,0,29.112.084,3.248,3.248,0,0,0,31.692-.96l-.8-.924a2.3,2.3,0,0,1-1.74.7,1.939,1.939,0,0,1-2.076-1.536H32.1C32.112-2.868,32.124-3.048,32.124-3.168ZM28.884-5.28A1.744,1.744,0,0,1,30.7-3.72H27.06A1.771,1.771,0,0,1,28.884-5.28Zm6.108-.192v-.936H33.564V0h1.5V-3.108a1.747,1.747,0,0,1,1.86-1.98,1.9,1.9,0,0,1,.348.036V-6.48A2.522,2.522,0,0,0,34.992-5.472ZM51.252,0,51.24-8.4H49.956L46.68-2.832,43.344-8.4H42.06V0h1.488V-5.5L46.308-.96H47l2.76-4.608L49.776,0Zm5,.084A3.232,3.232,0,0,0,59.676-3.2a3.222,3.222,0,0,0-3.42-3.276A3.226,3.226,0,0,0,52.848-3.2,3.235,3.235,0,0,0,56.256.084Zm0-1.284a1.864,1.864,0,0,1-1.9-2,1.864,1.864,0,0,1,1.9-2,1.866,1.866,0,0,1,1.908,2A1.866,1.866,0,0,1,56.256-1.2Zm8.412-5.28a2.664,2.664,0,0,0-2.052.852V-8.9h-1.5V0h1.428V-.828a2.642,2.642,0,0,0,2.124.912A3.121,3.121,0,0,0,67.92-3.2,3.112,3.112,0,0,0,64.668-6.48ZM64.5-1.2a1.873,1.873,0,0,1-1.908-2,1.873,1.873,0,0,1,1.908-2,1.864,1.864,0,0,1,1.9,2A1.864,1.864,0,0,1,64.5-1.2Zm5.6-6.264a.921.921,0,0,0,.96-.936.893.893,0,0,0-.96-.864.914.914,0,0,0-.96.9A.914.914,0,0,0,70.1-7.464ZM69.348,0h1.5V-6.408h-1.5Zm3.468,0h1.5V-8.9h-1.5Zm9.492-3.168a3.125,3.125,0,0,0-3.24-3.312A3.187,3.187,0,0,0,75.756-3.2,3.254,3.254,0,0,0,79.3.084,3.248,3.248,0,0,0,81.876-.96l-.8-.924a2.3,2.3,0,0,1-1.74.7,1.939,1.939,0,0,1-2.076-1.536h5.028C82.3-2.868,82.308-3.048,82.308-3.168ZM79.068-5.28A1.744,1.744,0,0,1,80.88-3.72H77.244A1.771,1.771,0,0,1,79.068-5.28ZM93.12-8.4v5.688L88.488-8.4H87.2V0h1.548V-5.688L93.384,0h1.284V-8.4ZM99.66.084A3.232,3.232,0,0,0,103.08-3.2,3.222,3.222,0,0,0,99.66-6.48,3.226,3.226,0,0,0,96.252-3.2,3.235,3.235,0,0,0,99.66.084Zm0-1.284a1.864,1.864,0,0,1-1.9-2,1.864,1.864,0,0,1,1.9-2,1.866,1.866,0,0,1,1.908,2A1.866,1.866,0,0,1,99.66-1.2Z" transform="translate(3103.92 349)" fill="#1e1e1e"/>
    <path id="Barcode" d="M7.08-4.368A2.014,2.014,0,0,0,8.16-6.216c0-1.332-1.08-2.184-3.1-2.184H1.128V0H5.3c2.16,0,3.288-.84,3.288-2.28A2.069,2.069,0,0,0,7.08-4.368ZM4.9-7.176c1.08,0,1.692.384,1.692,1.164S5.976-4.86,4.9-4.86H2.688V-7.176Zm.312,5.952H2.688V-3.648h2.52c1.176,0,1.812.372,1.812,1.212S6.384-1.224,5.208-1.224ZM12.564-6.48a4.506,4.506,0,0,0-2.712.792L10.44-4.6a3.172,3.172,0,0,1,1.944-.636c1.068,0,1.6.516,1.6,1.392v.1H12.324c-1.944,0-2.664.84-2.664,1.908,0,1.116.924,1.92,2.388,1.92A2.271,2.271,0,0,0,14.064-.78V0H15.48V-3.756C15.48-5.6,14.412-6.48,12.564-6.48Zm-.2,5.472c-.768,0-1.224-.348-1.224-.888,0-.468.276-.852,1.3-.852H13.98V-2A1.633,1.633,0,0,1,12.36-1.008Zm6.468-4.464v-.936H17.4V0h1.5V-3.108a1.747,1.747,0,0,1,1.86-1.98,1.9,1.9,0,0,1,.348.036V-6.48A2.522,2.522,0,0,0,18.828-5.472ZM25.26.084A2.913,2.913,0,0,0,28-1.416l-1.152-.672a1.813,1.813,0,0,1-1.6.888,1.874,1.874,0,0,1-1.944-2,1.881,1.881,0,0,1,1.944-2,1.813,1.813,0,0,1,1.6.888L28-4.992A2.884,2.884,0,0,0,25.26-6.48,3.242,3.242,0,0,0,21.792-3.2,3.252,3.252,0,0,0,25.26.084Zm6.816,0A3.232,3.232,0,0,0,35.5-3.2a3.222,3.222,0,0,0-3.42-3.276A3.226,3.226,0,0,0,28.668-3.2,3.235,3.235,0,0,0,32.076.084Zm0-1.284a1.864,1.864,0,0,1-1.9-2,1.864,1.864,0,0,1,1.9-2,1.866,1.866,0,0,1,1.908,2A1.866,1.866,0,0,1,32.076-1.2Zm9.636-7.7v3.288a2.624,2.624,0,0,0-2.064-.864A3.109,3.109,0,0,0,36.408-3.2,3.118,3.118,0,0,0,39.648.084a2.642,2.642,0,0,0,2.124-.912V0h1.44V-8.9ZM39.828-1.2a1.873,1.873,0,0,1-1.908-2,1.873,1.873,0,0,1,1.908-2,1.873,1.873,0,0,1,1.908,2A1.873,1.873,0,0,1,39.828-1.2ZM51.2-3.168a3.125,3.125,0,0,0-3.24-3.312A3.187,3.187,0,0,0,44.652-3.2,3.254,3.254,0,0,0,48.192.084,3.248,3.248,0,0,0,50.772-.96l-.8-.924a2.3,2.3,0,0,1-1.74.7,1.939,1.939,0,0,1-2.076-1.536H51.18C51.192-2.868,51.2-3.048,51.2-3.168ZM47.964-5.28a1.744,1.744,0,0,1,1.812,1.56H46.14A1.771,1.771,0,0,1,47.964-5.28Z" transform="translate(3130.17 63)" fill="#1e1e1e"/>
    <g id="Group_10848" data-name="Group 10848" transform="translate(2452 -41)">
      <line id="Line_296" data-name="Line 296" x2="35" transform="translate(195.5 195.5)" fill="none" stroke="#707070" stroke-width="1"/>
      <path id="Path_13721" data-name="Path 13721" d="M-8625.25,16610.5l3.891,3.152-3.891,2.785" transform="translate(8851 -16418.008)" fill="none" stroke="#707070" stroke-width="1"/>
    </g>
    <g id="Group_10887" data-name="Group 10887" transform="translate(2648.5 -41)">
      <line id="Line_296-2" data-name="Line 296" x2="35.5" transform="translate(195.5 195.5)" fill="none" stroke="#707070" stroke-width="1"/>
      <path id="Path_13721-2" data-name="Path 13721" d="M-8625.25,16610.5l3.946,3.152-3.946,2.785" transform="translate(8851.433 -16418.008)" fill="none" stroke="#707070" stroke-width="1"/>
    </g>
    <g id="Group_10866" data-name="Group 10866" transform="translate(2418 339.5)">
      <line id="Line_296-3" data-name="Line 296" x2="35" transform="translate(195.5 195.5)" fill="none" stroke="#707070" stroke-width="1"/>
      <path id="Path_13721-3" data-name="Path 13721" d="M-8625.25,16610.5l3.891,3.152-3.891,2.785" transform="translate(8851 -16418.008)" fill="none" stroke="#707070" stroke-width="1"/>
    </g>
    <g id="Group_10849" data-name="Group 10849" transform="translate(2845 -41)">
      <line id="Line_296-4" data-name="Line 296" x2="35" transform="translate(195.5 195.5)" fill="none" stroke="#707070" stroke-width="1"/>
      <path id="Path_13721-4" data-name="Path 13721" d="M-8625.25,16610.5l3.891,3.152-3.891,2.785" transform="translate(8851 -16418.008)" fill="none" stroke="#707070" stroke-width="1"/>
    </g>
    <g id="Group_10851" data-name="Group 10851" transform="translate(3041 -41)">
      <line id="Line_296-5" data-name="Line 296" x2="35" transform="translate(195.5 195.5)" fill="none" stroke="#707070" stroke-width="1"/>
      <path id="Path_13721-5" data-name="Path 13721" d="M-8625.25,16610.5l3.891,3.152-3.891,2.785" transform="translate(8851 -16418.008)" fill="none" stroke="#707070" stroke-width="1"/>
    </g>
    <g id="Group_10888" data-name="Group 10888" transform="translate(3118 -41)">
      <line id="Line_296-6" data-name="Line 296" x2="19" transform="translate(211.5 195.5)" fill="none" stroke="#707070" stroke-width="1"/>
      <path id="Path_13721-6" data-name="Path 13721" d="M-8625.25,16610.5l3.891,3.152-3.891,2.785" transform="translate(8851 -16418.008)" fill="none" stroke="#707070" stroke-width="1"/>
    </g>
    <path id="Path_13721-7" data-name="Path 13721" d="M-8625.25,16610.5l3.891,3.152-3.891,3.373" transform="translate(20018.176 9061.27) rotate(90)" fill="none" stroke="#707070" stroke-width="1"/>
    <path id="Path_13758" data-name="Path 13758" d="M-8625.25,16610.5l3.891,3.152-3.891,3.373" transform="translate(-6821.487 16269.08) rotate(-175.008)" fill="none" stroke="#707070" stroke-width="1"/>
    <g id="Group_10841" data-name="Group 10841" transform="translate(2845 -137)">
      <line id="Line_296-7" data-name="Line 296" x2="16" transform="translate(214.5 195.5)" fill="none" stroke="#707070" stroke-width="1"/>
      <path id="Path_13721-8" data-name="Path 13721" d="M-8625.25,16610.5l3.891,3.152-3.891,2.785" transform="translate(8851 -16418.008)" fill="none" stroke="#707070" stroke-width="1"/>
    </g>
    <g id="Group_10852" data-name="Group 10852" transform="translate(3239.5 55.5)">
      <line id="Line_296-8" data-name="Line 296" x1="19" transform="translate(-3 3)" fill="none" stroke="#707070" stroke-width="1"/>
    </g>
    <g id="Group_10853" data-name="Group 10853" transform="translate(3239.5 340.57)">
      <line id="Line_296-9" data-name="Line 296" x1="19" transform="translate(-3 3)" fill="none" stroke="#707070" stroke-width="1"/>
    </g>
    <g id="Group_10850" data-name="Group 10850" transform="translate(2845 149.039)">
      <line id="Line_296-10" data-name="Line 296" x2="16" transform="translate(214.5 195.5)" fill="none" stroke="#707070" stroke-width="1"/>
      <path id="Path_13721-9" data-name="Path 13721" d="M-8625.25,16610.5l3.891,3.152-3.891,2.785" transform="translate(8851 -16418.008)" fill="none" stroke="#707070" stroke-width="1"/>
    </g>
    <g id="Group_10864" data-name="Group 10864" transform="translate(3063.5 420.5)">
      <line id="Line_296-11" data-name="Line 296" x1="22" transform="translate(13 3)" fill="none" stroke="#707070" stroke-width="1"/>
      <line id="Line_296-12" data-name="Line 296" x1="22" transform="translate(-54.141 3)" fill="none" stroke="#707070" stroke-width="1"/>
      <line id="Line_296-13" data-name="Line 296" x1="22" transform="translate(-54.141 114)" fill="none" stroke="#707070" stroke-width="1"/>
      <path id="Line_311" data-name="Line 311" d="M22,0H0" transform="translate(13 114)" fill="none" stroke="#707070" stroke-width="1"/>
      <path id="Path_13721-10" data-name="Path 13721" d="M-8621.35,16610.5l-3.891,3.152,3.891,2.785" transform="translate(8571.1 -16610.508)" fill="none" stroke="#707070" stroke-width="1"/>
      <path id="Path_13759" data-name="Path 13759" d="M-8621.35,16610.5l-3.891,3.152,3.891,2.785" transform="translate(8570.1 -16499.508)" fill="none" stroke="#707070" stroke-width="1"/>
    </g>
    <g id="Group_10867" data-name="Group 10867" transform="translate(2809.5 532.5)">
      <line id="Line_296-14" data-name="Line 296" x1="35" transform="translate(0 3)" fill="none" stroke="#707070" stroke-width="1"/>
      <path id="Path_13721-11" data-name="Path 13721" d="M-8621.35,16610.5l-3.891,3.152,3.891,2.785" transform="translate(8626.1 -16610.508)" fill="none" stroke="#707070" stroke-width="1"/>
    </g>
    <line id="Line_305" data-name="Line 305" y2="286" transform="translate(3059.5 58.5)" fill="none" stroke="#707070" stroke-width="1"/>
    <path id="Line_306" data-name="Line 306" d="M0,0-.22,285.491" transform="translate(3255.5 58.5)" fill="none" stroke="#707070" stroke-width="1"/>
    <g id="server" transform="translate(3345 98.467)">
      <path id="Path_13736" data-name="Path 13736" d="M12.445,51.2H45.693v70.409H12.445A3.923,3.923,0,0,1,8.533,117.7V55.112A3.923,3.923,0,0,1,12.445,51.2Z" transform="translate(-5.816 -32.888)" fill="#2c3e50"/>
      <path id="Path_13737" data-name="Path 13737" d="M8.533,55.112V70.758h37.16V51.2H12.445a3.923,3.923,0,0,0-3.912,3.912Z" transform="translate(-5.816 -32.888)" fill="#35495e"/>
      <g id="Group_10856" data-name="Group 10856" transform="translate(14.452 43.738)">
        <path id="Path_13738" data-name="Path 13738" d="M73.424,166.045H61.69a1.956,1.956,0,1,1,0-3.911H73.424a1.956,1.956,0,1,1,0,3.911Z" transform="translate(-59.734 -162.134)" fill="#547580"/>
        <path id="Path_13739" data-name="Path 13739" d="M61.69,196.267H73.424a1.956,1.956,0,0,1,0,3.911H61.69a1.956,1.956,0,0,1,0-3.911Z" transform="translate(-59.734 -188.444)" fill="#547580"/>
      </g>
      <circle id="Ellipse_405" data-name="Ellipse 405" cx="5.867" cy="5.867" r="5.867" transform="translate(16.407 65.251)" fill="#4c8056"/>
      <g id="Group_10857" data-name="Group 10857" transform="translate(8.584 18.312)">
        <path id="Path_13740" data-name="Path 13740" d="M49.78,85.333H36.09a1.956,1.956,0,1,0,0,3.911H49.78a1.956,1.956,0,0,0,0-3.911Z" transform="translate(-34.134 -77.51)" fill="#2c3e50"/>
        <path id="Path_13741" data-name="Path 13741" d="M131.912,85.333h-1.956a1.956,1.956,0,1,0,0,3.911h1.956a1.956,1.956,0,1,0,0-3.911Z" transform="translate(-106.487 -77.51)" fill="#2c3e50"/>
        <path id="Path_13742" data-name="Path 13742" d="M374.582,51.2H341.333v70.409h33.249a3.923,3.923,0,0,0,3.912-3.912V55.112a3.923,3.923,0,0,0-3.912-3.912Z" transform="translate(-270.925 -51.2)" fill="#2c3e50"/>
      </g>
      <path id="Path_13743" data-name="Path 13743" d="M378.493,55.112V70.758h-37.16V51.2h33.249a3.923,3.923,0,0,1,3.911,3.912Z" transform="translate(-262.34 -32.888)" fill="#35495e"/>
      <g id="Group_10858" data-name="Group 10858" transform="translate(88.772 43.738)">
        <path id="Path_13744" data-name="Path 13744" d="M385.956,166.045H397.69a1.956,1.956,0,1,0,0-3.911H385.956a1.956,1.956,0,1,0,0,3.911Z" transform="translate(-384 -162.134)" fill="#547580"/>
        <path id="Path_13745" data-name="Path 13745" d="M397.69,196.267H385.956a1.956,1.956,0,0,0,0,3.911H397.69a1.956,1.956,0,1,0,0-3.911Z" transform="translate(-384 -188.444)" fill="#547580"/>
      </g>
      <circle id="Ellipse_406" data-name="Ellipse 406" cx="5.867" cy="5.867" r="5.867" transform="translate(90.727 65.251)" fill="#4c8056"/>
      <g id="Group_10859" data-name="Group 10859" transform="translate(82.904 26.135)">
        <path id="Path_13746" data-name="Path 13746" d="M374.047,85.333h-13.69a1.956,1.956,0,0,0,0,3.911h13.69a1.956,1.956,0,1,0,0-3.911Z" transform="translate(-358.401 -85.333)" fill="#2c3e50"/>
        <path id="Path_13747" data-name="Path 13747" d="M456.178,85.333h-1.956a1.956,1.956,0,1,0,0,3.911h1.956a1.956,1.956,0,1,0,0-3.911Z" transform="translate(-430.753 -85.333)" fill="#2c3e50"/>
      </g>
      <path id="Path_13748" data-name="Path 13748" d="M153.6,37.87V94.588a3.923,3.923,0,0,0,3.912,3.912h39.116a3.923,3.923,0,0,0,3.912-3.912V12.445a3.923,3.923,0,0,0-3.912-3.912H157.512a3.923,3.923,0,0,0-3.912,3.912v5.867" transform="translate(-117.635)" fill="#3f5c6c"/>
      <path id="Path_13749" data-name="Path 13749" d="M200.539,12.445V32H153.6V12.445a3.923,3.923,0,0,1,3.912-3.912h39.116a3.923,3.923,0,0,1,3.911,3.912Z" transform="translate(-117.635)" fill="#547580"/>
      <circle id="Ellipse_407" data-name="Ellipse 407" cx="5.867" cy="5.867" r="5.867" transform="translate(53.567 75.03)" fill="#71c285"/>
      <g id="Group_10860" data-name="Group 10860" transform="translate(41.833 18.312)">
        <path id="Path_13750" data-name="Path 13750" d="M202.67,51.2H181.156a1.956,1.956,0,1,0,0,3.911H202.67a1.956,1.956,0,1,0,0-3.911Z" transform="translate(-179.2 -51.2)" fill="#3f5c6c"/>
        <path id="Path_13751" data-name="Path 13751" d="M311.112,51.2h-1.956a1.956,1.956,0,1,0,0,3.911h1.956a1.956,1.956,0,1,0,0-3.911Z" transform="translate(-277.864 -51.2)" fill="#3f5c6c"/>
      </g>
      <g id="Group_10861" data-name="Group 10861" transform="translate(47.7 37.87)">
        <path id="Path_13752" data-name="Path 13752" d="M206.756,140.445h19.558a1.956,1.956,0,1,0,0-3.911H206.756a1.956,1.956,0,0,0,0,3.911Z" transform="translate(-204.8 -136.534)" fill="#84b5cb"/>
        <path id="Path_13753" data-name="Path 13753" d="M226.315,170.667H206.757a1.956,1.956,0,1,0,0,3.911h19.558a1.956,1.956,0,1,0,0-3.911Z" transform="translate(-204.801 -162.844)" fill="#84b5cb"/>
        <path id="Path_13754" data-name="Path 13754" d="M226.315,204.8H206.757a1.956,1.956,0,1,0,0,3.911h19.558a1.956,1.956,0,1,0,0-3.911Z" transform="translate(-204.801 -189.154)" fill="#84b5cb"/>
      </g>
    </g>
    <path id="Line_308" data-name="Line 308" d="M0-91.489V127" transform="translate(3404.5 313)" fill="none" stroke="#707070" stroke-width="1"/>
    <g id="Rectangle_2008" data-name="Rectangle 2008" transform="translate(3098.536 471.854) rotate(-45)" fill="#fff" stroke="#707070" stroke-width="1">
      <rect width="79" height="79" stroke="none"/>
      <rect x="0.5" y="0.5" width="78" height="78" fill="none"/>
    </g>
    <line id="Line_309" data-name="Line 309" x2="91" transform="translate(3210.5 472)" fill="none" stroke="#707070" stroke-width="1"/>
    <line id="Line_310" data-name="Line 310" y2="112" transform="translate(3098.5 423)" fill="none" stroke="#707070" stroke-width="1"/>
    <g id="Group-7" data-name="Group" transform="translate(2452 -851.5)">
      <text id="Legal_Illegal" data-name="Legal / Illegal" transform="translate(660.972 1324)" fill="#1e1e1e" font-size="12" font-family="Montserrat-SemiBold, Montserrat" font-weight="600"><tspan x="0" y="0">Legal / Illegal</tspan></text>
      <text id="Vehicle" transform="translate(679.458 1339)" fill="#1e1e1e" font-size="12" font-family="Montserrat-SemiBold, Montserrat" font-weight="600"><tspan x="0" y="0">Vehicle</tspan></text>
    </g>
  </g>
</svg>
